<svg width="281" height="282" viewBox="0 0 281 282" fill="none" xmlns="http://www.w3.org/2000/svg">
<rect x="51.8394" y="0.73678" width="210.287" height="201.305" rx="19.5" transform="rotate(14.1243 51.8394 0.73678)" stroke="#FAF7F1"/>
<rect x="51.8463" y="0.73678" width="210.287" height="209.972" rx="19.5" transform="rotate(14.1243 51.8463 0.73678)" stroke="#FAF7F1"/>
<path d="M212.815 141.943C210.198 160.677 200.59 178.608 188.161 191.365C175.719 204.135 160.538 211.639 146.79 209.718C141.505 208.979 137.55 207.982 134.694 205.745C131.863 203.528 130.034 200.029 129.172 194.095C128.31 188.15 128.428 179.829 129.433 168.059C130.437 156.298 132.326 141.126 134.986 121.491C138.941 103.273 142.001 89.465 144.711 79.0442C147.425 68.6096 149.776 61.6131 152.298 56.9971C154.807 52.4029 157.456 50.2193 160.761 49.3248C164.121 48.4156 168.224 48.8144 173.719 49.5822C187.405 51.4944 198.506 65.0629 205.538 83.0579C212.554 101.014 215.436 123.183 212.815 141.943Z" stroke="#FAF7F1"/>
<path d="M203.657 139.743C201.355 156.224 192.877 171.997 181.903 183.217C170.918 194.449 157.517 201.037 145.387 199.342C140.716 198.689 137.232 197.809 134.719 195.849C132.232 193.908 130.618 190.842 129.855 185.624C129.09 180.396 129.189 173.075 130.072 162.711C130.954 152.359 132.615 139.006 134.957 121.723C138.444 105.678 141.143 93.5189 143.534 84.3435C145.927 75.1568 148 69.0032 150.223 64.9468C152.434 60.9123 154.764 59.0043 157.666 58.2235C160.622 57.428 164.238 57.779 169.099 58.4581C181.166 60.1441 190.975 72.0709 197.198 87.9157C203.406 103.722 205.964 123.235 203.657 139.743Z" stroke="#FAF7F1"/>
<path d="M146.77 82.5622C158.545 97.3672 164.921 116.685 165.603 134.483C166.286 152.298 161.265 168.471 150.4 177.112C146.224 180.433 142.776 182.612 139.187 183.142C135.63 183.666 131.834 182.581 126.939 179.116C122.036 175.645 116.087 169.827 108.248 160.989C100.416 152.158 90.7214 140.336 78.3236 124.879C67.844 109.461 59.9454 97.7294 54.2598 88.5855C48.5666 79.4296 45.1158 72.9048 43.5077 67.8968C41.9072 62.9125 42.1492 59.4885 43.7782 56.4767C45.4341 53.4152 48.5501 50.7163 52.8928 47.2624C63.7083 38.6606 81.1904 39.9638 99.0777 47.2656C116.926 54.5516 134.979 67.7371 146.77 82.5622Z" stroke="#FAF7F1"/>
<path d="M138.865 87.684C149.224 100.709 154.815 117.721 155.386 133.404C155.957 149.105 151.499 163.356 141.913 170.98C138.221 173.916 135.184 175.835 132.031 176.305C128.911 176.771 125.577 175.828 121.269 172.786C116.953 169.738 111.716 164.622 104.812 156.842C97.9172 149.07 89.3836 138.666 78.4709 125.061C69.2447 111.479 62.2915 101.145 57.2886 93.0905C52.2794 85.0262 49.2478 79.2839 47.8395 74.878C46.4388 70.4957 46.6607 67.493 48.0943 64.8516C49.5549 62.1606 52.3006 59.7819 56.1416 56.727C65.6782 49.1423 81.0802 50.251 96.8519 56.6573C112.585 63.0481 128.49 74.6389 138.865 87.684Z" stroke="#FAF7F1"/>
<path d="M110.079 105.081C116.548 113.215 120.486 123.482 121.513 132.731C122.544 142.015 120.632 150.109 115.628 154.089C113.664 155.652 112.075 156.602 110.383 156.732C108.707 156.86 106.812 156.189 104.229 154.205C101.646 152.221 98.4409 148.975 94.1607 144.073C89.8851 139.176 84.5572 132.65 77.7273 124.124C71.8683 115.701 67.4497 109.296 64.2421 104.323C61.0269 99.3378 59.049 95.8231 58.0549 93.1752C57.0653 90.5394 57.0786 88.8393 57.7379 87.4268C58.4185 85.9688 59.822 84.7249 61.8791 83.0887C64.3465 81.1265 67.7415 80.4479 71.7184 80.8383C75.6936 81.2285 80.1981 82.6831 84.8102 84.9176C94.0353 89.3869 103.596 96.9301 110.079 105.081Z" stroke="#FAF7F1"/>
<path d="M131.08 201.157C113.549 208.265 93.2173 208.918 75.9527 204.54C58.671 200.158 44.5782 190.769 39.3619 177.904C37.3568 172.959 36.2417 169.036 36.7489 165.443C37.2517 161.883 39.366 158.549 44.0733 154.834C48.7888 151.112 56.0515 147.051 66.7454 142.031C77.4308 137.016 91.5115 131.059 109.843 123.538C127.595 117.846 141.081 113.586 151.46 110.718C161.852 107.846 169.086 106.381 174.345 106.255C179.578 106.129 182.794 107.329 185.222 109.743C187.69 112.197 189.398 115.949 191.483 121.091C196.676 133.898 190.483 150.298 178.421 165.391C166.386 180.451 148.634 194.039 131.08 201.157Z" stroke="#FAF7F1"/>
<path d="M128.401 192.127C112.979 198.38 95.08 198.933 79.8751 195.046C64.6532 191.154 52.2445 182.849 47.6422 171.499C45.8697 167.127 44.8884 163.671 45.3285 160.514C45.7642 157.389 47.611 154.458 51.7469 151.186C55.891 147.908 62.279 144.331 71.6939 139.909C81.0979 135.493 93.4903 130.249 109.626 123.629C125.263 118.62 137.141 114.872 146.281 112.351C155.433 109.826 161.798 108.542 166.422 108.437C171.022 108.333 173.839 109.395 175.967 111.516C178.136 113.678 179.641 116.985 181.485 121.533C186.064 132.825 180.645 147.285 170.041 160.601C159.462 173.886 143.847 185.864 128.401 192.127Z" stroke="#FAF7F1"/>
<path d="M119.855 159.596C110.223 163.501 99.2625 164.375 90.0997 162.745C80.9039 161.109 73.68 156.986 71.2772 151.061C70.334 148.735 69.8719 146.943 70.226 145.283C70.5768 143.639 71.756 142.012 74.3894 140.095C77.023 138.178 81.0429 136.022 86.955 133.302C92.8608 130.586 100.627 127.321 110.736 123.18C120.473 119.942 127.865 117.514 133.542 115.844C139.233 114.17 143.164 113.266 145.985 113.061C148.793 112.857 150.42 113.351 151.588 114.383C152.794 115.448 153.591 117.146 154.578 119.582C155.763 122.503 155.454 125.951 153.955 129.656C152.457 133.358 149.788 137.268 146.34 141.06C139.445 148.645 129.506 155.683 119.855 159.596Z" stroke="#FAF7F1"/>
<path d="M92.1275 93.3816C101.475 92.858 108.264 96.2706 112.871 102.204C117.498 108.163 119.955 116.709 120.503 126.48C121.043 136.121 116.725 143.871 109.906 149.36C103.077 154.857 93.7446 158.078 84.3268 158.606C74.9857 159.129 65.8641 155.084 58.9312 148.455C51.9986 141.827 47.2896 132.648 46.7471 122.962C46.2128 113.424 52.7116 106.307 61.8678 101.406C71.0135 96.5111 82.6771 93.911 92.1275 93.3816Z" fill="#0A2A43" stroke="#FAF7F1"/>
<path d="M122.498 211.561C122.948 211.536 123.232 211.553 123.416 211.599C123.578 211.639 123.635 211.694 123.674 211.754C123.731 211.84 123.785 211.996 123.826 212.307C123.866 212.613 123.885 212.998 123.914 213.512C123.971 214.54 124.043 215.664 123.888 216.546C123.811 216.984 123.686 217.307 123.52 217.518C123.369 217.709 123.169 217.832 122.85 217.85C122.448 217.873 122.224 217.808 122.084 217.726C121.946 217.645 121.829 217.511 121.711 217.27C121.588 217.019 121.488 216.705 121.351 216.289C121.219 215.886 121.06 215.414 120.827 214.907L120.827 214.906C120.016 213.144 121.046 211.643 122.498 211.561Z" fill="#FAF7F1" stroke="#FAF7F1"/>
<path d="M184.203 216.877C184.653 216.852 184.937 216.868 185.121 216.914C185.283 216.955 185.34 217.01 185.379 217.069C185.436 217.155 185.49 217.312 185.531 217.622C185.571 217.928 185.59 218.313 185.619 218.827C185.676 219.855 185.748 220.979 185.593 221.861C185.516 222.299 185.391 222.623 185.225 222.834C185.074 223.025 184.874 223.148 184.555 223.166C184.153 223.188 183.929 223.123 183.789 223.041C183.651 222.961 183.534 222.827 183.416 222.586C183.293 222.334 183.193 222.02 183.056 221.605C182.924 221.201 182.765 220.73 182.532 220.222L182.532 220.222C181.721 218.46 182.751 216.958 184.203 216.877Z" fill="#FAF7F1" stroke="#FAF7F1"/>
<path d="M151.893 224.518C151.625 224.88 151.43 225.088 151.277 225.201C151.143 225.299 151.064 225.308 150.993 225.3C150.891 225.289 150.736 225.23 150.471 225.063C150.21 224.899 149.902 224.667 149.488 224.361C148.66 223.749 147.75 223.085 147.17 222.403C146.882 222.064 146.713 221.761 146.657 221.498C146.606 221.261 146.64 221.028 146.83 220.771C147.069 220.448 147.262 220.316 147.415 220.261C147.565 220.207 147.742 220.202 148.003 220.265C148.276 220.331 148.581 220.455 148.988 220.615C149.383 220.771 149.847 220.95 150.387 221.095L150.387 221.095C152.261 221.597 152.758 223.349 151.893 224.518Z" fill="#FAF7F1" stroke="#FAF7F1"/>
<path d="M32.0219 146.44C31.7537 146.802 31.5594 147.01 31.4061 147.122C31.2718 147.221 31.1929 147.23 31.1222 147.222C31.02 147.211 30.8647 147.152 30.6001 146.985C30.3391 146.82 30.0305 146.589 29.6169 146.283C28.789 145.67 27.8787 145.007 27.2988 144.325C27.0112 143.986 26.8422 143.683 26.786 143.42C26.7352 143.182 26.7688 142.95 26.9587 142.693C27.198 142.369 27.3913 142.238 27.5437 142.183C27.6938 142.129 27.8714 142.124 28.1322 142.187C28.4049 142.253 28.71 142.377 29.1173 142.537C29.512 142.693 29.9764 142.872 30.5155 143.017L30.5163 143.017C32.3895 143.519 32.8868 145.271 32.0219 146.44Z" fill="#FAF7F1" stroke="#FAF7F1"/>
<path d="M25.7921 173.969C25.4856 173.638 25.3172 173.409 25.235 173.237C25.1631 173.087 25.1687 173.008 25.1896 172.94C25.2198 172.842 25.3059 172.7 25.519 172.471C25.7291 172.245 26.0135 171.984 26.3908 171.634C27.146 170.934 27.9661 170.162 28.7441 169.718C29.1302 169.498 29.4589 169.388 29.7277 169.382C29.9708 169.376 30.1935 169.452 30.4107 169.686C30.6843 169.981 30.7776 170.195 30.8035 170.355C30.8291 170.513 30.8008 170.688 30.6905 170.933C30.5753 171.188 30.3976 171.465 30.1645 171.836C29.9385 172.195 29.6765 172.618 29.4346 173.121L29.4339 173.122C28.5942 174.87 26.7807 175.035 25.7921 173.969Z" fill="#FAF7F1" stroke="#FAF7F1"/>
<path d="M38.8221 106.195C39.1474 105.883 39.3739 105.711 39.544 105.626C39.6929 105.551 39.7723 105.556 39.8406 105.575C39.9394 105.604 40.0827 105.688 40.3153 105.897C40.5449 106.103 40.8102 106.383 41.1663 106.754C41.8793 107.498 42.6649 108.305 43.1216 109.075C43.3482 109.457 43.4638 109.784 43.4749 110.053C43.4849 110.296 43.4126 110.52 43.1822 110.741C42.8918 111.02 42.6792 111.116 42.5197 111.145C42.3626 111.173 42.1868 111.148 41.9403 111.042C41.6826 110.931 41.4027 110.758 41.0282 110.531C40.6653 110.311 40.2377 110.056 39.7306 109.823L39.73 109.822C37.968 109.012 37.7727 107.202 38.8221 106.195Z" fill="#FAF7F1" stroke="#FAF7F1"/>
<path d="M48.2527 196.308C48.578 195.996 48.8046 195.824 48.9746 195.739C49.1236 195.665 49.2029 195.669 49.2713 195.689C49.3701 195.717 49.5134 195.801 49.746 196.01C49.9756 196.216 50.2408 196.496 50.597 196.868C51.3099 197.611 52.0956 198.418 52.5523 199.188C52.7788 199.571 52.8945 199.898 52.9055 200.166C52.9155 200.409 52.8433 200.633 52.6128 200.854C52.3225 201.133 52.1099 201.23 51.9503 201.258C51.7933 201.287 51.6175 201.261 51.3709 201.155C51.1133 201.044 50.8333 200.871 50.4588 200.644C50.0959 200.424 49.6684 200.17 49.1613 199.936L49.1606 199.936C47.3987 199.125 47.2034 197.315 48.2527 196.308Z" fill="#FAF7F1" stroke="#FAF7F1"/>
<path d="M134.936 53.4815C134.487 53.5155 134.203 53.5043 134.017 53.4618C133.855 53.4246 133.796 53.3709 133.756 53.3121C133.698 53.2273 133.641 53.0716 133.594 52.7622C133.548 52.457 133.522 52.0723 133.483 51.5592C133.405 50.5322 133.312 49.4098 133.449 48.5248C133.518 48.0857 133.636 47.7599 133.798 47.5455C133.945 47.3516 134.143 47.2247 134.462 47.2006C134.863 47.1703 135.089 47.2307 135.23 47.31C135.369 47.3881 135.489 47.5195 135.612 47.7581C135.74 48.0076 135.846 48.3191 135.991 48.7323C136.131 49.1328 136.299 49.6013 136.542 50.1039L136.542 50.1048C137.387 51.8504 136.386 53.372 134.936 53.4815Z" fill="#FAF7F1" stroke="#FAF7F1"/>
<path d="M61.9755 29.7921C61.5261 29.826 61.2417 29.8149 61.0564 29.7724C60.8941 29.7351 60.8355 29.6814 60.7953 29.6227C60.7373 29.5378 60.6799 29.3821 60.6333 29.0728C60.5874 28.7676 60.5606 28.3828 60.5218 27.8697C60.4442 26.8427 60.351 25.7203 60.4884 24.8353C60.5567 24.3962 60.6752 24.0705 60.8375 23.856C60.9843 23.6622 61.1825 23.5353 61.5009 23.5111C61.9021 23.4808 62.1278 23.5412 62.2692 23.6206C62.4083 23.6987 62.5279 23.83 62.6507 24.0687C62.779 24.3181 62.8851 24.6296 63.0299 25.0429C63.1701 25.4433 63.338 25.9119 63.581 26.4144L63.5811 26.4154C64.4259 28.161 63.4253 29.6825 61.9755 29.7921Z" fill="#FAF7F1" stroke="#FAF7F1"/>
<path d="M95.6718 30.0806C95.9329 29.7131 96.1231 29.5015 96.2742 29.3861C96.4065 29.285 96.4853 29.2743 96.5561 29.2809C96.6585 29.2904 96.8149 29.3458 97.0827 29.5076C97.3469 29.6672 97.6599 29.8925 98.0794 30.1904C98.919 30.7869 99.8421 31.4323 100.435 32.1034C100.729 32.4364 100.904 32.7357 100.965 32.9976C101.021 33.2344 100.992 33.4679 100.807 33.7283C100.574 34.0563 100.383 34.1914 100.232 34.2494C100.083 34.3065 99.9055 34.3146 99.6434 34.2566C99.3696 34.196 99.0621 34.0786 98.6517 33.9259C98.2541 33.778 97.7863 33.6078 97.2445 33.4737L97.2437 33.4731C95.3611 33.0077 94.8298 31.2659 95.6718 30.0806Z" fill="#FAF7F1" stroke="#FAF7F1"/>
<path d="M229.09 89.8203C229.347 89.4594 229.533 89.2356 229.68 89.1026C229.823 88.9742 229.887 88.9685 229.903 88.9675C229.93 88.9659 230.002 88.9723 230.173 89.069C230.347 89.1674 230.552 89.3154 230.851 89.5278C231.449 89.9528 232.057 90.3781 232.411 90.8555C232.58 91.0835 232.666 91.2912 232.678 91.4861C232.69 91.6728 232.64 91.9044 232.433 92.195C232.195 92.5303 232.011 92.6906 231.871 92.7685C231.746 92.8386 231.624 92.8597 231.461 92.8457C231.274 92.8298 231.068 92.7726 230.755 92.6893C230.458 92.61 230.097 92.5179 229.67 92.4683C229.046 92.3961 228.727 92.0529 228.621 91.6107C228.506 91.1321 228.631 90.467 229.09 89.8203Z" fill="#FAF7F1" stroke="#FAF7F1"/>
<path d="M219.64 67.629C219.702 67.5415 219.751 67.4809 219.788 67.438C219.835 67.4698 219.899 67.5098 219.987 67.5723C220.255 67.7628 220.468 67.9153 220.586 68.0732C220.636 68.1416 220.642 68.1784 220.642 68.189C220.643 68.1936 220.646 68.2284 220.591 68.3048C220.508 68.4214 220.46 68.4549 220.448 68.4621C220.446 68.462 220.442 68.4616 220.437 68.4612C220.389 68.4571 220.33 68.4415 220.187 68.4034C220.059 68.3692 219.888 68.3251 219.684 68.3015C219.597 68.2913 219.555 68.2641 219.536 68.2475C219.517 68.2305 219.498 68.2035 219.486 68.1558C219.461 68.0513 219.481 67.8529 219.64 67.629Z" fill="#FAF7F1" stroke="#FAF7F1"/>
<path d="M191.274 187.638C191.336 187.55 191.385 187.49 191.421 187.447C191.469 187.479 191.533 187.519 191.621 187.581C191.889 187.772 192.102 187.924 192.219 188.082C192.27 188.15 192.275 188.187 192.276 188.198C192.277 188.202 192.279 188.237 192.225 188.314C192.142 188.43 192.094 188.464 192.082 188.471C192.079 188.471 192.076 188.47 192.071 188.47C192.023 188.466 191.964 188.45 191.821 188.412C191.692 188.378 191.522 188.334 191.318 188.31C191.23 188.3 191.189 188.273 191.17 188.256C191.15 188.239 191.131 188.212 191.12 188.165C191.095 188.06 191.115 187.862 191.274 187.638Z" fill="#FAF7F1" stroke="#FAF7F1"/>
<path d="M223.848 64.4698C223.91 64.3823 223.959 64.3217 223.996 64.2788C224.043 64.3106 224.107 64.3506 224.195 64.4132C224.463 64.6037 224.676 64.7561 224.794 64.914C224.844 64.9824 224.85 65.0192 224.85 65.0298C224.851 65.0344 224.854 65.0692 224.799 65.1456C224.716 65.2622 224.668 65.2957 224.656 65.3029C224.654 65.3028 224.65 65.3024 224.645 65.302C224.597 65.2979 224.538 65.2824 224.395 65.2442C224.267 65.21 224.096 65.166 223.892 65.1423C223.805 65.1321 223.763 65.1049 223.744 65.0883C223.725 65.0714 223.706 65.0444 223.694 64.9966C223.669 64.8922 223.689 64.6937 223.848 64.4698Z" fill="#FAF7F1" stroke="#FAF7F1"/>
<path d="M190.726 47.3194C190.788 47.2319 190.837 47.1713 190.873 47.1284C190.921 47.1602 190.985 47.2002 191.073 47.2628C191.341 47.4533 191.554 47.6058 191.672 47.7637C191.722 47.832 191.728 47.8688 191.728 47.8794C191.729 47.8841 191.731 47.9188 191.677 47.9952C191.594 48.1118 191.546 48.1453 191.534 48.1525C191.532 48.1524 191.528 48.152 191.523 48.1516C191.475 48.1475 191.416 48.132 191.273 48.0938C191.145 48.0596 190.974 48.0156 190.77 47.9919C190.682 47.9817 190.641 47.9546 190.622 47.9379C190.603 47.921 190.583 47.894 190.572 47.8462C190.547 47.7418 190.567 47.5433 190.726 47.3194Z" fill="#FAF7F1" stroke="#FAF7F1"/>
<path d="M149.103 35.0313C149.165 34.9439 149.214 34.8832 149.25 34.8403C149.298 34.8721 149.362 34.9121 149.45 34.9747C149.718 35.1652 149.931 35.3177 150.049 35.4756C150.099 35.5439 150.105 35.5807 150.105 35.5913C150.106 35.596 150.108 35.6307 150.054 35.7071C149.971 35.8237 149.923 35.8572 149.911 35.8644C149.909 35.8643 149.905 35.8639 149.9 35.8635C149.852 35.8594 149.793 35.8439 149.65 35.8057C149.522 35.7715 149.351 35.7275 149.147 35.7038C149.059 35.6936 149.018 35.6665 148.999 35.6498C148.98 35.6329 148.96 35.6059 148.949 35.5581C148.924 35.4537 148.944 35.2552 149.103 35.0313Z" fill="#FAF7F1" stroke="#FAF7F1"/>
<path d="M121.985 46.7842C122.047 46.6968 122.096 46.6362 122.132 46.5933C122.18 46.625 122.243 46.6651 122.331 46.7276C122.6 46.9181 122.813 47.0706 122.93 47.2285C122.981 47.2969 122.986 47.3337 122.987 47.3443C122.987 47.3489 122.99 47.3836 122.936 47.4601C122.853 47.5766 122.805 47.6101 122.793 47.6173C122.79 47.6173 122.787 47.6169 122.782 47.6165C122.734 47.6123 122.675 47.5968 122.532 47.5586C122.403 47.5244 122.233 47.4804 122.029 47.4568C121.941 47.4465 121.9 47.4194 121.881 47.4028C121.861 47.3858 121.842 47.3588 121.831 47.3111C121.806 47.2066 121.826 47.0081 121.985 46.7842Z" fill="#FAF7F1" stroke="#FAF7F1"/>
<path d="M63.4778 124.621C63.5399 124.534 63.5887 124.473 63.6254 124.43C63.6732 124.462 63.7366 124.502 63.8246 124.565C64.0928 124.755 64.3064 124.908 64.4235 125.065C64.4742 125.134 64.4796 125.171 64.4803 125.181C64.4807 125.186 64.4834 125.221 64.4291 125.297C64.3463 125.414 64.2981 125.447 64.2863 125.454C64.2835 125.454 64.2798 125.454 64.2749 125.453C64.2269 125.449 64.1681 125.434 64.0249 125.396C63.8966 125.361 63.7257 125.317 63.5223 125.294C63.4344 125.283 63.3928 125.256 63.3738 125.24C63.3545 125.223 63.3354 125.196 63.3239 125.148C63.2989 125.044 63.3187 124.845 63.4778 124.621Z" fill="#FAF7F1" stroke="#FAF7F1"/>
<path d="M82.5393 21.2169C82.6014 21.1294 82.6503 21.0688 82.6869 21.0259C82.7347 21.0577 82.7981 21.0977 82.8862 21.1602C83.1544 21.3507 83.3679 21.5032 83.4851 21.6611C83.5357 21.7295 83.5411 21.7663 83.5418 21.7769C83.5422 21.7815 83.5449 21.8162 83.4907 21.8927C83.4079 22.0093 83.3596 22.0428 83.3478 22.05C83.345 22.0499 83.3413 22.0495 83.3365 22.0491C83.2884 22.045 83.2296 22.0294 83.0864 21.9913C82.9581 21.9571 82.7873 21.913 82.5838 21.8894C82.496 21.8792 82.4543 21.852 82.4353 21.8354C82.4161 21.8184 82.3969 21.7914 82.3855 21.7437C82.3604 21.6392 82.3802 21.4407 82.5393 21.2169Z" fill="#FAF7F1" stroke="#FAF7F1"/>
<path d="M70.8781 21.8702C70.9403 21.7827 70.9891 21.7221 71.0258 21.6792C71.0736 21.711 71.137 21.751 71.225 21.8135C71.4932 22.0041 71.7068 22.1565 71.8239 22.3144C71.8746 22.3828 71.88 22.4196 71.8807 22.4302C71.881 22.4348 71.8838 22.4696 71.8295 22.546C71.7467 22.6626 71.6984 22.6961 71.6867 22.7033C71.6839 22.7032 71.6802 22.7028 71.6753 22.7024C71.6273 22.6983 71.5685 22.6828 71.4253 22.6446C71.297 22.6104 71.1261 22.5663 70.9227 22.5427C70.8348 22.5325 70.7931 22.5053 70.7742 22.4887C70.7549 22.4717 70.7358 22.4448 70.7243 22.397C70.6993 22.2925 70.7191 22.0941 70.8781 21.8702Z" fill="#FAF7F1" stroke="#FAF7F1"/>
<path d="M113.551 26.7891C113.613 26.7017 113.662 26.641 113.699 26.5981C113.746 26.6299 113.81 26.67 113.898 26.7325C114.166 26.923 114.38 27.0755 114.497 27.2334C114.547 27.3017 114.553 27.3385 114.554 27.3491C114.554 27.3538 114.557 27.3885 114.502 27.465C114.42 27.5815 114.371 27.615 114.36 27.6222C114.357 27.6222 114.353 27.6217 114.348 27.6213C114.3 27.6172 114.241 27.6017 114.098 27.5635C113.97 27.5293 113.799 27.4853 113.596 27.4616C113.508 27.4514 113.466 27.4243 113.447 27.4077C113.428 27.3907 113.409 27.3637 113.397 27.3159C113.372 27.2115 113.392 27.013 113.551 26.7891Z" fill="#FAF7F1" stroke="#FAF7F1"/>
<path d="M212.142 142.609C212.204 142.522 212.253 142.461 212.289 142.418C212.337 142.45 212.401 142.49 212.489 142.553C212.757 142.743 212.97 142.896 213.088 143.054C213.138 143.122 213.144 143.159 213.144 143.169C213.145 143.174 213.147 143.209 213.093 143.285C213.01 143.402 212.962 143.435 212.95 143.443C212.948 143.442 212.944 143.442 212.939 143.442C212.891 143.438 212.832 143.422 212.689 143.384C212.561 143.35 212.39 143.306 212.186 143.282C212.098 143.272 212.057 143.245 212.038 143.228C212.019 143.211 211.999 143.184 211.988 143.136C211.963 143.032 211.983 142.833 212.142 142.609Z" fill="#FAF7F1" stroke="#FAF7F1"/>
<path d="M202.117 172.41C202.18 172.323 202.228 172.262 202.265 172.219C202.313 172.251 202.376 172.291 202.464 172.354C202.732 172.544 202.946 172.697 203.063 172.854C203.114 172.923 203.119 172.96 203.12 172.97C203.12 172.975 203.123 173.01 203.069 173.086C202.986 173.203 202.938 173.236 202.926 173.243C202.923 173.243 202.919 173.243 202.915 173.242C202.867 173.238 202.808 173.223 202.665 173.185C202.536 173.15 202.365 173.106 202.162 173.083C202.074 173.073 202.032 173.045 202.013 173.029C201.994 173.012 201.975 172.985 201.964 172.937C201.939 172.833 201.958 172.634 202.117 172.41Z" fill="#FAF7F1" stroke="#FAF7F1"/>
<path d="M204.137 156.216C204.199 156.128 204.248 156.068 204.285 156.025C204.332 156.057 204.396 156.097 204.484 156.159C204.752 156.35 204.966 156.502 205.083 156.66C205.133 156.728 205.139 156.765 205.139 156.776C205.14 156.781 205.143 156.815 205.088 156.892C205.006 157.008 204.957 157.042 204.945 157.049C204.943 157.049 204.939 157.049 204.934 157.048C204.886 157.044 204.827 157.028 204.684 156.99C204.556 156.956 204.385 156.912 204.181 156.888C204.094 156.878 204.052 156.851 204.033 156.834C204.014 156.817 203.995 156.79 203.983 156.743C203.958 156.638 203.978 156.44 204.137 156.216Z" fill="#FAF7F1" stroke="#FAF7F1"/>
<path d="M182.778 192.5C182.84 192.413 182.889 192.352 182.925 192.309C182.973 192.341 183.036 192.381 183.124 192.443C183.393 192.634 183.606 192.786 183.723 192.944C183.774 193.013 183.779 193.049 183.78 193.06C183.78 193.065 183.783 193.099 183.729 193.176C183.646 193.292 183.598 193.326 183.586 193.333C183.583 193.333 183.58 193.333 183.575 193.332C183.527 193.328 183.468 193.313 183.325 193.274C183.196 193.24 183.026 193.196 182.822 193.173C182.734 193.162 182.693 193.135 182.674 193.119C182.654 193.102 182.635 193.075 182.624 193.027C182.599 192.922 182.619 192.724 182.778 192.5Z" fill="#FAF7F1" stroke="#FAF7F1"/>
<path d="M184.79 176.305C184.852 176.217 184.901 176.157 184.938 176.114C184.986 176.146 185.049 176.186 185.137 176.248C185.405 176.439 185.619 176.591 185.736 176.749C185.787 176.817 185.792 176.854 185.793 176.865C185.793 176.869 185.796 176.904 185.742 176.981C185.659 177.097 185.611 177.131 185.599 177.138C185.596 177.138 185.592 177.137 185.587 177.137C185.539 177.133 185.481 177.117 185.337 177.079C185.209 177.045 185.038 177.001 184.835 176.977C184.747 176.967 184.705 176.94 184.686 176.923C184.667 176.906 184.648 176.879 184.636 176.832C184.611 176.727 184.631 176.529 184.79 176.305Z" fill="#FAF7F1" stroke="#FAF7F1"/>
<path d="M106.828 193.829C106.89 193.742 106.939 193.681 106.976 193.638C107.024 193.67 107.087 193.71 107.175 193.773C107.443 193.963 107.657 194.116 107.774 194.273C107.825 194.342 107.83 194.379 107.831 194.389C107.831 194.394 107.834 194.429 107.78 194.505C107.697 194.622 107.649 194.655 107.637 194.662C107.634 194.662 107.63 194.662 107.626 194.661C107.577 194.657 107.519 194.642 107.375 194.604C107.247 194.569 107.076 194.525 106.873 194.502C106.785 194.491 106.743 194.464 106.724 194.448C106.705 194.431 106.686 194.404 106.675 194.356C106.65 194.252 106.669 194.053 106.828 193.829Z" fill="#FAF7F1" stroke="#FAF7F1"/>
<path d="M91.6965 210.759C91.7586 210.671 91.8075 210.611 91.8442 210.568C91.892 210.6 91.9554 210.64 92.0434 210.702C92.3116 210.893 92.5251 211.045 92.6423 211.203C92.693 211.271 92.6983 211.308 92.699 211.319C92.6994 211.324 92.7021 211.358 92.6479 211.435C92.5651 211.551 92.5168 211.585 92.505 211.592C92.5023 211.592 92.4985 211.591 92.4937 211.591C92.4456 211.587 92.3869 211.571 92.2437 211.533C92.1153 211.499 91.9445 211.455 91.7411 211.431C91.6532 211.421 91.6115 211.394 91.5925 211.377C91.5733 211.36 91.5541 211.333 91.5427 211.286C91.5177 211.181 91.5375 210.983 91.6965 210.759Z" fill="#FAF7F1" stroke="#FAF7F1"/>
<path d="M33.469 189.168C33.5311 189.081 33.5799 189.02 33.6166 188.977C33.6644 189.009 33.7278 189.049 33.8159 189.111C34.0841 189.302 34.2976 189.454 34.4148 189.612C34.4654 189.681 34.4708 189.717 34.4715 189.728C34.4719 189.733 34.4746 189.767 34.4204 189.844C34.3375 189.96 34.2893 189.994 34.2775 190.001C34.2747 190.001 34.271 190.001 34.2661 190C34.2181 189.996 34.1593 189.981 34.0161 189.942C33.8878 189.908 33.717 189.864 33.5135 189.841C33.4256 189.83 33.384 189.803 33.365 189.787C33.3457 189.77 33.3266 189.743 33.3152 189.695C33.2901 189.59 33.3099 189.392 33.469 189.168Z" fill="#FAF7F1" stroke="#FAF7F1"/>
<path d="M37.7336 134.836C37.7957 134.749 37.8446 134.688 37.8813 134.645C37.9291 134.677 37.9925 134.717 38.0805 134.779C38.3487 134.97 38.5622 135.122 38.6794 135.28C38.7301 135.349 38.7354 135.385 38.7361 135.396C38.7365 135.401 38.7393 135.435 38.685 135.512C38.6022 135.628 38.5539 135.662 38.5421 135.669C38.5394 135.669 38.5356 135.669 38.5308 135.668C38.4827 135.664 38.424 135.649 38.2808 135.61C38.1525 135.576 37.9816 135.532 37.7782 135.509C37.6903 135.498 37.6486 135.471 37.6296 135.455C37.6104 135.438 37.5913 135.411 37.5798 135.363C37.5548 135.258 37.5746 135.06 37.7336 134.836Z" fill="#FAF7F1" stroke="#FAF7F1"/>
<path d="M71.9797 119.761C72.0418 119.673 72.0907 119.613 72.1274 119.57C72.1752 119.602 72.2386 119.642 72.3266 119.704C72.5948 119.895 72.8083 120.047 72.9255 120.205C72.9762 120.273 72.9815 120.31 72.9822 120.321C72.9826 120.325 72.9853 120.36 72.9311 120.437C72.8483 120.553 72.8 120.587 72.7882 120.594C72.7855 120.594 72.7817 120.593 72.7769 120.593C72.7288 120.589 72.6701 120.573 72.5269 120.535C72.3985 120.501 72.2277 120.457 72.0243 120.433C71.9364 120.423 71.8947 120.396 71.8757 120.379C71.8565 120.362 71.8374 120.335 71.8259 120.288C71.8009 120.183 71.8207 119.985 71.9797 119.761Z" fill="#FAF7F1" stroke="#FAF7F1"/>
<path d="M71.6662 140.245C71.7284 140.158 71.7772 140.097 71.8139 140.054C71.8617 140.086 71.9251 140.126 72.0131 140.189C72.2813 140.379 72.4949 140.532 72.612 140.689C72.6627 140.758 72.6681 140.795 72.6687 140.805C72.6691 140.81 72.6719 140.845 72.6176 140.921C72.5348 141.038 72.4865 141.071 72.4748 141.078C72.472 141.078 72.4683 141.078 72.4634 141.077C72.4154 141.073 72.3566 141.058 72.2134 141.02C72.0851 140.985 71.9142 140.941 71.7108 140.918C71.6229 140.907 71.5812 140.88 71.5623 140.864C71.543 140.847 71.5239 140.82 71.5124 140.772C71.4874 140.668 71.5072 140.469 71.6662 140.245Z" fill="#FAF7F1" stroke="#FAF7F1"/>
<path d="M74.1574 106.481C74.2196 106.393 74.2684 106.332 74.3051 106.29C74.3529 106.321 74.4163 106.361 74.5043 106.424C74.7725 106.614 74.9861 106.767 75.1032 106.925C75.1539 106.993 75.1593 107.03 75.16 107.041C75.1603 107.045 75.1631 107.08 75.1088 107.156C75.026 107.273 74.9777 107.306 74.966 107.314C74.9632 107.314 74.9595 107.313 74.9546 107.313C74.9066 107.309 74.8478 107.293 74.7046 107.255C74.5763 107.221 74.4054 107.177 74.202 107.153C74.1141 107.143 74.0724 107.116 74.0535 107.099C74.0342 107.082 74.0151 107.055 74.0036 107.007C73.9786 106.903 73.9984 106.704 74.1574 106.481Z" fill="#FAF7F1" stroke="#FAF7F1"/>
<path d="M61.4475 114.502C61.5096 114.415 61.5585 114.354 61.5951 114.311C61.6429 114.343 61.7063 114.383 61.7944 114.445C62.0626 114.636 62.2761 114.788 62.3933 114.946C62.4439 115.015 62.4493 115.051 62.45 115.062C62.4504 115.067 62.4531 115.101 62.3989 115.178C62.3161 115.294 62.2678 115.328 62.256 115.335C62.2532 115.335 62.2495 115.335 62.2447 115.334C62.1966 115.33 62.1378 115.315 61.9946 115.276C61.8663 115.242 61.6955 115.198 61.492 115.175C61.4042 115.164 61.3625 115.137 61.3435 115.121C61.3243 115.104 61.3051 115.077 61.2937 115.029C61.2686 114.924 61.2884 114.726 61.4475 114.502Z" fill="#FAF7F1" stroke="#FAF7F1"/>
<path d="M204.511 59.626C204.824 59.9505 204.996 60.1766 205.082 60.3464C205.157 60.4951 205.153 60.5745 205.133 60.6429C205.105 60.7418 205.021 60.8853 204.813 61.1185C204.607 61.3486 204.328 61.6146 203.958 61.9717C203.216 62.6865 202.411 63.4743 201.642 63.933C201.26 64.1606 200.934 64.277 200.665 64.2888C200.422 64.2995 200.198 64.2278 199.976 63.9979C199.697 63.7083 199.6 63.4959 199.571 63.3365C199.542 63.1795 199.567 63.0036 199.672 62.7568C199.783 62.4989 199.955 62.2185 200.181 61.8434C200.4 61.4799 200.653 61.0517 200.885 60.544L200.886 60.5433C201.692 58.7793 203.502 58.5793 204.511 59.626Z" fill="#FAF7F1" stroke="#FAF7F1"/>
<path d="M226.829 135.993C226.51 136.311 226.287 136.488 226.118 136.576C225.971 136.653 225.891 136.651 225.823 136.632C225.723 136.606 225.579 136.525 225.342 136.32C225.108 136.118 224.838 135.844 224.474 135.479C223.747 134.75 222.946 133.958 222.474 133.197C222.24 132.819 222.118 132.495 222.102 132.226C222.087 131.984 222.155 131.758 222.381 131.533C222.666 131.249 222.877 131.148 223.036 131.116C223.192 131.085 223.369 131.107 223.617 131.208C223.877 131.314 224.16 131.481 224.539 131.701C224.906 131.914 225.339 132.16 225.85 132.384L225.851 132.384C227.628 133.16 227.859 134.966 226.829 135.993Z" fill="#FAF7F1" stroke="#FAF7F1"/>
<path d="M168.812 39.8279C168.493 40.1462 168.27 40.3227 168.102 40.4111C167.954 40.4884 167.875 40.4857 167.806 40.4673C167.707 40.4407 167.562 40.3598 167.325 40.1552C167.092 39.9534 166.821 39.6786 166.458 39.3143C165.73 38.585 164.929 37.7935 164.458 37.0321C164.224 36.6543 164.102 36.3298 164.085 36.0613C164.071 35.8186 164.139 35.5933 164.365 35.3677C164.65 35.0836 164.86 34.9826 165.019 34.9509C165.176 34.9197 165.352 34.9415 165.601 35.0428C165.86 35.1487 166.144 35.3162 166.522 35.5358C166.89 35.7486 167.322 35.9951 167.833 36.2185L167.834 36.2192C169.612 36.9949 169.842 38.8012 168.812 39.8279Z" fill="#FAF7F1" stroke="#FAF7F1"/>
<path d="M193.723 198.983C191.477 204.056 189.932 209.34 189.868 210.319C189.586 211.087 189.227 211.782 189.125 212.288C188.987 213.231 188.686 214.145 188.109 214.983C187.416 215.636 186.63 216.413 185.414 216.519C183.747 216.663 182.25 216.748 181.479 216.293C181.099 216.069 180.731 215.727 180.634 214.989C180.399 213.206 182.702 206.593 182.7 201.65C182.699 199.988 181.806 193.576 179.268 185.523C178.144 181.955 177.689 180.377 176.455 178.312C173.237 172.93 173.009 170.447 173.124 167.877C173.216 165.824 172.744 162.556 174.816 161.717C175.692 161.363 176.941 161.204 178.154 161.721C180.527 162.731 182.019 165.166 183.843 165.89C184.25 166.052 184.819 165.95 185.247 165.567C186.137 164.772 187.014 163.743 186.811 162.719C186.218 159.723 183.375 155.925 181.361 144.597C180.429 139.357 180.179 136.509 180.576 135.64C180.766 135.225 181.083 134.912 181.478 134.836C181.873 134.761 182.388 134.861 182.691 135.215C183.305 135.934 183.163 138.023 184.486 140.037C184.772 140.472 185.167 140.75 185.573 140.765C185.979 140.78 186.452 140.584 186.691 140.142C187.198 139.2 187.587 138.107 187.397 132.56C187.226 127.543 186.812 118.322 186.634 113.477C186.456 108.633 186.468 108.16 186.675 107.728C187.1 106.845 188.046 104.328 192.073 103.362C193.714 102.969 195.085 102.788 195.948 103.306C196.38 103.564 196.718 103.999 197.023 104.444C198.238 106.216 199.995 108.113 200.229 110.521C200.637 114.744 200.045 119.473 201.582 122.074C201.825 122.485 202.224 122.933 202.628 122.818C203.49 122.572 205.099 121.272 206.005 119.28C207.248 116.544 209.127 110.628 207.318 108.143C206.136 106.519 204.505 103.813 204.419 101.204C204.403 100.69 204.435 100.037 205.255 99.9247L205.339 99.913C207.568 99.6061 210.621 99.1856 211.587 100.851C212.11 101.751 212.226 102.794 212.547 103.747C212.712 104.236 213.005 104.7 214.185 103.891C215.364 103.082 217.553 101.214 218.583 99.8024C221.682 95.5577 224.31 89.7137 225.835 85.9065C228.307 79.7389 229.436 76.9581 231.504 75.6135C232.525 74.949 234.275 74.4423 236.227 74.735C237.035 74.8563 237.598 75.0667 237.721 75.6665C238.01 77.0765 238.235 78.7351 237.695 80.0409C236.697 82.4531 235.583 84.3537 233.941 87.4573C231.622 91.8426 230.708 94.2229 228.5 96.009C226.307 97.7826 222.9 99.5667 222.912 101.953C222.923 104.007 222.877 105.894 223.438 106.67C223.694 107.024 224.128 107.289 224.535 107.12C225.422 106.753 226.874 105.033 229.412 104.136C233.898 102.552 241.069 101.693 241.213 103.976C241.367 106.43 239.977 109.8 237.245 113.598C235.662 115.798 231.961 119.497 227.65 123.872C225.462 126.091 221.593 128.73 217.614 131.893C212.89 135.648 208.105 139.026 207.392 141.887C207.255 142.436 207.285 142.965 207.525 143.267C207.766 143.568 208.207 143.681 208.685 143.615C209.676 143.477 210.69 143.28 211.971 142.541C216.264 140.068 224.383 136.408 225.616 139.505C225.905 140.231 226.064 141.229 225.642 142.127C225.193 143.082 224.582 144.252 223.703 145.265C222.17 147.031 220.312 148.73 217.192 151.178C207.919 158.456 205.327 160.569 205.015 162.572C204.942 163.045 204.929 163.627 205.32 163.665C206.324 163.762 211.05 161.298 215.234 161.782C216.322 161.908 217.838 161.943 217.924 162.843C218.132 164.995 218.144 170.481 214.807 173.92C212.592 176.202 206.69 179.578 201.004 184.733C196.997 188.366 196.175 193.444 193.723 198.983Z" fill="#0A2A43" stroke="#FAF7F1" stroke-linecap="round"/>
<path d="M98.063 163.307C98.1597 160.915 98.0895 158.33 98.0836 156.745C98.404 155.658 98.6411 155.082 98.8583 154.619C99.1464 154.004 99.3919 153.599 99.7145 153.531C100.425 153.725 101.14 154.431 101.942 155.079C103.978 156.726 107.261 158.432 109.246 158.346C109.75 158.324 110.377 158.254 110.695 157.712C111.421 156.476 111.95 155.153 111.691 154.176C111.427 153.185 110.885 152.028 109.919 150.24C107.066 144.961 104.281 142.261 104.211 139.57C104.156 137.489 103.797 134.936 105.197 133.834C105.521 133.579 106.078 133.351 106.448 133.625C107.996 134.774 108.604 137.47 110.741 138.369C113.961 139.723 117.564 141.641 118.806 139.768C119.436 138.817 119.964 137.666 120.068 136.552C120.272 134.378 120.51 131.748 119.643 129.935C118.716 127.995 117.191 125.873 116.538 123.519C116.233 122.423 116.322 120.671 117.503 118.576C119.793 114.512 122.316 111.971 124.316 110.662C126.485 109.243 129.576 107.756 130.57 105.545C131.42 103.654 131.921 101.91 131.307 101.352C131.015 101.087 130.575 100.937 130 101.001C127.143 101.322 122.627 102.188 117.632 106.322C114.212 109.151 112.978 112.188 110.731 112.203C109.5 112.211 102.788 108.102 97.962 108.108L97.8918 108.108C95.6 108.111 91.8737 108.115 90.8495 110.033C90.3249 111.015 89.7773 112.216 90.3591 112.916C91.9055 114.777 96.7277 116.171 97.5921 118.507C97.7384 118.903 97.6846 119.381 97.4259 119.74C97.1672 120.1 96.7366 120.394 96.2355 120.521C93.3763 121.245 87.1848 122.247 82.1976 122.971C79.3844 123.379 75.7732 123.274 74.0318 124.93C73.2334 125.689 72.3057 126.73 72.7857 127.38C74.064 129.112 75.6378 131.695 77.8231 131.942C80.9423 132.295 83.2898 131.638 85.3306 133.53C85.7687 133.936 85.851 134.379 85.6596 134.734C85.4683 135.089 85.0313 135.382 83.76 135.924C77.9158 138.418 74.4625 138.485 70.1241 140.622C67.2785 142.024 64.4189 143.792 60.9354 145.133C54.1303 147.751 51.2249 148.718 50.2608 150.747C49.6767 151.976 48.6759 153.556 49.4267 154.213C51.4755 156.005 55.4148 157.69 58.0581 157.484C62.2756 157.155 68.4861 155.281 68.391 157.082C68.3533 157.797 68.0862 159.487 66.3049 160.543C63.5935 162.15 58.2034 163.45 52.6544 166.52C48.9633 168.561 43.6835 171.699 42.7965 174.84C42.4865 175.937 42.2683 176.977 42.506 177.979C42.6222 178.468 42.7984 178.99 43.6133 179.356C45.6586 180.275 47.6189 181.225 48.7749 180.908C50.7574 180.364 54.7635 177.902 55.4766 180.139C56.0678 181.993 54.3882 185.763 56.3303 186.851C57.592 187.558 59.3974 188.725 61.2656 188.594C63.5753 188.432 69.1506 187.514 73.2962 178.987C76.3466 172.713 78.3225 167.519 80.0507 165.89C80.6811 165.296 81.1284 165.406 81.572 165.652C82.0156 165.898 82.5028 166.232 82.7292 166.678C83.1582 167.522 83.4739 168.717 83.3676 170.165C83.1471 173.171 82.4401 176.509 84.2309 177.8C84.8232 178.228 85.7671 178.65 86.6236 178.655C88.2 178.663 89.8283 178.593 91.054 177.569C93.667 175.386 97.7825 170.244 98.063 163.307Z" fill="#0A2A43"/>
<path d="M98.1292 155.356C97.9991 156.085 98.201 159.893 98.063 163.307C97.7825 170.244 93.667 175.386 91.054 177.569C89.8283 178.593 88.2 178.663 86.6236 178.655C85.7671 178.65 84.8232 178.228 84.2309 177.8C82.4401 176.509 83.1471 173.171 83.3676 170.165C83.4739 168.717 83.1582 167.522 82.7292 166.678C82.5028 166.232 82.0156 165.898 81.572 165.652C81.1284 165.406 80.6811 165.296 80.0507 165.89C78.3225 167.519 76.3466 172.713 73.2962 178.987C69.1506 187.514 63.5753 188.432 61.2656 188.594C59.3974 188.725 57.592 187.558 56.3303 186.851C54.3882 185.763 56.0678 181.993 55.4766 180.139C54.7635 177.902 50.7574 180.364 48.7749 180.908C47.6189 181.225 45.6586 180.275 43.6133 179.356C42.7984 178.99 42.6222 178.468 42.506 177.979C42.2683 176.977 42.4865 175.937 42.7965 174.84C43.6835 171.699 48.9633 168.561 52.6544 166.52C58.2034 163.45 63.5935 162.15 66.3049 160.543C68.0862 159.487 68.3533 157.797 68.391 157.082C68.4861 155.281 62.2756 157.155 58.0581 157.484C55.4148 157.69 51.4755 156.005 49.4267 154.213C48.6759 153.556 49.6767 151.976 50.2608 150.747C51.2249 148.718 54.1303 147.751 60.9354 145.133C64.4189 143.792 67.2785 142.024 70.1241 140.622C74.4625 138.485 77.9158 138.418 83.76 135.924C85.0313 135.382 85.4683 135.089 85.6596 134.734C85.851 134.379 85.7687 133.936 85.3306 133.53C83.2898 131.638 80.9423 132.295 77.8231 131.942C75.6378 131.695 74.064 129.112 72.7857 127.38C72.3057 126.73 73.2334 125.689 74.0318 124.93C75.7732 123.274 79.3844 123.379 82.1976 122.971C87.1848 122.247 93.3763 121.245 96.2355 120.521C96.7366 120.394 97.1672 120.1 97.4259 119.74C97.6846 119.381 97.7384 118.903 97.5921 118.507C96.7277 116.171 91.9055 114.777 90.3591 112.916C89.7773 112.216 90.3249 111.015 90.8495 110.033C91.8842 108.096 95.6769 108.111 97.962 108.108C102.788 108.102 109.5 112.211 110.731 112.203C112.978 112.188 114.212 109.151 117.632 106.322C122.627 102.188 127.143 101.322 130 101.001C130.575 100.937 131.015 101.087 131.307 101.352C131.921 101.91 131.42 103.654 130.57 105.545C129.576 107.756 126.485 109.243 124.316 110.662C122.316 111.971 119.793 114.512 117.503 118.576C116.322 120.671 116.233 122.423 116.538 123.519C117.191 125.873 118.716 127.995 119.643 129.935C120.51 131.748 120.272 134.378 120.068 136.552C119.964 137.666 119.436 138.817 118.806 139.768C117.564 141.641 113.961 139.723 110.741 138.369C108.604 137.47 107.996 134.774 106.448 133.625C106.078 133.351 105.521 133.579 105.197 133.834C103.797 134.936 104.156 137.489 104.211 139.57C104.281 142.261 107.066 144.961 109.919 150.24C110.885 152.028 111.427 153.185 111.691 154.176C111.95 155.153 111.421 156.476 110.695 157.712C110.377 158.254 109.75 158.324 109.246 158.346C107.261 158.432 103.978 156.726 101.942 155.079C101.14 154.431 100.425 153.725 99.7145 153.531C99.3919 153.599 99.1464 154.004 98.8583 154.619C98.5702 155.234 98.247 156.046 97.7408 157.988" stroke="#FAF7F1" stroke-linecap="round"/>
<path d="M190.984 131.37C204.53 138.617 211.488 148.556 213.447 159.727C215.411 170.922 212.367 183.431 205.743 195.811C199.19 208.061 187.254 213.93 173.508 214.918C159.752 215.906 144.225 211.996 130.629 204.722C117.092 197.479 107.37 184.825 102.687 170.887C98.0025 156.946 98.3719 141.766 104.95 129.471C111.452 117.317 126.005 114.067 142.558 115.768C159.076 117.465 177.364 124.082 190.984 131.37Z" fill="#0A2A43" stroke="#FAF7F1"/>
<path d="M173.466 209.103C173.528 209.015 173.577 208.955 173.614 208.912C173.661 208.943 173.725 208.983 173.813 209.046C174.081 209.236 174.295 209.389 174.412 209.547C174.463 209.615 174.468 209.652 174.469 209.663C174.469 209.667 174.472 209.702 174.417 209.778C174.335 209.895 174.286 209.928 174.275 209.936C174.272 209.936 174.268 209.935 174.263 209.935C174.215 209.931 174.156 209.915 174.013 209.877C173.885 209.843 173.714 209.799 173.511 209.775C173.423 209.765 173.381 209.738 173.362 209.721C173.343 209.704 173.324 209.677 173.312 209.629C173.287 209.525 173.307 209.326 173.466 209.103Z" fill="#FAF7F1" stroke="#FAF7F1"/>
<path d="M161.644 206.842C161.706 206.754 161.755 206.694 161.791 206.651C161.839 206.683 161.903 206.723 161.991 206.785C162.259 206.976 162.472 207.128 162.59 207.286C162.64 207.354 162.646 207.391 162.646 207.402C162.647 207.407 162.649 207.441 162.595 207.518C162.512 207.634 162.464 207.668 162.452 207.675C162.45 207.675 162.446 207.674 162.441 207.674C162.393 207.67 162.334 207.654 162.191 207.616C162.063 207.582 161.892 207.538 161.688 207.514C161.6 207.504 161.559 207.477 161.54 207.46C161.521 207.443 161.501 207.416 161.49 207.369C161.465 207.264 161.485 207.066 161.644 206.842Z" fill="#FAF7F1" stroke="#FAF7F1"/>
<path d="M174.83 181.249C174.892 181.162 174.941 181.101 174.978 181.058C175.026 181.09 175.089 181.13 175.177 181.192C175.445 181.383 175.659 181.535 175.776 181.693C175.827 181.762 175.832 181.799 175.833 181.809C175.833 181.814 175.836 181.848 175.782 181.925C175.699 182.041 175.651 182.075 175.639 182.082C175.636 182.082 175.632 182.082 175.627 182.081C175.579 182.077 175.521 182.062 175.377 182.023C175.249 181.989 175.078 181.945 174.875 181.922C174.787 181.911 174.745 181.884 174.726 181.868C174.707 181.851 174.688 181.824 174.676 181.776C174.651 181.671 174.671 181.473 174.83 181.249Z" fill="#FAF7F1" stroke="#FAF7F1"/>
<path d="M175.32 189.992C175.382 189.905 175.431 189.844 175.467 189.801C175.515 189.833 175.578 189.873 175.666 189.936C175.935 190.126 176.148 190.279 176.265 190.437C176.316 190.505 176.321 190.542 176.322 190.552C176.322 190.557 176.325 190.592 176.271 190.668C176.188 190.785 176.14 190.818 176.128 190.825C176.125 190.825 176.122 190.825 176.117 190.824C176.069 190.82 176.01 190.805 175.867 190.767C175.738 190.732 175.568 190.688 175.364 190.665C175.276 190.655 175.235 190.627 175.216 190.611C175.196 190.594 175.177 190.567 175.166 190.519C175.141 190.415 175.161 190.216 175.32 189.992Z" fill="#FAF7F1" stroke="#FAF7F1"/>
<path d="M185.848 195.251C185.91 195.164 185.959 195.103 185.996 195.06C186.043 195.092 186.107 195.132 186.195 195.194C186.463 195.385 186.676 195.537 186.794 195.695C186.844 195.764 186.85 195.8 186.85 195.811C186.851 195.816 186.854 195.85 186.799 195.927C186.716 196.043 186.668 196.077 186.656 196.084C186.654 196.084 186.65 196.084 186.645 196.083C186.597 196.079 186.538 196.064 186.395 196.025C186.267 195.991 186.096 195.947 185.892 195.924C185.805 195.913 185.763 195.886 185.744 195.87C185.725 195.853 185.706 195.826 185.694 195.778C185.669 195.673 185.689 195.475 185.848 195.251Z" fill="#FAF7F1" stroke="#FAF7F1"/>
<path d="M198.302 156.543C198.364 156.456 198.413 156.395 198.45 156.352C198.497 156.384 198.561 156.424 198.649 156.486C198.917 156.677 199.131 156.829 199.248 156.987C199.298 157.056 199.304 157.092 199.304 157.103C199.305 157.108 199.308 157.142 199.253 157.219C199.171 157.335 199.122 157.369 199.111 157.376C199.108 157.376 199.104 157.376 199.099 157.375C199.051 157.371 198.992 157.356 198.849 157.317C198.721 157.283 198.55 157.239 198.347 157.216C198.259 157.205 198.217 157.178 198.198 157.162C198.179 157.145 198.16 157.118 198.148 157.07C198.123 156.965 198.143 156.767 198.302 156.543Z" fill="#FAF7F1" stroke="#FAF7F1"/>
<path d="M199.038 169.659C199.1 169.572 199.149 169.511 199.186 169.468C199.234 169.5 199.297 169.54 199.385 169.603C199.653 169.793 199.867 169.946 199.984 170.103C200.035 170.172 200.04 170.209 200.041 170.219C200.041 170.224 200.044 170.259 199.99 170.335C199.907 170.452 199.859 170.485 199.847 170.492C199.844 170.492 199.84 170.492 199.835 170.491C199.787 170.487 199.729 170.472 199.585 170.434C199.457 170.399 199.286 170.355 199.083 170.332C198.995 170.322 198.953 170.294 198.934 170.278C198.915 170.261 198.896 170.234 198.884 170.186C198.859 170.082 198.879 169.883 199.038 169.659Z" fill="#FAF7F1" stroke="#FAF7F1"/>
<path d="M194.912 174.275C194.974 174.188 195.023 174.127 195.06 174.084C195.108 174.116 195.171 174.156 195.259 174.219C195.527 174.409 195.741 174.562 195.858 174.72C195.909 174.788 195.914 174.825 195.915 174.835C195.915 174.84 195.918 174.875 195.864 174.951C195.781 175.068 195.733 175.101 195.721 175.109C195.718 175.108 195.714 175.108 195.709 175.108C195.661 175.104 195.603 175.088 195.459 175.05C195.331 175.016 195.16 174.972 194.957 174.948C194.869 174.938 194.827 174.911 194.808 174.894C194.789 174.877 194.77 174.85 194.759 174.802C194.733 174.698 194.753 174.499 194.912 174.275Z" fill="#FAF7F1" stroke="#FAF7F1"/>
<path d="M135.888 190.741C135.95 190.654 135.999 190.593 136.036 190.55C136.083 190.582 136.147 190.622 136.235 190.685C136.503 190.875 136.717 191.028 136.834 191.186C136.884 191.254 136.89 191.291 136.89 191.301C136.891 191.306 136.894 191.341 136.839 191.417C136.756 191.534 136.708 191.567 136.696 191.574C136.694 191.574 136.69 191.574 136.685 191.573C136.637 191.569 136.578 191.554 136.435 191.516C136.307 191.481 136.136 191.437 135.932 191.414C135.845 191.404 135.803 191.376 135.784 191.36C135.765 191.343 135.746 191.316 135.734 191.268C135.709 191.164 135.729 190.965 135.888 190.741Z" fill="#FAF7F1" stroke="#FAF7F1"/>
<path d="M143.583 197.619C143.645 197.532 143.694 197.471 143.731 197.428C143.779 197.46 143.842 197.5 143.93 197.563C144.198 197.753 144.412 197.906 144.529 198.063C144.58 198.132 144.585 198.169 144.586 198.179C144.586 198.184 144.589 198.219 144.535 198.295C144.452 198.412 144.404 198.445 144.392 198.452C144.389 198.452 144.385 198.452 144.38 198.451C144.332 198.447 144.274 198.432 144.13 198.394C144.002 198.359 143.831 198.315 143.628 198.292C143.54 198.282 143.498 198.254 143.479 198.238C143.46 198.221 143.441 198.194 143.429 198.146C143.404 198.042 143.424 197.843 143.583 197.619Z" fill="#FAF7F1" stroke="#FAF7F1"/>
<path d="M154.835 189.68C154.897 189.592 154.946 189.532 154.983 189.489C155.031 189.521 155.094 189.561 155.182 189.623C155.45 189.814 155.664 189.966 155.781 190.124C155.832 190.192 155.837 190.229 155.838 190.24C155.838 190.244 155.841 190.279 155.787 190.356C155.704 190.472 155.655 190.506 155.644 190.513C155.641 190.513 155.637 190.512 155.632 190.512C155.584 190.508 155.526 190.492 155.382 190.454C155.254 190.42 155.083 190.376 154.88 190.352C154.792 190.342 154.75 190.315 154.731 190.298C154.712 190.281 154.693 190.254 154.681 190.207C154.656 190.102 154.676 189.904 154.835 189.68Z" fill="#FAF7F1" stroke="#FAF7F1"/>
<path d="M199.039 169.659C199.101 169.572 199.15 169.511 199.187 169.468C199.235 169.5 199.298 169.54 199.386 169.603C199.654 169.793 199.868 169.946 199.985 170.103C200.036 170.172 200.041 170.209 200.042 170.219C200.042 170.224 200.045 170.259 199.991 170.335C199.908 170.452 199.86 170.485 199.848 170.492C199.845 170.492 199.841 170.492 199.836 170.491C199.788 170.487 199.73 170.472 199.586 170.434C199.458 170.399 199.287 170.355 199.084 170.332C198.996 170.322 198.954 170.294 198.935 170.278C198.916 170.261 198.897 170.234 198.885 170.186C198.86 170.082 198.88 169.883 199.039 169.659Z" fill="#FAF7F1" stroke="#FAF7F1"/>
<path d="M133.464 61.8271C148.113 61.0066 163.628 65.9862 175.705 75.2199C187.778 84.4506 196.386 97.9089 197.29 114.036C199.098 146.31 173.276 171.166 139.695 173.047C130.665 173.553 115.218 170.073 101.762 161.65C88.3215 153.236 76.9379 139.938 75.868 120.838C75.1631 108.254 81.1541 93.9687 91.5584 82.5804C101.956 71.1992 116.714 62.7654 133.464 61.8271Z" fill="#0A2A43" stroke="#FAF7F1"/>
<path d="M132.051 73.601C144.162 72.9227 154.425 81.386 155.142 92.4484C147.937 103.162 143.707 107.952 140.786 110.102C139.336 111.169 138.223 111.575 137.236 111.738C136.736 111.821 136.256 111.843 135.758 111.851C135.27 111.859 134.738 111.853 134.195 111.884C132.253 111.993 129.33 110.922 125.42 108.167C121.553 105.442 116.796 101.124 111.181 94.8719C109.802 87.8883 111.966 82.7879 115.943 79.3234C119.975 75.8116 125.916 73.9447 132.051 73.601Z" fill="#0A2A43" stroke="#FAF7F1"/>
<path d="M135.403 163.766C123.276 164.051 113.294 155.258 112.937 144.178C120.486 133.704 124.87 129.054 127.86 127C129.344 125.981 130.469 125.612 131.461 125.481C131.964 125.415 132.444 125.408 132.942 125.416C133.43 125.424 133.961 125.447 134.504 125.434C136.449 125.389 139.336 126.554 143.154 129.435C146.93 132.284 151.545 136.754 156.954 143.186C158.105 150.21 155.776 155.238 151.688 158.571C147.544 161.95 141.546 163.622 135.403 163.766Z" fill="#0A2A43" stroke="#FAF7F1"/>
<path d="M182.838 118.842C181.778 130.925 171.934 139.873 160.883 139.002C151.309 130.339 147.173 125.468 145.463 122.269C144.614 120.681 144.372 119.522 144.351 118.522C144.341 118.015 144.388 117.537 144.451 117.042C144.512 116.558 144.594 116.033 144.642 115.492C144.811 113.554 146.289 110.814 149.575 107.338C152.824 103.9 157.778 99.8091 164.769 95.1452C171.878 94.7788 176.616 97.6498 179.477 102.082C182.376 106.574 183.375 112.721 182.838 118.842Z" fill="#0A2A43" stroke="#FAF7F1"/>
<path d="M85.6061 118.624C86.2907 106.514 95.8519 97.2647 106.925 97.793C116.763 106.154 121.048 110.895 122.857 114.039C123.754 115.6 124.032 116.751 124.084 117.75C124.11 118.257 124.078 118.736 124.03 119.232C123.984 119.718 123.918 120.245 123.888 120.788C123.778 122.73 122.386 125.514 119.21 129.091C116.068 132.628 111.244 136.87 104.401 141.749C97.3071 142.336 92.4816 139.613 89.4853 135.272C86.448 130.871 85.2593 124.759 85.6061 118.624Z" fill="#0A2A43" stroke="#FAF7F1"/>
<path d="M133.015 103.337C133.273 102.623 133.261 101.589 132.834 100.255C132.383 98.8468 131.485 97.161 130.057 95.2814C128.324 93.6946 126.779 92.1918 125.494 91.1883C124.846 90.6828 124.304 90.3365 123.869 90.1692C123.569 90.0535 123.376 90.0439 123.246 90.078C122.888 91.9607 123.406 94.5151 126.149 98.133C128.016 99.5734 129.652 101.151 130.86 102.155C131.494 102.681 132.007 103.05 132.418 103.234C132.723 103.37 132.9 103.377 133.015 103.337Z" fill="#0A2A43" stroke="#FAF7F1"/>
<path d="M137.084 101.675C137.794 101.409 138.574 100.729 139.313 99.5382C140.092 98.2818 140.793 96.5048 141.298 94.1996C141.382 91.8508 141.524 89.7005 141.454 88.0712C141.419 87.2505 141.331 86.6129 141.176 86.1738C141.069 85.8699 140.952 85.7169 140.842 85.6403C139.177 86.5889 137.568 88.6392 136.593 93.0738C136.707 95.4292 136.567 97.6975 136.586 99.2677C136.596 100.092 136.648 100.721 136.775 101.154C136.869 101.474 136.979 101.613 137.084 101.675Z" fill="#0A2A43" stroke="#FAF7F1"/>
<path d="M128.119 150.421C128.829 150.155 129.609 149.475 130.348 148.284C131.127 147.028 131.828 145.251 132.333 142.946C132.417 140.597 132.559 138.447 132.489 136.817C132.454 135.997 132.366 135.359 132.211 134.92C132.105 134.616 131.987 134.463 131.877 134.386C130.212 135.335 128.603 137.385 127.628 141.82C127.742 144.175 127.602 146.444 127.621 148.014C127.631 148.838 127.684 149.467 127.81 149.9C127.904 150.22 128.014 150.359 128.119 150.421Z" fill="#0A2A43" stroke="#FAF7F1"/>
<path d="M145.42 150.797C145.846 150.169 146.089 149.164 146.002 147.765C145.91 146.29 145.454 144.435 144.532 142.262C143.241 140.298 142.113 138.462 141.113 137.174C140.609 136.525 140.169 136.056 139.789 135.787C139.526 135.601 139.341 135.544 139.207 135.546C138.398 137.283 138.272 139.886 140.043 144.067C141.499 145.922 142.697 147.853 143.622 149.122C144.107 149.789 144.514 150.272 144.867 150.551C145.129 150.758 145.299 150.808 145.42 150.797Z" fill="#0A2A43" stroke="#FAF7F1"/>
<path d="M167.089 127.366C167.081 126.607 166.708 125.643 165.84 124.542C164.925 123.381 163.493 122.117 161.499 120.856C159.319 119.976 157.346 119.109 155.791 118.619C155.007 118.373 154.378 118.238 153.912 118.234C153.59 118.23 153.406 118.289 153.297 118.366C153.621 120.255 154.999 122.467 158.836 124.895C161.089 125.591 163.174 126.496 164.656 127.013C165.435 127.285 166.044 127.45 166.494 127.478C166.827 127.499 166.996 127.443 167.089 127.366Z" fill="#0A2A43" stroke="#FAF7F1"/>
<path d="M172.664 114.314C172.312 113.642 171.54 112.952 170.267 112.367C168.924 111.749 167.074 111.274 164.724 111.059C162.383 111.267 160.231 111.393 158.623 111.664C157.813 111.8 157.192 111.967 156.775 112.175C156.487 112.318 156.349 112.454 156.287 112.573C157.435 114.107 159.669 115.45 164.19 115.867C166.513 115.462 168.781 115.32 170.337 115.106C171.153 114.994 171.771 114.864 172.185 114.684C172.491 114.551 172.616 114.425 172.664 114.314Z" fill="#0A2A43" stroke="#FAF7F1"/>
<path d="M113.869 117.17C113.697 116.431 113.124 115.57 112.039 114.683C110.894 113.748 109.223 112.823 107.002 112.024C104.684 111.637 102.57 111.217 100.946 111.075C100.127 111.004 99.4836 111.009 99.0282 111.105C98.7131 111.172 98.5461 111.268 98.4559 111.368C99.1809 113.142 101.006 115.003 105.277 116.543C107.627 116.735 109.858 117.168 111.418 117.352C112.236 117.449 112.867 117.478 113.312 117.408C113.642 117.357 113.794 117.266 113.869 117.17Z" fill="#0A2A43" stroke="#FAF7F1"/>
<path d="M114.594 122.464C114.103 121.886 113.199 121.383 111.829 121.092C110.382 120.785 108.473 120.729 106.133 121.035C103.895 121.753 101.824 122.349 100.315 122.967C99.5548 123.278 98.9849 123.578 98.6242 123.872C98.3745 124.075 98.2705 124.238 98.2358 124.367C99.6929 125.612 102.167 126.43 106.67 125.843C108.847 124.937 111.028 124.3 112.499 123.749C113.271 123.46 113.845 123.197 114.209 122.931C114.479 122.734 114.572 122.583 114.594 122.464Z" fill="#0A2A43" stroke="#FAF7F1"/>
</svg>
