<svg width="117" height="103" viewBox="0 0 117 103" fill="none" xmlns="http://www.w3.org/2000/svg">
<path d="M101.5 8.23333C100.167 4.3 97.5667 1.5 93.1667 1.5H23.1667C18.7667 1.5 16.2333 4.3 14.8333 8.23333L1.5 46.5V96.5C1.5 100.167 2.83333 101.5 6.5 101.5H9.83333C13.5 101.5 14.8333 100.167 14.8333 96.5V88.1667H101.5V96.5C101.5 100.167 102.833 101.5 106.5 101.5H109.833C113.5 101.5 114.833 100.167 114.833 96.5V46.5L101.5 8.23333Z" stroke="black" stroke-width="3"/>
<path d="M21.4997 68.1668C19.7316 68.1668 18.0359 67.4644 16.7856 66.2142C15.5354 64.964 14.833 63.2683 14.833 61.5002C14.833 59.7321 15.5354 58.0364 16.7856 56.7861C18.0359 55.5359 19.7316 54.8335 21.4997 54.8335C23.2678 54.8335 24.9635 55.5359 26.2137 56.7861C27.464 58.0364 28.1663 59.7321 28.1663 61.5002C28.1663 63.2683 27.464 64.964 26.2137 66.2142C24.9635 67.4644 23.2678 68.1668 21.4997 68.1668ZM94.833 68.1668C93.0649 68.1668 91.3692 67.4644 90.119 66.2142C88.8687 64.964 88.1663 63.2683 88.1663 61.5002C88.1663 59.7321 88.8687 58.0364 90.119 56.7861C91.3692 55.5359 93.0649 54.8335 94.833 54.8335C96.6011 54.8335 98.2968 55.5359 99.5471 56.7861C100.797 58.0364 101.5 59.7321 101.5 61.5002C101.5 63.2683 100.797 64.964 99.5471 66.2142C98.2968 67.4644 96.6011 68.1668 94.833 68.1668Z" stroke="black" stroke-width="3"/>
<path d="M16.5 34.8333L24.8333 11.5H91.5L99.8333 34.8333H16.5Z" stroke="black" stroke-width="3" stroke-linejoin="round"/>
</svg>
