<svg width="302" height="262" viewBox="0 0 302 262" fill="none" xmlns="http://www.w3.org/2000/svg">
<path d="M146.001 206.327C144.282 204.358 142.249 202.031 138.743 199.361C138.193 198.943 137.22 198.33 135.652 197.342C133.851 196.208 131.266 194.579 127.637 192.184C124.423 190.062 120.434 187.341 117.401 185.272C116.506 184.662 115.694 184.108 115.01 183.643C114.177 183.078 113.535 182.644 112.947 182.247C111.413 181.213 110.25 180.428 107.051 178.198C102.625 175.114 94.5479 169.437 89.7539 165.965C84.9599 162.494 83.4935 161.267 82.031 159.949L81.6205 159.58C80.2978 158.39 79.0163 157.237 78.3046 156.405C77.8086 155.825 76.9714 154.153 76.0292 152.273C75.0226 148.618 64.867 128.247 64.0505 121.391C63.234 114.536 63.1771 107.535 63.3662 103.372C63.3801 103.065 63.3932 102.764 63.406 102.47C63.6199 97.5413 63.7559 94.4088 66.8574 90.0589C69.5592 86.2695 72.2399 82.735 75.089 80.7073C78.0173 78.6232 81.308 76.5111 84.7841 75.5469C87.5584 74.7773 91.5674 74.1594 97.0928 74.7313C102.964 75.339 106.597 75.727 108.321 75.9712C110.243 76.2433 112.341 76.7353 114.559 77.2553C115.44 77.4618 116.34 77.6727 117.255 77.876C118.277 78.1033 119.307 78.289 120.307 78.4693C122.926 78.9415 125.341 79.3767 126.882 80.4249C127.133 80.5959 127.397 80.7738 127.67 80.9571C130.587 82.9204 134.611 85.6282 137.691 89.9216C138.282 90.7455 138.182 91.0966 137.67 91.4065C137.404 91.5672 137.099 91.7408 136.767 91.929C135.509 92.6437 133.875 93.5715 132.625 94.8211C132.061 95.3841 132.073 95.7132 132.315 95.9915C132.961 96.7347 133.594 97.412 134.366 98.2377C134.998 98.9129 135.722 99.6878 136.623 100.68C137.956 102.147 139.998 103.445 141.903 104.656C144.882 106.55 147.526 108.231 146.601 110.015C145.825 111.512 144.286 113.115 142.135 115.262C141.658 115.737 141.163 116.225 140.658 116.723C137.896 119.443 134.814 122.477 132.643 125.621C132.15 126.336 131.628 127.072 131.087 127.835C129.735 129.742 128.259 131.823 126.788 134.19C126.634 134.438 126.483 134.679 126.338 134.911C125.094 136.894 124.212 138.301 124.668 139.005C125.448 140.21 127.253 142.043 129.158 143.978C130.537 145.378 131.969 146.832 133.103 148.14C133.863 149.016 135.132 150.138 136.476 151.325C139.273 153.796 142.387 156.548 141.871 157.944C141.789 158.166 141.753 158.464 141.692 158.966C141.605 159.687 141.467 160.829 141.068 162.778C140.735 164.405 140.3 165.907 139.883 167.345C140.638 168.819 142.701 184.462 143.001 183.671C143.066 183.5 143.148 183.237 143.254 182.897C143.637 181.666 144.333 179.431 145.671 176.912C145.832 176.608 146.004 176.28 146.189 175.93C147.451 173.528 149.278 170.053 152.1 165.677C153.045 164.211 154.023 162.867 154.874 161.7C155.44 160.924 155.949 160.225 156.353 159.62C157.03 158.608 157.875 157.571 158.723 156.53C160.797 153.982 162.892 151.41 162.599 149.114C162.421 147.717 161.793 144.819 159.156 139.706C158.618 138.662 157.988 137.497 157.346 136.309C155.968 133.761 154.533 131.106 153.819 129.312C152.771 126.682 153.245 125.918 153.619 125.395C153.8 125.143 154.011 124.908 154.338 124.546C155.085 123.718 156.433 122.223 159.387 118.326C160.776 116.494 162.329 114.644 163.878 112.798C164.89 111.593 165.9 110.389 166.861 109.194C167.087 108.914 167.306 108.647 167.516 108.392C168.717 106.93 169.578 105.883 169.154 105.293C168.647 104.586 167.826 103.668 166.931 102.666C166.046 101.676 165.088 100.604 164.291 99.5773C162.474 97.2382 160.23 94.8794 158.524 93.3522C159.017 92.8426 159.25 92.6014 159.529 92.3587C159.819 92.1476 160.129 91.9262 160.453 91.6942C161.858 90.6887 163.542 89.4836 165.114 88.057C166.411 87.2138 168.858 85.8624 171.074 84.8945C173.183 83.9731 175.71 83.0128 181.474 81.0642L181.863 80.9322C184.808 79.9339 188.568 78.6591 193.379 78.4672C198.652 78.2568 202.475 78.2322 206.86 79.4751M146.001 206.327C146.043 206.376 146.087 206.425 146.129 206.474M146.001 206.327C146.342 206.717 146.673 207.097 146.999 207.459C147.633 208.164 148.287 208.735 148.838 209.168C150.704 210.636 154.178 207.774 156.224 206.089C156.752 205.654 157.184 205.298 157.47 205.114C159.218 203.991 160.585 203.149 163.231 201.665C163.95 201.261 164.792 200.549 165.943 199.576C166.47 199.13 167.061 198.63 167.735 198.079C168.873 197.15 170.268 196.109 171.833 194.942C173.573 193.644 175.522 192.189 177.561 190.558C180.058 188.559 182.048 187.223 183.666 186.137C184.186 185.788 184.668 185.464 185.116 185.152C185.696 184.749 186.293 184.341 186.902 183.924C189.137 182.395 191.526 180.761 193.775 178.9C194.797 178.054 195.812 177.232 196.826 176.413C199.004 174.651 201.17 172.898 203.357 170.941C205.049 169.426 206.546 167.933 207.859 166.623C209.972 164.516 211.61 162.883 212.823 162.395C213.812 161.488 215.886 159.833 218.229 157.963C221.957 154.988 226.366 151.469 228.168 149.558C231.101 146.447 232.223 144.694 233.498 142.46C236.264 137.616 238.096 133.477 239.124 130.121C239.735 128.128 240.243 125.465 240.583 121.756C241.351 113.377 241.015 108.12 240.793 107.186C240.501 105.961 239.222 103.444 236.897 99.4175C234.149 94.6579 231.561 91.3776 229.683 89.5344C227.3 87.1955 224.181 85.4437 219.227 83.4135C215.797 82.0083 210.266 80.4405 206.897 79.4857M206.86 79.4751L206.897 79.4857M206.86 79.4751C206.872 79.4786 206.885 79.4822 206.897 79.4857" stroke="#0A2A43" stroke-width="3" stroke-linecap="round"/>
<path d="M214.565 64.4832C215.231 64.3119 221.91 59.0537 229.671 50.3165C231.845 47.8693 233.459 46.6166 238.059 41.5218C242.131 37.0116 249.263 28.1816 253.291 23.4197C258.856 16.8403 261.653 15.726 267.58 13.7009C285.608 7.54114 288.61 6.13949 291.649 6.99155C296.758 8.42381 290.44 17.1672 287.747 22.7442C285.71 26.9641 285.019 31.8019 282.601 39.528C280.947 44.8107 279.112 47.0474 275.604 51.131C272.895 54.2841 270.78 56.7239 268.268 59.9766C264.748 64.5353 259.161 70.808 256.97 73.2814C254.138 75.9609 250.886 79.1507 249.292 81.2033C248.888 81.6331 248.441 81.9888 247.674 82.3554" stroke="#0A2A43" stroke-width="3" stroke-linecap="round"/>
<path d="M293.081 7.28809C290.966 9.62527 284.486 18.0787 280.68 22.3331C273.721 30.1121 265.819 35.39 263.472 37.4634C260.489 40.0992 254.413 47.8292 250.041 52.3708C246.314 56.2429 242.802 59.2183 240.181 62.3824C237.993 65.1243 236.132 67.4735 235.006 68.5853C234.295 69.3172 233.3 70.3896 231.918 71.7762" stroke="#0A2A43" stroke-width="3" stroke-linecap="round"/>
<path d="M103.159 59.2185C102.493 59.0472 95.8136 53.7891 88.0528 45.0518C85.8791 42.6047 84.2653 41.3519 79.6651 36.2571C75.5928 31.747 68.4606 22.9169 64.4331 18.1551C58.8683 11.5757 56.071 10.4613 50.1438 8.4362C32.1155 2.27649 29.1141 0.874838 26.0747 1.7269C20.9656 3.15916 27.284 11.9026 29.9768 17.4796C32.0143 21.6995 32.7051 26.5372 35.1232 34.2634C36.7765 39.546 38.6122 41.7828 42.1201 45.8663C44.8287 49.0194 46.944 51.4592 49.4555 54.712C52.9755 59.2706 58.5628 65.5434 60.7538 68.0167C63.5861 70.6963 66.8383 73.8861 68.4315 75.9386C68.8354 76.3684 69.2826 76.7242 70.0496 77.0907" stroke="#0A2A43" stroke-width="3" stroke-linecap="round"/>
<path d="M24.6431 2.02246C26.7578 4.35965 33.2382 12.8131 37.0441 17.0675C44.003 24.8465 51.9051 30.1244 54.2517 32.1978C57.2349 34.8336 63.3109 42.5636 67.6825 47.1051C71.4097 50.9772 74.9224 53.9526 77.5431 57.1167C79.7306 59.8587 81.5917 62.2079 82.718 63.3197C83.4292 64.0516 84.424 65.124 85.8061 66.5106" stroke="#0A2A43" stroke-width="3" stroke-linecap="round"/>
<path d="M84.9151 180.932C84.1299 181.089 81.4745 182.129 76.5496 185.828C72.0941 189.175 69.3454 191.488 66.7876 193.57C66.3065 194.106 65.9274 194.745 65.5757 195.36C65.2241 195.976 64.9115 196.548 64.4608 197.262" stroke="#0A2A43" stroke-width="3" stroke-linecap="round"/>
<path d="M27.7743 178.411C28.2472 178.14 29.8097 177.137 30.9161 176.428C31.4338 176.096 31.8455 175.647 32.1405 175.126C32.4506 174.578 32.517 173.679 32.4023 172.682C32.2157 171.059 30.3463 170.454 28.8851 169.695C28.3301 169.407 27.6449 169.486 26.9864 169.581C26.6792 169.626 26.4751 169.869 26.3203 170.108C25.5438 171.307 26.3232 174.307 27.0083 176.446C27.9941 179.524 32.7182 184.258 34.8396 186.866C35.2799 187.407 35.7876 188.234 38.2468 191.314C40.3111 193.899 44.2348 198.396 46.6672 201.365C49.0996 204.334 49.9733 205.597 52.366 208.053C54.7588 210.51 58.6441 214.12 63.9193 221.203C69.1945 228.286 75.7418 238.731 79.3117 244.282C83.7286 251.149 86.5809 251.966 87.9332 252.798C89.0794 253.504 90.275 254.367 91.478 255.013C92.8051 255.726 94.9164 255.99 96.551 255.422C98.7626 254.654 99.148 252.956 99.3337 252.445C100.212 250.031 94.2242 248.208 92.5754 247.886C91.7362 247.723 91.0735 247.999 90.6213 248.32C89.5284 249.095 89.0199 250.761 88.5009 253.381C88.4169 254.703 88.4715 255.633 88.5541 256.315C88.5822 256.697 88.5822 257.152 88.657 257.824" stroke="#0A2A43" stroke-width="3" stroke-linecap="round"/>
<path d="M94.0415 194.408C94.0182 194.431 90.8142 196.818 85.4888 200.811C81.0633 204.13 79.586 205.519 78.1274 207.154C76.8603 208.575 74.6099 209.476 73.5024 210.184C73.0062 210.619 72.606 211.085 72.383 211.274C72.3072 211.236 72.3072 210.925 72.3072 210.604" stroke="#0A2A43" stroke-width="3" stroke-linecap="round"/>
<path d="M45.1619 223.031C45.1619 222.374 45.0288 220.445 43.9804 217.075C43.239 214.691 42.2534 213.508 39.7393 211.704C37.3772 210.009 35.7868 210.448 34.9402 210.568C34.2718 210.662 33.9928 211.36 33.7976 212.036C33.2083 214.078 36.4021 219.955 38.621 224.234C40.6945 228.232 41.3104 229.477 42.0216 230.793C42.2376 231.193 42.3567 231.756 42.5664 232.102C42.776 232.447 43.0285 232.578 43.3457 232.646C43.6629 232.713 44.0372 232.713 44.3941 232.639C47.4874 231.992 50.9809 226.912 53.1502 224.947C53.9508 224.392 54.5358 224.088 54.9669 223.666C55.1438 223.364 55.2358 222.883 55.3305 222.388" stroke="#0A2A43" stroke-width="3" stroke-linecap="round"/>
<path d="M34.8585 216.786C33.6834 216.786 30.8834 216.932 29.5464 217.514C28.1095 218.139 25.9275 220.287 24.8194 221.715C23.5506 223.35 24.175 228.662 24.6926 232.016C25.5632 237.658 26.5234 236.723 26.9476 237.373C28.0267 239.026 32.974 242.576 34.3335 242.115C35.9031 241.583 39.8123 237.756 42.1638 235.579C42.8922 234.599 43.3481 233.842 43.5939 233.305C43.6819 232.999 43.6952 232.621 43.709 232.232" stroke="#0A2A43" stroke-width="3" stroke-linecap="round"/>
<path d="M15.2014 236.036C14.6866 235.731 13.4901 234.88 11.922 234.012C10.0677 232.986 8.85257 232.669 6.72415 232.154C6.124 232.01 5.52491 232.065 5.11724 232.145C4.46087 232.275 3.88604 233.11 3.06927 234.47C1.97655 236.29 1.71204 240.558 1.56771 245.59C1.43051 250.374 1.44458 252.536 2.16256 253.486C2.9692 254.554 4.70976 255.067 7.20495 255.897C9.76707 256.75 11.6763 256.589 18.2256 257.496C20.2651 257.778 21.1957 257.502 21.8207 257.109C23.1299 256.285 23.3766 254.658 24.2396 252.203C24.9748 250.11 24.3659 246.936 23.7983 245.386C23.2616 243.921 22.1044 243.168 20.9944 241.862C17.1563 237.752 13.4873 234.434 12.9913 233.922C12.7023 233.647 12.3373 233.343 11.7398 232.33" stroke="#0A2A43" stroke-width="3" stroke-linecap="round"/>
<path d="M24.1395 223.333C23.9258 223.444 18.8703 228.071 14.7425 230.387C13.8998 230.918 13.5924 231.201 13.326 231.494C13.0596 231.786 12.8435 232.079 12.3152 232.787" stroke="#0A2A43" stroke-width="3" stroke-linecap="round"/>
<path d="M24.2419 246.718C25.0267 246.718 27.2107 246.476 28.5556 245.755C28.8732 245.538 29.1655 245.301 29.4119 245.081C29.6583 244.861 32.1872 242.736 32.5636 242.053" stroke="#0A2A43" stroke-width="3" stroke-linecap="round"/>
<path d="M216.487 183.289C217.272 183.446 219.928 184.486 224.853 188.186C229.308 191.533 232.057 193.846 234.615 195.927C235.096 196.463 235.475 197.102 235.827 197.718C236.178 198.333 236.491 198.906 236.941 199.62" stroke="#0A2A43" stroke-width="3" stroke-linecap="round"/>
<path d="M273.628 180.769C273.155 180.499 271.593 179.496 270.486 178.786C269.968 178.454 269.557 178.006 269.262 177.484C268.952 176.936 268.885 176.038 269 175.04C269.187 173.417 271.056 172.812 272.517 172.054C273.072 171.766 273.757 171.844 274.416 171.94C274.723 171.985 274.927 172.227 275.082 172.466C275.859 173.665 275.079 176.665 274.394 178.804C273.408 181.882 268.684 186.616 266.563 189.224C266.122 189.765 265.615 190.593 263.156 193.672C261.091 196.257 257.168 200.754 254.735 203.723C252.303 206.692 251.429 207.956 249.036 210.412C246.644 212.868 242.758 216.478 237.483 223.561C232.208 230.644 225.661 241.09 222.091 246.64C217.674 253.507 214.821 254.324 213.469 255.157C212.323 255.862 211.127 256.725 209.924 257.372C208.597 258.085 206.486 258.349 204.851 257.781C202.64 257.012 202.254 255.314 202.069 254.804C201.19 252.39 207.178 250.566 208.827 250.245C209.666 250.081 210.329 250.357 210.781 250.678C211.874 251.453 212.382 253.119 212.901 255.739C212.985 257.061 212.931 257.992 212.848 258.673C212.82 259.055 212.82 259.51 212.745 260.183" stroke="#0A2A43" stroke-width="3" stroke-linecap="round"/>
<path d="M207.361 196.767C207.384 196.789 210.588 199.177 215.914 203.17C220.339 206.488 221.816 207.878 223.275 209.513C224.542 210.933 226.792 211.834 227.9 212.543C228.396 212.977 228.796 213.443 229.019 213.632C229.095 213.594 229.095 213.283 229.095 212.962" stroke="#0A2A43" stroke-width="3" stroke-linecap="round"/>
<path d="M256.24 225.39C256.24 224.733 256.374 222.804 257.422 219.433C258.163 217.05 259.149 215.866 261.663 214.062C264.025 212.368 265.615 212.807 266.462 212.926C267.13 213.02 267.41 213.718 267.605 214.394C268.194 216.436 265 222.314 262.781 226.592C260.708 230.59 260.092 231.836 259.381 233.151C259.165 233.551 259.046 234.115 258.836 234.46C258.626 234.806 258.374 234.937 258.057 235.004C257.739 235.072 257.365 235.072 257.008 234.997C253.915 234.351 250.421 229.271 248.252 227.306C247.451 226.751 246.866 226.446 246.435 226.024C246.258 225.722 246.167 225.241 246.072 224.746" stroke="#0A2A43" stroke-width="3" stroke-linecap="round"/>
<path d="M266.544 219.145C267.719 219.145 270.519 219.291 271.856 219.872C273.293 220.498 275.475 222.645 276.583 224.073C277.852 225.709 277.227 231.021 276.71 234.375C275.839 240.016 274.879 239.081 274.455 239.731C273.376 241.384 268.428 244.934 267.069 244.474C265.499 243.942 261.59 240.114 259.239 237.937C258.51 236.957 258.054 236.2 257.808 235.664C257.72 235.357 257.707 234.98 257.693 234.591" stroke="#0A2A43" stroke-width="3" stroke-linecap="round"/>
<path d="M286.201 238.393C286.716 238.089 287.912 237.237 289.48 236.369C291.335 235.343 292.55 235.026 294.678 234.512C295.278 234.367 295.877 234.422 296.285 234.503C296.941 234.632 297.516 235.468 298.333 236.828C299.426 238.647 299.69 242.915 299.835 247.948C299.972 252.732 299.958 254.893 299.24 255.844C298.433 256.911 296.693 257.424 294.197 258.255C291.635 259.107 289.726 258.947 283.177 259.853C281.137 260.136 280.207 259.859 279.582 259.466C278.272 258.643 278.026 257.016 277.163 254.56C276.427 252.468 277.036 249.293 277.604 247.744C278.141 246.278 279.298 245.526 280.408 244.219C284.246 240.109 287.915 236.792 288.411 236.279C288.7 236.005 289.065 235.7 289.662 234.687" stroke="#0A2A43" stroke-width="3" stroke-linecap="round"/>
<path d="M277.263 225.691C277.476 225.803 282.532 230.43 286.66 232.745C287.503 233.276 287.81 233.56 288.076 233.852C288.343 234.145 288.559 234.437 289.087 235.145" stroke="#0A2A43" stroke-width="3" stroke-linecap="round"/>
<path d="M277.16 249.077C276.376 249.077 274.192 248.834 272.847 248.113C272.529 247.896 272.237 247.659 271.99 247.439C271.744 247.22 269.215 245.094 268.839 244.411" stroke="#0A2A43" stroke-width="3" stroke-linecap="round"/>
</svg>
