<svg width="352" height="276" viewBox="0 0 352 276" fill="none" xmlns="http://www.w3.org/2000/svg">
<path d="M282.568 38.8968L282.649 39.9842L307.698 46.0928L284.851 55.4602L283.843 55.8736L283.924 56.9601L285.774 81.5838L269.805 62.7503L269.1 61.9189L268.091 62.3324L245.244 71.6995L258.222 50.6918L258.794 49.765L258.089 48.9337L242.121 30.1004L267.169 36.2088L267.742 35.281L280.718 14.2741L282.568 38.8968Z" fill="#F2EDE3" stroke="#0A2A43" stroke-width="3"/>
<path d="M268.483 70.1794C269.123 75.1424 270.022 82.2421 271.052 90.7852C273.112 107.873 275.701 130.73 277.817 153.82C279.934 176.918 281.574 200.216 281.743 218.194C281.828 227.191 281.543 234.799 280.78 240.366C280.397 243.155 279.903 245.364 279.307 246.957C278.685 248.619 278.066 249.3 277.653 249.506C270.101 253.28 258.211 253.681 244.762 251.914C231.394 250.157 216.786 246.302 204.018 241.867C178.386 232.964 159.38 221.056 152.804 204.898C152.381 203.857 152.293 202.386 152.685 200.407C153.074 198.441 153.909 196.105 155.17 193.434C157.694 188.091 161.824 181.608 167.095 174.39C177.629 159.966 192.562 142.817 207.819 126.338C223.069 109.868 238.61 94.1017 250.341 82.4511C256.206 76.6265 261.118 71.832 264.562 68.4941C265.883 67.2143 266.989 66.1496 267.849 65.3222C268.014 66.5757 268.229 68.2091 268.483 70.1794Z" fill="#F2EDE3" stroke="#0A2A43" stroke-width="3"/>
<path d="M250.674 82.7705C251.422 82.9143 254.732 84.8511 257.261 86.3446C259.317 86.8414 263.068 86.8868 267.162 86.8771C268.716 86.8219 269.208 86.6649 270.423 86.0731" stroke="#0A2A43" stroke-width="3" stroke-linecap="round"/>
<path d="M238.81 94.5713C238.922 95.1595 239.627 97.0815 243.036 101.48C250.078 110.566 252.022 112.088 254.65 113.651C257.275 115.212 263.234 114.431 268.215 113.735C268.962 113.52 269.466 113.335 269.955 113.161C270.444 112.987 270.903 112.829 272.415 111.68" stroke="#0A2A43" stroke-width="3" stroke-linecap="round"/>
<path d="M226.414 106.673C226.579 107.217 227.561 109.544 229.763 112.766C232.641 116.976 240.14 119.328 245.384 121.871C249.848 124.035 252.429 125.26 256.116 125.691C264.004 126.612 268.296 123.467 271.547 121.572C272.41 120.881 273.171 120.144 273.887 119.383C274.235 118.998 274.549 118.613 274.872 118.217" stroke="#0A2A43" stroke-width="3" stroke-linecap="round"/>
<path d="M208.312 125.334C209.012 125.562 212.789 127.966 224.993 139.85C230.433 145.146 237.006 146.366 244.435 147.376C253.032 148.545 259.869 147.261 262.521 146.252C268.479 143.986 272.175 141.963 273.823 140.769C274.215 140.451 274.602 140.135 275.033 139.868C275.463 139.601 275.925 139.393 276.4 138.965" stroke="#0A2A43" stroke-width="3" stroke-linecap="round"/>
<path d="M186.454 150.537C187.864 151.479 192.211 155.477 196.797 162.118C199.028 165.35 203.13 168.332 207.417 171.376C210.116 173.293 213.046 174.267 219.258 175.915C223.683 177.089 230.84 178.353 237.89 179.131C244.941 179.91 251.706 180.013 257.327 179.836C267.219 179.2 272.36 178.591 274.149 178.165C275.199 177.875 276.534 177.435 279.081 176.184" stroke="#0A2A43" stroke-width="3" stroke-linecap="round"/>
<path d="M167.958 172.94C168.27 173.503 171.243 176.712 175.358 179.463C177.094 180.624 180.442 181.906 185.054 184.643C189.667 187.379 195.584 191.289 200.379 194.027C208.444 198.632 215.707 200.406 222.101 201.494C227.369 202.392 234.346 201.465 241.716 200.565C248.039 199.794 252.409 199.139 256.13 198.626C258.635 198.281 263.271 197.331 273.498 196.68C276.772 195.702 278.724 194.914 280.553 194.025C280.95 193.622 281.266 192.994 281.593 192.347" stroke="#0A2A43" stroke-width="3" stroke-linecap="round"/>
<path d="M153.572 196.117C155.554 198.012 161.094 203.042 169.983 207.834C174.335 210.179 181.403 213.397 186.941 215.827C196.241 219.906 202.239 221.752 208.427 223.406C219.192 226.284 227.488 227.375 231.535 228.593C238.328 230.638 243.13 231.744 245.544 231.891C254.62 232.446 259.495 232.994 268.157 233.213C271.581 233.299 274.001 231.104 276.669 228.791C278.684 226.961 280.723 225.194 282.006 222.596C282.183 221.911 282.183 221.348 282.183 220.768" stroke="#0A2A43" stroke-width="3" stroke-linecap="round"/>
<path d="M127.224 15.1046C129.882 13.9654 133.603 13.9312 138.056 15.1766C142.481 16.4143 147.477 18.8762 152.555 22.4982C162.708 29.7406 173.043 41.5184 179.675 56.9893C186.309 72.4642 187.974 88.6838 186.468 101.653C185.714 108.138 184.173 113.758 182.106 118.042C180.021 122.361 177.494 125.139 174.878 126.261C172.295 127.368 169.12 127.16 165.438 125.53C161.753 123.898 157.702 120.899 153.544 116.693C145.234 108.288 136.717 95.2944 130.029 79.6945C123.341 64.0945 119.803 48.9669 119.445 37.1529C119.265 31.2411 119.886 26.2398 121.246 22.4459C122.604 18.6547 124.642 16.2119 127.224 15.1046Z" fill="#F2EDE3" stroke="#0A2A43" stroke-width="3"/>
<path d="M63.7049 128.5C51.3333 133.804 37.4081 129.016 32.602 117.805C27.7958 106.594 33.9289 93.2063 46.3004 87.9026" stroke="#0A2A43" stroke-width="3"/>
<path d="M121.162 17.631C128.086 11.7986 139.08 13.4187 150.543 21.007C161.86 28.4987 173 41.4661 179.638 56.901C187.152 83.2354 187.797 99.7809 184.886 110.448C182.013 120.976 175.628 125.937 168.441 129.018C161.789 131.87 152.908 128.919 143.689 120.812C134.564 112.787 125.541 100.048 118.866 84.4789C112.191 68.9094 109.186 53.5912 109.666 41.4481C110.15 29.1815 114.136 20.7144 120.788 17.8627L120.993 17.775L121.162 17.631Z" fill="#F2EDE3" stroke="#0A2A43" stroke-width="3"/>
<path d="M110.568 27.9271C110.17 31.3306 109.777 35.9613 109.696 41.4257C109.521 53.2255 110.791 68.9732 116.615 84.6522C122.198 99.6845 132.903 111.646 142.135 119.816C146.428 123.616 150.425 126.612 153.476 128.735C153.119 128.686 152.751 128.635 152.371 128.584C147.472 127.922 140.666 127.066 133.039 126.284C117.819 124.723 99.2018 123.445 85.9476 124.651C74.8118 125.665 60.8634 128.628 49.7458 131.319C44.1767 132.668 39.2989 133.953 35.8131 134.901C34.0701 135.376 32.6746 135.766 31.714 136.038C31.4054 136.125 31.1417 136.201 30.9257 136.262C30.6758 136.078 30.3495 135.831 29.966 135.525C29.0205 134.769 27.7303 133.657 26.3647 132.243C23.6138 129.394 20.6535 125.418 19.4688 120.733C17.7142 113.796 18.3359 108.389 19.3628 104.75C19.8777 102.925 20.4966 101.536 20.9781 100.615C21.2077 100.176 21.4062 99.8448 21.5461 99.6236C21.7432 99.5449 22.005 99.4409 22.325 99.3117C23.106 98.9963 24.2375 98.535 25.6432 97.9494C28.4548 96.7781 32.3664 95.1092 36.7657 93.118C45.5434 89.1449 56.3417 83.8543 64.2189 78.6523C74.9983 71.5336 87.5235 57.4957 97.2755 45.3786C102.172 39.2947 106.404 33.65 109.412 29.5266C109.822 28.9652 110.206 28.4295 110.568 27.9271Z" fill="#F2EDE3" stroke="#0A2A43" stroke-width="3"/>
<path d="M138.671 96.6519C148.355 93.4126 157.369 80.6838 153.296 71.4342C149.596 63.0348 134.908 63.1572 125.224 66.3965" stroke="#0A2A43" stroke-width="3"/>
<path d="M152.169 83.7072C149.48 84.43 146.225 81.0188 144.9 76.0881C143.575 71.1574 144.681 66.5743 147.371 65.8516" stroke="#0A2A43" stroke-width="3"/>
<path d="M46.474 132.839C47.0066 134.808 48.5198 139.548 49.8357 142.598C51.8176 147.193 54.0234 151.676 55.1117 154.375C56.4521 157.7 59.0068 159.512 59.5096 159.763C60.6934 160.353 62.6456 159.229 66.706 157.553C72.4634 155.177 73.6947 154.749 75.079 153.948C76.6758 153.023 77.5129 152.879 77.772 152.474C78.4865 151.359 75.96 149.288 72.8043 145.249C71.4653 143.536 68.6247 139.721 67.0265 137.35C66.2049 136.131 70.3695 135.246 71.2044 134.009C71.3152 133.273 71.1218 132.123 70.6431 130.677C70.3932 129.966 70.1291 129.3 69.736 128.479" stroke="#0A2A43" stroke-width="3" stroke-linecap="round"/>
</svg>
