<svg width="88" height="88" viewBox="0 0 88 88" fill="none" xmlns="http://www.w3.org/2000/svg">
<path d="M41.0262 2.72307L2.71994 41.0252C1.93881 41.8065 1.5 42.8661 1.5 43.971C1.5 45.0758 1.93881 46.1355 2.71994 46.9168L41.0262 85.221C41.4131 85.6081 41.8725 85.9151 42.3782 86.1246C42.8838 86.3341 43.4258 86.442 43.9731 86.442C44.5204 86.442 45.0623 86.3341 45.568 86.1246C46.0736 85.9151 46.533 85.6081 46.9199 85.221L85.22 46.9189C86.0011 46.1375 86.4399 45.0779 86.4399 43.9731C86.4399 42.8682 86.0011 41.8086 85.22 41.0272L46.9179 2.72098C46.5309 2.3339 46.0715 2.02683 45.5659 1.81733C45.0603 1.60783 44.5183 1.5 43.971 1.5C43.4237 1.5 42.8817 1.60783 42.3761 1.81733C41.8705 2.02683 41.411 2.3339 41.0241 2.72098L41.0262 2.72307Z" stroke="black" stroke-width="3" stroke-linejoin="round"/>
<path d="M31.1162 56.4435L56.1162 31.5227M31.137 31.5039L56.0954 56.4622" stroke="black" stroke-width="3" stroke-linecap="round"/>
</svg>
