<svg width="262" height="310" viewBox="0 0 262 310" fill="none" xmlns="http://www.w3.org/2000/svg">
<path d="M43.4436 60.1582C46.0842 60.1582 48.5793 61.5544 50.4622 64.0166C52.3459 66.4801 53.5539 69.9485 53.554 73.8408C53.554 77.7334 52.3461 81.2025 50.4622 83.666C48.5793 86.1281 46.0842 87.5234 43.4436 87.5234C40.803 87.5234 38.3079 86.1281 36.425 83.666C34.5411 81.2025 33.3333 77.7334 33.3333 73.8408C33.3333 69.9485 34.5413 66.4801 36.425 64.0166C38.3079 61.5544 40.803 60.1582 43.4436 60.1582Z" stroke="#0A2A43" stroke-width="3"/>
<path d="M127.395 74.4482C130.036 74.4482 132.531 75.8445 134.414 78.3066C136.298 80.7702 137.506 84.2386 137.506 88.1309C137.506 92.0234 136.298 95.4925 134.414 97.9561C132.531 100.418 130.036 101.813 127.395 101.813C124.755 101.813 122.26 100.418 120.377 97.9561C118.493 95.4925 117.285 92.0234 117.285 88.1309C117.285 84.2386 118.493 80.7702 120.377 78.3066C122.26 75.8445 124.755 74.4482 127.395 74.4482Z" stroke="#0A2A43" stroke-width="3"/>
<path d="M158.654 118.497C152.242 118.497 147.044 116.471 147.044 109.565C147.044 102.66 147.776 96.1689 154.188 96.1689" stroke="#0A2A43" stroke-width="3"/>
<path d="M234.568 127.428C240.98 127.428 244.392 123.616 244.392 116.711C244.392 109.805 245.445 102.421 239.033 102.421" stroke="#0A2A43" stroke-width="3"/>
<path d="M240.819 103.314C240.819 128.469 222.213 153.328 197.057 153.328C171.902 153.328 155.082 119.538 155.082 94.3828" stroke="#0A2A43" stroke-width="3"/>
<path d="M85.4194 22.6484C111.081 22.6484 132.147 45.8155 132.147 74.7344C132.147 103.653 111.082 126.821 85.4194 126.821C59.7572 126.821 38.6918 103.653 38.6918 74.7344C38.692 45.8155 59.7573 22.6485 85.4194 22.6484Z" fill="#F2EDE3" stroke="#0A2A43" stroke-width="3"/>
<path d="M253.323 181.014C253.323 81.8798 239.926 48.835 196.164 48.835C155.081 48.835 137.219 84.5591 137.219 148.863" stroke="#0A2A43" stroke-width="3"/>
<path d="M155.082 94.3875C156.047 94.3634 159.097 94.2041 162.982 93.1814C165.537 92.5085 168.447 89.8632 171.737 87.4132C173.629 86.004 174.96 84.298 176.594 82.5139C179.063 79.8179 180.177 76.5728 181.235 75.1494C183.075 72.6736 185.634 81.9007 190.139 86.2651C191.571 87.653 195.644 90.2931 200.992 93.8508C207.352 98.0816 217.475 99.2122 222.075 100.254C226.192 101.186 229.293 101.448 232.888 102.022C233.641 102.095 234.195 102.095 235.292 102.116C236.388 102.138 238.012 102.182 239.686 102.935" stroke="#0A2A43" stroke-width="3" stroke-linecap="round"/>
<path d="M61.0785 43.1704C63.9567 39.1601 65.4374 36.1798 65.4962 35.8945C65.9744 36.3799 66.7608 36.9556 66.9564 37.1869L67.0001 37.2382C67.3797 37.6838 67.9095 38.3058 68.539 38.99C70.0442 40.3144 72.5383 41.8668 76.776 44.9174C78.5914 46.2242 80.0827 47.6166 82.4358 48.7319C87.6886 51.2218 89.4828 52.5751 92.3685 53.5439C95.9741 54.7545 101.187 55.0536 104.04 55.6277C105.625 55.9465 108.894 56.7274 114.174 56.7769C120.582 56.837 125.766 55.421 126.371 56.5083C126.62 56.9558 127.095 58.5499 127.843 60.5138C128.398 61.9706 128.614 63.2666 128.849 66.5643C129.006 68.7741 128.868 72.215 130.107 74.5235C130.893 75.9891 131.785 79.0125 132.029 78.1571C132.052 78.0765 132.005 77.5803 132.095 77.1331C132.409 75.5606 134.923 70.7011 136.569 67.4365C137.433 65.7223 139.085 62.6003 139.303 57.8308C139.57 51.9897 139.446 48.1792 140.264 47.9625C141.777 47.5615 146.432 46.7328 150.207 43.75C151.516 42.7158 153.334 41.1445 154.922 39.1825C155.519 38.4452 154.271 36.507 153.958 35.9336C152.974 34.1326 144.061 30.1083 138.141 25.4214C135.472 23.3091 133.919 21.7772 132.74 20.2904C131.163 18.3028 129.874 16.6052 128.533 15.6211C124.352 12.5519 119.632 11.0754 118.533 9.81907C117.485 8.62076 116.565 7.11757 112.629 6.21707C107.884 5.13133 106.218 4.42308 104.044 3.83333C100.209 2.79266 96.1129 1.75932 91.5242 1.58473C88.6824 1.47661 84.8504 1.49948 82.5413 1.50799C79.469 1.5193 78.0781 1.50504 76.761 1.79265C73.928 2.41124 69.8359 3.69634 67.9902 5.50805C66.5538 6.91791 64.6783 13.1648 61.012 14.5274C60.4821 14.7244 55.6424 14.5647 51.0214 14.9151C49.4362 15.0353 47.2751 15.1401 45.1857 16.2662C41.0249 18.5085 36.3988 21.2843 35.1212 23.8628C34.0257 26.0738 32.3506 29.8035 32.027 34.4319C31.7491 38.4062 31.7502 41.6269 32.1615 43.7948C32.6062 46.1384 34.5167 50.6141 36.1408 54.6467C36.9971 56.7728 35.0184 62.7436 38.5369 64.5957C38.7732 64.7201 39.385 63.5302 40.6239 62.1133C42.2108 60.2985 44.0448 58.7408 47.5289 55.9018C50.6248 53.3791 52.275 52.6962 55.6379 49.6101C57.4568 47.941 59.2807 45.6753 61.0785 43.1704Z" fill="#F2EDE3" stroke="#0A2A43" stroke-width="3" stroke-linecap="round"/>
<path d="M260.468 237.28C247.878 148.464 224.497 162.504 195.721 162.505C163.148 162.506 151.657 142.823 130.075 225.943" stroke="#0A2A43" stroke-width="3"/>
<line y1="-1.5" x2="48.309" y2="-1.5" transform="matrix(0.0570507 0.998371 -0.990323 0.138783 230.102 208.696)" stroke="#0A2A43" stroke-width="3"/>
<line y1="-1.5" x2="39.3238" y2="-1.5" transform="matrix(-0.0908461 0.995865 -0.975877 -0.21832 164.013 208.696)" stroke="#0A2A43" stroke-width="3"/>
<path d="M143.471 184.586C139.006 125.642 116.586 138.514 81.5021 138.516C41.7901 138.517 27.7804 108.982 1.46771 233.707" stroke="#0A2A43" stroke-width="3"/>
<line x1="104.755" y1="201.271" x2="113.686" y2="247.713" stroke="#0A2A43" stroke-width="3"/>
<line y1="-1.5" x2="58.903" y2="-1.5" transform="matrix(-0.073942 0.997263 -0.964144 -0.265378 42.8435 207.802)" stroke="#0A2A43" stroke-width="3"/>
<line y1="-1.5" x2="10.9363" y2="-1.5" transform="matrix(0.199127 0.979974 -0.990785 0.135444 97.2949 126.534)" stroke="#0A2A43" stroke-width="3"/>
<line y1="-1.5" x2="11.5684" y2="-1.5" transform="matrix(-0.376491 0.92642 -0.964597 -0.263729 66.7968 124.748)" stroke="#0A2A43" stroke-width="3"/>
<path d="M97.9225 183.407C99.6849 183.407 101.508 184.554 102.966 186.888C104.411 189.2 105.354 192.488 105.354 196.197C105.354 199.907 104.411 203.194 102.966 205.506C101.508 207.839 99.6849 208.986 97.9225 208.986C96.1602 208.986 94.3377 207.839 92.8795 205.506C91.4347 203.194 90.4919 199.907 90.4919 196.197C90.4919 192.488 91.4346 189.2 92.8795 186.888C94.3377 184.555 96.1602 183.407 97.9225 183.407Z" stroke="#0A2A43" stroke-width="3"/>
<path d="M180.088 183.407C181.85 183.407 183.674 184.554 185.132 186.888C186.577 189.2 187.52 192.488 187.52 196.197C187.52 199.907 186.577 203.194 185.132 205.506C183.674 207.839 181.85 208.986 180.088 208.986C178.326 208.986 176.503 207.839 175.045 205.506C173.6 203.194 172.657 199.907 172.657 196.197C172.657 192.488 173.6 189.2 175.045 186.888C176.503 184.555 178.326 183.407 180.088 183.407Z" stroke="#0A2A43" stroke-width="3"/>
<path d="M139.899 158.4C161.298 158.4 178.588 175.354 178.588 196.197C178.588 217.04 161.298 233.993 139.899 233.993C118.499 233.993 101.209 217.04 101.209 196.197C101.209 175.354 118.499 158.4 139.899 158.4Z" fill="#F2EDE3" stroke="#0A2A43" stroke-width="3"/>
<path d="M101.495 186.554C101.495 186.581 101.495 187.135 101.582 188.038C101.638 188.617 102.546 188.915 103.46 189.184C104.083 189.367 104.637 189.334 105.428 189.002C108.328 187.788 108.954 185.586 110.563 183.5C110.828 183.156 111.051 183.377 111.245 183.613C112.084 184.631 112.957 185.165 115.106 185.951C117.048 186.661 121.193 186.838 123.452 186.539C124.818 186.358 127.312 184.734 129.195 183.701C130.654 182.901 131.34 182.489 131.754 182.386C132.898 182.103 134.255 183.643 137.893 184.618C139.453 185.036 140.625 185.305 142.818 185.401C147.235 185.595 150.68 185.332 152.196 184.826C155.976 183.567 157.941 182.362 159.404 181.668C159.631 181.56 159.847 181.385 160.021 181.969C161.091 185.564 161.097 186.835 161.951 187.931C162.991 189.266 163.893 189.915 165.426 191.115C169.689 194.451 171.133 194.91 172.401 195.201C173.442 195.439 175.209 195.572 176.468 195.164C176.729 194.988 177.027 194.767 177.324 194.471C177.62 194.174 177.905 193.81 178.302 193.265" stroke="#0A2A43" stroke-width="3" stroke-linecap="round"/>
<path d="M204.202 296.225C191.699 239.96 168.478 248.854 139.899 248.855C107.549 248.855 96.1367 236.386 74.7022 289.043" stroke="#0A2A43" stroke-width="3"/>
<line x1="152.932" y1="231.447" x2="158.291" y2="247.522" stroke="#0A2A43" stroke-width="3"/>
<line x1="176.224" y1="278.229" x2="178.98" y2="309.027" stroke="#0A2A43" stroke-width="3"/>
<line x1="110.125" y1="278.574" x2="106.553" y2="303.581" stroke="#0A2A43" stroke-width="3"/>
<line x1="123.96" y1="230.573" x2="119.009" y2="246.779" stroke="#0A2A43" stroke-width="3"/>
</svg>
