<svg width="284" height="287" viewBox="0 0 284 287" fill="none" xmlns="http://www.w3.org/2000/svg">
<rect x="58.0474" y="0.606897" width="221.263" height="235.381" rx="19.5" transform="rotate(14.1243 58.0474 0.606897)" stroke="#FAF7F1"/>
<rect x="58.0474" y="0.606897" width="232.37" height="235.381" rx="19.5" transform="rotate(14.1243 58.0474 0.606897)" stroke="#FAF7F1"/>
<path d="M13.3134 111.081C10.2825 118.37 10.2701 119.491 10.294 119.977C10.4523 120.336 10.6004 120.622 10.8025 120.946L10.8049 120.95C11.2881 121.67 11.9412 122.644 12.6556 124.29C13.1385 125.967 13.4552 127.898 14.86 129.127C16.2835 130.373 17.85 131.303 19.2927 132.157C21.5398 133.486 24.3013 134.512 26.4482 135.958C28.9903 137.671 32.4283 140.074 33.6066 141.665C34.9747 143.512 36.0419 146.429 40.3313 146.07C45.0382 145.677 47.7187 145.349 49.9442 143.635C51.9015 142.127 52.7864 140.602 54.9363 137.143C59.9153 129.132 62.1441 126.474 66.0431 125.75C70.4727 124.927 75.2941 124.281 78.2501 122.838C81.038 121.477 83.4277 119.981 86.1877 115.862C90.1464 109.954 92.688 105.803 93.3247 105.359C95.1635 104.079 103.625 102.767 107.549 98.6639C108.699 97.4618 111.244 94.1442 117.608 88.7864C121.509 85.5026 126.818 81.2402 130.817 78.7777C136.98 74.983 140.129 73.5704 141.264 72.6811C143.755 70.7298 147.644 68.0035 150.645 66.9153C154.209 65.6225 159.107 64.0654 163.783 63.8143C166.969 63.6432 169.946 63.1948 172.124 64.4131C176.377 66.7922 183.644 70.7912 185.821 73.7685C188.306 77.1675 189.349 79.6246 191.392 80.3251C193.371 81.0038 198.844 80.7036 203.741 81.1753L203.752 81.1764C207.121 81.5009 216.327 82.3876 219.485 79.5158C222.265 76.988 227.45 72.5525 226.874 70.8233C226.785 70.5581 226.49 70.3685 226.16 70.213C224.324 69.3461 221.445 68.5756 218.837 65.4938C216.598 62.8471 213.271 59.1993 209.74 56.19C207.973 54.684 206.056 52.6119 202.993 50.1449C199.127 47.0312 197.522 46.1673 196.042 46.0819C195.197 46.0332 189.729 47.2359 181.007 47.7657C174.743 48.1463 171.669 48.1646 170.582 47.8672C169.401 47.5441 165.265 45.6354 157.216 42.9952C152.763 41.5348 147.527 40.0874 144.324 39.1004C141.121 38.1133 139.998 37.5664 138.468 37.042C135.108 35.8903 131.582 33.8966 127.843 32.5448C124.34 31.2786 120.982 30.6913 118.406 31.3897C114.472 32.4559 108.739 34.1219 103.951 39.3436C101.396 42.1302 99.5414 44.4671 98.0084 46.1212C96.3878 47.8698 93.8771 50.7123 89.8026 53.0585C83.2749 56.8173 79.9144 57.7584 77.9782 58.6546C74.4379 60.2934 68.9425 62.4051 65.7698 66.4883C63.6519 69.2141 59.8951 74.0705 57.8519 76.9966C55.2519 80.7199 53.4549 84.1041 50.7114 87.4202C48.8252 89.7001 47.0032 91.5751 36.343 95.6896C33.6253 96.7385 32.3005 97.084 29.1618 98.7769C22.5726 102.331 17.8245 104.971 16.8321 105.898C15.9501 106.723 14.562 108.078 13.3134 111.081Z" fill="#0A2A43"/>
<path d="M10.2942 119.982C10.2701 119.499 10.2719 118.395 13.3134 111.081C14.562 108.078 15.9501 106.723 16.8321 105.898C17.8245 104.971 22.5726 102.331 29.1618 98.7769C32.3005 97.084 33.6253 96.7385 36.343 95.6896C47.0032 91.5751 48.8252 89.7001 50.7114 87.4202C53.4549 84.1041 55.2519 80.7199 57.8519 76.9966C59.8951 74.0705 63.6519 69.2141 65.7698 66.4883C68.9425 62.4051 74.4379 60.2934 77.9782 58.6546C79.9144 57.7584 83.2749 56.8173 89.8026 53.0585C93.8771 50.7123 96.3878 47.8698 98.0084 46.1212C99.5414 44.4671 101.396 42.1302 103.951 39.3436C108.739 34.1219 114.472 32.4559 118.406 31.3897C120.982 30.6913 124.34 31.2786 127.843 32.5448C131.582 33.8966 135.108 35.8903 138.468 37.042C139.998 37.5664 141.121 38.1133 144.324 39.1004C147.527 40.0874 152.763 41.5348 157.216 42.9952C165.265 45.6354 169.401 47.5441 170.582 47.8672C171.669 48.1646 174.743 48.1463 181.007 47.7657C189.729 47.2359 195.197 46.0332 196.042 46.0819C197.522 46.1673 199.127 47.0312 202.993 50.1449C206.056 52.6119 207.973 54.684 209.74 56.19C213.271 59.1993 216.598 62.8471 218.837 65.4938C221.445 68.5756 224.324 69.3461 226.16 70.213C226.49 70.3685 226.785 70.5581 226.874 70.8233C227.45 72.5525 222.265 76.988 219.485 79.5158C216.323 82.3906 207.102 81.499 203.741 81.1753C198.844 80.7036 193.371 81.0038 191.392 80.3251C189.349 79.6246 188.306 77.1675 185.821 73.7685C183.644 70.7912 176.377 66.7922 172.124 64.4131C169.946 63.1948 166.969 63.6432 163.783 63.8143C159.107 64.0654 154.209 65.6225 150.645 66.9153C147.644 68.0035 143.755 70.7298 141.264 72.6811C140.129 73.5704 136.98 74.983 130.817 78.7777C126.818 81.2402 121.509 85.5026 117.608 88.7864C111.244 94.1442 108.699 97.4618 107.549 98.6639C103.625 102.767 95.1635 104.079 93.3247 105.359C92.688 105.803 90.1464 109.954 86.1877 115.862C83.4277 119.981 81.038 121.477 78.2501 122.838C75.2941 124.281 70.4727 124.927 66.0431 125.75C62.1441 126.474 59.9153 129.132 54.9363 137.143C52.7864 140.602 51.9015 142.127 49.9442 143.635C47.7187 145.349 45.0382 145.677 40.3313 146.07C36.0419 146.429 34.9747 143.512 33.6066 141.665C32.4283 140.074 28.9903 137.671 26.4482 135.958C24.3013 134.512 21.5398 133.486 19.2927 132.157C17.85 131.303 16.2835 130.373 14.86 129.127C13.4552 127.898 13.1385 125.967 12.6556 124.29C11.94 122.641 11.2859 121.667 10.8025 120.946C10.5872 120.601 10.4331 120.299 10.2628 119.906" stroke="#FAF7F1" stroke-linecap="round"/>
<path d="M49.5257 143.572C49.9673 144.135 40.264 148.179 42.0957 149.348C44.4322 150.84 50.781 153.962 54.6578 155.92C56.7853 156.994 62.1309 164.967 64.7898 169.163C67.1583 172.901 72.8177 177.79 75.1137 179.162C76.1043 179.753 76.9613 179.907 77.846 179.935C80.5382 180.021 84.835 175.629 89.3344 170.639C92.476 167.155 95.4451 165.76 97.6468 164.479C101.298 162.354 102.694 161.336 104.704 158.522C106.104 156.561 107.675 154.411 109.821 152.494C112.138 150.423 114.578 148.77 117.587 147.03C122.12 144.41 126.6 142.733 129.53 141.603C132.24 140.559 135.589 138.705 139.708 137.138C145.079 135.095 146.69 133 149.301 129.355C151.451 126.353 152.872 124.082 154.045 122.906C159.441 117.498 165.981 114.302 167.973 113.504C170.659 112.429 172.419 112.035 174.689 111.413C179.942 109.974 183.54 108.269 186.252 106.19C190.571 102.879 192.45 100.361 194.685 97.9808C195.997 96.5835 197.962 95.1989 199.742 94.1471C204.535 91.3156 213.619 91.4012 213.956 90.8002C214.743 89.4001 214.331 87.7397 213.993 87.1901C213.17 85.8494 210.377 86.0287 207.577 84.8773C206.997 84.6344 206.624 84.4788 206.316 84.2516C206.009 84.0244 205.777 83.7303 204.926 82.6409" stroke="#FAF7F1" stroke-linecap="round"/>
<path d="M13.7012 126.765C13.7931 125.888 15.3616 121.616 17.6382 117.562C20.8569 111.831 22.8796 110.509 25.6116 109.055C30.9502 106.213 35.6308 106.4 38.7456 105.552C43.296 104.313 48.7568 101.699 51.907 99.8535C55.9622 97.4775 58.9617 93.3672 61.0648 90.3541C62.9623 87.6355 63.5451 84.5332 66.7579 77.7179C70.0516 70.7307 72.4757 69.1876 74.8241 67.4637C77.1713 65.7406 82.9484 63.9194 89.5622 61.0456C93.6995 59.2478 97.6482 58.6164 100.557 57.4713C103.804 56.193 105.482 54.2223 107.615 52.6024C109.988 50.8005 112.164 47.7842 115.072 43.071C116.745 40.3591 119.038 38.6329 121.232 37.1961C124.035 36.1867 127.026 35.1908 129.154 34.5009C129.694 34.3672 130.234 34.2753 132.39 34.1807" stroke="#FAF7F1" stroke-width="0.2" stroke-linecap="round"/>
<path d="M24.3296 135.538C25.7955 134.232 30.1093 130.29 32.1375 127.721C34.3531 124.915 35.7532 123.078 38.6854 120.638C40.9851 118.724 47.9934 116.337 57.5118 113.389C62.0582 111.981 67.1636 105.159 72.0604 98.1443C74.3367 94.8834 76.2434 91.7604 78.5976 89.7612C80.7422 87.94 91.3927 84.3338 100.711 79.2908C106.851 75.9675 109.476 72.2118 111.51 70.3972C114.011 68.166 115.143 65.0499 117.328 63.4145C120.054 61.3754 123.518 60.8018 125.94 60.0929C128.283 59.4075 130.563 58.9709 133.872 58.7967C136.721 58.6468 138.908 56.8057 140.885 55.1704C143.194 53.2615 145.907 52.9579 149.825 52.04C154.329 50.9847 157.344 49.7178 167.418 49.5615C169.942 49.5224 170.813 50.6681 171.227 51.1937C172.434 52.7286 166.895 52.1237 164.548 52.2898C162.119 52.4616 159.308 53.6164 156.599 54.9223C152.777 56.7648 150.127 57.2445 147.706 57.7007C145.305 58.1532 142.952 59.88 140.728 61.8401C138.867 63.4806 136.044 64.1727 132.251 64.6711C129.063 65.0901 125.597 65.8317 123.544 67.2236C120.157 69.5188 116.265 74.9217 111.695 77.3533C105.454 80.6741 100.158 84.9285 96.4751 86.7204C91.21 89.2823 87.8586 91.2034 83.2746 93.6978C80.3208 95.3051 77.8621 98.2543 75.5875 101.469C73.2451 104.779 71.043 108.801 68.4536 111.856C64.9728 115.963 62.1142 119.149 60.1653 121.267C57.3148 124.363 53.0091 126.282 48.931 128.333C44.8302 130.396 39.4596 134.211 36.3447 136.759C35.5319 137.397 34.7604 137.932 34.1001 138.462C33.4399 138.993 32.9142 139.504 32.1286 140.259" stroke="#FAF7F1" stroke-width="0.2" stroke-linecap="round"/>
<path d="M175.69 66.3533C176.307 66.1944 178.313 65.2864 180.889 63.4988C184.468 61.0148 188.235 60.3724 192.326 59.2986C194.12 58.7619 196.403 58.4154 200.62 58.2836C203.431 58.2216 207.604 58.1696 213.041 58.8176" stroke="#FAF7F1" stroke-width="0.5" stroke-linecap="round"/>
<path d="M183.248 71.6335C184.588 71.048 189.201 68.5898 191.786 67.2469C194.009 66.0924 196.872 65.8103 199.739 65.3023C203.511 64.5036 206.221 63.8677 210.103 63.147C211.778 63.0524 214.353 63.0517 217.112 63.1502" stroke="#FAF7F1" stroke-width="0.5" stroke-linecap="round"/>
<path d="M46.7021 152.936C48.3597 152.754 52.9698 152.14 55.43 150.721C58.1059 149.179 59.9219 145.814 61.7711 139.763C62.4029 137.696 62.5161 136.374 62.8935 135.302C63.6852 133.054 67.6561 131.673 70.7622 130.26C74.6307 128.5 77.9598 128.344 80.9572 127.308C83.3002 126.498 87.4794 124.416 90.5213 122.589C93.6026 120.738 95.6229 115.102 96.8405 111.812C97.3106 110.542 98.2782 109.743 99.357 109.3C101.766 108.309 104.972 107.817 107.409 106.578C110.343 105.086 112.981 100.427 114.947 98.0378C116.96 95.5907 119.779 93.2953 121.803 91.2993C124.235 88.9006 126.387 86.5866 129.501 84.8428C132.245 83.3063 135.397 81.7833 137.664 79.9818C140.508 77.7217 144.478 75.8168 147.72 74.1728C151.785 72.1116 154.85 71.9557 157.635 71.2115C160.413 70.469 163.33 69.2117 165.578 68.3968C166.734 68.0254 168.102 67.3386 169.543 66.3892C170.218 65.932 170.779 65.525 172.138 64.7227" stroke="#FAF7F1" stroke-width="0.2" stroke-linecap="round"/>
<path d="M64.2886 168.055C65.016 167.518 67.1635 165.403 73.8753 158.647C78.3548 154.139 80.5323 150.671 82.7305 148.668C84.7135 146.861 88.077 146.547 90.9753 145.989C93.3911 145.524 96.3235 144.279 100.721 141.284C103.645 139.294 106.35 135.256 109.356 133.35C114.009 130.401 117.436 129.793 120.355 127.6C122.735 125.812 124.49 123.672 126.708 121.582C130.988 117.55 132.226 114.897 133.361 112.472C134.563 109.905 136.109 106.959 138.393 105.043C140.568 103.218 143.88 100.607 146.821 98.2802C150.06 95.7181 153.444 94.8153 156.121 93.9866C158.408 93.2782 160.753 92.6135 164.883 91.7414C167.643 91.1586 169.722 90.0411 171.696 88.1024C173.673 86.1602 175.592 83.9073 179.14 82.1179C183.629 80.5723 186.839 80.2844 190.156 80.1525C191.466 80.0206 192.018 79.7568 193.044 79.3203" stroke="#FAF7F1" stroke-width="0.2" stroke-linecap="round"/>
<path d="M69.957 175.263C70.5395 174.942 76.5186 168.795 80.1284 164.589C81.8586 162.573 83.3287 160.363 85.0903 158.635C86.9786 156.783 90.0935 155.363 93.5838 152.728C99.7359 148.082 104.589 144.454 107.606 141.697C109.957 139.548 112.898 139.742 115.923 139.124C118.668 138.563 121.512 135.88 124.275 133.772C128.177 130.796 131.743 127.278 135.604 123.214C137.594 121.12 139.16 118.921 140.775 116.81C142.528 114.519 144.218 112.868 146.106 110.929C148.963 107.997 158.647 102.028 166.672 98.4843C170.083 96.9784 172.884 97.1565 173.952 96.7808C176.192 95.9931 177.579 92.3441 180.259 90.1321C182.744 88.081 186.459 87.4559 188.818 85.6912C190.871 84.1546 193.56 83.6735 196.52 83.1436C197.565 82.9168 199.032 82.5472 200.06 82.2661C201.089 81.9849 201.635 81.8035 202.654 81.3359" stroke="#FAF7F1" stroke-width="0.2" stroke-linecap="round"/>
<path d="M172.744 112.093C167.635 113.37 164.032 114.81 163.995 115.214C163.518 115.902 162.405 115.574 161.995 115.931C161.586 116.288 161.122 117.325 160.46 117.467C158.157 120.538 158.157 119.332 155.086 122.073C150.651 126.032 150.493 127.039 148.944 129.751C145.873 135.125 137.981 137.585 136.527 138.439C134.125 139.849 132.123 141.071 129.767 142.055L129.452 142.187C125.086 144.011 122.062 145.275 121.238 145.949C119.845 147.09 114.624 148.208 112.446 150.977C110.763 153.115 106.053 155.322 103.927 160.461C102.272 164.46 96.6339 165.608 94.5429 167.371C91.4877 169.947 89.8593 171.934 83.4218 176.584C80.1766 178.928 79.9942 178.776 77.5427 180.422C73.534 183.114 73.2013 173.164 68.3297 175.048C64.46 176.545 68.4572 187.908 63.7232 188.92C56.414 190.483 52.4284 195.159 49.9037 194.399C46.2582 193.303 40.6629 190.248 36.8519 189.026C34.1996 188.176 28.1681 191.584 26.6465 192.482C26.0386 192.84 25.4726 193.461 25.2343 194.399L25.216 194.471C24.985 195.379 24.7094 196.461 25.0296 197.653C26.3325 202.501 28.7035 208.235 30.2452 210.041C30.8486 210.747 32.1108 215.469 35.3974 221.914C37.3637 225.77 38.3228 227.5 39.2048 227.901C42.5496 229.422 48.8689 231.272 52.1841 230.819C57.2444 230.129 60.9026 229.749 66.111 228.353C68.157 227.805 71.7927 226.362 76.3459 224.881L76.4547 224.846C78.7989 224.084 79.9853 223.698 80.8686 223.861C82.3697 224.139 83.7463 224.59 84.7657 225.91C86.743 228.472 90.6115 232.875 94.5429 233.993L94.6167 234.014C97.1526 234.735 100.161 235.59 103.927 234.179C108.309 232.538 111.556 230.819 113.474 230.061C116.022 229.052 117.836 228.509 118.449 228.918C118.83 229.172 119.253 229.638 119.816 230.012C121.805 231.328 122.697 232.191 123.986 232.728C125.571 233.389 127.66 234.467 130.474 234.091C132.654 233.799 137.104 232.764 141.718 230.601C144.939 229.09 147.794 226.398 152.158 220.451C152.93 219.4 153.161 219.172 154.406 219.704C155.652 220.236 157.754 221.65 159.138 222.185C162.256 223.392 167.286 225.886 173.556 225.991C176.733 226.044 179.779 226.087 184.245 224.602C187.463 223.532 192.452 221.674 195.349 220.423C199.128 218.791 202.142 217.188 205.256 214.311C207.828 211.934 211.274 208.219 213.782 203.625C215.664 200.18 217.271 197.443 216.172 195.375C214.389 192.017 209.858 189.839 211.229 189.026C211.458 188.89 212.106 189.045 212.686 188.92C215.403 188.336 221.291 186.594 225.786 182.693C226.983 181.655 229.605 178.232 232.242 173.219C233.457 170.911 233.715 170.084 233.528 168.223C233.094 163.899 232.599 159.78 231.155 157.512C229.57 155.024 226.05 151.094 221.458 147.423C219.118 145.552 216.086 144.642 216.963 144.003C217.996 143.25 220.773 142.495 222.791 139.743C224.086 137.978 225.456 135.053 224.748 131.24C223.899 126.664 222.915 122.072 221.642 119.332C220.785 117.487 220.024 116.189 218.974 115.413C218.085 114.756 214.612 112.965 208.703 111.252C203.784 109.827 198.919 97.9255 195.776 98.273C192.121 98.6773 191.402 101.879 189.634 103.647C185.028 108.254 181.957 109.789 172.744 112.093Z" stroke="#FAF7F1" stroke-linecap="round"/>
<path d="M211.409 111.13C210.577 109.388 209.945 107.93 209.397 106.761C209.535 106.852 209.678 106.863 209.83 106.76C211.363 105.725 211.689 104.192 212.568 103.704C214.625 102.561 218.622 101.623 220.575 100.13C221.591 99.3528 222.873 98.2708 223.566 94.5563C223.851 93.0331 224.134 90.9041 223.578 88.4075C223.154 86.4986 222.877 84.9811 222.409 83.4621C221.826 81.5694 221.076 79.3413 219.627 77.2806C218.056 75.0475 216.876 73.5138 216.112 72.8558C215.357 72.2066 213.731 70.9476 209.605 69.3002C206.85 68.1995 202.75 66.7781 199.709 65.7777C196.667 64.7773 194.754 64.1585 193.304 63.8699C190.946 63.4003 189.386 63.1931 187.781 63.2274C185.483 63.2765 183.804 63.3036 182.94 63.5719C180.607 64.2965 178.844 65.8357 177.1 66.6688C175.064 67.6417 174.031 68.1987 172.753 68.9722C171.903 69.486 169.969 69.7859 168.787 70.95C168.224 71.5037 167.451 73.8029 165.43 76.203C164.123 77.756 163.032 78.6711 162.416 79.6867C161.874 80.5804 161.122 82.4533 160.385 85.9335C159.955 87.9673 159.517 90.5343 159.294 92.699C159.07 94.8638 159.06 96.5745 159.29 99.1214C159.52 101.668 159.694 105.023 160.313 106.889C161.729 111.16 163.312 114.042 164.137 115.12C165.621 117.059 168.005 119.736 170.566 120.448C173.252 121.194 174.764 122.038 178.368 120.931C182.323 119.715 184.136 118.592 184.831 118.019C185.6 117.384 187.315 117.716 188.495 117.127C188.712 117.018 188.491 116.9 188.522 116.706C188.553 116.512 188.275 115.8 188.081 115.215C188.66 116.908 189.552 119.138 190.926 121.388C192.409 123.816 194.057 125.461 196.524 125.688C197.621 125.789 199.67 125.13 201.146 125.402C203.388 125.815 206.728 126.96 207.743 126.553C208.887 126.094 211.836 125.164 213.308 121.137C214.188 118.729 214.55 117.187 214.387 116.769C214.22 116.339 212.974 114.407 211.409 111.13Z" fill="#0A2A43"/>
<path d="M181.96 100.927C182.167 100.64 184.766 96.8627 186.419 95.9884C189.309 94.4602 192.069 93.8006 194.854 92.3959C196.006 91.8146 196.583 91.2552 197.029 91.1737C198.407 90.9223 200.232 91.9851 201.484 93.2074C203.364 95.0432 204.599 97.3453 205.643 99.2667C207.157 102.055 208.079 104.236 208.636 105.24C209.369 106.562 210.166 108.528 211.409 111.13C212.974 114.407 214.22 116.339 214.387 116.769C214.55 117.187 214.188 118.729 213.308 121.137C211.836 125.164 208.887 126.094 207.743 126.553C206.728 126.96 203.388 125.815 201.146 125.402C199.67 125.13 197.621 125.789 196.524 125.688C194.057 125.461 192.409 123.816 190.926 121.388C188.735 117.801 187.77 114.263 187.347 112.874C186.837 111.199 185.867 107.921 185.325 105.898C184.992 104.655 184.046 102.549 183.109 101.417C182.774 101.012 181.813 100.913 180.808 100.69C179.644 100.432 178.535 101.607 177.825 102.393C176.152 104.243 175.712 108.622 175.849 109.596C175.984 110.55 177.123 111.209 180.149 112.614C186.629 115.624 187.386 113.112 188.081 115.213C188.274 115.798 188.553 116.511 188.522 116.706C188.491 116.9 188.712 117.018 188.495 117.127C187.315 117.716 185.6 117.384 184.831 118.019C184.136 118.592 182.323 119.715 178.368 120.931C174.764 122.038 173.252 121.194 170.566 120.448C168.005 119.736 165.621 117.059 164.137 115.12C163.312 114.042 161.729 111.16 160.313 106.889C159.694 105.023 159.52 101.668 159.29 99.1214C159.06 96.5745 159.07 94.8638 159.294 92.699C159.517 90.5343 159.955 87.9673 160.385 85.9335C161.122 82.4533 161.874 80.5804 162.416 79.6867C163.032 78.6711 164.123 77.756 165.43 76.203C167.451 73.8029 168.224 71.5037 168.787 70.95C169.969 69.7859 171.903 69.486 172.753 68.9722C174.031 68.1987 175.064 67.6417 177.1 66.6688C178.844 65.8357 180.607 64.2965 182.94 63.5719C183.804 63.3036 185.483 63.2765 187.781 63.2274C189.386 63.1931 190.946 63.4003 193.304 63.8699C194.754 64.1585 196.667 64.7773 199.709 65.7777C202.75 66.7781 206.85 68.1995 209.605 69.3002C213.731 70.9476 215.357 72.2066 216.112 72.8558C216.876 73.5138 218.056 75.0475 219.627 77.2806C221.076 79.3413 221.826 81.5694 222.409 83.4621C222.877 84.9811 223.154 86.4986 223.578 88.4075C224.134 90.9041 223.851 93.0331 223.566 94.5563C222.873 98.2708 221.591 99.3528 220.575 100.13C218.622 101.623 214.625 102.561 212.568 103.704M212.568 103.704C211.689 104.192 211.363 105.725 209.83 106.76C208.945 107.357 208.342 104.135 207.606 103.146C205.907 100.868 205.574 97.9041 203.486 95.311C201.804 93.2224 200.53 91.5998 200.492 91.1748C200.452 90.7329 200.792 90.3242 201.196 89.9949C202.048 89.3008 203.628 89.388 207.688 90.4058C209.493 90.8583 210.209 91.7899 211.532 93.0689C214.552 95.9868 211.991 101.41 212.568 103.704Z" stroke="#FAF7F1" stroke-linecap="round"/>
<path d="M191.537 143.508C192.81 142.057 193.814 140.826 194.659 139.849C194.502 139.9 194.361 139.871 194.242 139.731C193.047 138.319 193.15 136.754 192.437 136.046C190.767 134.388 187.175 132.401 185.7 130.433C184.933 129.41 183.993 128.02 184.334 124.257C184.473 122.714 184.779 120.588 185.991 118.336C186.917 116.614 187.596 115.228 188.458 113.893C189.533 112.23 190.86 110.289 192.814 108.699C194.932 106.976 196.484 105.82 197.398 105.394C198.3 104.974 200.208 104.204 204.625 103.738C207.576 103.426 211.907 103.171 215.106 103.034C218.305 102.896 220.314 102.82 221.788 102.935C224.185 103.124 225.743 103.347 227.278 103.816C229.477 104.487 231.085 104.969 231.844 105.461C233.893 106.792 235.172 108.752 236.624 110.027C238.32 111.516 239.163 112.333 240.184 113.424C240.862 114.149 242.641 114.963 243.464 116.404C243.855 117.09 243.975 119.512 245.269 122.371C246.106 124.22 246.907 125.397 247.224 126.542C247.504 127.549 247.719 129.556 247.483 133.105C247.346 135.179 247.07 137.769 246.698 139.913C246.326 142.057 245.871 143.706 244.958 146.095C244.046 148.484 242.968 151.666 241.866 153.294C239.344 157.02 237.038 159.364 235.951 160.178C233.997 161.641 230.976 163.571 228.318 163.561C225.53 163.55 223.845 163.953 220.677 161.908C217.201 159.665 215.76 158.092 215.248 157.352C214.679 156.532 212.938 156.386 211.963 155.499C211.783 155.335 212.028 155.281 212.051 155.086C212.074 154.891 212.535 154.281 212.88 153.771C211.864 155.244 210.4 157.148 208.467 158.94C206.381 160.874 204.348 162.011 201.912 161.56C200.828 161.359 199.036 160.169 197.541 160.03C195.271 159.819 191.745 160.015 190.879 159.347C189.903 158.595 187.316 156.9 186.993 152.624C186.8 150.068 186.87 148.485 187.14 148.127C187.418 147.759 189.141 146.238 191.537 143.508Z" fill="#0A2A43"/>
<path d="M222.649 141.68C222.528 141.348 221.052 137.007 219.698 135.717C217.331 133.462 214.854 132.078 212.555 129.97C211.603 129.098 211.2 128.403 210.793 128.204C209.535 127.588 207.49 128.115 205.954 128.952C203.646 130.209 201.832 132.089 200.306 133.655C198.091 135.928 196.612 137.777 195.804 138.592C194.739 139.665 193.439 141.341 191.537 143.508C189.141 146.238 187.418 147.759 187.14 148.127C186.87 148.485 186.8 150.068 186.993 152.624C187.316 156.9 189.903 158.595 190.879 159.347C191.745 160.015 195.271 159.819 197.541 160.03C199.036 160.169 200.828 161.359 201.912 161.56C204.348 162.011 206.381 160.874 208.467 158.94C211.549 156.082 213.438 152.939 214.222 151.717C215.167 150.243 216.991 147.352 218.062 145.552C218.72 144.446 220.201 142.676 221.41 141.84C221.843 141.541 222.794 141.707 223.823 141.765C225.013 141.833 225.761 143.265 226.231 144.214C227.34 146.449 226.574 150.783 226.178 151.682C225.79 152.564 224.515 152.889 221.221 153.421C214.167 154.559 214.121 151.936 212.881 153.769C212.536 154.279 212.074 154.891 212.051 155.086C212.028 155.281 211.783 155.335 211.963 155.499C212.938 156.386 214.679 156.532 215.248 157.352C215.76 158.092 217.201 159.665 220.677 161.908C223.845 163.953 225.53 163.55 228.318 163.561C230.976 163.571 233.997 161.641 235.951 160.178C237.038 159.364 239.344 157.02 241.866 153.294C242.968 151.666 244.046 148.484 244.958 146.095C245.871 143.706 246.326 142.057 246.698 139.913C247.07 137.769 247.346 135.179 247.483 133.105C247.719 129.556 247.504 127.549 247.224 126.542C246.907 125.397 246.106 124.22 245.269 122.371C243.975 119.512 243.855 117.09 243.464 116.404C242.641 114.963 240.862 114.149 240.184 113.424C239.163 112.333 238.32 111.516 236.624 110.027C235.172 108.752 233.893 106.792 231.844 105.461C231.085 104.969 229.477 104.487 227.278 103.816C225.743 103.347 224.185 103.124 221.788 102.935C220.314 102.82 218.305 102.896 215.106 103.034C211.907 103.171 207.576 103.426 204.625 103.738C200.208 104.204 198.3 104.974 197.398 105.394C196.484 105.82 194.932 106.976 192.814 108.699C190.86 110.289 189.533 112.23 188.458 113.893C187.596 115.228 186.917 116.614 185.991 118.336C184.779 120.588 184.473 122.714 184.334 124.257C183.993 128.02 184.933 129.41 185.7 130.433C187.175 132.401 190.767 134.388 192.437 136.046M192.437 136.046C193.15 136.754 193.047 138.319 194.242 139.731C194.932 140.545 196.387 137.608 197.364 136.857C199.617 135.124 200.742 132.362 203.455 130.433C205.641 128.879 207.308 127.664 207.46 127.265C207.618 126.85 207.401 126.365 207.102 125.938C206.47 125.039 204.926 124.694 200.742 124.572C198.883 124.517 197.941 125.22 196.32 126.092C192.622 128.08 193.615 133.995 192.437 136.046Z" stroke="#FAF7F1" stroke-linecap="round"/>
<path d="M175.967 141.207C175.579 140.277 175.232 139.523 174.968 138.903C174.955 138.987 174.909 139.043 174.815 139.063C173.87 139.26 173.155 138.833 172.654 138.984C171.482 139.336 169.705 140.478 168.433 140.667C167.77 140.765 166.895 140.853 165.198 139.783C164.502 139.344 163.569 138.688 162.789 137.592C162.192 136.753 161.696 136.109 161.267 135.394C160.732 134.503 160.125 133.43 159.831 132.158C159.511 130.781 159.327 129.797 159.34 129.279C159.352 128.769 159.433 127.718 160.243 125.605C160.785 124.193 161.675 122.171 162.356 120.689C163.037 119.208 163.47 118.28 163.868 117.641C164.517 116.601 164.986 115.951 165.565 115.37C166.395 114.538 166.997 113.927 167.407 113.704C168.513 113.1 169.737 112.998 170.678 112.651C171.777 112.246 172.359 112.063 173.112 111.866C173.613 111.736 174.412 111.128 175.284 111.107C175.699 111.096 176.871 111.632 178.522 111.742C179.591 111.813 180.333 111.737 180.948 111.871C181.489 111.99 182.486 112.381 184.107 113.351C185.055 113.918 186.213 114.673 187.138 115.363C188.064 116.054 188.736 116.661 189.651 117.655C190.566 118.65 191.817 119.912 192.329 120.807C193.5 122.855 194.069 124.469 194.199 125.159C194.434 126.4 194.641 128.237 194.016 129.437C193.36 130.697 193.157 131.557 191.453 132.494C189.583 133.522 188.504 133.791 188.035 133.843C187.515 133.9 187.041 134.653 186.394 134.879C186.275 134.92 186.306 134.796 186.22 134.738C186.133 134.68 185.952 134.323 185.792 134.043C186.25 134.861 186.808 135.987 187.203 137.298C187.63 138.713 187.692 139.91 186.911 140.903C186.563 141.345 185.583 141.867 185.169 142.509C184.54 143.485 183.81 145.129 183.292 145.359C182.709 145.617 181.306 146.376 179.212 145.482C177.959 144.947 177.229 144.53 177.123 144.321C177.014 144.106 176.697 142.956 175.967 141.207Z" fill="#0A2A43"/>
<path d="M182.362 126.679C182.177 126.653 179.784 126.265 178.858 126.564C177.242 127.087 176.01 127.871 174.479 128.399C173.845 128.617 173.423 128.631 173.234 128.767C172.649 129.186 172.421 130.24 172.458 131.139C172.513 132.489 172.978 133.768 173.361 134.84C173.918 136.395 174.446 137.515 174.642 138.079C174.9 138.822 175.388 139.819 175.967 141.207C176.697 142.956 177.014 144.106 177.123 144.321C177.229 144.53 177.959 144.947 179.212 145.482C181.306 146.376 182.709 145.617 183.292 145.359C183.81 145.129 184.54 143.485 185.169 142.509C185.583 141.867 186.563 141.345 186.911 140.903C187.692 139.91 187.63 138.713 187.203 137.298C186.573 135.208 185.53 133.588 185.135 132.936C184.66 132.149 183.72 130.62 183.12 129.698C182.752 129.131 182.261 128.029 182.149 127.279C182.109 127.01 182.409 126.62 182.676 126.169C182.986 125.646 183.836 125.656 184.394 125.674C185.708 125.716 187.576 127.117 187.908 127.516C188.234 127.906 188.09 128.562 187.572 130.183C186.464 133.653 185.215 133.035 185.791 134.042C185.952 134.322 186.133 134.68 186.22 134.738C186.306 134.796 186.275 134.92 186.394 134.879C187.041 134.653 187.515 133.9 188.035 133.843C188.504 133.791 189.583 133.522 191.453 132.494C193.157 131.557 193.36 130.697 194.016 129.437C194.641 128.237 194.434 126.4 194.199 125.159C194.069 124.469 193.5 122.855 192.329 120.807C191.817 119.912 190.566 118.65 189.651 117.655C188.736 116.661 188.064 116.054 187.138 115.363C186.213 114.673 185.055 113.918 184.107 113.351C182.486 112.381 181.489 111.99 180.948 111.871C180.333 111.737 179.591 111.813 178.522 111.742C176.871 111.632 175.699 111.096 175.284 111.107C174.412 111.128 173.613 111.736 173.112 111.866C172.359 112.063 171.777 112.246 170.678 112.651C169.737 112.998 168.513 113.1 167.407 113.704C166.997 113.927 166.395 114.538 165.565 115.37C164.986 115.951 164.517 116.601 163.868 117.641C163.47 118.28 163.037 119.208 162.356 120.689C161.675 122.171 160.785 124.193 160.243 125.605C159.433 127.718 159.352 128.769 159.34 129.279C159.327 129.797 159.511 130.781 159.831 132.158C160.125 133.43 160.732 134.503 161.267 135.394C161.696 136.109 162.192 136.753 162.789 137.592C163.569 138.688 164.502 139.344 165.198 139.783C166.895 140.853 167.77 140.765 168.433 140.667C169.705 140.478 171.482 139.336 172.654 138.984M172.654 138.984C173.155 138.833 173.87 139.26 174.815 139.063C175.361 138.949 174.313 137.576 174.186 136.951C173.894 135.509 172.853 134.328 172.575 132.63C172.351 131.263 172.166 130.212 172.013 130.047C171.854 129.874 171.574 129.854 171.303 129.886C170.731 129.953 170.208 130.568 169.174 132.432C168.715 133.261 168.827 133.858 168.86 134.804C168.936 136.962 171.961 137.951 172.654 138.984Z" stroke="#FAF7F1" stroke-linecap="round"/>
<path d="M188.981 174.685L189.016 174.685L202.124 172.971L201.754 175.998L176.299 179.326L175.502 174.536L188.981 174.685Z" fill="#FAF7F1" stroke="#FAF7F1"/>
<path d="M193.915 190.164L193.862 190.134L186.688 188.329L188.076 185.608L201.911 189.089L200.439 193.694L193.915 190.164Z" fill="#FAF7F1" stroke="#FAF7F1"/>
<path d="M158.101 200.649L158.09 200.607L153.275 189.98L156.784 189.562L166.106 210.136L160.95 211.974L158.101 200.649Z" fill="#FAF7F1" stroke="#FAF7F1"/>
<path d="M139.139 151.611L139.166 151.588L148.085 141.83L149.752 144.383L132.433 163.333L128.737 160.182L139.139 151.611Z" fill="#FAF7F1" stroke="#FAF7F1"/>
<path d="M152.885 160.269L152.826 160.28L146.177 163.523L145.485 160.548L158.307 154.294L160.149 158.764L152.885 160.269Z" fill="#FAF7F1" stroke="#FAF7F1"/>
<path d="M132.261 191.365L132.226 191.34L121.695 186.317L124.109 183.736L144.496 193.461L141.738 198.189L132.261 191.365Z" fill="#FAF7F1" stroke="#FAF7F1"/>
<path d="M125.019 211.369L125.02 211.405L127.245 224.436L124.206 224.184L119.885 198.878L124.641 197.896L125.019 211.369Z" fill="#FAF7F1" stroke="#FAF7F1"/>
<path d="M109.741 216.902L109.768 216.848L111.291 209.609L114.065 210.89L111.127 224.851L106.468 223.559L109.741 216.902Z" fill="#FAF7F1" stroke="#FAF7F1"/>
<path d="M97.8646 181.529L97.9059 181.517L108.337 176.291L108.891 179.78L88.6968 189.899L86.6589 184.819L97.8646 181.529Z" fill="#FAF7F1" stroke="#FAF7F1"/>
<path d="M47.8371 219.748L47.8032 219.738L34.7771 217.483L36.0295 214.703L61.3253 219.081L60.6635 223.892L47.8371 219.748Z" fill="#FAF7F1" stroke="#FAF7F1"/>
<path d="M47.7183 203.5L47.7601 203.544L54.0748 207.397L51.9415 209.583L39.7633 202.152L42.5363 198.192L47.7183 203.5Z" fill="#FAF7F1" stroke="#FAF7F1"/>
<path d="M85.034 204.119L85.0316 204.162L86.4749 215.739L83.0005 215.097L80.2061 192.683L85.6751 192.458L85.034 204.119Z" fill="#FAF7F1" stroke="#FAF7F1"/>
<path d="M211.021 217.305C211.136 217.248 211.219 217.213 211.277 217.191C211.308 217.247 211.349 217.322 211.406 217.436C211.56 217.744 211.685 217.995 211.716 218.204C211.73 218.296 211.718 218.338 211.711 218.354C211.707 218.364 211.688 218.402 211.593 218.449C211.45 218.521 211.386 218.528 211.371 218.528C211.366 218.528 211.367 218.528 211.369 218.529C211.368 218.528 211.361 218.526 211.348 218.517C211.303 218.487 211.254 218.442 211.14 218.336C211.038 218.241 210.903 218.117 210.728 217.996C210.647 217.94 210.618 217.891 210.607 217.861C210.595 217.83 210.59 217.789 210.604 217.734C210.635 217.616 210.758 217.437 211.021 217.305Z" fill="#FAF7F1" stroke="#FAF7F1"/>
<path d="M183.952 231.352C184.067 231.295 184.149 231.26 184.208 231.238C184.239 231.294 184.28 231.369 184.337 231.483C184.491 231.791 184.616 232.042 184.647 232.251C184.661 232.343 184.649 232.385 184.641 232.401C184.637 232.411 184.619 232.449 184.524 232.496C184.38 232.568 184.316 232.574 184.301 232.575C184.297 232.575 184.297 232.575 184.3 232.576C184.299 232.575 184.292 232.572 184.278 232.563C184.233 232.534 184.185 232.489 184.071 232.383C183.969 232.288 183.834 232.164 183.658 232.043C183.578 231.987 183.549 231.938 183.537 231.908C183.526 231.877 183.521 231.836 183.535 231.781C183.566 231.663 183.689 231.484 183.952 231.352Z" fill="#FAF7F1" stroke="#FAF7F1"/>
<path d="M197.202 251.086C197.317 251.028 197.399 250.993 197.458 250.971C197.489 251.028 197.53 251.102 197.587 251.216C197.741 251.524 197.866 251.775 197.897 251.984C197.911 252.076 197.899 252.119 197.891 252.135C197.887 252.144 197.869 252.182 197.774 252.23C197.63 252.301 197.566 252.308 197.551 252.308C197.547 252.308 197.547 252.308 197.55 252.309C197.549 252.309 197.542 252.306 197.528 252.297C197.483 252.268 197.435 252.222 197.321 252.117C197.219 252.022 197.084 251.897 196.908 251.776C196.828 251.721 196.799 251.672 196.787 251.641C196.776 251.61 196.771 251.569 196.785 251.515C196.816 251.396 196.939 251.217 197.202 251.086Z" fill="#FAF7F1" stroke="#FAF7F1"/>
<path d="M195.636 231.684C195.751 231.627 195.834 231.592 195.892 231.57C195.923 231.626 195.964 231.701 196.021 231.815C196.175 232.123 196.3 232.374 196.331 232.583C196.345 232.675 196.333 232.717 196.326 232.733C196.321 232.743 196.303 232.781 196.208 232.828C196.064 232.9 196 232.907 195.985 232.907C195.981 232.907 195.981 232.907 195.984 232.908C195.983 232.907 195.976 232.904 195.962 232.896C195.917 232.866 195.869 232.821 195.755 232.715C195.653 232.62 195.518 232.496 195.342 232.375C195.262 232.319 195.233 232.27 195.221 232.24C195.21 232.209 195.205 232.168 195.219 232.113C195.25 231.995 195.373 231.816 195.636 231.684Z" fill="#FAF7F1" stroke="#FAF7F1"/>
<path d="M221.884 234.578C222.099 234.404 222.234 234.31 222.322 234.265C222.335 234.258 222.346 234.255 222.354 234.251C222.357 234.256 222.36 234.262 222.362 234.269C222.392 234.356 222.42 234.479 222.469 234.69C222.566 235.112 222.651 235.476 222.636 235.805C222.63 235.951 222.604 236.051 222.57 236.126C222.537 236.198 222.469 236.306 222.313 236.432C222.119 236.588 222.015 236.636 221.961 236.649C221.92 236.659 221.895 236.652 221.86 236.624C221.808 236.585 221.759 236.519 221.66 236.39C221.592 236.301 221.509 236.194 221.405 236.089L221.292 235.985L221.235 235.926C221.189 235.868 221.172 235.809 221.166 235.762C221.157 235.699 221.164 235.612 221.204 235.492C221.29 235.236 221.515 234.874 221.884 234.578Z" fill="#FAF7F1" stroke="#FAF7F1"/>
<path d="M168.027 229.588C168.142 229.531 168.225 229.496 168.283 229.474C168.314 229.53 168.355 229.605 168.412 229.719C168.566 230.027 168.691 230.278 168.722 230.487C168.736 230.579 168.724 230.622 168.717 230.638C168.712 230.647 168.694 230.685 168.599 230.732C168.455 230.804 168.392 230.811 168.377 230.811C168.372 230.811 168.372 230.811 168.375 230.812C168.374 230.812 168.367 230.809 168.353 230.8C168.308 230.771 168.26 230.725 168.146 230.62C168.044 230.524 167.909 230.4 167.733 230.279C167.653 230.224 167.624 230.174 167.612 230.144C167.601 230.113 167.596 230.072 167.61 230.017C167.641 229.899 167.764 229.72 168.027 229.588Z" fill="#FAF7F1" stroke="#FAF7F1"/>
<path d="M140.957 243.636C141.072 243.579 141.155 243.544 141.214 243.522C141.245 243.578 141.286 243.653 141.343 243.767C141.497 244.075 141.621 244.326 141.653 244.535C141.667 244.627 141.655 244.669 141.647 244.686C141.643 244.695 141.624 244.733 141.53 244.78C141.386 244.852 141.322 244.859 141.307 244.859C141.302 244.859 141.303 244.859 141.305 244.86C141.304 244.86 141.298 244.857 141.284 244.848C141.239 244.819 141.19 244.773 141.077 244.667C140.975 244.572 140.84 244.448 140.664 244.327C140.584 244.271 140.555 244.222 140.543 244.192C140.531 244.161 140.527 244.12 140.541 244.065C140.572 243.947 140.695 243.768 140.957 243.636Z" fill="#FAF7F1" stroke="#FAF7F1"/>
<path d="M154.207 263.37C154.322 263.312 154.405 263.277 154.464 263.256C154.495 263.312 154.536 263.386 154.593 263.5C154.747 263.808 154.871 264.059 154.903 264.269C154.917 264.361 154.905 264.403 154.897 264.419C154.893 264.428 154.874 264.466 154.78 264.514C154.636 264.586 154.572 264.592 154.557 264.592C154.552 264.593 154.553 264.593 154.555 264.593C154.554 264.593 154.548 264.59 154.534 264.581C154.489 264.552 154.44 264.506 154.327 264.401C154.225 264.306 154.09 264.182 153.914 264.06C153.834 264.005 153.805 263.956 153.793 263.925C153.781 263.895 153.777 263.854 153.791 263.799C153.822 263.68 153.945 263.501 154.207 263.37Z" fill="#FAF7F1" stroke="#FAF7F1"/>
<path d="M152.642 243.967C152.757 243.91 152.84 243.875 152.898 243.853C152.93 243.909 152.97 243.984 153.027 244.098C153.181 244.406 153.306 244.657 153.338 244.866C153.351 244.958 153.339 245 153.332 245.017C153.328 245.026 153.309 245.064 153.214 245.111C153.071 245.183 153.007 245.19 152.992 245.19C152.987 245.19 152.988 245.19 152.99 245.191C152.989 245.191 152.982 245.188 152.969 245.179C152.924 245.15 152.875 245.104 152.762 244.998C152.659 244.903 152.524 244.779 152.349 244.658C152.269 244.603 152.239 244.553 152.228 244.523C152.216 244.492 152.211 244.451 152.225 244.396C152.256 244.278 152.379 244.099 152.642 243.967Z" fill="#FAF7F1" stroke="#FAF7F1"/>
<path d="M178.89 246.861C179.105 246.688 179.24 246.594 179.327 246.548C179.34 246.541 179.351 246.538 179.36 246.534C179.362 246.54 179.366 246.545 179.368 246.552C179.398 246.639 179.426 246.762 179.475 246.973C179.572 247.396 179.657 247.759 179.642 248.088C179.635 248.234 179.61 248.334 179.576 248.409C179.543 248.481 179.475 248.589 179.319 248.715C179.125 248.871 179.021 248.919 178.967 248.932C178.926 248.942 178.901 248.935 178.865 248.908C178.814 248.868 178.764 248.803 178.666 248.673C178.598 248.584 178.515 248.478 178.41 248.372L178.298 248.268L178.241 248.21C178.195 248.151 178.178 248.092 178.172 248.046C178.163 247.982 178.17 247.895 178.21 247.775C178.295 247.519 178.521 247.158 178.89 246.861Z" fill="#FAF7F1" stroke="#FAF7F1"/>
<path d="M250.944 66.8257C251.059 66.7682 251.142 66.7334 251.201 66.7117C251.232 66.7678 251.272 66.8422 251.329 66.9562C251.484 67.2642 251.608 67.5152 251.64 67.7247C251.654 67.8166 251.641 67.8588 251.634 67.875C251.63 67.8844 251.611 67.9224 251.517 67.9698C251.373 68.0417 251.309 68.0481 251.294 68.0485C251.289 68.0486 251.29 68.0486 251.292 68.0493C251.291 68.049 251.285 68.046 251.271 68.0371C251.226 68.008 251.177 67.9624 251.064 67.8568C250.962 67.7618 250.827 67.6377 250.651 67.5163C250.571 67.4609 250.541 67.4118 250.53 67.3814C250.518 67.3506 250.513 67.3096 250.528 67.2548C250.559 67.1366 250.681 66.9574 250.944 66.8257Z" fill="#FAF7F1" stroke="#FAF7F1"/>
<path d="M230.016 191.202C230.132 191.144 230.214 191.109 230.273 191.088C230.304 191.144 230.345 191.218 230.402 191.332C230.556 191.64 230.681 191.891 230.712 192.101C230.726 192.193 230.714 192.235 230.706 192.251C230.702 192.26 230.684 192.298 230.589 192.346C230.445 192.418 230.381 192.424 230.366 192.424C230.362 192.425 230.362 192.425 230.365 192.425C230.364 192.425 230.357 192.422 230.343 192.413C230.298 192.384 230.249 192.338 230.136 192.233C230.034 192.138 229.899 192.014 229.723 191.892C229.643 191.837 229.614 191.788 229.602 191.757C229.591 191.727 229.586 191.686 229.6 191.631C229.631 191.513 229.754 191.333 230.016 191.202Z" fill="#FAF7F1" stroke="#FAF7F1"/>
<path d="M237.125 100.607C237.24 100.549 237.323 100.515 237.381 100.493C237.412 100.549 237.453 100.623 237.51 100.737C237.664 101.045 237.789 101.296 237.82 101.506C237.834 101.598 237.822 101.64 237.815 101.656C237.811 101.666 237.792 101.704 237.697 101.751C237.554 101.823 237.49 101.829 237.475 101.83C237.47 101.83 237.471 101.83 237.473 101.831C237.472 101.83 237.465 101.827 237.452 101.818C237.407 101.789 237.358 101.744 237.244 101.638C237.142 101.543 237.007 101.419 236.832 101.298C236.751 101.242 236.722 101.193 236.711 101.163C236.699 101.132 236.694 101.091 236.708 101.036C236.739 100.918 236.862 100.739 237.125 100.607Z" fill="#FAF7F1" stroke="#FAF7F1"/>
<path d="M235.558 81.2046C235.673 81.1471 235.756 81.1123 235.815 81.0906C235.846 81.1467 235.887 81.2211 235.944 81.3351C236.098 81.6432 236.223 81.8941 236.254 82.1036C236.268 82.1955 236.256 82.2377 236.248 82.2539C236.244 82.2634 236.226 82.3014 236.131 82.3487C235.987 82.4206 235.923 82.427 235.908 82.4274C235.904 82.4275 235.904 82.4275 235.907 82.4282C235.906 82.4279 235.899 82.4249 235.885 82.416C235.84 82.3869 235.791 82.3413 235.678 82.2357C235.576 82.1407 235.441 82.0166 235.265 81.8952C235.185 81.8398 235.156 81.7907 235.144 81.7603C235.133 81.7295 235.128 81.6885 235.142 81.6337C235.173 81.5155 235.296 81.3363 235.558 81.2046Z" fill="#FAF7F1" stroke="#FAF7F1"/>
<path d="M261.807 84.0981C262.022 83.9249 262.157 83.8309 262.244 83.7853C262.257 83.7785 262.268 83.7751 262.277 83.7712C262.279 83.7768 262.283 83.7824 262.285 83.7897C262.315 83.8762 262.343 83.9996 262.392 84.2108C262.489 84.6329 262.574 84.9964 262.559 85.3253C262.552 85.4714 262.527 85.5713 262.493 85.6463C262.46 85.7183 262.392 85.8267 262.236 85.9524C262.042 86.1084 261.938 86.1567 261.884 86.1695C261.843 86.179 261.818 86.1726 261.782 86.145C261.731 86.1052 261.681 86.0398 261.583 85.9106C261.515 85.8215 261.432 85.715 261.327 85.6096L261.215 85.505L261.158 85.4469C261.112 85.3884 261.095 85.3294 261.089 85.2828C261.08 85.2196 261.087 85.1327 261.127 85.0125C261.212 84.7561 261.438 84.395 261.807 84.0981Z" fill="#FAF7F1" stroke="#FAF7F1"/>
<path d="M98.9291 13.0836C99.0441 13.026 99.127 12.9912 99.1854 12.9695C99.2166 13.0256 99.2573 13.1 99.3143 13.214C99.4685 13.5221 99.5932 13.773 99.6247 13.9825C99.6385 14.0744 99.6263 14.1166 99.619 14.1328C99.6147 14.1423 99.5962 14.1803 99.5016 14.2276C99.3578 14.2995 99.2939 14.3059 99.2789 14.3063C99.2741 14.3064 99.2747 14.3064 99.2771 14.3072C99.2761 14.3068 99.2695 14.3038 99.2557 14.2949C99.2108 14.2658 99.162 14.2202 99.0486 14.1146C98.9465 14.0196 98.8114 13.8955 98.6358 13.7741C98.5556 13.7187 98.5264 13.6696 98.5148 13.6392C98.5031 13.6084 98.4983 13.5674 98.5126 13.5126C98.5434 13.3944 98.6663 13.2152 98.9291 13.0836Z" fill="#FAF7F1" stroke="#FAF7F1"/>
<path d="M70.3246 13.0836C70.4396 13.026 70.5225 12.9912 70.5809 12.9695C70.6121 13.0256 70.6528 13.1 70.7098 13.214C70.864 13.5221 70.9887 13.773 71.0202 13.9825C71.034 14.0744 71.0218 14.1166 71.0145 14.1328C71.0102 14.1423 70.9917 14.1803 70.8971 14.2276C70.7533 14.2995 70.6894 14.3059 70.6744 14.3063C70.6696 14.3064 70.6703 14.3064 70.6726 14.3072C70.6716 14.3068 70.665 14.3038 70.6512 14.2949C70.6063 14.2658 70.5576 14.2202 70.4442 14.1146C70.3421 14.0196 70.2069 13.8955 70.0313 13.7741C69.9511 13.7187 69.9219 13.6696 69.9103 13.6392C69.8986 13.6084 69.8939 13.5674 69.9081 13.5126C69.939 13.3944 70.0618 13.2152 70.3246 13.0836Z" fill="#FAF7F1" stroke="#FAF7F1"/>
<path d="M85.1097 46.8638C85.2248 46.8063 85.3077 46.7714 85.3661 46.7498C85.3973 46.8059 85.4379 46.8803 85.495 46.9943C85.6491 47.3023 85.7738 47.5533 85.8053 47.7628C85.8191 47.8547 85.807 47.8969 85.7997 47.9131C85.7954 47.9225 85.7768 47.9605 85.6822 48.0079C85.5385 48.0798 85.4746 48.0862 85.4595 48.0866C85.4548 48.0866 85.4554 48.0867 85.4578 48.0874C85.4568 48.0871 85.4501 48.0841 85.4364 48.0752C85.3914 48.0461 85.3427 48.0005 85.2293 47.8949C85.1272 47.7999 84.992 47.6758 84.8165 47.5544C84.7363 47.499 84.707 47.4499 84.6955 47.4195C84.6838 47.3887 84.679 47.3477 84.6932 47.2928C84.7241 47.1746 84.8469 46.9954 85.1097 46.8638Z" fill="#FAF7F1" stroke="#FAF7F1"/>
<path d="M83.5443 27.4625C83.6593 27.4049 83.7422 27.3701 83.8006 27.3484C83.8319 27.4045 83.8725 27.4789 83.9295 27.5929C84.0837 27.901 84.2084 28.1519 84.2399 28.3614C84.2537 28.4533 84.2416 28.4955 84.2343 28.5117C84.23 28.5212 84.2114 28.5592 84.1168 28.6065C83.973 28.6784 83.9092 28.6848 83.8941 28.6852C83.8894 28.6853 83.89 28.6853 83.8924 28.6861C83.8914 28.6857 83.8847 28.6827 83.871 28.6738C83.826 28.6447 83.7773 28.5991 83.6639 28.4935C83.5618 28.3985 83.4266 28.2744 83.2511 28.153C83.1709 28.0976 83.1416 28.0485 83.13 28.0181C83.1184 27.9873 83.1136 27.9463 83.1278 27.8915C83.1587 27.7733 83.2815 27.5941 83.5443 27.4625Z" fill="#FAF7F1" stroke="#FAF7F1"/>
<path d="M109.792 30.3559C110.007 30.1827 110.142 30.0888 110.23 30.0431C110.243 30.0363 110.254 30.0329 110.263 30.029C110.265 30.0346 110.268 30.0402 110.27 30.0475C110.301 30.134 110.328 30.2574 110.377 30.4686C110.474 30.8907 110.559 31.2542 110.544 31.5831C110.538 31.7292 110.512 31.8291 110.478 31.9041C110.445 31.9761 110.377 32.0846 110.221 32.2102C110.028 32.3662 109.923 32.4146 109.869 32.4273C109.829 32.4368 109.803 32.4304 109.768 32.4028C109.716 32.363 109.667 32.2976 109.568 32.1684C109.5 32.0794 109.418 31.9728 109.313 31.8674L109.2 31.7628L109.143 31.7047C109.097 31.6462 109.08 31.5872 109.074 31.5406C109.066 31.4774 109.072 31.3906 109.112 31.2703C109.198 31.014 109.424 30.6528 109.792 30.3559Z" fill="#FAF7F1" stroke="#FAF7F1"/>
<path d="M77.432 26.9029C77.547 26.8453 77.6299 26.8105 77.6883 26.7888C77.7196 26.8449 77.7602 26.9193 77.8172 27.0333C77.9714 27.3414 78.0961 27.5924 78.1276 27.8019C78.1414 27.8937 78.1293 27.936 78.122 27.9521C78.1177 27.9616 78.0991 27.9996 78.0045 28.0469C77.8607 28.1188 77.7969 28.1253 77.7818 28.1256C77.7771 28.1257 77.7777 28.1257 77.7801 28.1265C77.779 28.1261 77.7724 28.1232 77.7587 28.1143C77.7137 28.0851 77.665 28.0395 77.5516 27.934C77.4495 27.8389 77.3143 27.7148 77.1387 27.5935C77.0586 27.5381 77.0293 27.4889 77.0177 27.4586C77.0061 27.4277 77.0013 27.3868 77.0155 27.3319C77.0464 27.2137 77.1692 27.0345 77.432 26.9029Z" fill="#FAF7F1" stroke="#FAF7F1"/>
<path d="M50.3631 40.9498C50.4782 40.8922 50.5611 40.8574 50.6195 40.8357C50.6507 40.8918 50.6913 40.9662 50.7484 41.0802C50.9026 41.3883 51.0272 41.6392 51.0587 41.8488C51.0725 41.9406 51.0604 41.9829 51.0531 41.999C51.0488 42.0085 51.0302 42.0465 50.9357 42.0938C50.7919 42.1657 50.728 42.1721 50.713 42.1725C50.7082 42.1726 50.7088 42.1726 50.7112 42.1734C50.7102 42.173 50.7035 42.17 50.6898 42.1611C50.6449 42.132 50.5961 42.0864 50.4827 41.9808C50.3806 41.8858 50.2454 41.7617 50.0699 41.6403C49.9897 41.5849 49.9604 41.5358 49.9489 41.5054C49.9372 41.4746 49.9324 41.4336 49.9467 41.3788C49.9775 41.2606 50.1004 41.0814 50.3631 40.9498Z" fill="#FAF7F1" stroke="#FAF7F1"/>
<path d="M63.6127 60.6841C63.7277 60.6266 63.8106 60.5918 63.869 60.5701C63.9002 60.6262 63.9408 60.7006 63.9979 60.8146C64.1521 61.1226 64.2768 61.3736 64.3082 61.5831C64.3221 61.675 64.3099 61.7172 64.3026 61.7334C64.2983 61.7428 64.2798 61.7808 64.1852 61.8282C64.0414 61.9001 63.9775 61.9065 63.9625 61.9069C63.9577 61.907 63.9583 61.907 63.9607 61.9077C63.9597 61.9074 63.953 61.9044 63.9393 61.8955C63.8944 61.8664 63.8456 61.8208 63.7322 61.7152C63.6301 61.6202 63.495 61.4961 63.3194 61.3747C63.2392 61.3193 63.21 61.2702 63.1984 61.2398C63.1867 61.209 63.1819 61.168 63.1962 61.1132C63.227 60.995 63.3499 60.8158 63.6127 60.6841Z" fill="#FAF7F1" stroke="#FAF7F1"/>
<path d="M48.8275 71.4322C48.9425 71.3746 49.0254 71.3398 49.0838 71.3181C49.1151 71.3742 49.1557 71.4486 49.2127 71.5626C49.3669 71.8707 49.4916 72.1217 49.5231 72.3312C49.5369 72.423 49.5248 72.4653 49.5175 72.4814C49.5132 72.4909 49.4946 72.5289 49.4 72.5762C49.2562 72.6481 49.1924 72.6546 49.1773 72.6549C49.1726 72.655 49.1732 72.655 49.1756 72.6558C49.1746 72.6554 49.1679 72.6525 49.1542 72.6436C49.1092 72.6144 49.0605 72.5688 48.9471 72.4633C48.845 72.3682 48.7098 72.2441 48.5343 72.1228C48.4541 72.0674 48.4248 72.0182 48.4132 71.9879C48.4016 71.957 48.3968 71.9161 48.411 71.8612C48.4419 71.743 48.5647 71.5638 48.8275 71.4322Z" fill="#FAF7F1" stroke="#FAF7F1"/>
<path d="M146.644 27.2846C146.859 27.1115 146.994 27.0175 147.082 26.9718C147.095 26.965 147.106 26.9616 147.115 26.9577C147.117 26.9633 147.12 26.9689 147.123 26.9762C147.153 27.0628 147.18 27.1861 147.229 27.3973C147.327 27.8194 147.411 28.1829 147.396 28.5118C147.39 28.6579 147.364 28.7579 147.33 28.8329C147.297 28.9048 147.229 29.0133 147.073 29.139C146.88 29.2949 146.775 29.3433 146.721 29.356C146.681 29.3655 146.655 29.3591 146.62 29.3315C146.568 29.2917 146.519 29.2263 146.42 29.0971C146.352 29.0081 146.27 28.9015 146.165 28.7961L146.052 28.6916L145.995 28.6334C145.949 28.5749 145.932 28.5159 145.926 28.4693C145.918 28.4061 145.925 28.3193 145.964 28.199C146.05 27.9427 146.276 27.5815 146.644 27.2846Z" fill="#FAF7F1" stroke="#FAF7F1"/>
<path d="M85.1097 13.0836C85.2248 13.026 85.3077 12.9912 85.3661 12.9695C85.3973 13.0256 85.4379 13.1 85.495 13.214C85.6491 13.5221 85.7738 13.773 85.8053 13.9825C85.8191 14.0744 85.807 14.1166 85.7997 14.1328C85.7954 14.1423 85.7768 14.1803 85.6822 14.2276C85.5385 14.2995 85.4746 14.3059 85.4595 14.3063C85.4548 14.3064 85.4554 14.3064 85.4578 14.3072C85.4568 14.3068 85.4501 14.3038 85.4364 14.2949C85.3914 14.2658 85.3427 14.2202 85.2293 14.1146C85.1272 14.0196 84.992 13.8955 84.8165 13.7741C84.7363 13.7187 84.707 13.6696 84.6955 13.6392C84.6838 13.6084 84.679 13.5674 84.6932 13.5126C84.7241 13.3944 84.8469 13.2152 85.1097 13.0836Z" fill="#FAF7F1" stroke="#FAF7F1"/>
<path d="M58.0404 27.1304C58.1554 27.0729 58.2383 27.038 58.2967 27.0164C58.328 27.0725 58.3686 27.1469 58.4256 27.2609C58.5798 27.5689 58.7045 27.8199 58.736 28.0294C58.7498 28.1213 58.7377 28.1635 58.7304 28.1797C58.7261 28.1891 58.7075 28.2271 58.6129 28.2745C58.4691 28.3464 58.4053 28.3528 58.3902 28.3532C58.3855 28.3532 58.3861 28.3533 58.3885 28.354C58.3874 28.3537 58.3808 28.3507 58.3671 28.3418C58.3221 28.3127 58.2734 28.2671 58.16 28.1615C58.0579 28.0665 57.9227 27.9424 57.7471 27.821C57.667 27.7656 57.6377 27.7165 57.6261 27.6861C57.6145 27.6553 57.6097 27.6143 57.6239 27.5594C57.6548 27.4412 57.7776 27.2621 58.0404 27.1304Z" fill="#FAF7F1" stroke="#FAF7F1"/>
<path d="M71.2904 46.8638C71.4054 46.8063 71.4883 46.7714 71.5467 46.7498C71.578 46.8059 71.6186 46.8803 71.6756 46.9943C71.8298 47.3023 71.9545 47.5533 71.986 47.7628C71.9998 47.8547 71.9877 47.8969 71.9804 47.9131C71.9761 47.9225 71.9575 47.9605 71.8629 48.0079C71.7191 48.0798 71.6553 48.0862 71.6402 48.0866C71.6355 48.0866 71.6361 48.0867 71.6385 48.0874C71.6374 48.0871 71.6308 48.0841 71.6171 48.0752C71.5721 48.0461 71.5234 48.0005 71.41 47.8949C71.3079 47.7999 71.1727 47.6758 70.9971 47.5544C70.917 47.499 70.8877 47.4499 70.8761 47.4195C70.8645 47.3887 70.8597 47.3477 70.8739 47.2928C70.9048 47.1746 71.0276 46.9954 71.2904 46.8638Z" fill="#FAF7F1" stroke="#FAF7F1"/>
<path d="M127.138 26.9029C127.253 26.8453 127.336 26.8105 127.394 26.7888C127.426 26.8449 127.466 26.9193 127.523 27.0333C127.677 27.3414 127.802 27.5924 127.834 27.8019C127.847 27.8937 127.835 27.936 127.828 27.9521C127.824 27.9616 127.805 27.9996 127.711 28.0469C127.567 28.1188 127.503 28.1253 127.488 28.1256C127.483 28.1257 127.484 28.1257 127.486 28.1265C127.485 28.1261 127.478 28.1232 127.465 28.1143C127.42 28.0851 127.371 28.0395 127.258 27.934C127.156 27.8389 127.02 27.7148 126.845 27.5935C126.765 27.5381 126.735 27.4889 126.724 27.4586C126.712 27.4277 126.707 27.3868 126.722 27.3319C126.752 27.2137 126.875 27.0345 127.138 26.9029Z" fill="#FAF7F1" stroke="#FAF7F1"/>
<path d="M170.944 43.2147C171.22 43.2286 171.383 43.2483 171.479 43.2723C171.493 43.2759 171.503 43.2807 171.512 43.2837C171.51 43.2893 171.509 43.2956 171.506 43.3028C171.471 43.3874 171.409 43.4977 171.305 43.6879C171.097 44.0679 170.919 44.3958 170.689 44.6313C170.586 44.7359 170.501 44.7934 170.425 44.8267C170.353 44.8585 170.23 44.8943 170.03 44.8843C169.782 44.8719 169.672 44.8385 169.623 44.812C169.586 44.7921 169.572 44.7706 169.563 44.7263C169.552 44.6624 169.558 44.5806 169.571 44.4186C169.579 44.3069 169.588 44.1722 169.58 44.0239L169.566 43.8709L169.562 43.7897C169.567 43.7154 169.593 43.6598 169.619 43.621C169.655 43.5683 169.718 43.508 169.828 43.4449C170.062 43.3103 170.471 43.1911 170.944 43.2147Z" fill="#FAF7F1" stroke="#FAF7F1"/>
<path d="M156.633 29.9499C156.758 29.9835 156.843 30.0127 156.901 30.0353C156.887 30.098 156.867 30.1806 156.834 30.3036C156.744 30.6362 156.67 30.9065 156.554 31.0838C156.503 31.1616 156.466 31.185 156.45 31.1922C156.441 31.1964 156.401 31.2124 156.299 31.1848C156.144 31.1428 156.092 31.1051 156.081 31.0954C156.077 31.0923 156.078 31.0927 156.079 31.0948C156.078 31.0939 156.075 31.0873 156.071 31.0715C156.057 31.0198 156.051 30.9534 156.036 30.7991C156.024 30.6602 156.005 30.4776 155.955 30.2702C155.932 30.1755 155.943 30.1193 155.954 30.089C155.966 30.0582 155.99 30.0244 156.037 29.993C156.139 29.9253 156.35 29.8733 156.633 29.9499Z" fill="#FAF7F1" stroke="#FAF7F1"/>
<path d="M227.757 58.5692C228.033 58.5831 228.197 58.6028 228.292 58.6268C228.306 58.6304 228.317 58.6352 228.326 58.6382C228.324 58.6438 228.323 58.6501 228.32 58.6573C228.284 58.7419 228.223 58.8522 228.119 59.0424C227.911 59.4224 227.732 59.7502 227.502 59.9858C227.4 60.0904 227.314 60.1479 227.239 60.1812C227.166 60.213 227.044 60.2488 226.844 60.2388C226.595 60.2263 226.485 60.193 226.436 60.1664C226.4 60.1466 226.385 60.1251 226.377 60.0807C226.365 60.0169 226.372 59.9351 226.384 59.7731C226.393 59.6614 226.402 59.5267 226.394 59.3784L226.379 59.2254L226.375 59.1442C226.38 59.0699 226.406 59.0143 226.433 58.9755C226.469 58.9228 226.532 58.8625 226.641 58.7993C226.876 58.6648 227.285 58.5455 227.757 58.5692Z" fill="#FAF7F1" stroke="#FAF7F1"/>
<path d="M213.447 45.3044C213.571 45.338 213.656 45.3671 213.714 45.3898C213.7 45.4525 213.681 45.5351 213.648 45.6581C213.558 45.9907 213.484 46.261 213.368 46.4383C213.317 46.5161 213.28 46.5395 213.264 46.5467C213.254 46.5509 213.215 46.5669 213.113 46.5393C212.958 46.4973 212.906 46.4596 212.894 46.4498C212.891 46.4468 212.891 46.4472 212.892 46.4493C212.892 46.4484 212.889 46.4417 212.885 46.426C212.87 46.3743 212.864 46.3079 212.85 46.1536C212.837 46.0147 212.819 45.8321 212.768 45.6247C212.745 45.53 212.756 45.4738 212.768 45.4435C212.78 45.4127 212.803 45.3789 212.85 45.3474C212.952 45.2798 213.163 45.2277 213.447 45.3044Z" fill="#FAF7F1" stroke="#FAF7F1"/>
<path d="M123.343 248.972C123.619 248.985 123.782 249.005 123.878 249.029C123.892 249.033 123.903 249.038 123.912 249.041C123.91 249.046 123.908 249.052 123.905 249.06C123.87 249.144 123.809 249.255 123.705 249.445C123.497 249.825 123.318 250.153 123.088 250.388C122.986 250.493 122.9 250.55 122.825 250.583C122.752 250.615 122.63 250.651 122.429 250.641C122.181 250.629 122.071 250.595 122.022 250.569C121.986 250.549 121.971 250.527 121.963 250.483C121.951 250.419 121.958 250.337 121.97 250.175C121.978 250.064 121.988 249.929 121.98 249.781L121.965 249.628L121.961 249.547C121.966 249.472 121.992 249.417 122.019 249.378C122.055 249.325 122.118 249.265 122.227 249.202C122.462 249.067 122.871 248.948 123.343 248.972Z" fill="#FAF7F1" stroke="#FAF7F1"/>
<path d="M91.0963 244.365C91.372 244.379 91.5354 244.399 91.631 244.423C91.6452 244.426 91.6557 244.431 91.6648 244.434C91.6627 244.44 91.6614 244.446 91.6584 244.453C91.6233 244.538 91.5617 244.648 91.4576 244.838C91.2496 245.218 91.071 245.546 90.841 245.782C90.7388 245.886 90.6532 245.944 90.5777 245.977C90.5053 246.009 90.3825 246.045 90.1824 246.035C89.9341 246.022 89.8241 245.989 89.7751 245.962C89.7386 245.943 89.724 245.921 89.7158 245.877C89.704 245.813 89.7105 245.731 89.7229 245.569C89.7314 245.457 89.7405 245.323 89.7325 245.174L89.718 245.021L89.7143 244.94C89.7189 244.866 89.7452 244.81 89.7716 244.771C89.8076 244.719 89.8705 244.658 89.9803 244.595C90.2145 244.461 90.6236 244.341 91.0963 244.365Z" fill="#FAF7F1" stroke="#FAF7F1"/>
<path d="M76.7857 231.1C76.9099 231.134 76.9949 231.163 77.0529 231.186C77.0389 231.248 77.0197 231.331 76.9864 231.454C76.8965 231.787 76.8226 232.057 76.7067 232.234C76.6558 232.312 76.6187 232.335 76.6025 232.343C76.593 232.347 76.5538 232.363 76.4517 232.335C76.2965 232.293 76.2446 232.256 76.2331 232.246C76.2295 232.243 76.23 232.243 76.2312 232.245C76.2307 232.244 76.2277 232.238 76.2234 232.222C76.2092 232.17 76.2032 232.104 76.1888 231.949C76.1759 231.811 76.1575 231.628 76.1073 231.421C76.0843 231.326 76.0951 231.27 76.1067 231.239C76.1185 231.209 76.1422 231.175 76.1893 231.143C76.291 231.076 76.502 231.024 76.7857 231.1Z" fill="#FAF7F1" stroke="#FAF7F1"/>
<path d="M31.212 227.475C31.4877 227.488 31.6511 227.508 31.7467 227.532C31.7609 227.536 31.7714 227.54 31.7806 227.543C31.7784 227.549 31.7771 227.555 31.7741 227.563C31.739 227.647 31.6774 227.758 31.5734 227.948C31.3653 228.328 31.1867 228.656 30.9567 228.891C30.8545 228.996 30.7689 229.053 30.6935 229.086C30.6211 229.118 30.4982 229.154 30.2981 229.144C30.0499 229.132 29.9398 229.098 29.8908 229.072C29.8543 229.052 29.8397 229.03 29.8315 228.986C29.8197 228.922 29.8262 228.84 29.8386 228.678C29.8471 228.567 29.8563 228.432 29.8482 228.284L29.8337 228.131L29.8301 228.05C29.8346 227.975 29.861 227.92 29.8874 227.881C29.9233 227.828 29.9862 227.768 30.096 227.705C30.3303 227.57 30.7393 227.451 31.212 227.475Z" fill="#FAF7F1" stroke="#FAF7F1"/>
<path d="M16.9009 214.21C17.0251 214.243 17.1102 214.272 17.1682 214.295C17.1541 214.358 17.135 214.44 17.1017 214.563C17.0117 214.896 16.9378 215.166 16.8219 215.344C16.7711 215.421 16.7339 215.445 16.7177 215.452C16.7082 215.456 16.6691 215.472 16.5669 215.445C16.4118 215.403 16.3598 215.365 16.3484 215.355C16.3448 215.352 16.3452 215.352 16.3465 215.355C16.346 215.354 16.343 215.347 16.3386 215.331C16.3245 215.28 16.3184 215.213 16.304 215.059C16.2911 214.92 16.2728 214.737 16.2225 214.53C16.1995 214.435 16.2103 214.379 16.2219 214.349C16.2337 214.318 16.2574 214.284 16.3046 214.253C16.4063 214.185 16.6172 214.133 16.9009 214.21Z" fill="#FAF7F1" stroke="#FAF7F1"/>
<path d="M21.1923 203.061C21.407 203.235 21.5274 203.347 21.5905 203.423C21.5999 203.434 21.6055 203.444 21.6112 203.452C21.6061 203.455 21.6014 203.46 21.5948 203.464C21.5166 203.511 21.4018 203.564 21.2057 203.657C20.8137 203.841 20.4763 204.001 20.1517 204.056C20.0075 204.08 19.9044 204.076 19.8239 204.059C19.7466 204.042 19.6263 203.998 19.4705 203.872C19.2772 203.716 19.2078 203.624 19.1839 203.574C19.166 203.537 19.167 203.511 19.1864 203.47C19.2145 203.411 19.2679 203.349 19.3734 203.225C19.4461 203.14 19.5327 203.037 19.6136 202.912L19.692 202.78L19.7368 202.712C19.7843 202.655 19.8383 202.625 19.8825 202.609C19.9426 202.588 20.0289 202.576 20.1549 202.59C20.4235 202.619 20.8243 202.764 21.1923 203.061Z" fill="#FAF7F1" stroke="#FAF7F1"/>
<path d="M17.4437 183.911C17.5243 184.011 17.5758 184.085 17.6093 184.137C17.5611 184.18 17.497 184.235 17.3976 184.315C17.1291 184.531 16.9101 184.706 16.712 184.781C16.6251 184.814 16.5813 184.811 16.5639 184.807C16.5538 184.805 16.5127 184.795 16.4464 184.712C16.3458 184.587 16.326 184.526 16.3225 184.511C16.3214 184.507 16.3215 184.507 16.3213 184.51C16.3214 184.509 16.3229 184.501 16.3287 184.486C16.3477 184.436 16.3819 184.379 16.4612 184.246C16.5325 184.126 16.6252 183.967 16.7067 183.77C16.744 183.68 16.7858 183.641 16.813 183.623C16.8407 183.606 16.8797 183.592 16.9364 183.595C17.0584 183.6 17.2595 183.682 17.4437 183.911Z" fill="#FAF7F1" stroke="#FAF7F1"/>
<path d="M95.973 30.3559C96.188 30.1827 96.3231 30.0888 96.4104 30.0431C96.4234 30.0363 96.4344 30.0329 96.4432 30.029C96.4454 30.0346 96.4486 30.0402 96.4511 30.0475C96.4813 30.134 96.5087 30.2574 96.5575 30.4686C96.6552 30.8907 96.74 31.2542 96.7251 31.5831C96.7184 31.7292 96.6928 31.8291 96.6586 31.9041C96.6258 31.9761 96.5579 32.0846 96.4019 32.2102C96.2083 32.3662 96.104 32.4146 96.0497 32.4273C96.0093 32.4368 95.9841 32.4304 95.9484 32.4028C95.8971 32.363 95.8475 32.2976 95.7489 32.1684C95.681 32.0794 95.5982 31.9728 95.4934 31.8674L95.3808 31.7628L95.3241 31.7047C95.278 31.6462 95.2607 31.5872 95.2546 31.5406C95.2463 31.4774 95.2531 31.3906 95.2931 31.2703C95.3784 31.014 95.6044 30.6528 95.973 30.3559Z" fill="#FAF7F1" stroke="#FAF7F1"/>
<path d="M45.1869 151.278C45.3019 151.22 45.3848 151.186 45.4432 151.164C45.4744 151.22 45.5151 151.294 45.5721 151.408C45.7263 151.716 45.851 151.967 45.8825 152.177C45.8963 152.269 45.8841 152.311 45.8768 152.327C45.8725 152.337 45.854 152.375 45.7594 152.422C45.6156 152.494 45.5517 152.5 45.5367 152.501C45.5319 152.501 45.5326 152.501 45.5349 152.501C45.5339 152.501 45.5273 152.498 45.5135 152.489C45.4686 152.46 45.4199 152.415 45.3065 152.309C45.2044 152.214 45.0692 152.09 44.8936 151.968C44.8134 151.913 44.7842 151.864 44.7726 151.834C44.761 151.803 44.7562 151.762 44.7704 151.707C44.8013 151.589 44.9241 151.41 45.1869 151.278Z" fill="#FAF7F1" stroke="#FAF7F1"/>
<path d="M18.1175 165.326C18.2326 165.268 18.3155 165.233 18.3739 165.212C18.4051 165.268 18.4457 165.342 18.5028 165.456C18.6569 165.764 18.7816 166.015 18.8131 166.225C18.8269 166.317 18.8148 166.359 18.8075 166.375C18.8032 166.384 18.7846 166.422 18.6901 166.47C18.5463 166.542 18.4824 166.548 18.4674 166.548C18.4626 166.549 18.4632 166.549 18.4656 166.549C18.4646 166.549 18.4579 166.546 18.4442 166.537C18.3993 166.508 18.3505 166.462 18.2371 166.357C18.135 166.262 17.9998 166.138 17.8243 166.016C17.7441 165.961 17.7148 165.912 17.7033 165.881C17.6916 165.851 17.6868 165.81 17.701 165.755C17.7319 165.637 17.8547 165.457 18.1175 165.326Z" fill="#FAF7F1" stroke="#FAF7F1"/>
<path d="M31.3671 185.059C31.4821 185.002 31.565 184.967 31.6234 184.945C31.6546 185.001 31.6952 185.076 31.7523 185.19C31.9065 185.498 32.0311 185.749 32.0626 185.958C32.0764 186.05 32.0643 186.092 32.057 186.108C32.0527 186.118 32.0342 186.156 31.9396 186.203C31.7958 186.275 31.7319 186.282 31.7169 186.282C31.7121 186.282 31.7127 186.282 31.7151 186.283C31.7141 186.282 31.7074 186.279 31.6937 186.271C31.6488 186.241 31.6 186.196 31.4866 186.09C31.3845 185.995 31.2494 185.871 31.0738 185.75C30.9936 185.694 30.9643 185.645 30.9528 185.615C30.9411 185.584 30.9363 185.543 30.9506 185.488C30.9814 185.37 31.1043 185.191 31.3671 185.059Z" fill="#FAF7F1" stroke="#FAF7F1"/>
<path d="M29.8016 165.657C29.9167 165.599 29.9996 165.564 30.0579 165.543C30.0892 165.599 30.1298 165.673 30.1869 165.787C30.341 166.095 30.4657 166.346 30.4972 166.556C30.511 166.648 30.4989 166.69 30.4916 166.706C30.4873 166.715 30.4687 166.753 30.3741 166.801C30.2304 166.873 30.1665 166.879 30.1514 166.88C30.1467 166.88 30.1473 166.88 30.1497 166.88C30.1487 166.88 30.142 166.877 30.1283 166.868C30.0833 166.839 30.0346 166.793 29.9212 166.688C29.8191 166.593 29.6839 166.469 29.5084 166.347C29.4282 166.292 29.3989 166.243 29.3874 166.212C29.3757 166.182 29.3709 166.141 29.3851 166.086C29.416 165.968 29.5388 165.788 29.8016 165.657Z" fill="#FAF7F1" stroke="#FAF7F1"/>
<path d="M56.0501 168.55C56.2651 168.377 56.4002 168.283 56.4876 168.237C56.5006 168.231 56.5116 168.227 56.5204 168.223C56.5226 168.229 56.5257 168.235 56.5283 168.242C56.5584 168.328 56.5858 168.452 56.6347 168.663C56.7323 169.085 56.8172 169.449 56.8022 169.777C56.7956 169.924 56.7699 170.023 56.7357 170.098C56.7029 170.17 56.635 170.279 56.479 170.405C56.2854 170.561 56.1811 170.609 56.1268 170.622C56.0864 170.631 56.0612 170.625 56.0255 170.597C55.9742 170.557 55.9246 170.492 55.8261 170.363C55.7581 170.274 55.6753 170.167 55.5706 170.062L55.458 169.957L55.4012 169.899C55.3552 169.841 55.3378 169.781 55.3317 169.735C55.3235 169.672 55.3303 169.585 55.3702 169.465C55.4555 169.208 55.6815 168.847 56.0501 168.55Z" fill="#FAF7F1" stroke="#FAF7F1"/>
<path d="M52.013 174.693C52.228 174.52 52.3631 174.426 52.4504 174.38C52.4634 174.373 52.4744 174.37 52.4833 174.366C52.4855 174.372 52.4886 174.377 52.4912 174.384C52.5213 174.471 52.5487 174.594 52.5976 174.805C52.6952 175.228 52.7801 175.591 52.7651 175.92C52.7585 176.066 52.7328 176.166 52.6986 176.241C52.6658 176.313 52.5979 176.421 52.4419 176.547C52.2483 176.703 52.144 176.751 52.0897 176.764C52.0493 176.774 52.0241 176.767 51.9884 176.74C51.9371 176.7 51.8875 176.635 51.789 176.505C51.721 176.416 51.6382 176.31 51.5335 176.204L51.4209 176.1L51.3641 176.042C51.3181 175.983 51.3007 175.924 51.2946 175.878C51.2864 175.814 51.2932 175.727 51.3331 175.607C51.4184 175.351 51.6444 174.99 52.013 174.693Z" fill="#FAF7F1" stroke="#FAF7F1"/>
<path d="M41.2645 162.409C41.4795 162.235 41.6146 162.141 41.7019 162.096C41.7149 162.089 41.7259 162.086 41.7348 162.082C41.7369 162.087 41.7401 162.093 41.7426 162.1C41.7728 162.187 41.8002 162.31 41.849 162.521C41.9467 162.943 42.0315 163.307 42.0166 163.636C42.0099 163.782 41.9843 163.882 41.9501 163.957C41.9173 164.029 41.8494 164.137 41.6934 164.263C41.4998 164.419 41.3955 164.467 41.3412 164.48C41.3008 164.49 41.2756 164.483 41.2399 164.456C41.1886 164.416 41.139 164.35 41.0404 164.221C40.9725 164.132 40.8897 164.026 40.7849 163.92L40.6723 163.816L40.6156 163.757C40.5695 163.699 40.5522 163.64 40.5461 163.593C40.5378 163.53 40.5446 163.443 40.5846 163.323C40.6699 163.067 40.8959 162.706 41.2645 162.409Z" fill="#FAF7F1" stroke="#FAF7F1"/>
<path d="M41.2645 176.228C41.4795 176.055 41.6146 175.961 41.7019 175.915C41.7149 175.908 41.7259 175.905 41.7348 175.901C41.7369 175.907 41.7401 175.912 41.7426 175.92C41.7728 176.006 41.8002 176.129 41.849 176.341C41.9467 176.763 42.0315 177.126 42.0166 177.455C42.0099 177.601 41.9843 177.701 41.9501 177.776C41.9173 177.848 41.8494 177.957 41.6934 178.082C41.4998 178.238 41.3955 178.287 41.3412 178.299C41.3008 178.309 41.2756 178.303 41.2399 178.275C41.1886 178.235 41.139 178.17 41.0404 178.04C40.9725 177.951 40.8897 177.845 40.7849 177.739L40.6723 177.635L40.6156 177.577C40.5695 177.518 40.5522 177.459 40.5461 177.413C40.5378 177.349 40.5446 177.263 40.5846 177.142C40.6699 176.886 40.8959 176.525 41.2645 176.228Z" fill="#FAF7F1" stroke="#FAF7F1"/>
</svg>
