<svg width="53" height="53" viewBox="0 0 53 53" fill="none" xmlns="http://www.w3.org/2000/svg">
<path d="M39 1.5H14C7.09644 1.5 1.5 7.09644 1.5 14V39C1.5 45.9036 7.09644 51.5 14 51.5H39C45.9036 51.5 51.5 45.9036 51.5 39V14C51.5 7.09644 45.9036 1.5 39 1.5Z" stroke="#F2EDE3" stroke-width="3" stroke-linecap="round" stroke-linejoin="round"/>
<path d="M36.4993 24.9248C36.8078 27.0054 36.4524 29.1303 35.4837 30.9973C34.5149 32.8643 32.9821 34.3783 31.1033 35.324C29.2245 36.2696 27.0954 36.5988 25.0187 36.2646C22.9421 35.9304 21.0237 34.95 19.5364 33.4627C18.0491 31.9754 17.0686 30.057 16.7344 27.9803C16.4003 25.9037 16.7294 23.7745 17.6751 21.8957C18.6207 20.0169 20.1347 18.4841 22.0017 17.5154C23.8687 16.5466 25.9937 16.1912 28.0743 16.4998C30.1966 16.8145 32.1614 17.8034 33.6785 19.3205C35.1956 20.8377 36.1846 22.8025 36.4993 24.9248Z" stroke="#F2EDE3" stroke-width="3" stroke-linecap="round" stroke-linejoin="round"/>
<path d="M40.25 12.75H40.275" stroke="#F2EDE3" stroke-width="3" stroke-linecap="round" stroke-linejoin="round"/>
</svg>
