<svg width="485" height="425" viewBox="0 0 485 425" fill="none" xmlns="http://www.w3.org/2000/svg">
<path d="M299.151 95.5566C294.467 95.5443 290.281 96.9454 287.299 99.1487C284.317 101.352 282.616 104.284 282.608 107.395C282.599 110.506 284.286 113.447 287.256 115.666C290.226 117.885 294.405 119.308 299.089 119.32C303.773 119.332 307.959 117.931 310.94 115.728C313.922 113.525 315.624 110.593 315.632 107.481C315.64 104.37 313.954 101.429 310.983 99.2105C308.013 96.9918 303.835 95.5688 299.151 95.5566Z" stroke="#0A2A43" stroke-width="3"/>
<path d="M220.871 93.6757C216.186 93.6635 211.998 95.0582 209.016 97.2503C206.034 99.4426 204.336 102.357 204.328 105.446C204.32 108.535 206.003 111.458 208.974 113.665C211.944 115.873 216.124 117.29 220.81 117.303C225.495 117.315 229.682 115.919 232.664 113.727C235.646 111.535 237.344 108.621 237.352 105.532C237.36 102.443 235.677 99.5199 232.707 97.312C229.736 95.1045 225.557 93.688 220.871 93.6757Z" stroke="#0A2A43" stroke-width="3"/>
<path d="M283.185 111.669C283.17 111.624 280.455 103.533 275.922 90.3817C274.162 85.274 273.234 83.4392 270.294 75.3051C267.354 67.1711 262.363 52.8172 259.383 45.4026C256.403 37.988 255.585 37.9476 254.829 37.8439C251.419 37.3758 243.653 37.149 236.665 37.0597C219.611 36.842 207.625 34.1618 204.428 34.0128C200.355 33.823 194.888 33.9082 190.783 34.127C186.832 34.3375 183.049 34.7493 180.241 35.3651C176.087 36.276 181.747 45.918 184.267 54.9171C186.229 61.9243 190.305 73.6728 192.911 81.0469C197.738 94.7122 199.642 97.3318 200.924 99.8393C201.246 100.496 201.569 101.159 202.063 102.378C202.558 103.598 203.214 105.353 203.89 107.161" stroke="#0A2A43" stroke-width="3" stroke-linecap="round"/>
<path d="M261.887 53.355C259.69 54.0888 253.07 55.9463 247.534 56.0672C243.274 56.1602 237.696 56.419 233.552 56.9734C229.347 57.536 224.687 56.9062 220.531 56.7017C216.856 56.5208 213.212 56.7368 208.399 56.7541C204.062 56.7697 200.701 56.9917 196.994 56.803C193.731 56.4349 191.033 56.3733 189.156 56.6898C188.015 56.9441 186.491 57.3885 184.921 57.8464" stroke="#0A2A43" stroke-width="3" stroke-linecap="round"/>
<path d="M306.153 252.824C308.671 249.751 314.938 244.596 319.039 242.2C308.206 242.158 290.495 249.925 280.891 244.954C261.647 234.995 257.145 233.201 253.489 230.975C247.11 227.09 233.303 213.544 233.847 217.279C233.85 217.298 234.918 217.907 235.471 218.707C237.518 221.673 240.114 224.758 240.463 228.282C240.967 233.379 239.628 241.937 239.799 255.57C239.956 268.008 240.126 275.956 240.337 277.943C240.635 280.741 241.262 287.379 244.308 294.59C246.804 300.499 247.103 303.589 252.933 315.805C258.015 326.456 261.188 333.046 262.95 336.43C266.825 343.874 270.725 351.731 274.048 355.949C276.76 359.392 280.781 361.611 280.897 365.237C280.993 368.279 280.282 372.878 278.328 376.81C277.585 378.306 277.035 378.932 275.651 378.881C269.101 378.644 258.949 375.579 254.057 370.09C251.395 367.103 246.485 360.622 244.447 350.719C242.443 340.979 240.461 331.657 238.985 326.114C237.364 320.03 235.43 314.807 234.081 311.256C231.26 303.835 225.856 290.224 222.254 278.662C220.142 271.883 218.305 267.743 216.527 264.211C214.269 259.723 212.188 249.205 205 243.575C201.382 240.741 196.688 238.635 195.089 235.16C193.356 231.396 189.041 226.458 182.412 211.393C179.741 205.323 176.598 197.038 173.58 190.453C168.281 178.893 164.364 171.096 162.719 163.79C160.523 154.035 158.939 144.299 156.302 137.808C152.752 129.071 150.555 121.736 140.535 108.026C131.138 95.1673 125.637 87.4543 117.819 85.5744C112.151 84.2115 102.129 83.6411 95.1523 87.9225C89.7834 91.2172 80.7168 98.6544 69.7772 106.854C62.2577 112.491 56.7795 116.24 51.7438 117.897C43.0502 120.758 34.9244 123.128 29.7098 125.202C22.2161 128.184 17.0167 129.472 14.807 132.001C9.45898 138.122 2.01631 147.056 1.64724 150.756C1.48234 152.409 1.3178 155.214 1.97817 154.701C2.66293 154.17 3.36676 151.378 6.3651 149.346C10.0217 146.868 14.0064 145.914 18.6738 144.295C32.3775 139.541 43.1683 135.465 50.0543 132.001C58.2514 127.878 68.9174 124.2 74.3314 121.384C78.6021 119.164 82.9459 116.686 91.5604 111.987C95.8564 109.644 102.15 108.217 105.608 109.878C108.61 111.321 111.419 113.813 116.434 123.575C118.634 127.858 120.7 132.497 124.441 146.052C125.56 150.106 129.275 157.84 133.807 170.481C135.948 176.451 137.356 181.728 140.42 189.731C143.4 197.518 147.81 207.589 150.374 213.446L150.584 213.926C154.381 222.599 156.398 225.257 163.719 239.212C166.537 244.583 169.774 251.426 173.118 262.159C176.462 272.892 179.812 287.084 182.071 296.067C184.33 305.049 185.52 308.696 186.723 313.331C189.328 323.366 191.33 331.468 194.721 337.149C202.627 350.395 202.466 353.792 205.391 361.747L205.656 362.466C209.726 373.537 213.09 382.687 217.905 389.983C227.39 404.352 233.849 413.892 235.574 415.056C237.89 416.618 242.051 419.205 247.652 421.097C252.348 422.682 260.337 423.809 270.909 422.807C280.073 421.938 289.125 421.012 296.387 417.564C301.755 415.016 307.683 411.537 313.74 404.875C320.661 397.264 325.178 392.457 325.46 390.691C326.211 385.984 326.403 377.291 319.704 361.349C315.671 351.754 308.554 335.466 303.967 323.378C299.38 311.291 297.383 303.635 296.486 295.628C295.589 287.62 295.094 279.403 296.207 274.336C298.532 263.749 302.095 257.775 306.153 252.824Z" stroke="#0A2A43" stroke-width="3" stroke-linecap="round"/>
<path d="M282.455 198.193C298.419 203.178 311.984 210.3 321.016 217.727C325.534 221.443 328.857 225.186 330.801 228.716C332.742 232.242 333.249 235.433 332.389 238.188C331.529 240.942 329.296 243.279 325.693 245.073C322.085 246.87 317.223 248.056 311.393 248.541C299.741 249.509 284.533 247.645 268.57 242.66C252.606 237.675 239.041 230.554 230.01 223.127C225.492 219.411 222.169 215.668 220.225 212.138C218.283 208.612 217.777 205.421 218.637 202.666C219.497 199.911 221.73 197.576 225.333 195.781C228.94 193.984 233.802 192.797 239.633 192.313C251.285 191.345 266.492 193.209 282.455 198.193Z" fill="#F2EDE3" stroke="#0A2A43" stroke-width="3"/>
<path d="M132.167 111.533C137.346 109.83 142.326 112.134 143.624 116.079C144.921 120.025 142.279 124.835 137.1 126.538C131.921 128.24 126.94 125.936 125.643 121.991C124.346 118.046 126.987 113.236 132.167 111.533Z" stroke="#0A2A43" stroke-width="3"/>
<path d="M140.085 136.053C144.433 132.764 149.892 133.331 152.397 136.643C154.902 139.955 153.961 145.362 149.613 148.651C145.265 151.939 139.806 151.373 137.301 148.061C134.796 144.748 135.737 139.342 140.085 136.053Z" stroke="#0A2A43" stroke-width="3"/>
<path d="M147.414 158.171C151.763 154.882 157.221 155.449 159.727 158.761C162.232 162.073 161.291 167.48 156.943 170.769C152.594 174.058 147.136 173.491 144.631 170.179C142.125 166.867 143.066 161.46 147.414 158.171Z" stroke="#0A2A43" stroke-width="3"/>
<path d="M156.812 178.533C161.16 175.244 166.619 175.81 169.124 179.122C171.63 182.435 170.689 187.841 166.34 191.13C161.992 194.419 156.534 193.853 154.028 190.54C151.523 187.228 152.464 181.822 156.812 178.533Z" fill="#F2EDE3" stroke="#0A2A43" stroke-width="3"/>
<path d="M169.342 200.46C173.69 197.172 179.149 197.738 181.654 201.05C184.16 204.362 183.219 209.769 178.87 213.058C174.522 216.347 169.064 215.78 166.558 212.468C164.053 209.156 164.994 203.749 169.342 200.46Z" fill="#F2EDE3" stroke="#0A2A43" stroke-width="3"/>
<path d="M182.309 219.722C187.417 217.814 192.485 219.918 193.938 223.809C195.391 227.7 192.943 232.611 187.835 234.518C182.728 236.426 177.66 234.322 176.207 230.431C174.754 226.54 177.202 221.629 182.309 219.722Z" fill="#F2EDE3" stroke="#0A2A43" stroke-width="3"/>
<path d="M192.417 240.181C197.524 238.273 202.592 240.377 204.045 244.268C205.498 248.159 203.05 253.07 197.943 254.977C192.835 256.885 187.767 254.781 186.314 250.89C184.861 246.999 187.309 242.088 192.417 240.181Z" fill="#F2EDE3" stroke="#0A2A43" stroke-width="3"/>
<path d="M205.471 260.932C211.248 258.775 216.767 260.943 218.25 264.913C219.733 268.884 216.986 274.139 211.209 276.296C205.433 278.453 199.913 276.286 198.43 272.315C196.947 268.345 199.695 263.089 205.471 260.932Z" fill="#F2EDE3" stroke="#0A2A43" stroke-width="3"/>
<path d="M210.69 285.993C216.467 283.836 221.986 286.003 223.469 289.974C224.952 293.944 222.204 299.199 216.428 301.357C210.652 303.514 205.132 301.346 203.649 297.376C202.166 293.405 204.914 288.15 210.69 285.993Z" fill="#F2EDE3" stroke="#0A2A43" stroke-width="3"/>
<path d="M218.522 317.318C224.298 315.161 229.817 317.328 231.3 321.299C232.783 325.269 230.036 330.524 224.26 332.682C218.483 334.839 212.963 332.672 211.48 328.701C209.997 324.73 212.745 319.475 218.522 317.318Z" fill="#F2EDE3" stroke="#0A2A43" stroke-width="3"/>
<path d="M229.485 342.378C235.262 340.221 240.781 342.389 242.264 346.359C243.747 350.33 241 355.585 235.223 357.742C229.447 359.9 223.927 357.732 222.444 353.762C220.961 349.791 223.709 344.536 229.485 342.378Z" fill="#F2EDE3" stroke="#0A2A43" stroke-width="3"/>
<path d="M29.8091 140.236C29.8091 140.254 29.8134 139.618 29.8749 138.174C30.0421 136.443 30.1554 134.242 30.1302 132.226C30.105 131.451 30.0547 131.177 29.9335 130.619" stroke="#0A2A43" stroke-width="3" stroke-linecap="round"/>
<path d="M34.2448 138.898C34.2448 138.541 34.7877 135.888 35.8451 131.314C36.1101 128.334 36.0416 125.257 35.9063 124.762C35.8397 124.517 35.777 124.283 35.396 123.473" stroke="#0A2A43" stroke-width="3" stroke-linecap="round"/>
<path d="M89.2293 97.2778C89.9358 96.633 93.3452 94.0222 95.8784 92.2331C97.2303 91.2783 99.3984 90.7518 101.685 89.9968C102.972 89.572 104.496 89.5136 106.783 89.3701C112.192 89.0306 113.251 89.7909 114.296 90.2026C115.802 90.7955 117.891 91.733 119.595 92.6476C121.502 93.6708 122.887 95.0159 124.073 96.3189C124.607 97.1672 125.034 97.9107 125.415 98.4628C125.625 98.736 125.869 98.9948 126.617 99.5669" stroke="#0A2A43" stroke-width="3" stroke-linecap="round"/>
<path d="M110.777 114.907C110.647 115.09 110.426 115.874 110.498 117.01C110.527 117.451 111.3 117.335 111.757 117.263C113.695 116.956 117.203 113.896 119.158 112.633C120.767 111.594 122.852 110.155 124.7 108.651C127.268 106.56 128.483 105.442 129.451 104.8C130.827 103.887 132.188 102.41 133.408 101.599C134.191 101.079 134.84 100.492 135.144 99.5192C135.27 99.1191 135.2 98.4671 135.122 98.0852C135.044 97.7032 134.873 97.5932 134.684 97.5218C134.495 97.4504 134.293 97.421 133.959 97.3906" stroke="#0A2A43" stroke-width="3" stroke-linecap="round"/>
<path d="M206.418 363.378C205.04 363.378 201.908 363.572 200.981 364.367C200.402 364.864 200.168 365.622 200.037 366.259C199.971 366.575 200.014 366.894 200.138 367.14C200.679 368.208 202.596 368.353 208.518 368.025C210.823 367.898 213.625 366.595 216.127 365.606C220.762 363.775 224.665 362.021 228.041 360.977C232.405 359.627 234.178 359.511 235.651 359.115C237.416 358.641 239.616 357.985 241.232 357.353C242.462 356.871 243.251 355.899 244.366 354.584C245.207 353.592 245.959 352.479 246.372 351.28C246.562 350.73 246.547 350.051 246.44 349.386C246.333 349.089 246.119 348.873 245.882 348.687C245.644 348.501 245.389 348.351 244.755 348.001" stroke="#0A2A43" stroke-width="3" stroke-linecap="round"/>
<path d="M281.207 368.95C281.207 369.434 281.387 370.987 282.401 372.67C283.306 374.174 285.355 375.082 290.155 376.561C292.61 377.318 299.502 377.215 303.595 377.015C305.447 376.924 306.867 375.709 308.11 374.842C308.771 374.397 309.503 373.823 310.225 373.164C310.559 372.852 310.827 372.588 311.103 372.316" stroke="#0A2A43" stroke-width="3" stroke-linecap="round"/>
<path d="M243.501 289.832C244.192 290.103 246.577 291.022 248.256 291.644C252.246 293.121 258.943 293.078 260.837 293.414C262.534 293.715 264.159 293.744 266.437 293.893C267.261 293.923 268.356 293.952 270.309 293.98C272.263 294.008 275.043 294.033 278.112 293.878" stroke="#0A2A43" stroke-width="3" stroke-linecap="round"/>
<path d="M229.551 205.928C229.658 206.519 230.711 209.172 232.356 211.405C234.857 214.797 237.746 215.727 240.7 217.388C243.452 218.936 246.334 219.85 249.494 221.143C252.061 222.193 253.56 223.503 255.092 224.788C256.993 226.381 259.733 227.59 261.589 228.533C263.805 229.658 266.335 230.382 270.056 231.023C273.628 231.638 275.587 231.592 279.35 232.389C282.279 232.893 283.913 233.182 285.079 233.301C285.752 233.342 286.587 233.342 287.448 233.342" stroke="#0A2A43" stroke-width="3" stroke-linecap="round"/>
<path d="M414.285 151.126C414.225 151.096 412.224 150.056 405.72 146.497C394.051 140.11 386.19 135.323 384.579 134.132C380.407 131.045 378.369 127.883 376.89 125.951C376.241 125.104 375.921 124.099 374.841 123.677C368.661 121.263 364.939 128.369 360.042 131.071C350.626 136.266 346.805 138.6 344.191 140.389C343.637 140.768 343.114 140.909 342.785 141.274C342.1 142.034 342.087 146.623 342.101 152.913C342.108 156.037 344.245 159.056 349.407 165.376C352.797 169.526 358.196 175.261 363.893 180.249C369.589 185.238 375.532 189.222 379.93 191.963C386.87 196.29 391.383 198.372 395.361 200.472C404.335 205.209 406.927 206.914 411.018 209.318C417.208 212.957 425 215.811 430.426 217.378C432.439 217.959 432.966 218.041 434.277 216.09C441.418 205.457 442.837 201.506 444.428 198.838C448.088 192.702 448.114 184.346 447.299 176.837C446.2 166.717 444.038 162.894 442.136 158.978C436.661 147.708 431.082 145.38 428.7 143.785C423.214 140.112 412.794 135.732 409.601 135.432C407.129 135.199 404.907 135.013 402.457 134.6C400.949 134.272 399.614 133.922 398.559 133.592C398.019 133.421 397.469 133.243 395.51 132.49" stroke="#0A2A43" stroke-width="3" stroke-linecap="round"/>
<path d="M356.456 133.453C356.372 134.515 357.377 137.096 358.713 139.733C360.269 142.804 363.438 146.397 367.502 150.312C370.284 152.992 371.766 155.345 373.294 157.287C376.686 161.598 384.494 166.244 386.707 168.025C389.53 170.297 393.206 173.065 395.945 174.992C401.092 178.613 408.164 184.111 410.99 185.959C413.245 187.432 415.664 188.635 423.829 192.843C429.547 195.79 436.584 199.294 439.033 199.879C439.649 200.029 440.331 200.236 440.947 200.348C441.563 200.461 442.092 200.474 444.158 200.712" stroke="#0A2A43" stroke-width="3" stroke-linecap="round"/>
<path d="M342.462 142.796C342.111 142.631 328.367 137.179 322.472 136.39C319.368 135.975 317.689 135.079 310.947 136.787C308.448 137.42 307.426 138.359 306.754 138.995C305.364 140.312 305.082 142.845 305.549 149.177C305.871 153.538 307.626 156.578 308.555 158.388C309.659 160.536 311.731 163.175 314.44 166.632C317.619 170.691 319.93 173.808 321.308 175.168C322.995 176.833 323.262 177.849 324.659 179.363C325.398 180.163 327.3 181.646 330.692 184.813C332.729 186.715 335.35 189.272 337.163 191.175C340.011 194.163 342.136 196.823 346.27 200.578C349.019 203.074 353.399 206.448 359.239 210.874C365.079 215.3 372.324 220.592 376.969 223.888C381.614 227.185 383.439 228.324 385.059 229.407C389.848 232.607 391.067 233.522 395.351 235.918C396.887 236.778 398.836 237.572 402.306 239.192C405.776 240.813 410.748 243.165 415.284 244.949C419.821 246.734 423.77 247.879 426.345 248.558C429.977 249.516 431.42 249.44 432.059 249.445C434.941 249.468 439.774 249.829 442.328 249.598C443.612 249.482 445.898 249.189 447.546 247.221C449.244 245.193 448.218 241.402 447.698 237.27C447.209 233.391 446.201 231.215 443.855 227.105C441.654 223.249 436.871 217.04 435.559 215.772" stroke="#0A2A43" stroke-width="3" stroke-linecap="round"/>
</svg>
