<svg width="289" height="276" viewBox="0 0 289 276" fill="none" xmlns="http://www.w3.org/2000/svg">
<rect x="64.5378" y="0.626243" width="224.122" height="214.552" rx="19.5" transform="rotate(17.3306 64.5378 0.626243)" stroke="#FAF7F1"/>
<rect x="64.5388" y="0.626243" width="234.48" height="214.552" rx="19.5" transform="rotate(17.3306 64.5388 0.626243)" stroke="#FAF7F1"/>
<path d="M231.628 69.4124C246.037 78.1918 253.15 89.373 254.759 101.502C256.372 113.653 252.472 126.838 244.687 139.615C236.982 152.261 223.716 157.672 208.705 157.711C193.685 157.75 176.969 152.405 162.513 143.597C148.113 134.824 138.124 120.53 133.681 105.238C129.236 89.9432 130.35 73.6964 138.083 61.0042C145.731 48.4514 161.73 46.0438 179.666 49.0957C197.562 52.1407 217.149 60.5909 231.628 69.4124Z" stroke="#FAF7F1"/>
<path d="M204.82 147.898C218.805 156.419 225.622 167.416 227.042 179.428C228.464 191.464 224.477 204.597 216.69 217.376C208.982 230.029 195.923 235.565 181.233 235.797C166.533 236.028 150.242 230.94 136.208 222.389C122.23 213.873 112.638 199.825 108.484 184.712C104.33 169.596 105.627 153.459 113.363 140.762C121.015 128.202 136.71 125.613 154.221 128.41C171.697 131.201 190.761 139.332 204.82 147.898Z" fill="#0A2A43" stroke="#FAF7F1"/>
<path d="M78.3195 132.802C61.9998 134.175 50.0075 129.318 41.7735 120.458C33.523 111.581 28.9931 98.6244 27.7387 83.7126C26.4969 68.9489 33.7726 56.7734 45.4962 47.9185C57.2279 39.0575 73.3824 33.553 89.7591 32.1754C106.069 30.8034 122.102 36.4848 134.374 46.2362C146.647 55.989 155.122 69.7825 156.368 84.5979C157.601 99.2534 146.458 110.605 130.67 118.68C114.913 126.738 94.7237 131.422 78.3195 132.802Z" fill="#0A2A43" stroke="#FAF7F1"/>
<path d="M104.979 111.7C119.642 111.7 129.984 117.527 136.679 127.042C143.391 136.583 146.471 149.882 146.471 164.856C146.471 179.697 139.034 191.22 127.899 199.05C116.753 206.888 101.91 211.014 87.1787 211.014C72.5225 211.014 58.6283 204.023 48.3906 193.281C38.1532 182.539 31.6046 168.079 31.6045 153.192C31.6045 138.455 42.4385 128.087 57.1367 121.377C71.821 114.673 90.2152 111.7 104.979 111.7Z" fill="#0A2A43" stroke="#FAF7F1"/>
<path d="M146.972 70.4863C184.094 70.4863 214.125 98.4959 214.125 132.974C214.125 167.452 184.094 195.462 146.972 195.462C109.85 195.462 79.8184 167.452 79.8184 132.974C79.8186 98.4959 109.85 70.4864 146.972 70.4863Z" fill="#0A2A43" stroke="#FAF7F1"/>
<path d="M149.678 81.8232C178.58 81.8232 201.948 103.629 201.948 130.454C201.947 157.279 178.58 179.084 149.678 179.084C120.776 179.084 97.409 157.279 97.4087 130.454C97.4087 103.629 120.776 81.8233 149.678 81.8232Z" fill="#0A2A43" stroke="#FAF7F1"/>
<path d="M149.001 98.2012C171.603 98.2012 189.77 113.566 189.77 132.345C189.77 151.123 171.603 166.487 149.001 166.487C126.4 166.487 108.233 151.123 108.233 132.345C108.233 113.566 126.4 98.2012 149.001 98.2012Z" fill="#0A2A43" stroke="#FAF7F1"/>
<path d="M149.678 109.539C165.141 109.539 177.593 120.922 177.593 134.864C177.593 148.807 165.141 160.188 149.678 160.188C134.216 160.188 121.764 148.807 121.764 134.864C121.764 120.922 134.216 109.539 149.678 109.539Z" fill="#0A2A43" stroke="#FAF7F1"/>
<path d="M148.435 121.81C157.16 121.81 164.171 128.387 164.171 136.427C164.171 144.466 157.16 151.044 148.435 151.044C139.709 151.044 132.697 144.466 132.697 136.427C132.697 128.387 139.709 121.81 148.435 121.81Z" fill="#0A2A43" stroke="#FAF7F1"/>
<path d="M95.6934 61.1797C95.9479 61.2107 96.2905 61.2772 96.7363 61.4189C98.1747 61.8763 100.645 63.0693 104.656 66.0449C112.677 71.9954 126.765 84.9989 150.957 113.2L150.973 113.218C170.67 134.14 182.973 150.999 190.349 162.618C194.036 168.428 196.493 172.928 198.025 175.972C198.792 177.494 199.328 178.651 199.671 179.427C199.722 179.543 199.767 179.653 199.81 179.752C199.34 179.588 198.798 179.292 198.172 178.841C197.154 178.107 195.979 177.011 194.622 175.577C191.907 172.708 188.532 168.559 184.325 163.422C175.921 153.161 164.253 139.036 148.097 123.626C128.465 104.901 115.263 89.1078 106.973 78.001C102.827 72.4475 99.9092 68.0649 98.0293 65.0742C97.0895 63.5791 96.4096 62.4315 95.9648 61.6592C95.8612 61.4791 95.7717 61.3186 95.6934 61.1797Z" fill="#0A2A43" stroke="#FAF7F1"/>
<path d="M201.34 167.906C201.085 167.931 200.736 167.94 200.27 167.898C198.767 167.763 196.097 167.132 191.537 165.095C182.418 161.02 165.851 151.372 136.132 129.072L136.113 129.058C112.356 112.892 96.6974 99.0939 86.9829 89.3449C82.1258 84.4704 78.7541 80.6084 76.5994 77.9681C75.5221 76.6481 74.7482 75.6337 74.2454 74.9508C74.1699 74.8482 74.1031 74.7508 74.0397 74.6633C74.5331 74.7215 75.1272 74.8932 75.8357 75.1986C76.9879 75.6953 78.3723 76.5106 80.0075 77.6171C83.2784 79.8306 87.4712 83.1522 92.6899 87.2572C103.115 95.4574 117.562 106.724 136.669 118.274C159.887 132.309 176.192 144.873 186.689 153.923C191.937 158.448 195.735 162.096 198.217 164.609C199.458 165.866 200.37 166.839 200.971 167.497C201.111 167.65 201.233 167.787 201.34 167.906Z" fill="#0A2A43" stroke="#FAF7F1"/>
<path d="M114.721 216.68C115.202 216.68 115.507 216.714 115.706 216.775C115.881 216.83 115.947 216.897 115.99 216.971C116.048 217.072 116.098 217.248 116.123 217.582C116.147 217.911 116.145 218.324 116.145 218.871C116.145 219.967 116.154 221.172 115.936 222.105C115.828 222.569 115.674 222.912 115.479 223.133C115.301 223.334 115.071 223.456 114.721 223.456C114.289 223.456 114.047 223.374 113.896 223.273C113.747 223.174 113.628 223.019 113.515 222.752C113.398 222.474 113.309 222.132 113.189 221.682C113.101 221.354 113 220.985 112.864 220.589L112.714 220.184C111.949 218.242 113.146 216.68 114.721 216.68Z" fill="#FAF7F1" stroke="#FAF7F1"/>
<path d="M192.483 238.453C192.964 238.453 193.269 238.487 193.468 238.549C193.644 238.603 193.709 238.67 193.752 238.744C193.811 238.846 193.86 239.022 193.885 239.355C193.909 239.685 193.907 240.097 193.907 240.645C193.907 241.74 193.916 242.945 193.698 243.879C193.59 244.342 193.436 244.686 193.241 244.906C193.063 245.107 192.833 245.229 192.483 245.229C192.051 245.229 191.809 245.147 191.658 245.047C191.509 244.948 191.39 244.792 191.277 244.525C191.16 244.247 191.072 243.905 190.951 243.455C190.863 243.128 190.763 242.759 190.626 242.362L190.477 241.957C189.712 240.016 190.908 238.453 192.483 238.453Z" fill="#FAF7F1" stroke="#FAF7F1"/>
<path d="M157.685 244.711C157.378 245.081 157.156 245.294 156.982 245.407C156.828 245.508 156.735 245.515 156.65 245.501C156.535 245.481 156.368 245.407 156.095 245.213C155.826 245.021 155.51 244.756 155.089 244.406C154.246 243.706 153.313 242.943 152.734 242.179C152.447 241.8 152.281 241.462 152.236 241.171C152.195 240.906 152.248 240.651 152.472 240.382C152.748 240.049 152.966 239.915 153.139 239.863C153.311 239.812 153.507 239.82 153.784 239.904C154.073 239.991 154.393 240.142 154.816 240.337C155.124 240.478 155.472 240.636 155.864 240.785L156.271 240.929C158.253 241.58 158.691 243.499 157.685 244.711Z" fill="#FAF7F1" stroke="#FAF7F1"/>
<path d="M28.5973 194.943C28.2901 195.313 28.0688 195.526 27.8947 195.64C27.7404 195.74 27.6473 195.748 27.5629 195.733C27.4474 195.714 27.2803 195.639 27.0078 195.445C26.7387 195.253 26.4228 194.988 26.0018 194.639C25.1587 193.939 24.2261 193.176 23.6471 192.412C23.3597 192.032 23.194 191.694 23.1488 191.404C23.1076 191.138 23.1608 190.883 23.3842 190.614C23.6606 190.281 23.8783 190.148 24.0519 190.096C24.2232 190.045 24.4192 190.052 24.6964 190.136C24.9854 190.223 25.3052 190.374 25.7282 190.569C26.0362 190.711 26.3843 190.869 26.7767 191.017L27.1839 191.161C29.1659 191.813 29.6035 193.732 28.5973 194.943Z" fill="#FAF7F1" stroke="#FAF7F1"/>
<path d="M43.6037 203.64C43.297 203.269 43.1287 203.012 43.0495 202.82C42.9793 202.65 42.989 202.557 43.0186 202.477C43.0593 202.367 43.1635 202.217 43.4047 201.985C43.6428 201.756 43.9616 201.494 44.3831 201.145C45.2272 200.446 46.1491 199.671 47.0074 199.243C47.4335 199.031 47.7959 198.93 48.0901 198.94C48.3584 198.948 48.5994 199.048 48.8224 199.317C49.0982 199.65 49.1892 199.889 49.2081 200.069C49.2268 200.247 49.183 200.438 49.0495 200.695C48.9103 200.963 48.7029 201.249 48.4332 201.629C48.2369 201.905 48.0174 202.218 47.7991 202.576L47.5823 202.95C46.5753 204.777 44.6085 204.852 43.6037 203.64Z" fill="#FAF7F1" stroke="#FAF7F1"/>
<path d="M24.3626 156.963C24.7276 156.65 24.9816 156.478 25.1723 156.395C25.3413 156.322 25.4344 156.33 25.5151 156.359C25.6257 156.398 25.7778 156.499 26.0138 156.736C26.2468 156.971 26.5135 157.285 26.8697 157.701C27.5829 158.533 28.3738 159.441 28.8158 160.292C29.0353 160.715 29.1417 161.076 29.1374 161.37C29.1333 161.638 29.0378 161.881 28.7723 162.108C28.444 162.39 28.2068 162.485 28.0269 162.507C27.8495 162.529 27.6576 162.488 27.3984 162.359C27.1283 162.224 26.8385 162.022 26.4542 161.758C26.1745 161.567 25.858 161.352 25.4962 161.14L25.119 160.93C23.2749 159.954 23.1667 157.988 24.3626 156.963Z" fill="#FAF7F1" stroke="#FAF7F1"/>
<path d="M75.5051 214.701C75.8702 214.388 76.1242 214.215 76.3148 214.133C76.4839 214.06 76.577 214.068 76.6577 214.096C76.7683 214.135 76.9204 214.237 77.1564 214.474C77.3893 214.708 77.6561 215.022 78.0123 215.438C78.7255 216.27 79.5164 217.179 79.9584 218.03C80.1779 218.452 80.2843 218.813 80.28 219.107C80.2759 219.376 80.1804 219.618 79.9149 219.846C79.5865 220.127 79.3494 220.222 79.1695 220.244C78.9921 220.266 78.8001 220.225 78.541 220.096C78.2709 219.961 77.981 219.759 77.5968 219.496C77.3171 219.304 77.0006 219.09 76.6388 218.878L76.2616 218.667C74.4175 217.691 74.3092 215.726 75.5051 214.701Z" fill="#FAF7F1" stroke="#FAF7F1"/>
<path d="M151.778 47.6687C151.298 47.678 150.992 47.6497 150.792 47.5921C150.615 47.541 150.549 47.4755 150.504 47.4024C150.444 47.3021 150.391 47.127 150.36 46.7938C150.329 46.4649 150.323 46.0526 150.312 45.5054C150.291 44.4097 150.258 43.2054 150.458 42.2676C150.557 41.802 150.705 41.4559 150.895 41.2315C151.069 41.0269 151.297 40.9004 151.647 40.8936C152.079 40.8852 152.322 40.9627 152.475 41.0601C152.626 41.1562 152.748 41.3096 152.866 41.5741C152.989 41.8498 153.084 42.1904 153.213 42.6379C153.307 42.9636 153.415 43.3303 153.559 43.7241L153.717 44.1264C154.519 46.0523 153.353 47.6379 151.778 47.6687Z" fill="#FAF7F1" stroke="#FAF7F1"/>
<path d="M73.6085 27.4109C73.1278 27.4202 72.822 27.3919 72.6224 27.3343C72.4455 27.2832 72.3788 27.2177 72.3345 27.1446C72.2738 27.0443 72.2211 26.8691 72.1898 26.536C72.159 26.207 72.1529 25.7948 72.1423 25.2476C72.121 24.1518 72.0884 22.9476 72.2883 22.0097C72.3876 21.5441 72.5348 21.1981 72.7253 20.9737C72.899 20.7691 73.127 20.6426 73.4766 20.6358C73.909 20.6274 74.1524 20.7049 74.3052 20.8023C74.4559 20.8984 74.5783 21.0518 74.6962 21.3163C74.819 21.592 74.9139 21.9326 75.0431 22.3801C75.1371 22.7058 75.2452 23.0724 75.3895 23.4663L75.5468 23.8686C76.3493 25.7945 75.1833 27.3801 73.6085 27.4109Z" fill="#FAF7F1" stroke="#FAF7F1"/>
<path d="M108.279 20.4782C108.579 20.1025 108.796 19.8853 108.967 19.7686C109.12 19.6651 109.213 19.6557 109.297 19.6683C109.413 19.6857 109.582 19.757 109.858 19.9458C110.131 20.1323 110.452 20.391 110.88 20.7324C111.736 21.4161 112.683 22.1604 113.277 22.9134C113.572 23.2872 113.744 23.6216 113.795 23.9114C113.841 24.1758 113.793 24.4321 113.575 24.7054C113.305 25.0433 113.09 25.181 112.917 25.2364C112.747 25.2909 112.551 25.2871 112.272 25.2088C111.982 25.1272 111.659 24.9826 111.232 24.796C110.922 24.6602 110.57 24.5091 110.175 24.3685L109.765 24.2325C107.771 23.6195 107.296 21.7094 108.279 20.4782Z" fill="#FAF7F1" stroke="#FAF7F1"/>
<path d="M249.616 73.3174C249.911 72.9484 250.124 72.7199 250.292 72.5848C250.453 72.4548 250.529 72.4463 250.556 72.4461C250.594 72.4458 250.677 72.4603 250.856 72.575C251.037 72.6913 251.247 72.8625 251.552 73.1056C252.162 73.5922 252.788 74.0837 253.14 74.6179C253.309 74.8741 253.39 75.1063 253.392 75.3227C253.394 75.531 253.323 75.7818 253.082 76.0837C252.807 76.4284 252.598 76.592 252.438 76.6694C252.293 76.7398 252.156 76.7547 251.978 76.7295C251.777 76.7008 251.557 76.6275 251.231 76.5207C250.998 76.4442 250.728 76.3574 250.418 76.2862L250.095 76.221C249.423 76.1047 249.093 75.7104 249.003 75.2199C248.908 74.6925 249.084 73.9835 249.616 73.3174Z" fill="#FAF7F1" stroke="#FAF7F1"/>
<path d="M239.053 67.8098C239.137 67.7048 239.199 67.6366 239.244 67.5916C239.298 67.6302 239.367 67.6823 239.471 67.7649C239.743 67.9822 239.966 68.1607 240.085 68.3409C240.137 68.4201 240.144 68.4653 240.144 68.4849C240.145 68.4967 240.144 68.5408 240.076 68.6261C239.973 68.7547 239.916 68.7887 239.901 68.7957C239.901 68.7966 239.896 68.7983 239.872 68.7948C239.818 68.7871 239.753 68.7659 239.604 68.7172C239.47 68.6732 239.293 68.6175 239.081 68.5807L239.08 68.5801C238.982 68.563 238.933 68.5295 238.909 68.5055C238.884 68.4812 238.861 68.4446 238.851 68.3869C238.828 68.263 238.866 68.0439 239.053 67.8098Z" fill="#FAF7F1" stroke="#FAF7F1"/>
<path d="M234.387 63.1447C234.471 63.0397 234.533 62.9715 234.578 62.9266C234.632 62.9652 234.701 63.0173 234.805 63.0999C235.077 63.3172 235.3 63.4956 235.418 63.6758C235.471 63.7551 235.478 63.8003 235.478 63.8199C235.479 63.8317 235.478 63.8757 235.41 63.961C235.307 64.0897 235.25 64.1237 235.235 64.1307C235.235 64.1316 235.23 64.1332 235.206 64.1298C235.152 64.122 235.087 64.1009 234.938 64.0522C234.804 64.0082 234.627 63.9525 234.415 63.9156L234.414 63.915C234.316 63.898 234.267 63.8645 234.243 63.8405C234.218 63.8161 234.195 63.7796 234.185 63.7219C234.162 63.5979 234.2 63.3788 234.387 63.1447Z" fill="#FAF7F1" stroke="#FAF7F1"/>
<path d="M198.616 49.1467C198.7 49.0417 198.763 48.9735 198.808 48.9285C198.861 48.9672 198.931 49.0193 199.034 49.1018C199.307 49.3191 199.529 49.4976 199.648 49.6778C199.7 49.757 199.708 49.8023 199.708 49.8218C199.708 49.8337 199.707 49.8777 199.639 49.963C199.536 50.0917 199.479 50.1256 199.465 50.1326C199.464 50.1336 199.46 50.1352 199.436 50.1317C199.381 50.124 199.316 50.1028 199.168 50.0541C199.033 50.0102 198.857 49.9544 198.644 49.9176L198.644 49.917C198.545 49.8999 198.497 49.8665 198.472 49.8424C198.447 49.8181 198.425 49.7815 198.414 49.7239C198.392 49.5999 198.429 49.3808 198.616 49.1467Z" fill="#FAF7F1" stroke="#FAF7F1"/>
<path d="M165.956 42.926C166.04 42.821 166.103 42.7528 166.148 42.7078C166.201 42.7465 166.271 42.7986 166.374 42.8811C166.647 43.0984 166.869 43.2769 166.988 43.4571C167.04 43.5363 167.048 43.5816 167.048 43.6011C167.048 43.613 167.047 43.657 166.979 43.7423C166.876 43.871 166.819 43.9049 166.805 43.9119C166.804 43.9129 166.8 43.9145 166.775 43.911C166.721 43.9033 166.656 43.8821 166.508 43.8334C166.373 43.7895 166.197 43.7337 165.984 43.6969L165.983 43.6963C165.885 43.6792 165.836 43.6458 165.812 43.6217C165.787 43.5974 165.765 43.5608 165.754 43.5032C165.732 43.3792 165.769 43.1601 165.956 42.926Z" fill="#FAF7F1" stroke="#FAF7F1"/>
<path d="M136.406 35.1496C136.49 35.0446 136.553 34.9764 136.598 34.9314C136.651 34.9701 136.721 35.0222 136.824 35.1047C137.097 35.3221 137.319 35.5005 137.438 35.6807C137.49 35.7599 137.498 35.8052 137.498 35.8248C137.498 35.8366 137.497 35.8806 137.429 35.9659C137.326 36.0946 137.269 36.1286 137.255 36.1355C137.254 36.1365 137.25 36.1381 137.226 36.1347C137.171 36.1269 137.107 36.1058 136.958 36.057C136.824 36.0131 136.647 35.9574 136.434 35.9205L136.434 35.9199C136.336 35.9029 136.287 35.8694 136.262 35.8454C136.237 35.821 136.215 35.7844 136.204 35.7268C136.182 35.6028 136.219 35.3837 136.406 35.1496Z" fill="#FAF7F1" stroke="#FAF7F1"/>
<path d="M141.072 47.592C141.156 47.487 141.218 47.4188 141.263 47.3738C141.317 47.4125 141.387 47.4646 141.49 47.5471C141.762 47.7645 141.985 47.9429 142.104 48.1231C142.156 48.2023 142.163 48.2476 142.164 48.2671C142.164 48.279 142.163 48.323 142.095 48.4083C141.992 48.537 141.935 48.5709 141.92 48.5779C141.92 48.5789 141.915 48.5805 141.891 48.577C141.837 48.5693 141.772 48.5481 141.623 48.4994C141.489 48.4555 141.312 48.3998 141.1 48.3629L141.099 48.3623C141.001 48.3452 140.952 48.3118 140.928 48.2878C140.903 48.2634 140.88 48.2268 140.87 48.1692C140.847 48.0452 140.885 47.8261 141.072 47.592Z" fill="#FAF7F1" stroke="#FAF7F1"/>
<path d="M95.9698 24.2629C96.0536 24.1579 96.1162 24.0897 96.1614 24.0447C96.2148 24.0834 96.2845 24.1355 96.3879 24.218C96.6602 24.4354 96.8827 24.6138 97.0015 24.794C97.0537 24.8732 97.0613 24.9185 97.0615 24.938C97.0615 24.9499 97.0606 24.9939 96.9925 25.0792C96.8898 25.2079 96.8328 25.2418 96.8184 25.2488C96.8177 25.2498 96.8134 25.2514 96.7891 25.2479C96.7347 25.2402 96.67 25.219 96.5212 25.1703C96.387 25.1264 96.2104 25.0707 95.9979 25.0338L95.9972 25.0332C95.899 25.0161 95.8501 24.9827 95.8255 24.9587C95.8007 24.9343 95.7782 24.8977 95.7677 24.8401C95.7453 24.7161 95.783 24.497 95.9698 24.2629Z" fill="#FAF7F1" stroke="#FAF7F1"/>
<path d="M83.5279 24.2629C83.6117 24.1579 83.6744 24.0897 83.7195 24.0447C83.7729 24.0834 83.8426 24.1355 83.946 24.218C84.2183 24.4354 84.4408 24.6138 84.5596 24.794C84.6118 24.8732 84.6194 24.9185 84.6196 24.938C84.6196 24.9499 84.6187 24.9939 84.5506 25.0792C84.4479 25.2079 84.3909 25.2418 84.3765 25.2488C84.3758 25.2498 84.3715 25.2514 84.3472 25.2479C84.2928 25.2402 84.2281 25.219 84.0793 25.1703C83.9451 25.1264 83.7685 25.0707 83.556 25.0338L83.5553 25.0332C83.4571 25.0161 83.4082 24.9827 83.3836 24.9587C83.3588 24.9343 83.3363 24.8977 83.3258 24.8401C83.3034 24.7161 83.3411 24.497 83.5279 24.2629Z" fill="#FAF7F1" stroke="#FAF7F1"/>
<path d="M122.409 28.9289C122.493 28.8239 122.556 28.7557 122.601 28.7107C122.654 28.7494 122.724 28.8015 122.827 28.884C123.1 29.1014 123.322 29.2798 123.441 29.46C123.493 29.5392 123.501 29.5845 123.501 29.6041C123.501 29.6159 123.5 29.6599 123.432 29.7452C123.329 29.8739 123.272 29.9079 123.258 29.9148C123.257 29.9158 123.253 29.9174 123.229 29.914C123.174 29.9062 123.109 29.8851 122.961 29.8363C122.826 29.7924 122.65 29.7367 122.437 29.6998L122.437 29.6992C122.338 29.6822 122.29 29.6487 122.265 29.6247C122.24 29.6003 122.218 29.5637 122.207 29.5061C122.185 29.3821 122.222 29.163 122.409 28.9289Z" fill="#FAF7F1" stroke="#FAF7F1"/>
<path d="M226.61 161.125C226.694 161.02 226.757 160.952 226.802 160.907C226.855 160.946 226.925 160.998 227.029 161.08C227.301 161.298 227.523 161.476 227.642 161.656C227.694 161.736 227.702 161.781 227.702 161.8C227.702 161.812 227.701 161.856 227.633 161.941C227.53 162.07 227.473 162.104 227.459 162.111C227.458 162.112 227.454 162.114 227.43 162.11C227.375 162.102 227.311 162.081 227.162 162.033C227.028 161.989 226.851 161.933 226.639 161.896L226.638 161.896C226.54 161.878 226.491 161.845 226.466 161.821C226.441 161.797 226.419 161.76 226.408 161.702C226.386 161.578 226.424 161.359 226.61 161.125Z" fill="#FAF7F1" stroke="#FAF7F1"/>
<path d="M240.608 161.125C240.692 161.02 240.755 160.952 240.8 160.907C240.853 160.946 240.923 160.998 241.027 161.08C241.299 161.298 241.521 161.476 241.64 161.656C241.692 161.736 241.7 161.781 241.7 161.8C241.7 161.812 241.699 161.856 241.631 161.941C241.528 162.07 241.471 162.104 241.457 162.111C241.456 162.112 241.452 162.114 241.428 162.11C241.373 162.102 241.309 162.081 241.16 162.033C241.026 161.989 240.849 161.933 240.637 161.896L240.636 161.896C240.538 161.878 240.489 161.845 240.464 161.821C240.439 161.797 240.417 161.76 240.406 161.702C240.384 161.578 240.422 161.359 240.608 161.125Z" fill="#FAF7F1" stroke="#FAF7F1"/>
<path d="M231.276 176.678C231.36 176.573 231.423 176.505 231.468 176.46C231.521 176.498 231.591 176.551 231.695 176.633C231.967 176.85 232.189 177.029 232.308 177.209C232.36 177.288 232.368 177.334 232.368 177.353C232.368 177.365 232.367 177.409 232.299 177.494C232.196 177.623 232.139 177.657 232.125 177.664C232.124 177.665 232.12 177.666 232.096 177.663C232.041 177.655 231.977 177.634 231.828 177.585C231.694 177.541 231.517 177.486 231.305 177.449L231.304 177.448C231.206 177.431 231.157 177.398 231.132 177.374C231.107 177.349 231.085 177.313 231.074 177.255C231.052 177.131 231.09 176.912 231.276 176.678Z" fill="#FAF7F1" stroke="#FAF7F1"/>
<path d="M201.727 243.553C201.81 243.448 201.873 243.38 201.918 243.335C201.972 243.373 202.041 243.426 202.145 243.508C202.417 243.725 202.64 243.904 202.758 244.084C202.811 244.163 202.818 244.209 202.818 244.228C202.818 244.24 202.817 244.284 202.749 244.369C202.647 244.498 202.59 244.532 202.575 244.539C202.575 244.54 202.57 244.541 202.546 244.538C202.492 244.53 202.427 244.509 202.278 244.46C202.144 244.416 201.967 244.361 201.755 244.324L201.754 244.323C201.656 244.306 201.607 244.273 201.582 244.249C201.557 244.224 201.535 244.188 201.525 244.13C201.502 244.006 201.54 243.787 201.727 243.553Z" fill="#FAF7F1" stroke="#FAF7F1"/>
<path d="M181.508 245.109C181.592 245.004 181.655 244.935 181.7 244.89C181.753 244.929 181.823 244.981 181.926 245.064C182.199 245.281 182.421 245.459 182.54 245.64C182.592 245.719 182.6 245.764 182.6 245.784C182.6 245.796 182.599 245.84 182.531 245.925C182.428 246.054 182.371 246.088 182.357 246.095C182.356 246.095 182.352 246.097 182.328 246.094C182.273 246.086 182.209 246.065 182.06 246.016C181.926 245.972 181.749 245.916 181.537 245.88L181.536 245.879C181.438 245.862 181.389 245.828 181.364 245.804C181.339 245.78 181.317 245.743 181.306 245.686C181.284 245.562 181.322 245.343 181.508 245.109Z" fill="#FAF7F1" stroke="#FAF7F1"/>
<path d="M189.285 248.219C189.368 248.114 189.431 248.046 189.476 248.001C189.53 248.039 189.599 248.092 189.703 248.174C189.975 248.391 190.198 248.57 190.316 248.75C190.369 248.829 190.376 248.875 190.376 248.894C190.376 248.906 190.376 248.95 190.307 249.035C190.205 249.164 190.148 249.198 190.133 249.205C190.133 249.206 190.128 249.207 190.104 249.204C190.05 249.196 189.985 249.175 189.836 249.126C189.702 249.082 189.525 249.027 189.313 248.99L189.312 248.989C189.214 248.972 189.165 248.939 189.14 248.915C189.116 248.89 189.093 248.854 189.083 248.796C189.06 248.672 189.098 248.453 189.285 248.219Z" fill="#FAF7F1" stroke="#FAF7F1"/>
<path d="M164.401 235.778C164.485 235.673 164.547 235.604 164.593 235.559C164.646 235.598 164.716 235.65 164.819 235.733C165.091 235.95 165.314 236.128 165.433 236.309C165.485 236.388 165.492 236.433 165.493 236.453C165.493 236.465 165.492 236.509 165.424 236.594C165.321 236.723 165.264 236.756 165.25 236.763C165.249 236.764 165.245 236.766 165.22 236.763C165.166 236.755 165.101 236.734 164.952 236.685C164.818 236.641 164.642 236.585 164.429 236.548L164.428 236.548C164.33 236.531 164.281 236.497 164.257 236.473C164.232 236.449 164.209 236.412 164.199 236.355C164.176 236.231 164.214 236.012 164.401 235.778Z" fill="#FAF7F1" stroke="#FAF7F1"/>
<path d="M125.52 232.666C125.603 232.561 125.666 232.493 125.711 232.448C125.765 232.487 125.834 232.539 125.938 232.621C126.21 232.839 126.433 233.017 126.551 233.197C126.604 233.277 126.611 233.322 126.611 233.341C126.611 233.353 126.61 233.397 126.542 233.483C126.44 233.611 126.383 233.645 126.368 233.652C126.367 233.653 126.363 233.655 126.339 233.651C126.285 233.643 126.22 233.622 126.071 233.574C125.937 233.53 125.76 233.474 125.548 233.437L125.547 233.437C125.449 233.419 125.4 233.386 125.375 233.362C125.35 233.338 125.328 233.301 125.318 233.243C125.295 233.119 125.333 232.9 125.52 232.666Z" fill="#FAF7F1" stroke="#FAF7F1"/>
<path d="M106.856 223.335C106.94 223.23 107.003 223.162 107.048 223.117C107.102 223.156 107.171 223.208 107.275 223.29C107.547 223.508 107.769 223.686 107.888 223.866C107.94 223.945 107.948 223.991 107.948 224.01C107.948 224.022 107.947 224.066 107.879 224.151C107.777 224.28 107.72 224.314 107.705 224.321C107.704 224.322 107.7 224.324 107.676 224.32C107.621 224.312 107.557 224.291 107.408 224.243C107.274 224.199 107.097 224.143 106.885 224.106L106.884 224.105C106.786 224.088 106.737 224.055 106.712 224.031C106.687 224.007 106.665 223.97 106.654 223.912C106.632 223.788 106.67 223.569 106.856 223.335Z" fill="#FAF7F1" stroke="#FAF7F1"/>
<path d="M111.522 209.338C111.606 209.233 111.669 209.165 111.714 209.12C111.768 209.159 111.837 209.211 111.941 209.293C112.213 209.511 112.435 209.689 112.554 209.869C112.606 209.948 112.614 209.994 112.614 210.013C112.614 210.025 112.613 210.069 112.545 210.154C112.443 210.283 112.386 210.317 112.371 210.324C112.37 210.325 112.366 210.327 112.342 210.323C112.287 210.315 112.223 210.294 112.074 210.246C111.94 210.202 111.763 210.146 111.551 210.109L111.55 210.108C111.452 210.091 111.403 210.058 111.378 210.034C111.353 210.009 111.331 209.973 111.32 209.915C111.298 209.791 111.336 209.572 111.522 209.338Z" fill="#FAF7F1" stroke="#FAF7F1"/>
<path d="M83.5279 215.559C83.6117 215.454 83.6744 215.386 83.7195 215.341C83.7729 215.379 83.8426 215.431 83.946 215.514C84.2183 215.731 84.4408 215.91 84.5596 216.09C84.6118 216.169 84.6194 216.214 84.6196 216.234C84.6196 216.246 84.6187 216.29 84.5506 216.375C84.4479 216.504 84.3909 216.538 84.3765 216.545C84.3758 216.546 84.3715 216.547 84.3472 216.544C84.2928 216.536 84.2281 216.515 84.0793 216.466C83.9451 216.422 83.7685 216.367 83.556 216.33L83.5553 216.329C83.4571 216.312 83.4082 216.279 83.3836 216.255C83.3588 216.23 83.3363 216.194 83.3258 216.136C83.3034 216.012 83.3411 215.793 83.5279 215.559Z" fill="#FAF7F1" stroke="#FAF7F1"/>
<path d="M50.8667 209.338C50.9505 209.233 51.0132 209.165 51.0583 209.12C51.1118 209.159 51.1814 209.211 51.2849 209.293C51.5572 209.511 51.7797 209.689 51.8985 209.869C51.9507 209.948 51.9583 209.994 51.9584 210.013C51.9585 210.025 51.9576 210.069 51.8895 210.154C51.7868 210.283 51.7298 210.317 51.7154 210.324C51.7147 210.325 51.7104 210.327 51.6861 210.323C51.6317 210.315 51.567 210.294 51.4182 210.246C51.284 210.202 51.1073 210.146 50.8949 210.109L50.8941 210.108C50.796 210.091 50.747 210.058 50.7225 210.034C50.6976 210.009 50.6752 209.973 50.6647 209.915C50.6423 209.791 50.6799 209.572 50.8667 209.338Z" fill="#FAF7F1" stroke="#FAF7F1"/>
<path d="M41.5347 195.341C41.6185 195.236 41.6812 195.168 41.7263 195.123C41.7797 195.161 41.8494 195.214 41.9528 195.296C42.2251 195.513 42.4477 195.692 42.5664 195.872C42.6186 195.951 42.6262 195.997 42.6264 196.016C42.6265 196.028 42.6256 196.072 42.5575 196.157C42.4547 196.286 42.3977 196.32 42.3833 196.327C42.3826 196.328 42.3784 196.33 42.3541 196.326C42.2997 196.318 42.2349 196.297 42.0862 196.248C41.952 196.204 41.7753 196.149 41.5629 196.112L41.5621 196.111C41.4639 196.094 41.415 196.061 41.3905 196.037C41.3656 196.012 41.3431 195.976 41.3327 195.918C41.3103 195.794 41.3479 195.575 41.5347 195.341Z" fill="#FAF7F1" stroke="#FAF7F1"/>
<path d="M16.6504 187.565C16.7342 187.46 16.7969 187.391 16.842 187.346C16.8955 187.385 16.9651 187.437 17.0686 187.52C17.3409 187.737 17.5634 187.916 17.6822 188.096C17.7344 188.175 17.7419 188.22 17.7421 188.24C17.7422 188.252 17.7413 188.296 17.6732 188.381C17.5705 188.51 17.5134 188.544 17.4991 188.551C17.4984 188.552 17.4941 188.553 17.4698 188.55C17.4154 188.542 17.3507 188.521 17.2019 188.472C17.0677 188.428 16.891 188.372 16.6786 188.336L16.6778 188.335C16.5797 188.318 16.5307 188.284 16.5062 188.26C16.4813 188.236 16.4588 188.199 16.4484 188.142C16.426 188.018 16.4636 187.799 16.6504 187.565Z" fill="#FAF7F1" stroke="#FAF7F1"/>
<path d="M29.0923 173.568C29.1761 173.463 29.2388 173.394 29.2839 173.349C29.3374 173.388 29.407 173.44 29.5105 173.523C29.7828 173.74 30.0053 173.918 30.1241 174.099C30.1763 174.178 30.1838 174.223 30.184 174.243C30.1841 174.255 30.1832 174.299 30.1151 174.384C30.0124 174.513 29.9553 174.547 29.941 174.554C29.9402 174.554 29.936 174.556 29.9117 174.553C29.8573 174.545 29.7925 174.524 29.6438 174.475C29.5096 174.431 29.3329 174.375 29.1205 174.338L29.1197 174.338C29.0215 174.321 28.9726 174.287 28.9481 174.263C28.9232 174.239 28.9007 174.202 28.8903 174.145C28.8679 174.021 28.9055 173.802 29.0923 173.568Z" fill="#FAF7F1" stroke="#FAF7F1"/>
<path d="M24.4268 148.683C24.5106 148.578 24.5733 148.51 24.6184 148.465C24.6718 148.503 24.7415 148.555 24.8449 148.638C25.1172 148.855 25.3398 149.034 25.4585 149.214C25.5107 149.293 25.5183 149.338 25.5185 149.358C25.5186 149.37 25.5176 149.414 25.4496 149.499C25.3468 149.628 25.2898 149.662 25.2754 149.669C25.2747 149.67 25.2704 149.671 25.2461 149.668C25.1918 149.66 25.127 149.639 24.9782 149.59C24.844 149.546 24.6674 149.491 24.455 149.454L24.4542 149.453C24.356 149.436 24.3071 149.403 24.2825 149.379C24.2577 149.354 24.2352 149.318 24.2248 149.26C24.2023 149.136 24.24 148.917 24.4268 148.683Z" fill="#FAF7F1" stroke="#FAF7F1"/>
<path d="M39.979 128.465C40.0628 128.36 40.1255 128.292 40.1706 128.247C40.2241 128.286 40.2937 128.338 40.3972 128.42C40.6695 128.638 40.892 128.816 41.0108 128.996C41.063 129.075 41.0706 129.121 41.0707 129.14C41.0708 129.152 41.0699 129.196 41.0018 129.281C40.8991 129.41 40.8421 129.444 40.8277 129.451C40.827 129.452 40.8227 129.454 40.7984 129.45C40.744 129.442 40.6793 129.421 40.5305 129.372C40.3963 129.329 40.2196 129.273 40.0072 129.236L40.0064 129.235C39.9083 129.218 39.8593 129.185 39.8348 129.161C39.8099 129.136 39.7875 129.1 39.777 129.042C39.7546 128.918 39.7922 128.699 39.979 128.465Z" fill="#FAF7F1" stroke="#FAF7F1"/>
<path d="M32.2032 122.243C32.287 122.138 32.3496 122.07 32.3948 122.025C32.4482 122.064 32.5179 122.116 32.6213 122.198C32.8936 122.416 33.1161 122.594 33.2349 122.774C33.2871 122.854 33.2947 122.899 33.2949 122.919C33.2949 122.93 33.294 122.974 33.2259 123.06C33.1232 123.188 33.0662 123.222 33.0518 123.229C33.0511 123.23 33.0468 123.232 33.0225 123.228C32.9681 123.221 32.9034 123.2 32.7546 123.151C32.6204 123.107 32.4438 123.051 32.2313 123.014L32.2306 123.014C32.1324 122.997 32.0835 122.963 32.0589 122.939C32.034 122.915 32.0116 122.878 32.0011 122.821C31.9787 122.697 32.0164 122.477 32.2032 122.243Z" fill="#FAF7F1" stroke="#FAF7F1"/>
<path d="M223.133 59.3218C223.447 59.686 223.62 59.9396 223.703 60.13C223.776 60.2988 223.768 60.392 223.74 60.4728C223.702 60.5835 223.601 60.7358 223.364 60.9724C223.13 61.206 222.817 61.4736 222.402 61.8309C221.572 62.5462 220.665 63.3395 219.815 63.7837C219.393 64.0043 219.033 64.1117 218.739 64.1081C218.47 64.1047 218.227 64.0099 217.999 63.745C217.717 63.4173 217.621 63.1804 217.599 63.0006C217.577 62.8232 217.617 62.6312 217.745 62.3717C217.879 62.1012 218.081 61.8109 218.343 61.426C218.534 61.1457 218.748 60.8286 218.959 60.4663L219.168 60.0886C220.14 58.242 222.105 58.1286 223.133 59.3218Z" fill="#FAF7F1" stroke="#FAF7F1"/>
<path d="M242.676 155.005C242.317 155.325 242.066 155.503 241.877 155.589C241.71 155.665 241.617 155.659 241.535 155.632C241.424 155.595 241.27 155.497 241.029 155.264C240.792 155.034 240.519 154.725 240.155 154.317C239.426 153.499 238.617 152.605 238.159 151.763C237.931 151.345 237.818 150.987 237.816 150.692C237.815 150.424 237.906 150.179 238.167 149.947C238.49 149.659 238.725 149.559 238.904 149.534C239.081 149.509 239.274 149.546 239.536 149.67C239.808 149.799 240.102 149.996 240.491 150.252C240.775 150.438 241.095 150.646 241.461 150.851L241.843 151.054C243.705 151.994 243.852 153.957 242.676 155.005Z" fill="#FAF7F1" stroke="#FAF7F1"/>
<path d="M191.025 48.885C190.666 49.2049 190.416 49.3824 190.227 49.4686C190.059 49.5449 189.966 49.5386 189.884 49.5119C189.773 49.4753 189.619 49.3766 189.379 49.1439C189.141 48.9143 188.868 48.6052 188.504 48.1966C187.775 47.3785 186.966 46.4853 186.508 45.6432C186.28 45.225 186.167 44.8664 186.165 44.5721C186.164 44.3037 186.255 44.0593 186.516 43.8266C186.839 43.5389 187.074 43.4393 187.254 43.4138C187.431 43.3887 187.623 43.4256 187.885 43.5497C188.158 43.679 188.451 43.8759 188.841 44.1316C189.124 44.3178 189.445 44.5258 189.81 44.731L190.192 44.9341C192.054 45.8741 192.201 47.8368 191.025 48.885Z" fill="#FAF7F1" stroke="#FAF7F1"/>
</svg>
