<svg width="315" height="389" viewBox="0 0 315 389" fill="none" xmlns="http://www.w3.org/2000/svg">
<path d="M279.943 297.59C286.559 293.776 290.873 290.917 293.325 287.549C295.673 284.324 296.423 280.457 295.312 274.258C294.188 267.989 291.2 259.566 286.295 247.429C281.406 235.328 274.69 219.719 266.138 199.037C246.057 167.425 230.79 143.603 218.77 125.88C206.723 108.118 197.992 96.5629 190.993 89.445C183.989 82.3226 178.939 79.8721 174.256 79.8377C169.453 79.8023 164.661 82.272 158.015 86.1032C154.695 88.0176 151.228 89.7387 147.971 91.4512C144.683 93.1793 141.569 94.9174 138.801 96.927C133.318 100.908 129.225 105.919 128.057 113.95C126.872 122.091 128.665 133.519 135.488 150.349C142.289 167.125 154.025 189.118 172.536 218.343C193.327 238.198 208.911 254.041 220.992 266.395C233.12 278.799 241.66 287.623 248.414 293.494C255.186 299.382 259.916 302.069 264.4 302.55C268.862 303.028 273.409 301.357 279.943 297.59Z" stroke="#0A2A43" stroke-width="3"/>
<path d="M151.483 127.288C179.663 118.808 195.294 87.3512 186.122 56.8756C176.951 26.3999 146.556 8.79448 118.376 17.2749C90.1958 25.7553 74.5651 57.2116 83.7363 87.6873C92.9077 118.163 123.303 135.768 151.483 127.288Z" fill="#F2EDE3" stroke="#0A2A43" stroke-width="3"/>
<path d="M92.4838 106.668C104.84 120.461 133.153 115.254 155.721 95.0368C178.289 74.8197 186.566 47.2486 174.21 33.4551" stroke="#0A2A43" stroke-width="3"/>
<path d="M132.332 146.043C144.689 159.836 168.371 158.776 185.228 143.675C202.085 128.574 205.733 105.151 193.376 91.3574" stroke="#0A2A43" stroke-width="3"/>
<path d="M226.659 272.625C237.775 287.437 258.731 290.48 273.466 279.422C288.202 268.364 288.979 248.52 280.217 231.793" stroke="#0A2A43" stroke-width="3"/>
<path d="M177.358 194.571C176.65 195.008 176.223 195.425 175.973 195.831C175.736 196.215 175.602 196.679 175.632 197.325C175.696 198.735 176.52 200.859 178.591 204.215C179.653 205.936 180.605 207.667 181.469 209.227C182.344 210.806 183.116 212.186 183.852 213.286C184.609 214.419 185.21 215.07 185.68 215.358C185.888 215.485 186.016 215.506 186.086 215.507C186.15 215.508 186.274 215.495 186.487 215.364C187.562 214.701 188.309 213.342 188.256 211.146C188.203 208.944 187.326 206.074 185.34 202.857C183.222 199.424 181.642 196.894 180.212 195.434C179.51 194.717 178.979 194.403 178.586 194.301C178.267 194.219 177.899 194.237 177.358 194.571Z" fill="#0A2A43" stroke="#0A2A43" stroke-width="3"/>
<ellipse cx="1.59307" cy="2.3896" rx="1.59307" ry="2.3896" transform="matrix(-1 0 0 1 123.301 20.71)" fill="#0A2A43"/>
<ellipse cx="1.59307" cy="2.3896" rx="1.59307" ry="2.3896" transform="matrix(-1 0 0 1 104.184 41.4199)" fill="#0A2A43"/>
<ellipse cx="1.59307" cy="2.3896" rx="1.59307" ry="2.3896" transform="matrix(-0.783883 -0.620909 -0.620909 0.783883 114.881 41.333)" fill="#0A2A43"/>
<ellipse cx="1.59307" cy="1.34236" rx="1.59307" ry="1.34236" transform="matrix(-0.783883 -0.620909 -0.620909 0.783883 102.884 32.2959)" fill="#0A2A43"/>
<ellipse cx="1.59307" cy="1.34236" rx="1.59307" ry="1.34236" transform="matrix(-0.783883 -0.620909 -0.620909 0.783883 108.963 33.8408)" fill="#0A2A43"/>
<ellipse cx="1.36856" cy="0.564648" rx="1.36856" ry="0.564648" transform="matrix(-0.783883 -0.620909 -0.620909 0.783883 96.2189 47.8984)" fill="#0A2A43"/>
<ellipse cx="1.36856" cy="0.564648" rx="1.36856" ry="0.564648" transform="matrix(-0.974434 0.224676 0.224676 0.974434 118.267 30.2686)" fill="#0A2A43"/>
<ellipse cx="1.36856" cy="0.564648" rx="1.36856" ry="0.564648" transform="matrix(-0.974434 0.224676 0.224676 0.974434 110.301 25.4893)" fill="#0A2A43"/>
<ellipse cx="1.36856" cy="0.564648" rx="1.36856" ry="0.564648" transform="matrix(-0.974434 0.224676 0.224676 0.974434 99.1499 38.2344)" fill="#0A2A43"/>
<ellipse cx="1.36856" cy="0.564648" rx="1.36856" ry="0.564648" transform="matrix(-0.974434 0.224676 0.224676 0.974434 89.5915 52.5713)" fill="#0A2A43"/>
<ellipse cx="1.36856" cy="0.564648" rx="1.36856" ry="0.564648" transform="matrix(-0.718197 0.69584 0.69584 0.718197 92.2487 39.8271)" fill="#0A2A43"/>
<circle cx="79.6535" cy="275.602" r="78.1535" fill="#F2EDE3" stroke="#0A2A43" stroke-width="3"/>
<path d="M117.349 263.532C119.258 264.09 120.843 264.61 122.066 265.227C123.291 265.844 123.969 266.469 124.292 267.135C124.598 267.767 124.712 268.705 124.209 270.249C123.702 271.8 123.082 272.405 122.538 272.664C121.946 272.945 121.082 272.995 119.736 272.681C118.398 272.369 116.835 271.761 114.968 271.006C113.137 270.267 111.056 269.405 108.814 268.673C106.573 267.942 104.384 267.41 102.47 266.927C100.517 266.434 98.897 266.003 97.6327 265.466C96.3598 264.925 95.6914 264.375 95.3797 263.799C95.0931 263.269 94.9492 262.414 95.4555 260.863C95.9593 259.32 96.6047 258.63 97.2248 258.3C97.8787 257.953 98.7954 257.848 100.148 258.072C101.5 258.296 103.087 258.811 104.958 259.487C106.786 260.147 108.886 260.96 111.097 261.682C113.307 262.403 115.484 262.986 117.349 263.532Z" fill="#F2EDE3" stroke="#0A2A43" stroke-width="3"/>
<path d="M58.3019 259.146C60.1649 258.54 61.7389 258.085 63.0727 257.911C64.4056 257.738 65.2985 257.875 65.9284 258.243C66.5296 258.594 67.1497 259.308 67.6049 260.872C68.0626 262.445 67.8947 263.297 67.5984 263.813C67.2788 264.371 66.6133 264.891 65.3495 265.382C64.0924 265.871 62.4873 266.242 60.5482 266.663C58.6487 267.075 56.4756 267.526 54.2443 268.176C52.013 268.825 49.9369 269.61 48.1128 270.281C46.2511 270.966 44.698 271.515 43.3752 271.777C42.0451 272.041 41.2036 271.959 40.6348 271.66C40.1074 271.383 39.5096 270.754 39.052 269.181C38.5969 267.617 38.7369 266.682 39.0558 266.063C39.39 265.414 40.0699 264.82 41.2879 264.251C42.5065 263.682 44.0789 263.221 45.9762 262.733C47.828 262.256 49.9902 261.754 52.1893 261.114C54.3886 260.474 56.4835 259.738 58.3019 259.146Z" fill="#F2EDE3" stroke="#0A2A43" stroke-width="3"/>
<path d="M122.697 300.226C121.491 322.953 102.681 341.01 79.653 341.01C56.6252 341.01 37.815 322.953 36.609 300.226C37.0195 300.397 37.4839 300.587 37.9997 300.792C40.2925 301.702 43.6012 302.913 47.6862 304.122C55.8495 306.539 67.1496 308.963 79.653 308.963C92.1566 308.963 103.457 306.539 111.621 304.122C115.706 302.913 119.014 301.702 121.307 300.792C121.823 300.587 122.287 300.397 122.697 300.226Z" fill="#F2EDE3" stroke="#0A2A43" stroke-width="3"/>
<path d="M280.971 298.162C281.907 299.134 285.713 302.881 289.503 306.728C292.449 309.719 295.523 314.827 299.12 327.92C301.696 337.298 300.097 343.659 299.579 345.252C298.143 349.672 291.048 354.993 285.443 358.586C275.371 365.043 257.108 364.298 249.836 365.756C235.748 371.856 223.016 380.563 219.109 384.543C218.576 385.261 218.21 385.914 217.834 386.586" stroke="#0A2A43" stroke-width="3" stroke-linecap="round"/>
</svg>
