<svg width="404" height="508" viewBox="0 0 404 508" fill="none" xmlns="http://www.w3.org/2000/svg">
<path d="M68.6156 418.227C61.608 411.96 57.069 407.373 54.9273 402.611C52.8585 398.012 52.9574 393.053 55.8878 385.803C58.8455 378.486 64.6011 369.052 73.5867 355.652C82.5498 342.287 94.6116 325.139 110.165 302.346C142.397 269.28 166.851 244.394 185.844 226.046C204.871 207.665 218.347 195.915 228.621 189.08C238.9 182.241 245.71 180.502 251.504 181.673C257.416 182.867 262.641 187.131 269.674 193.422C273.189 196.565 276.924 199.508 280.429 202.405C283.961 205.323 287.293 208.222 290.142 211.366C295.795 217.606 299.516 224.775 298.887 234.876C298.25 245.088 293.158 258.483 280.656 277.079C268.186 295.628 248.439 319.217 218.692 349.811C188.573 368.512 165.759 383.687 148.053 395.539C130.291 407.429 117.741 415.924 108.093 421.307C98.4219 426.703 91.9542 428.797 86.3108 428.231C80.6887 427.668 75.5534 424.432 68.6156 418.227Z" stroke="#0A2A43" stroke-width="3"/>
<path d="M266.737 245.326C234.698 227.863 223.767 185.739 242.622 151.145C261.477 116.552 302.803 102.908 334.842 120.371C366.881 137.834 377.811 179.958 358.956 214.552C340.101 249.145 298.776 262.788 266.737 245.326Z" fill="#F2EDE3" stroke="#0A2A43" stroke-width="3"/>
<path d="M343.295 235.07C324.899 248.584 292.061 235.139 269.95 205.04C247.84 174.942 244.828 139.586 263.225 126.072" stroke="#0A2A43" stroke-width="3"/>
<path d="M285.261 272.49C266.865 286.004 238.564 278.734 222.048 256.252C205.533 233.771 207.058 204.59 225.454 191.076" stroke="#0A2A43" stroke-width="3"/>
<path d="M139.445 401.331C122.288 416.387 96.2374 414.757 81.2587 397.689C66.2799 380.621 70.362 356.485 85.1638 338.522" stroke="#0A2A43" stroke-width="3"/>
<path d="M218.906 319.388C219.675 320.118 220.124 320.774 220.347 321.394C220.562 321.99 220.605 322.656 220.391 323.489C219.933 325.267 218.342 327.678 214.992 331.205C213.282 333.005 211.701 334.846 210.263 336.511C208.811 338.192 207.521 339.673 206.342 340.826C205.136 342.007 204.201 342.687 203.485 342.942C203.158 343.059 202.934 343.065 202.776 343.034C202.623 343.005 202.417 342.92 202.153 342.669C200.907 341.485 200.349 339.515 200.986 336.801C201.626 334.081 203.45 330.788 206.687 327.379C210.1 323.786 212.677 321.096 214.811 319.67C215.863 318.967 216.646 318.686 217.237 318.659C217.751 318.635 218.281 318.794 218.906 319.388Z" fill="#0A2A43" stroke="#0A2A43" stroke-width="3"/>
<ellipse cx="329.181" cy="126.863" rx="1.96364" ry="2.94546" transform="rotate(11.8437 329.181 126.863)" fill="#0A2A43"/>
<ellipse cx="347.004" cy="156.682" rx="1.96364" ry="2.94546" transform="rotate(11.8437 347.004 156.682)" fill="#0A2A43"/>
<ellipse cx="335.876" cy="152.344" rx="1.96364" ry="2.94546" transform="rotate(-26.5388 335.876 152.344)" fill="#0A2A43"/>
<ellipse cx="352.06" cy="143.322" rx="1.96364" ry="1.65461" transform="rotate(-26.5388 352.06 143.322)" fill="#0A2A43"/>
<ellipse cx="344.334" cy="143.647" rx="1.96364" ry="1.65461" transform="rotate(-26.5388 344.334 143.647)" fill="#0A2A43"/>
<ellipse cx="355.477" cy="163.096" rx="1.68691" ry="0.695992" transform="rotate(-26.5388 355.477 163.096)" fill="#0A2A43"/>
<ellipse cx="332.757" cy="137.722" rx="1.68691" ry="0.695992" transform="rotate(24.8275 332.757 137.722)" fill="#0A2A43"/>
<ellipse cx="343.576" cy="133.971" rx="1.68691" ry="0.695992" transform="rotate(24.8275 343.576 133.971)" fill="#0A2A43"/>
<ellipse cx="353.804" cy="152.167" rx="1.68691" ry="0.695992" transform="rotate(24.8275 353.804 152.167)" fill="#0A2A43"/>
<ellipse cx="361.708" cy="171.881" rx="1.68691" ry="0.695992" transform="rotate(24.8275 361.708 171.881)" fill="#0A2A43"/>
<ellipse cx="360.856" cy="156.281" rx="1.68691" ry="0.695992" transform="rotate(55.9379 360.856 156.281)" fill="#0A2A43"/>
<path d="M118.335 120.588C124.239 119.878 129.739 121.022 133.852 123.374C137.965 125.725 140.607 129.22 141.09 133.239C141.573 137.259 139.835 141.28 136.396 144.539C132.958 147.798 127.886 150.213 121.982 150.923C116.079 151.633 110.579 150.488 106.465 148.137C102.352 145.786 99.7108 142.292 99.2274 138.272C98.7442 134.253 100.482 130.231 103.921 126.972C107.36 123.713 112.432 121.297 118.335 120.588Z" stroke="#0A2A43" stroke-width="3"/>
<path d="M215.528 106.786C221.433 106.076 226.934 107.211 231.045 109.548C235.157 111.885 237.793 115.36 238.273 119.352C238.753 123.345 237.015 127.344 233.575 130.589C230.134 133.834 225.06 136.241 219.155 136.951C213.25 137.661 207.749 136.525 203.638 134.188C199.526 131.851 196.89 128.378 196.41 124.385C195.93 120.392 197.667 116.393 201.108 113.147C204.549 109.903 209.623 107.496 215.528 106.786Z" stroke="#0A2A43" stroke-width="3"/>
<path d="M140.619 138.691C140.631 138.632 142.827 128.161 146.545 111.122C147.989 104.504 148.876 102.084 151.346 91.5256C153.815 80.9673 157.928 62.3642 160.554 52.6957C163.179 43.0272 164.192 42.8572 165.117 42.6174C169.295 41.5353 178.932 40.1159 187.619 38.9818C208.821 36.214 223.354 31.122 227.312 30.4685C232.356 29.6358 239.176 28.9415 244.319 28.6129C249.269 28.2967 254.039 28.2555 257.626 28.6111C262.932 29.1372 257.296 41.9714 255.476 53.5454C254.058 62.5575 250.703 77.7826 248.539 87.3457C244.528 105.068 242.542 108.608 241.313 111.918C241.007 112.782 240.702 113.656 240.265 115.246C239.828 116.837 239.268 119.118 238.692 121.469" stroke="#0A2A43" stroke-width="3" stroke-linecap="round"/>
<path d="M158.6 62.9645C161.443 63.5564 169.958 64.9001 176.868 64.2402C182.186 63.7323 189.169 63.2379 194.411 63.3216C199.729 63.4064 205.439 61.94 210.584 61.0769C215.133 60.3136 219.702 60.049 225.697 59.366C231.1 58.7504 235.317 58.5348 239.905 57.7572C243.914 56.8211 247.265 56.3493 249.648 56.4687C251.106 56.6183 253.068 56.9485 255.09 57.2888" stroke="#0A2A43" stroke-width="3" stroke-linecap="round"/>
<path d="M38.905 211.698C37.5329 211.036 32.6168 206.223 28.7351 195.389C26.6603 189.599 28.9263 183.509 32.0213 178.586C36.8844 170.851 48.1851 164.359 55.548 162.978C66.1623 160.987 74.6065 163.589 77.0379 164.759C82.7091 167.488 85.8037 172.869 89.7761 182.184C94.3665 192.948 88.521 213.029 84.5733 221.13C81.3453 227.754 72.1814 231.092 54.9012 233.831C23.5622 238.796 18.9224 232.051 15.2834 229.497C11.1418 226.591 7.59453 215.791 5.05884 199.739C3.49054 189.811 7.74194 178.667 11.768 168.849C15.0036 160.959 18.1082 156.993 28.4255 147.091C37.9159 137.982 56.1564 120.699 65.9072 111.3C76.5207 101.069 78.2057 98.0618 79.8738 94.1209C81.5416 90.1808 80.4362 86.8601 79.5058 85.1685C75.7463 78.3329 66.1271 72.1202 61.5662 71.5402C56.893 70.9459 50.4104 77.8632 46.4302 82.2117C44.3634 84.4697 43.692 88.7513 42.4724 103.893C41.4435 116.666 40.5827 139.845 40.9519 158.856C41.3212 177.868 43.2024 192.028 45.5052 204.975C47.8079 217.922 50.4751 229.227 51.9575 236.338C53.9645 245.966 53.6835 252.905 52.1821 262.358C48.9635 282.623 38.8889 290.439 33.5506 295.527C29.3181 299.561 24.2631 299.095 19.7697 298.645C16.1096 298.277 12.6903 290.969 7.01337 276.454C2.70403 265.435 7.55247 251.56 10.3149 248.187C12.72 245.25 19.2789 246.331 24.2698 247.55C29.2278 248.761 33.5562 256.49 36.8471 263.209C37.8126 265.181 37.3396 267.351 36.9694 269.285C36.6335 271.042 34.6369 272.441 32.0404 273.614C28.616 273.94 25.7475 273.456 24.2363 272.318C23.6249 271.606 23.3289 270.62 23.0239 269.605" stroke="#0A2A43" stroke-width="3" stroke-linecap="round"/>
</svg>
