<svg width="259" height="267" viewBox="0 0 259 267" fill="none" xmlns="http://www.w3.org/2000/svg">
<rect x="54.6148" y="0.606897" width="208.044" height="207.732" rx="19.5" transform="rotate(14.1243 54.6148 0.606897)" stroke="#FAF7F1"/>
<rect x="54.6148" y="0.606897" width="208.044" height="221.322" rx="19.5" transform="rotate(14.1243 54.6148 0.606897)" stroke="#FAF7F1"/>
<path d="M183.921 103.142C181.441 70.2758 171.09 55.9178 157.688 50.2075C150.946 47.335 143.357 46.6128 135.456 46.9004C127.568 47.1876 119.425 48.4775 111.551 49.6008C95.4283 54.5803 88.0553 59.8875 85.7987 65.797C83.5488 71.6888 86.3158 78.3622 91.1073 86.3681C100.631 102.282 117.902 123.001 115.79 151.281C114.273 171.591 122.738 191.545 135.492 205.86C148.239 220.167 165.19 228.764 180.677 226.584C190.15 222.606 196.358 217.733 200.052 211.502C203.755 205.257 204.964 197.595 204.33 187.981C203.695 178.362 201.219 166.823 197.585 152.852C193.949 138.875 189.172 122.519 183.937 103.233L183.925 103.189L183.921 103.142Z" stroke="#FAF7F1"/>
<path d="M104.295 52.6935C103.301 57.4387 101.294 68.4007 101.241 71.6007C101.217 73.08 100.636 75.3212 100.048 77.9205C97.9594 80.5292 94.6114 81.8966 90.9454 82.6351C90.0513 82.7247 90.8934 82.9664 89.9562 83.0413" stroke="#FAF7F1" stroke-linecap="round"/>
<path d="M129.087 48.5723C129.672 52.3675 131.367 61.7071 132.728 66.1074C133.727 69.34 134.067 74.2942 134.235 79.1755C134.362 82.8876 133.73 89.4861 133.385 93.3379C132.711 100.85 127.223 101.445 123.938 103.654C120.591 105.904 118.539 108.648 116.074 110.587C114.687 111.345 113.162 111.981 111.6 112.546C110.83 112.82 110.107 113.066 108.802 113.709" stroke="#FAF7F1" stroke-linecap="round"/>
<path d="M155.186 50.4387C154.455 53.9296 152.665 62.8913 151.823 69.6933C151.078 75.7173 149.062 86.8652 147.437 94.2259C143.994 109.82 140.879 115.705 138.381 120.872C136.056 125.682 131.938 130.071 129.205 132.608C126.024 134.947 123.999 136.293 122.515 137.199C121.665 137.674 120.621 138.179 118.465 139.408" stroke="#FAF7F1" stroke-linecap="round"/>
<path d="M175.807 70.9789C175.793 71.0457 175.001 78.2114 172.592 89.9431C170.497 100.145 170.871 111.36 171.382 119.045C171.934 127.345 170.608 131.555 167.642 145.32C166.414 151.019 162.199 152.959 158.751 154.837C150.91 159.107 141.397 167.817 138.358 169.759C134.325 170.707 131.26 170.909 127.991 170.371C125.636 169.927 121.869 169.139 116.789 169.134" stroke="#FAF7F1" stroke-linecap="round"/>
<path d="M191.699 134.871C191.689 134.919 189.342 145.828 185.179 163.626C181.861 177.813 174.364 183.88 169.953 187.599C167.315 189.823 163.08 190.074 146.649 193.886C139.811 196.227 136.562 198.429 135.104 199.747C134.433 200.352 133.9 200.827 132.998 201.635" stroke="#FAF7F1" stroke-linecap="round"/>
<path d="M180.439 115.84C180.429 115.888 178.082 126.796 173.919 144.595C170.601 158.781 163.104 164.849 158.694 168.568C156.056 170.792 151.821 171.042 135.39 174.855C128.551 177.195 125.302 179.398 123.844 180.716C123.173 181.321 122.64 181.795 121.739 182.603" stroke="#FAF7F1" stroke-linecap="round"/>
<path d="M203.578 188.48C203.26 189.738 200.458 195.589 193.542 203.891C187.816 210.765 177.438 214.799 169.923 216.682C167.41 217.348 165.577 218.054 164.05 218.898C163.356 219.348 162.824 219.842 161.453 221.523" stroke="#FAF7F1" stroke-linecap="round"/>
<path d="M86.3734 104.145C47.468 113.645 32.7575 127.218 29.258 142.063C27.5018 149.511 28.5445 157.357 30.8776 165.303C33.2074 173.237 36.8059 181.217 40.1379 188.962C50.1724 204.239 58.4073 210.6 66.1085 211.637C73.8185 212.676 81.1921 208.411 89.6071 201.853C106.359 188.799 126.865 166.934 161.326 163.077C186.16 160.297 208.047 147.455 222.061 131.46C236.073 115.468 242.126 96.4466 235.616 81.2222C228.455 72.4681 221.037 67.2052 212.604 64.7786C204.146 62.3443 194.61 62.7476 183.197 65.4365C171.781 68.126 158.527 73.0917 142.649 79.7438C126.768 86.3973 108.307 94.7176 86.4514 104.119L86.4138 104.135L86.3734 104.145Z" fill="#0A2A43" stroke="#FAF7F1"/>
<path d="M45.7686 195.624C51.7216 195.624 65.4012 195.332 69.2602 194.706C71.0442 194.417 73.8838 194.529 77.1558 194.574C80.8165 196.137 83.3026 199.242 85.1129 202.802C85.4456 203.689 85.5242 202.784 85.85 203.718" stroke="#FAF7F1" stroke-linecap="round"/>
<path d="M34.5762 171.368C38.9899 169.968 49.7877 166.267 54.7336 163.953C58.367 162.253 64.2353 160.856 70.0596 159.65C74.4888 158.733 82.5781 157.973 87.2941 157.505C96.4915 156.592 98.588 162.03 102.07 164.892C105.617 167.807 109.431 169.305 112.381 171.393C113.641 172.639 114.79 174.05 115.862 175.513C116.385 176.236 116.863 176.917 117.964 178.103" stroke="#FAF7F1" stroke-linecap="round"/>
<path d="M30.249 144.507C34.6285 144.507 45.8493 144.419 54.2359 143.827C61.6631 143.304 75.5682 142.981 84.8233 143.065C104.431 143.244 112.288 145.153 119.126 146.589C125.493 147.925 131.804 151.168 135.54 153.401C139.152 156.129 141.28 157.896 142.742 159.209C143.526 159.969 146.437 162.711 148.457 164.635" stroke="#FAF7F1" stroke-linecap="round"/>
<path d="M49.7451 119.234C49.8289 119.234 58.6402 118.515 73.3459 118.467C86.1344 118.425 99.5182 115.664 108.625 113.514C118.461 111.192 123.854 111.642 141.145 111.726C148.302 111.761 151.695 115.623 154.82 118.721C161.925 125.764 174.788 133.559 177.886 136.228C180.041 140.116 181.055 143.181 181.231 146.61C181.291 149.091 181.291 153.078 182.563 158.23" stroke="#FAF7F1" stroke-linecap="round"/>
<path d="M122.529 89.5557C122.589 89.5557 136.29 89.619 158.729 90.0604C176.613 90.4123 185.792 96.7253 191.372 100.407C194.709 102.61 196.076 106.85 204.793 122.7C209.327 129.137 212.792 131.963 214.743 133.161C215.639 133.714 216.344 134.153 217.542 134.895" stroke="#FAF7F1" stroke-linecap="round"/>
<path d="M183.969 66.127C185.56 66.1828 193.297 67.7808 205.015 73.0302C214.717 77.3763 222.179 87.0416 226.332 94.2616C227.766 96.668 229.076 98.376 230.474 99.7454C231.189 100.354 231.918 100.788 234.283 101.821" stroke="#FAF7F1" stroke-linecap="round"/>
<path d="M74.0623 120.728C77.1241 117.509 79.6088 113.258 79.6988 112.944C80.208 112.45 80.6591 112.081 81.0622 111.841C81.4653 111.602 81.8099 111.495 82.3982 111.45C84.8679 111.49 86.3949 111.641 89.3973 111.418C94.5575 111.034 98.2168 110.782 100.876 110.188C107.402 108.729 112.093 107.669 113.463 107.144C115.726 106.277 117.619 105.518 119.781 104.982L120.07 104.91C124.075 103.917 126.85 103.229 127.654 102.781C129.013 102.024 131.413 100.719 133.683 98.7595C135.436 97.2456 137.915 94.5277 140.487 90.6945C142.488 87.7111 143.509 85.9669 144.297 85.253C145.184 84.4494 148.555 82.0753 154.747 79.066C157.869 77.5489 161.103 76.298 163.443 75.2504C167.27 73.5373 169.595 72.2977 174.042 71.3084C177.575 70.5226 183.571 69.1133 187.774 68.7973C194.262 68.3095 197.71 68.264 199.761 69.1193C202.724 70.3541 207.405 73.404 210.491 74.7546C212.639 75.6946 214.028 76.2887 215.463 75.7361C216.036 75.5153 216.611 75.0837 216.952 74.3686L216.978 74.3139C217.309 73.6223 217.703 72.7972 217.602 71.8257C217.194 67.8728 216 63.1134 214.943 61.5336C214.53 60.9152 214.138 57.0658 212.264 51.6529C211.143 48.4147 210.574 46.9541 209.877 46.5483C207.234 45.0096 202.092 42.9089 199.186 42.9281C194.751 42.9573 191.563 42.8846 186.898 43.4547C185.065 43.6786 181.741 44.446 177.625 45.1493L177.527 45.1661C175.408 45.5283 174.335 45.7116 173.602 45.4929C172.357 45.1214 171.244 44.6261 170.564 43.4819C169.244 41.2623 166.574 37.3986 163.369 36.1181L163.309 36.094C161.243 35.2678 158.791 34.2878 155.359 35.0166C151.367 35.8646 148.334 36.8883 146.582 37.291C144.252 37.8262 142.619 38.0698 142.153 37.685C141.864 37.4464 141.57 37.0359 141.142 36.6844C139.631 35.445 138.993 34.6736 137.967 34.1193C136.706 33.4379 135.074 32.3759 132.609 32.3859C130.699 32.3936 126.737 32.7566 122.47 33.9922C119.49 34.855 116.652 36.686 112.046 40.9281C111.231 41.678 111 41.8341 110.011 41.2881C109.022 40.742 107.428 39.414 106.321 38.8514C103.827 37.5834 99.8823 35.1064 94.5279 34.3857C91.8142 34.0205 89.2117 33.677 85.1699 34.3928C82.258 34.9085 77.7131 35.8653 75.0498 36.5562C71.5743 37.4578 68.7592 38.4147 65.6724 40.3647C63.1218 41.976 59.6285 44.5535 56.8095 47.9181C54.6952 50.4417 52.9195 52.4343 53.5585 54.1763C54.5956 57.0033 58.1587 59.1805 56.8654 59.6819C56.6491 59.7657 56.1174 59.5776 55.6017 59.617C53.1895 59.8014 47.8925 60.5749 43.4728 63.1911C42.2966 63.8874 39.5506 66.3181 36.5606 69.9999C35.1834 71.6958 34.8419 72.3207 34.7301 73.8064C34.4706 77.2578 34.293 80.5542 35.1991 82.4879C36.1933 84.6095 38.6343 88.0644 42.0319 91.425C43.7631 93.1374 46.2267 94.1623 45.3824 94.5768C44.3879 95.065 41.8994 95.378 39.7686 97.3412C38.4021 98.6002 36.802 100.765 36.8513 103.842C36.9105 107.535 37.0836 111.253 37.7737 113.542C38.2384 115.083 38.7004 116.183 39.4871 116.902C40.1525 117.51 42.8654 119.274 47.6769 121.225C51.6811 122.848 54.7157 123.973 57.4581 124.018C60.6479 124.072 62.667 124.037 64.776 123.484C69.8617 122.149 73.5812 121.234 74.0623 120.728Z" fill="#0A2A43" stroke="#FAF7F1" stroke-linecap="round"/>
<path d="M82.1572 58.6239L82.1926 58.6064L93.9603 50.4016L95.3197 54.0741L72.538 69.9581L69.05 64.9554L82.1572 58.6239Z" stroke="#FAF7F1"/>
<path d="M135.43 46.9315L135.47 46.9316L149.662 44.8391L149.24 48.7323L121.765 52.7833L120.875 46.7499L135.43 46.9315Z" stroke="#FAF7F1"/>
<path d="M186.146 59.0817L186.098 59.0784L174.558 60.4011L174.924 56.5443L197.225 53.9881L197.917 60.0257L186.146 59.0817Z" stroke="#FAF7F1"/>
<path d="M140.741 65.9301L140.683 65.8944L132.898 63.6859L134.478 60.1945L149.45 64.4415L147.805 70.2401L140.741 65.9301Z" stroke="#FAF7F1"/>
<path d="M102.141 78.5598L102.132 78.5192L96.9094 65.5254L100.785 65.0055L110.894 90.1575L105.237 92.4311L102.141 78.5598Z" stroke="#FAF7F1"/>
<path d="M63.1694 95.2927L63.1876 95.3301L71.2821 106.758L67.6328 108.163L51.9641 86.0423L56.9392 82.5183L63.1694 95.2927Z" stroke="#FAF7F1"/>
<path d="M77.483 95.7055L77.5067 95.7796L81.5269 101.455L78.1508 103.246L70.4446 92.3666L75.3399 88.899L77.483 95.7055Z" stroke="#FAF7F1"/>
<path d="M131.152 79.6574C131.425 79.315 131.622 79.1052 131.775 78.9823C131.922 78.8636 131.984 78.8613 131.999 78.8612C132.024 78.8612 132.093 78.8707 132.256 78.9755C132.422 79.0821 132.617 79.2394 132.9 79.466C133.468 79.919 134.043 80.372 134.366 80.8621C134.52 81.0963 134.594 81.3052 134.595 81.4972C134.597 81.681 134.534 81.9061 134.314 82.1812C134.06 82.4991 133.871 82.6466 133.729 82.7153C133.602 82.7768 133.483 82.7911 133.323 82.7685C133.14 82.7425 132.94 82.6743 132.636 82.5747C132.419 82.5036 132.167 82.4233 131.878 82.3568L131.575 82.2955C130.965 82.1901 130.671 81.8355 130.591 81.395C130.504 80.9178 130.663 80.2699 131.152 79.6574Z" fill="#0A2A43" stroke="#FAF7F1"/>
<path d="M121.343 74.543C121.408 74.4621 121.457 74.4048 121.495 74.3647C121.54 74.3985 121.6 74.4417 121.682 74.5071C121.936 74.7102 122.137 74.8718 122.244 75.0332C122.29 75.1032 122.293 75.1387 122.293 75.1479C122.294 75.1507 122.295 75.184 122.237 75.2564C122.153 75.361 122.105 75.3931 122.091 75.4013C122.089 75.4011 122.085 75.401 122.081 75.4004C122.034 75.3937 121.977 75.3751 121.839 75.3296C121.776 75.3091 121.703 75.2858 121.621 75.263L121.347 75.2013L121.251 75.1718C121.228 75.1607 121.214 75.1491 121.206 75.1407C121.189 75.1238 121.172 75.0971 121.163 75.0503C121.144 74.9476 121.174 74.7544 121.343 74.543Z" fill="#0A2A43" stroke="#FAF7F1"/>
<path d="M117.011 70.211C117.076 70.1301 117.125 70.0727 117.163 70.0327C117.208 70.0664 117.268 70.1096 117.35 70.1751C117.604 70.3782 117.805 70.5397 117.912 70.7012C117.958 70.7711 117.961 70.8067 117.961 70.8159C117.962 70.8187 117.963 70.852 117.905 70.9244C117.821 71.0289 117.773 71.0611 117.759 71.0693C117.757 71.069 117.753 71.0689 117.749 71.0684C117.702 71.0617 117.645 71.0431 117.506 70.9976C117.444 70.9771 117.371 70.9537 117.288 70.931L117.015 70.8692L116.919 70.8398C116.896 70.8287 116.882 70.817 116.874 70.8087C116.857 70.7917 116.839 70.7651 116.831 70.7183C116.812 70.6156 116.842 70.4224 117.011 70.211Z" fill="#0A2A43" stroke="#FAF7F1"/>
<path d="M91.0159 18.2208C91.0804 18.1399 91.1301 18.0825 91.1682 18.0425C91.2131 18.0762 91.2724 18.1194 91.3544 18.1848C91.6088 18.3879 91.8101 18.5495 91.9166 18.711C91.9626 18.7809 91.9662 18.8164 91.9663 18.8256C91.9664 18.8285 91.9674 18.8617 91.9097 18.9341C91.8262 19.0387 91.7782 19.0709 91.764 19.079C91.7615 19.0788 91.7576 19.0787 91.7535 19.0781C91.7069 19.0714 91.6503 19.0528 91.5114 19.0073C91.4488 18.9868 91.3756 18.9635 91.2934 18.9408L91.0203 18.879L90.9239 18.8495C90.9013 18.8385 90.8872 18.8268 90.8787 18.8185C90.8615 18.8015 90.8444 18.7748 90.8359 18.7281C90.8173 18.6254 90.8472 18.4321 91.0159 18.2208Z" fill="#0A2A43" stroke="#FAF7F1"/>
<path d="M76.5735 13.8878C76.638 13.8069 76.6877 13.7495 76.7258 13.7094C76.7707 13.7432 76.83 13.7864 76.912 13.8518C77.1665 14.0549 77.3677 14.2165 77.4742 14.378C77.5202 14.4479 77.5238 14.4834 77.5239 14.4926C77.524 14.4955 77.525 14.5287 77.4673 14.6011C77.3838 14.7057 77.3358 14.7379 77.3216 14.746C77.3191 14.7458 77.3153 14.7457 77.3111 14.7451C77.2646 14.7384 77.2079 14.7198 77.069 14.6743C77.0065 14.6538 76.9332 14.6305 76.851 14.6078L76.5779 14.546L76.4815 14.5165C76.4589 14.5055 76.4448 14.4938 76.4363 14.4855C76.4191 14.4685 76.402 14.4418 76.3935 14.3951C76.3749 14.2924 76.4048 14.0991 76.5735 13.8878Z" fill="#0A2A43" stroke="#FAF7F1"/>
<path d="M49.135 51.4366C49.1996 51.3557 49.2493 51.2983 49.2873 51.2583C49.3322 51.292 49.3916 51.3352 49.4736 51.4007C49.728 51.6037 49.9292 51.7653 50.0357 51.9268C50.0818 51.9967 50.0853 52.0323 50.0854 52.0414C50.0856 52.0443 50.0866 52.0775 50.0288 52.1499C49.9453 52.2545 49.8973 52.2867 49.8832 52.2948C49.8806 52.2946 49.8768 52.2945 49.8726 52.2939C49.8261 52.2872 49.7695 52.2686 49.6305 52.2231C49.568 52.2027 49.4947 52.1793 49.4125 52.1566L49.1394 52.0948L49.043 52.0654C49.0204 52.0543 49.0063 52.0426 48.9978 52.0343C48.9806 52.0173 48.9635 51.9906 48.955 51.9439C48.9364 51.8412 48.9664 51.648 49.135 51.4366Z" fill="#0A2A43" stroke="#FAF7F1"/>
<path d="M60.6877 25.4415C60.7523 25.3606 60.802 25.3032 60.8401 25.2632C60.885 25.2969 60.9443 25.3401 61.0263 25.4055C61.2807 25.6086 61.482 25.7702 61.5884 25.9317C61.6345 26.0016 61.6381 26.0371 61.6381 26.0463C61.6383 26.0492 61.6393 26.0824 61.5815 26.1548C61.498 26.2594 61.45 26.2916 61.4359 26.2997C61.4334 26.2995 61.4295 26.2994 61.4254 26.2988C61.3788 26.2921 61.3222 26.2735 61.1832 26.228C61.1207 26.2075 61.0474 26.1842 60.9652 26.1615L60.6922 26.0997L60.5957 26.0702C60.5732 26.0592 60.5591 26.0475 60.5506 26.0392C60.5334 26.0222 60.5162 25.9955 60.5078 25.9488C60.4892 25.8461 60.5191 25.6528 60.6877 25.4415Z" fill="#0A2A43" stroke="#FAF7F1"/>
<path d="M78.0178 29.7735C78.0824 29.6926 78.1321 29.6352 78.1701 29.5952C78.2151 29.6289 78.2744 29.6721 78.3564 29.7376C78.6108 29.9407 78.8121 30.1022 78.9185 30.2637C78.9646 30.3336 78.9681 30.3692 78.9682 30.3784C78.9684 30.3812 78.9694 30.4145 78.9116 30.4869C78.8281 30.5914 78.7801 30.6236 78.766 30.6318C78.7634 30.6315 78.7596 30.6314 78.7554 30.6309C78.7089 30.6242 78.6523 30.6056 78.5133 30.5601C78.4508 30.5396 78.3775 30.5162 78.2953 30.4935L78.0222 30.4317L77.9258 30.4023C77.9033 30.3912 77.8891 30.3795 77.8806 30.3712C77.8634 30.3542 77.8463 30.3276 77.8378 30.2808C77.8192 30.1781 77.8492 29.9849 78.0178 29.7735Z" fill="#0A2A43" stroke="#FAF7F1"/>
<path d="M137.229 23.9971C137.293 23.9163 137.343 23.8589 137.381 23.8188C137.426 23.8526 137.485 23.8958 137.567 23.9612C137.822 24.1643 138.023 24.3259 138.129 24.4874C138.176 24.5573 138.179 24.5928 138.179 24.602C138.179 24.6048 138.18 24.6381 138.123 24.7105C138.039 24.8151 137.991 24.8472 137.977 24.8554C137.974 24.8552 137.971 24.8551 137.966 24.8545C137.92 24.8478 137.863 24.8292 137.724 24.7837C137.662 24.7632 137.588 24.7399 137.506 24.7171L137.233 24.6554L137.137 24.6259C137.114 24.6148 137.1 24.6032 137.092 24.5948C137.074 24.5779 137.057 24.5512 137.049 24.5044C137.03 24.4017 137.06 24.2085 137.229 23.9971Z" fill="#0A2A43" stroke="#FAF7F1"/>
<path d="M70.7971 21.1085C70.8617 21.0276 70.9114 20.9702 70.9494 20.9301C70.9944 20.9639 71.0537 21.0071 71.1357 21.0725C71.3901 21.2756 71.5914 21.4372 71.6978 21.5987C71.7439 21.6686 71.7474 21.7041 71.7475 21.7133C71.7477 21.7162 71.7487 21.7494 71.6909 21.8218C71.6074 21.9264 71.5594 21.9586 71.5453 21.9667C71.5427 21.9665 71.5389 21.9664 71.5347 21.9658C71.4882 21.9591 71.4316 21.9405 71.2926 21.895C71.2301 21.8745 71.1568 21.8512 71.0746 21.8285L70.8015 21.7667L70.7051 21.7372C70.6826 21.7262 70.6684 21.7145 70.6599 21.7062C70.6427 21.6892 70.6256 21.6625 70.6171 21.6158C70.5985 21.5131 70.6285 21.3198 70.7971 21.1085Z" fill="#0A2A43" stroke="#FAF7F1"/>
<path d="M96.7084 27.0877C96.8234 26.8553 96.9012 26.724 96.956 26.6528C96.9594 26.6483 96.9628 26.6446 96.9658 26.641C97.0243 26.7015 97.095 26.7944 97.2207 26.9562C97.4719 27.2795 97.6842 27.5518 97.7985 27.8318C97.8487 27.9548 97.8634 28.0435 97.8638 28.1122C97.8642 28.1775 97.852 28.2906 97.7706 28.455C97.668 28.6624 97.5996 28.7401 97.562 28.7696C97.5356 28.7903 97.5158 28.795 97.4782 28.7864C97.4213 28.7732 97.3558 28.7378 97.22 28.666C97.0954 28.6003 96.9347 28.5187 96.7419 28.4648L96.7413 28.464C96.6392 28.4354 96.5871 28.3781 96.5599 28.3351C96.5321 28.2909 96.5055 28.2218 96.4929 28.1098C96.4659 27.8696 96.5135 27.4816 96.7084 27.0877Z" fill="#0A2A43" stroke="#FAF7F1"/>
<path d="M106.627 32.8283C106.675 32.732 106.711 32.6712 106.736 32.6319C106.738 32.6337 106.74 32.6343 106.742 32.6363C106.806 32.7068 106.883 32.8083 107.006 32.9664C107.252 33.2831 107.482 33.5766 107.621 33.8591C107.687 33.9948 107.706 34.0768 107.71 34.112C107.711 34.1212 107.717 34.1407 107.689 34.1956C107.641 34.2934 107.612 34.3178 107.605 34.323C107.599 34.3224 107.588 34.3203 107.568 34.311C107.511 34.2848 107.442 34.2365 107.317 34.1475C107.202 34.0658 107.055 33.964 106.884 33.8777C106.687 33.7787 106.592 33.5949 106.555 33.4293C106.517 33.254 106.528 33.0296 106.627 32.8283Z" fill="#0A2A43" stroke="#FAF7F1"/>
<path d="M112.594 20.1014C112.709 19.869 112.787 19.7377 112.842 19.6664C112.845 19.662 112.849 19.6583 112.852 19.6547C112.91 19.7152 112.981 19.808 113.106 19.9699C113.358 20.2932 113.57 20.5655 113.684 20.8455C113.734 20.9685 113.749 21.0572 113.75 21.1258C113.75 21.1912 113.738 21.3043 113.656 21.4687C113.554 21.6761 113.485 21.7537 113.448 21.7833C113.421 21.8039 113.402 21.8087 113.364 21.8C113.307 21.7869 113.242 21.7514 113.106 21.6797C112.981 21.6139 112.82 21.5324 112.628 21.4784L112.627 21.4777C112.525 21.4491 112.473 21.3918 112.446 21.3488C112.418 21.3046 112.391 21.2355 112.379 21.1235C112.352 20.8832 112.399 20.4953 112.594 20.1014Z" fill="#0A2A43" stroke="#FAF7F1"/>
<path d="M173.249 34.5428C173.364 34.3104 173.442 34.1791 173.497 34.1079C173.5 34.1034 173.504 34.0997 173.507 34.0961C173.565 34.1566 173.636 34.2495 173.762 34.4113C174.013 34.7346 174.225 35.0069 174.34 35.2869C174.39 35.4099 174.404 35.4986 174.405 35.5672C174.405 35.6326 174.393 35.7457 174.312 35.9101C174.209 36.1175 174.141 36.1951 174.103 36.2247C174.077 36.2454 174.057 36.2501 174.019 36.2414C173.962 36.2283 173.897 36.1929 173.761 36.1211C173.636 36.0554 173.476 35.9738 173.283 35.9198L173.282 35.9191C173.18 35.8905 173.128 35.8332 173.101 35.7902C173.073 35.746 173.046 35.6769 173.034 35.5649C173.007 35.3246 173.054 34.9367 173.249 34.5428Z" fill="#0A2A43" stroke="#FAF7F1"/>
<path d="M118.573 188.52C118.666 188.474 118.735 188.443 118.786 188.423C118.813 188.472 118.849 188.536 118.896 188.63C119.041 188.921 119.156 189.152 119.185 189.344C119.197 189.426 119.186 189.46 119.182 189.468C119.181 189.471 119.168 189.502 119.085 189.543C118.965 189.603 118.908 189.612 118.892 189.614C118.89 189.612 118.886 189.611 118.883 189.608C118.843 189.583 118.8 189.542 118.693 189.442C118.645 189.398 118.588 189.346 118.523 189.29L118.301 189.12L118.226 189.053C118.21 189.033 118.202 189.017 118.198 189.005C118.189 188.983 118.185 188.951 118.197 188.905C118.223 188.804 118.331 188.642 118.573 188.52Z" fill="#0A2A43" stroke="#FAF7F1"/>
<path d="M93.1133 201.732C93.2059 201.686 93.2751 201.655 93.3264 201.635C93.353 201.684 93.3887 201.748 93.4357 201.842C93.5814 202.133 93.6962 202.364 93.725 202.555C93.7375 202.638 93.7258 202.672 93.722 202.68C93.721 202.683 93.7079 202.714 93.6251 202.755C93.5054 202.815 93.4484 202.824 93.4321 202.825C93.4299 202.824 93.4264 202.822 93.4229 202.82C93.3835 202.795 93.3399 202.754 93.2329 202.654C93.1847 202.609 93.128 202.558 93.0629 202.502L92.841 202.332L92.7659 202.264C92.75 202.245 92.7421 202.228 92.7379 202.217C92.7294 202.195 92.7251 202.163 92.737 202.117C92.7632 202.016 92.8715 201.853 93.1133 201.732Z" fill="#0A2A43" stroke="#FAF7F1"/>
<path d="M105.575 220.292C105.668 220.246 105.737 220.214 105.788 220.194C105.815 220.244 105.851 220.308 105.898 220.401C106.043 220.693 106.158 220.924 106.187 221.115C106.199 221.198 106.188 221.232 106.184 221.24C106.183 221.243 106.17 221.273 106.087 221.315C105.967 221.375 105.91 221.384 105.894 221.385C105.892 221.384 105.888 221.382 105.885 221.38C105.845 221.354 105.802 221.314 105.695 221.214C105.647 221.169 105.59 221.117 105.525 221.062L105.303 220.891L105.228 220.824C105.212 220.805 105.204 220.788 105.2 220.777C105.191 220.754 105.187 220.723 105.199 220.677C105.225 220.576 105.333 220.413 105.575 220.292Z" fill="#0A2A43" stroke="#FAF7F1"/>
<path d="M137.347 226.069C137.439 226.023 137.508 225.992 137.56 225.971C137.586 226.021 137.622 226.085 137.669 226.179C137.815 226.47 137.93 226.701 137.958 226.892C137.971 226.975 137.959 227.009 137.955 227.017C137.954 227.02 137.941 227.051 137.858 227.092C137.739 227.152 137.682 227.161 137.665 227.162C137.663 227.161 137.66 227.159 137.656 227.157C137.617 227.131 137.573 227.091 137.466 226.991C137.418 226.946 137.361 226.894 137.296 226.839L137.074 226.669L136.999 226.601C136.983 226.582 136.976 226.565 136.971 226.554C136.963 226.532 136.958 226.5 136.97 226.454C136.997 226.353 137.105 226.19 137.347 226.069Z" fill="#0A2A43" stroke="#FAF7F1"/>
<path d="M104.103 202.044C104.195 201.998 104.264 201.966 104.316 201.946C104.342 201.996 104.378 202.06 104.425 202.153C104.571 202.445 104.685 202.676 104.714 202.867C104.727 202.95 104.715 202.984 104.711 202.992C104.71 202.995 104.697 203.025 104.614 203.067C104.495 203.126 104.438 203.136 104.421 203.137C104.419 203.136 104.416 203.134 104.412 203.132C104.373 203.106 104.329 203.065 104.222 202.966C104.174 202.921 104.117 202.869 104.052 202.814L103.83 202.643L103.755 202.576C103.739 202.556 103.731 202.54 103.727 202.529C103.719 202.506 103.714 202.475 103.726 202.429C103.753 202.328 103.861 202.165 104.103 202.044Z" fill="#0A2A43" stroke="#FAF7F1"/>
<path d="M125.111 218.348C125.313 218.186 125.439 218.099 125.518 218.057C125.523 218.055 125.528 218.053 125.532 218.051C125.56 218.13 125.585 218.244 125.631 218.444C125.723 218.843 125.802 219.179 125.788 219.481C125.782 219.614 125.758 219.701 125.73 219.763C125.702 219.823 125.644 219.92 125.501 220.035C125.321 220.18 125.226 220.222 125.18 220.233C125.147 220.241 125.127 220.237 125.097 220.213C125.05 220.177 125.006 220.118 124.913 219.996C124.827 219.884 124.716 219.742 124.563 219.612L124.563 219.611C124.482 219.542 124.459 219.469 124.453 219.418C124.446 219.366 124.451 219.292 124.486 219.186C124.563 218.956 124.769 218.624 125.111 218.348Z" fill="#0A2A43" stroke="#FAF7F1"/>
<path d="M128.783 204.768C128.985 204.606 129.11 204.519 129.19 204.477C129.195 204.475 129.2 204.473 129.204 204.471C129.232 204.55 129.257 204.664 129.303 204.864C129.395 205.263 129.474 205.599 129.46 205.901C129.454 206.034 129.43 206.121 129.401 206.183C129.374 206.242 129.316 206.34 129.173 206.455C128.993 206.6 128.898 206.642 128.852 206.653C128.819 206.661 128.799 206.657 128.768 206.633C128.722 206.597 128.678 206.538 128.585 206.415C128.499 206.304 128.388 206.162 128.235 206.032L128.235 206.031C128.154 205.962 128.131 205.888 128.124 205.838C128.118 205.786 128.123 205.712 128.158 205.605C128.234 205.376 128.44 205.044 128.783 204.768Z" fill="#0A2A43" stroke="#FAF7F1"/>
<path d="M180.773 239.428C180.975 239.266 181.101 239.179 181.18 239.138C181.185 239.135 181.19 239.133 181.194 239.131C181.222 239.21 181.247 239.324 181.293 239.524C181.385 239.923 181.464 240.259 181.45 240.561C181.444 240.694 181.42 240.781 181.392 240.843C181.365 240.903 181.306 241 181.163 241.115C180.983 241.26 180.888 241.302 180.842 241.313C180.809 241.321 180.789 241.317 180.759 241.293C180.713 241.257 180.668 241.198 180.575 241.076C180.489 240.964 180.378 240.822 180.225 240.692L180.225 240.691C180.144 240.623 180.121 240.549 180.115 240.498C180.108 240.446 180.113 240.372 180.148 240.266C180.225 240.036 180.431 239.704 180.773 239.428Z" fill="#0A2A43" stroke="#FAF7F1"/>
<path d="M223.337 155.675C223.397 155.76 223.438 155.823 223.466 155.871C223.422 155.905 223.364 155.95 223.278 156.01C223.012 156.199 222.801 156.347 222.617 156.405C222.537 156.43 222.502 156.423 222.493 156.421C222.49 156.42 222.458 156.412 222.404 156.337C222.327 156.227 222.309 156.172 222.305 156.156C222.306 156.154 222.307 156.15 222.309 156.147C222.329 156.104 222.362 156.054 222.444 155.934C222.481 155.879 222.524 155.815 222.569 155.742L222.704 155.497L222.759 155.413C222.775 155.394 222.791 155.384 222.801 155.378C222.822 155.366 222.852 155.357 222.9 155.362C223.003 155.372 223.181 155.455 223.337 155.675Z" fill="#0A2A43" stroke="#FAF7F1"/>
<path d="M236.335 60.3597C236.395 60.4441 236.437 60.5078 236.464 60.5554C236.42 60.5893 236.362 60.6343 236.276 60.695C236.011 60.8832 235.8 61.0319 235.615 61.0895C235.535 61.1144 235.5 61.108 235.491 61.1055C235.488 61.1049 235.456 61.0966 235.402 61.0211C235.325 60.9119 235.307 60.8569 235.303 60.841C235.304 60.8387 235.306 60.835 235.307 60.8312C235.327 60.7883 235.36 60.739 235.442 60.6181C235.479 60.5637 235.522 60.4997 235.567 60.427L235.702 60.1817L235.757 60.0972C235.773 60.0786 235.789 60.0683 235.799 60.0624C235.82 60.0506 235.85 60.0415 235.898 60.0463C236.001 60.0569 236.179 60.1391 236.335 60.3597Z" fill="#0A2A43" stroke="#FAF7F1"/>
<path d="M216.399 145.129C216.459 145.214 216.5 145.277 216.528 145.325C216.483 145.359 216.425 145.404 216.34 145.465C216.074 145.653 215.863 145.801 215.678 145.859C215.598 145.884 215.563 145.878 215.554 145.875C215.552 145.874 215.519 145.866 215.466 145.791C215.388 145.681 215.371 145.626 215.367 145.611C215.368 145.608 215.369 145.605 215.371 145.601C215.39 145.558 215.424 145.509 215.506 145.388C215.543 145.333 215.585 145.269 215.63 145.197L215.765 144.951L215.82 144.867C215.837 144.848 215.852 144.838 215.862 144.832C215.883 144.82 215.914 144.811 215.961 144.816C216.065 144.826 216.242 144.909 216.399 145.129Z" fill="#0A2A43" stroke="#FAF7F1"/>
<path d="M214.672 188.891C214.732 188.975 214.773 189.039 214.801 189.087C214.757 189.121 214.699 189.166 214.613 189.226C214.347 189.414 214.136 189.563 213.952 189.621C213.872 189.646 213.837 189.639 213.828 189.637C213.825 189.636 213.793 189.628 213.739 189.552C213.662 189.443 213.644 189.388 213.64 189.372C213.641 189.37 213.642 189.366 213.644 189.362C213.663 189.32 213.697 189.27 213.779 189.149C213.816 189.095 213.859 189.031 213.904 188.958L214.038 188.713L214.093 188.628C214.11 188.61 214.125 188.6 214.136 188.594C214.157 188.582 214.187 188.573 214.235 188.578C214.338 188.588 214.516 188.67 214.672 188.891Z" fill="#0A2A43" stroke="#FAF7F1"/>
<path d="M233.447 126.792C233.506 126.877 233.548 126.94 233.576 126.988C233.531 127.022 233.473 127.067 233.387 127.128C233.122 127.316 232.911 127.465 232.726 127.522C232.646 127.547 232.611 127.541 232.602 127.538C232.6 127.537 232.567 127.529 232.514 127.454C232.436 127.345 232.419 127.289 232.415 127.274C232.416 127.271 232.417 127.268 232.419 127.264C232.438 127.221 232.471 127.172 232.554 127.051C232.591 126.996 232.633 126.932 232.678 126.86L232.813 126.614L232.868 126.53C232.885 126.511 232.9 126.501 232.91 126.495C232.931 126.483 232.962 126.474 233.009 126.479C233.113 126.49 233.29 126.572 233.447 126.792Z" fill="#0A2A43" stroke="#FAF7F1"/>
<path d="M210.115 164.376C210.306 164.551 210.411 164.662 210.464 164.735C210.467 164.739 210.47 164.744 210.473 164.747C210.398 164.787 210.29 164.829 210.099 164.905C209.719 165.057 209.399 165.186 209.098 165.218C208.966 165.232 208.876 165.222 208.81 165.203C208.748 165.185 208.642 165.142 208.507 165.019C208.336 164.863 208.28 164.775 208.262 164.731C208.25 164.7 208.251 164.68 208.269 164.646C208.298 164.595 208.35 164.542 208.456 164.431C208.554 164.33 208.677 164.198 208.782 164.027L208.783 164.027C208.839 163.937 208.908 163.903 208.957 163.888C209.007 163.874 209.081 163.868 209.192 163.886C209.431 163.927 209.79 164.08 210.115 164.376Z" fill="#0A2A43" stroke="#FAF7F1"/>
<path d="M244.775 74.8384C244.966 75.0133 245.071 75.1244 245.124 75.1967C245.128 75.2013 245.13 75.2055 245.133 75.2094C245.059 75.2488 244.95 75.2911 244.759 75.3671C244.379 75.5189 244.059 75.6476 243.758 75.6799C243.626 75.6941 243.537 75.6837 243.471 75.665C243.408 75.6473 243.302 75.6042 243.167 75.4806C242.996 75.3246 242.94 75.2374 242.922 75.193C242.91 75.1619 242.911 75.1416 242.929 75.1078C242.958 75.0568 243.01 75.0037 243.117 74.893C243.214 74.7916 243.337 74.6597 243.442 74.4894L243.443 74.489C243.499 74.3988 243.568 74.3646 243.617 74.3504C243.667 74.3359 243.741 74.3294 243.852 74.3483C244.091 74.3889 244.45 74.542 244.775 74.8384Z" fill="#0A2A43" stroke="#FAF7F1"/>
<path d="M198.561 229.365C198.752 229.54 198.857 229.651 198.91 229.723C198.914 229.728 198.916 229.732 198.919 229.736C198.845 229.775 198.736 229.817 198.546 229.893C198.165 230.045 197.845 230.174 197.544 230.206C197.412 230.22 197.323 230.21 197.257 230.191C197.194 230.174 197.088 230.131 196.953 230.007C196.782 229.851 196.726 229.764 196.709 229.719C196.696 229.688 196.697 229.668 196.716 229.634C196.744 229.583 196.796 229.53 196.903 229.419C197 229.318 197.123 229.186 197.228 229.016L197.229 229.015C197.285 228.925 197.355 228.891 197.403 228.877C197.454 228.862 197.527 228.856 197.638 228.875C197.877 228.915 198.236 229.068 198.561 229.365Z" fill="#0A2A43" stroke="#FAF7F1"/>
<path d="M25.8512 190.963C25.749 190.947 25.6746 190.932 25.621 190.918C25.6282 190.863 25.6365 190.79 25.6529 190.686C25.704 190.365 25.7452 190.11 25.8331 189.938C25.8712 189.863 25.9004 189.842 25.9083 189.838C25.9107 189.836 25.9391 189.819 26.0306 189.834C26.1628 189.855 26.2145 189.88 26.2285 189.889C26.2296 189.891 26.2314 189.894 26.2329 189.898C26.2501 189.942 26.2618 190.001 26.2908 190.144C26.3039 190.208 26.3198 190.284 26.3405 190.366L26.4216 190.634L26.4435 190.733C26.445 190.758 26.4419 190.776 26.4388 190.787C26.4325 190.811 26.4178 190.839 26.3813 190.869C26.3011 190.936 26.1183 191.005 25.8512 190.963Z" fill="#0A2A43" stroke="#FAF7F1"/>
<path d="M42.1091 204.983C42.0069 204.967 41.9324 204.952 41.8788 204.939C41.886 204.883 41.8943 204.81 41.9107 204.707C41.9618 204.385 42.003 204.13 42.091 203.958C42.129 203.884 42.1582 203.863 42.1661 203.858C42.1685 203.857 42.197 203.84 42.2884 203.854C42.4206 203.875 42.4723 203.901 42.4863 203.909C42.4874 203.912 42.4892 203.915 42.4907 203.919C42.5079 203.963 42.5197 204.021 42.5486 204.164C42.5617 204.229 42.5776 204.304 42.5984 204.387L42.6794 204.655L42.7013 204.753C42.7028 204.778 42.6997 204.796 42.6966 204.808C42.6903 204.831 42.6756 204.859 42.6391 204.89C42.559 204.957 42.3761 205.026 42.1091 204.983Z" fill="#0A2A43" stroke="#FAF7F1"/>
<path d="M37.3249 187.774C37.2227 187.757 37.1482 187.742 37.0946 187.729C37.1018 187.673 37.1101 187.6 37.1266 187.497C37.1776 187.175 37.2189 186.921 37.3068 186.748C37.3449 186.674 37.374 186.653 37.3819 186.648C37.3844 186.647 37.4128 186.63 37.5043 186.644C37.6364 186.665 37.6881 186.691 37.7022 186.699C37.7032 186.702 37.705 186.705 37.7066 186.709C37.7237 186.753 37.7355 186.811 37.7645 186.954C37.7775 187.019 37.7934 187.094 37.8142 187.177L37.8952 187.445L37.9172 187.543C37.9187 187.568 37.9155 187.586 37.9124 187.598C37.9061 187.621 37.8914 187.649 37.8549 187.68C37.7748 187.747 37.5919 187.816 37.3249 187.774Z" fill="#0A2A43" stroke="#FAF7F1"/>
<path d="M21.4567 154.822C21.3545 154.806 21.2801 154.791 21.2265 154.778C21.2336 154.722 21.242 154.649 21.2584 154.546C21.3095 154.224 21.3507 153.969 21.4386 153.797C21.4767 153.722 21.5058 153.702 21.5138 153.697C21.5162 153.696 21.5446 153.678 21.6361 153.693C21.7683 153.714 21.8199 153.74 21.834 153.748C21.835 153.75 21.8369 153.754 21.8384 153.758C21.8555 153.802 21.8673 153.86 21.8963 154.003C21.9094 154.068 21.9252 154.143 21.946 154.226L22.027 154.494L22.049 154.592C22.0505 154.617 22.0473 154.635 22.0443 154.647C22.038 154.67 22.0232 154.698 21.9868 154.729C21.9066 154.795 21.7238 154.865 21.4567 154.822Z" fill="#0A2A43" stroke="#FAF7F1"/>
<path d="M33.3483 198.332C33.2461 198.316 33.1717 198.301 33.1181 198.288C33.1252 198.232 33.1336 198.159 33.15 198.055C33.2011 197.734 33.2423 197.479 33.3302 197.307C33.3683 197.232 33.3974 197.212 33.4054 197.207C33.4078 197.205 33.4362 197.188 33.5277 197.203C33.6599 197.224 33.7115 197.25 33.7256 197.258C33.7267 197.26 33.7285 197.264 33.73 197.267C33.7471 197.311 33.7589 197.37 33.7879 197.513C33.801 197.577 33.8168 197.653 33.8376 197.735L33.9186 198.003L33.9406 198.102C33.9421 198.127 33.9389 198.145 33.9359 198.156C33.9296 198.18 33.9148 198.208 33.8784 198.238C33.7982 198.305 33.6154 198.374 33.3483 198.332Z" fill="#0A2A43" stroke="#FAF7F1"/>
<path d="M25.7618 172.846C25.5029 172.86 25.3503 172.858 25.2613 172.845C25.2558 172.844 25.2509 172.843 25.2463 172.842C25.27 172.762 25.3159 172.654 25.3946 172.465C25.5519 172.087 25.6839 171.768 25.8711 171.53C25.9532 171.426 26.0231 171.369 26.0827 171.335C26.1393 171.303 26.2437 171.258 26.4268 171.247C26.6578 171.234 26.7591 171.255 26.8034 171.273C26.8344 171.286 26.8483 171.301 26.8594 171.338C26.876 171.394 26.8775 171.468 26.8821 171.622C26.8864 171.763 26.8947 171.943 26.943 172.137L26.9426 172.138C26.9681 172.241 26.944 172.314 26.92 172.359C26.8953 172.405 26.8483 172.463 26.7572 172.529C26.5615 172.671 26.2006 172.821 25.7618 172.846Z" fill="#0A2A43" stroke="#FAF7F1"/>
<path d="M31.9845 119.122C31.7255 119.137 31.573 119.134 31.484 119.121C31.4784 119.121 31.4735 119.12 31.4689 119.119C31.4927 119.038 31.5386 118.931 31.6173 118.741C31.7745 118.363 31.9066 118.044 32.0937 117.807C32.1759 117.702 32.2458 117.646 32.3053 117.612C32.362 117.579 32.4664 117.534 32.6495 117.523C32.8805 117.51 32.9818 117.532 33.0261 117.55C33.0571 117.562 33.0709 117.577 33.082 117.614C33.0986 117.67 33.1001 117.745 33.1048 117.898C33.109 118.039 33.1174 118.219 33.1656 118.413L33.1652 118.414C33.1908 118.517 33.1667 118.591 33.1427 118.636C33.118 118.682 33.071 118.739 32.9798 118.805C32.7842 118.947 32.4233 119.097 31.9845 119.122Z" fill="#0A2A43" stroke="#FAF7F1"/>
<path d="M59.2562 76.911C59.1767 77.3417 59.1021 77.6196 59.0256 77.7999C58.9517 77.9739 58.8977 78.0055 58.8851 78.0123C58.8628 78.0243 58.7975 78.0483 58.6042 78.0329C58.4074 78.0172 58.1619 77.9701 57.8047 77.9042C57.0905 77.7724 56.3696 77.6442 55.8537 77.3643C55.6072 77.2305 55.4443 77.0808 55.3523 76.9122C55.2642 76.7509 55.2137 76.5227 55.2776 76.1765C55.3514 75.7766 55.4492 75.557 55.5415 75.4298C55.6245 75.3156 55.7233 75.2465 55.8745 75.1913C56.0481 75.128 56.2569 75.0937 56.5722 75.0381C56.797 74.9984 57.0571 74.9504 57.3435 74.8726L57.6389 74.7842C58.2264 74.5896 58.6534 74.7635 58.9315 75.1142C59.2329 75.4942 59.3984 76.1404 59.2562 76.911Z" fill="#0A2A43" stroke="#FAF7F1"/>
<path d="M70.318 76.796C70.2992 76.8978 70.2824 76.9718 70.2678 77.0251C70.2122 77.0165 70.1395 77.0064 70.0364 76.9873C69.7163 76.9282 69.4626 76.8806 69.2926 76.7884C69.219 76.7485 69.1991 76.7188 69.1947 76.7108C69.1932 76.7083 69.1766 76.6795 69.1934 76.5884C69.2178 76.4568 69.2449 76.4058 69.2535 76.392C69.2559 76.391 69.2593 76.3892 69.2632 76.3878C69.3075 76.3717 69.3661 76.3614 69.5101 76.3361C69.5749 76.3246 69.6506 76.3106 69.7338 76.2919L70.0037 76.2176L70.1026 76.1982C70.1277 76.1973 70.1457 76.2009 70.1571 76.2042C70.1803 76.2111 70.208 76.2266 70.2375 76.2638C70.3023 76.3456 70.367 76.5301 70.318 76.796Z" fill="#0A2A43" stroke="#FAF7F1"/>
<path d="M76.1852 78.5743C76.1664 78.6761 76.1496 78.7501 76.1349 78.8034C76.0794 78.7948 76.0067 78.7847 75.9036 78.7657C75.5835 78.7066 75.3298 78.659 75.1597 78.5668C75.0862 78.5268 75.0663 78.4972 75.0619 78.4891C75.0604 78.4867 75.0438 78.4578 75.0606 78.3667C75.0849 78.2351 75.1121 78.1841 75.1207 78.1703C75.1231 78.1693 75.1265 78.1675 75.1304 78.1661C75.1746 78.1501 75.2333 78.1398 75.3773 78.1144C75.4421 78.1029 75.5178 78.089 75.601 78.0703L75.8709 77.996L75.9698 77.9765C75.9949 77.9756 76.0129 77.9792 76.0243 77.9826C76.0475 77.9894 76.0752 78.0049 76.1047 78.0421C76.1695 78.1239 76.2342 78.3084 76.1852 78.5743Z" fill="#0A2A43" stroke="#FAF7F1"/>
</svg>
