<svg width="103" height="84" viewBox="0 0 103 84" fill="none" xmlns="http://www.w3.org/2000/svg">
<path d="M74.227 82.4999V73.5C74.227 68.7261 72.3114 64.1477 68.9017 60.7721C65.492 57.3964 60.8674 55.5 56.0453 55.5H19.6818C14.8597 55.5 10.2351 57.3964 6.82531 60.7721C3.41557 64.1477 1.5 68.7261 1.5 73.5V82.4999" stroke="#0A2A43" stroke-width="3" stroke-linecap="round" stroke-linejoin="round"/>
<path d="M37.8634 37.4999C47.9049 37.4999 56.0451 29.4411 56.0451 19.5C56.0451 9.55885 47.9049 1.5 37.8634 1.5C27.8219 1.5 19.6816 9.55885 19.6816 19.5C19.6816 29.4411 27.8219 37.4999 37.8634 37.4999Z" stroke="#0A2A43" stroke-width="3" stroke-linecap="round" stroke-linejoin="round"/>
<path d="M101.5 82.4989V73.4989C101.497 69.5107 100.156 65.6364 97.6876 62.4844C95.2195 59.3323 91.7639 57.081 87.8633 56.084" stroke="#0A2A43" stroke-width="3" stroke-linecap="round" stroke-linejoin="round"/>
<path d="M69.6816 2.08398C73.5926 3.07534 77.0591 5.32713 79.5345 8.48436C82.01 11.6416 83.3536 15.5247 83.3536 19.5214C83.3536 23.5182 82.01 27.4013 79.5345 30.5585C77.0591 33.7157 73.5926 35.9675 69.6816 36.9589" stroke="#0A2A43" stroke-width="3" stroke-linecap="round" stroke-linejoin="round"/>
</svg>
