<svg width="332" height="419" viewBox="0 0 332 419" fill="none" xmlns="http://www.w3.org/2000/svg">
<path d="M11.6191 97.082C17.3344 97.0822 25.8623 97.2461 38.6445 97.4102C51.4152 97.574 68.4024 97.7374 90.9961 97.7373C136.219 97.7372 158.546 97.7394 169.591 98.7139C172.341 98.9565 174.33 99.2547 175.771 99.6113C177.226 99.9713 178.003 100.363 178.431 100.713C179.134 101.288 179.19 101.937 179.19 104.093C179.19 132.785 169.295 182.027 153.153 224.104C145.085 245.136 135.495 264.279 124.87 278.134C114.202 292.046 102.747 300.304 90.9961 300.304C79.2649 300.304 67.7307 291.745 56.9287 277.328C46.1777 262.98 36.4212 243.18 28.1895 221.491C11.7198 178.097 1.5 127.545 1.5 98.8555C1.5 98.1258 1.53396 97.9386 1.57031 97.8574C1.57292 97.855 1.57763 97.8517 1.58398 97.8467C1.62052 97.8179 1.7308 97.745 1.98828 97.6592C2.53039 97.4785 3.46174 97.3224 5.06445 97.2217C6.64188 97.1225 8.76205 97.0819 11.6191 97.082Z" stroke="#0A2A43" stroke-width="3"/>
<path d="M50.4217 150.109C57.1398 150.109 63.1519 151.242 67.4286 153.018C69.5703 153.907 71.2056 154.928 72.2821 155.984C73.3534 157.036 73.787 158.031 73.787 158.932C73.787 160.421 73.7861 161.551 73.7401 162.43C73.6926 163.337 73.602 163.802 73.5067 164.04C73.497 164.064 73.4863 164.082 73.4793 164.096C73.3551 164.128 73.047 164.159 72.3553 164.077C69.4786 163.736 62.9609 161.855 50.4217 161.855C37.1017 161.855 30.4815 163.353 27.9032 163.518C27.5819 163.538 27.3544 163.536 27.1932 163.522C27.1687 163.52 27.1472 163.515 27.1278 163.513C27.0726 163.269 27.0353 162.847 27.0321 162.079C27.0283 161.184 27.0565 160.349 27.0565 158.932C27.0565 158.031 27.4901 157.036 28.5614 155.984C29.6379 154.928 31.2732 153.907 33.4149 153.018C37.6916 151.242 43.7036 150.109 50.4217 150.109Z" stroke="#0A2A43" stroke-width="3"/>
<path d="M127.673 146.182C134.391 146.182 140.403 147.315 144.68 149.09C146.821 149.979 148.457 151 149.533 152.057C150.604 153.108 151.038 154.103 151.038 155.004C151.038 156.494 151.037 157.623 150.991 158.502C150.944 159.409 150.853 159.875 150.758 160.112C150.748 160.136 150.737 160.154 150.73 160.168C150.606 160.2 150.298 160.231 149.606 160.149C146.73 159.808 140.212 157.928 127.673 157.928C114.353 157.928 107.732 159.425 105.154 159.59C104.833 159.61 104.605 159.609 104.444 159.595C104.42 159.593 104.398 159.587 104.379 159.585C104.324 159.342 104.286 158.919 104.283 158.151C104.279 157.256 104.307 156.421 104.307 155.004C104.307 154.103 104.741 153.108 105.812 152.057C106.889 151 108.524 149.979 110.666 149.09C114.943 147.315 120.955 146.182 127.673 146.182Z" stroke="#0A2A43" stroke-width="3"/>
<path d="M36.2551 199.895C36.3727 199.922 36.5275 199.968 36.7228 200.048C37.1657 200.229 37.7265 200.534 38.4172 200.974C41.2559 202.782 45.2966 206.219 50.55 210.221C60.8264 218.048 75.2621 227.632 90.9992 227.632C106.697 227.632 120.788 218.907 130.748 211.89C135.84 208.303 139.707 205.274 142.398 203.781C143.05 203.419 143.567 203.186 143.965 203.062C144.167 203 144.306 202.976 144.393 202.967C144.438 203.113 144.491 203.393 144.491 203.873C144.491 206.345 143.13 210.2 140.387 214.729C137.679 219.197 133.74 224.132 128.857 228.724C119.066 237.928 105.668 245.582 90.9992 245.582C76.3745 245.582 62.6572 237.153 52.5139 227.113C47.4601 222.111 43.3505 216.762 40.5139 211.979C37.6363 207.126 36.1974 203.068 36.1974 200.6C36.1975 200.261 36.226 200.036 36.2551 199.895Z" stroke="#0A2A43" stroke-width="3"/>
<path d="M186.821 155.336C191.684 158.338 198.855 162.958 209.645 169.812C220.426 176.66 234.795 185.722 254.02 197.59C292.501 221.346 311.498 233.076 320.384 239.707C322.597 241.359 324.133 242.657 325.172 243.718C326.221 244.788 326.676 245.53 326.856 246.052C327.153 246.911 326.86 247.493 325.727 249.327C310.655 273.742 276.368 310.444 240.53 337.77C222.616 351.428 204.4 362.678 188.081 368.887C171.696 375.121 157.611 376.13 147.611 369.957C137.629 363.795 132.311 350.453 130.692 332.511C129.081 314.655 131.18 292.682 135.569 269.902C144.349 224.326 162.208 175.942 177.279 151.529C177.662 150.909 177.79 150.767 177.863 150.717C177.867 150.716 177.872 150.716 177.88 150.715C177.927 150.71 178.059 150.706 178.323 150.768C178.879 150.899 179.754 151.255 181.17 152.012C182.565 152.756 184.39 153.835 186.821 155.336Z" stroke="#0A2A43" stroke-width="3"/>
<path d="M191.981 220.841C197.697 224.37 202.218 228.492 204.924 232.25C206.28 234.131 207.135 235.859 207.496 237.324C207.855 238.781 207.701 239.856 207.228 240.622C206.446 241.89 205.852 242.85 205.351 243.574C204.834 244.321 204.512 244.669 204.306 244.822C204.285 244.837 204.267 244.847 204.254 244.855C204.131 244.817 203.853 244.682 203.307 244.248C201.038 242.447 196.48 237.423 185.811 230.836C174.476 223.839 168.056 221.636 165.776 220.421C165.492 220.27 165.299 220.149 165.169 220.053C165.15 220.038 165.134 220.022 165.119 220.01C165.2 219.774 165.39 219.395 165.79 218.74C166.258 217.976 166.72 217.28 167.465 216.074C167.938 215.308 168.829 214.689 170.293 214.357C171.764 214.023 173.692 214.014 175.982 214.382C180.553 215.118 186.264 217.312 191.981 220.841Z" stroke="#0A2A43" stroke-width="3"/>
<path d="M253.223 253.96C258.94 257.489 263.46 261.612 266.167 265.369C267.522 267.25 268.377 268.978 268.738 270.443C269.097 271.9 268.944 272.975 268.47 273.741C267.688 275.009 267.094 275.969 266.593 276.693C266.076 277.44 265.754 277.789 265.549 277.941C265.528 277.956 265.509 277.966 265.496 277.974C265.374 277.936 265.095 277.801 264.549 277.368C262.281 275.566 257.722 270.542 247.053 263.955C235.719 256.958 229.299 254.755 227.018 253.541C226.734 253.389 226.541 253.268 226.412 253.172C226.392 253.157 226.376 253.141 226.361 253.129C226.442 252.893 226.632 252.514 227.033 251.859C227.5 251.095 227.962 250.399 228.707 249.194C229.18 248.427 230.072 247.808 231.536 247.476C233.007 247.143 234.934 247.133 237.224 247.501C241.796 248.237 247.506 250.431 253.223 253.96Z" stroke="#0A2A43" stroke-width="3"/>
<path d="M229.026 344.326C228.944 344.237 228.842 344.112 228.726 343.936C228.461 343.537 228.17 342.969 227.847 342.217C226.519 339.124 225.116 334.008 223.027 327.743C218.943 315.488 212.41 299.439 199.405 290.577C186.433 281.738 169.876 281.014 157.693 281.203C151.465 281.301 146.564 281.625 143.5 281.344C142.757 281.276 142.198 281.177 141.8 281.056C141.598 280.994 141.47 280.936 141.393 280.894C141.438 280.747 141.551 280.486 141.822 280.089C143.213 278.047 146.509 275.627 151.326 273.43C156.08 271.261 162.114 269.401 168.735 268.357C182.009 266.264 197.392 267.484 209.513 275.744C221.599 283.979 228.188 298.669 230.917 312.678C232.276 319.657 232.661 326.391 232.311 331.942C231.956 337.573 230.861 341.736 229.47 343.776C229.28 344.055 229.13 344.225 229.026 344.326Z" stroke="#0A2A43" stroke-width="3"/>
<path d="M226.501 46.1566C231.175 42.8022 237.458 42.3669 243.989 44.6387C250.515 46.909 257.15 51.8516 262.268 58.9837C267.387 66.1159 269.947 73.9833 270.009 80.8928C270.071 87.8072 267.648 93.6207 262.974 96.9754C258.3 100.33 252.016 100.766 245.485 98.4939C238.959 96.2237 232.324 91.281 227.205 84.1489C222.086 77.0168 219.527 69.1493 219.465 62.2399C219.403 55.3252 221.826 49.5114 226.501 46.1566Z" stroke="#0A2A43" stroke-width="3"/>
<path d="M246.946 54.4375C248.901 52.1504 250.477 51.1679 251.71 50.8648C252.867 50.5802 253.942 50.8425 255.086 51.6114C256.277 52.4114 257.457 53.7078 258.693 55.3301C259.944 56.9724 261.093 58.7239 262.389 60.5303C264.91 64.0423 267.201 67.5217 267.784 70.508C268.063 71.935 267.922 73.1237 267.324 74.133C266.715 75.1609 265.505 76.2148 263.23 77.1067L263.055 77.1753L262.903 77.2846C260.972 78.6704 258.306 78.9025 255.405 77.8936C252.509 76.8861 249.517 74.672 247.194 71.4357C244.872 68.1994 243.732 64.6567 243.704 61.5905C243.677 58.5195 244.75 56.0679 246.681 54.6822L246.828 54.5762L246.946 54.4375Z" stroke="#0A2A43" stroke-width="3"/>
<path d="M270.381 102.494C280.736 95.0617 282.899 68.1001 272.344 53.3939C261.79 38.6878 239.609 27.2028 224.552 37.678" stroke="#0A2A43" stroke-width="3"/>
<path d="M283.472 89.3961C293.827 81.9639 295.906 55.6793 286.744 42.9142C277.582 30.1491 259.028 20.2468 243.991 30.7508" stroke="#0A2A43" stroke-width="3"/>
<path d="M283.473 89.396C306.385 76.9574 304.05 49.8348 294.888 37.0697C285.726 24.3046 263.832 8.21707 244.572 30.3343" stroke="#0A2A43" stroke-width="3"/>
<path d="M309.006 74.3377C319.037 57.8816 322.349 44.5429 314.46 32.4756C306.571 20.4084 293.298 5.59473 273.657 12.795" stroke="#0A2A43" stroke-width="3"/>
<line x1="260.749" y1="107.366" x2="260.749" y2="163.668" stroke="#0A2A43" stroke-width="3"/>
<line x1="246.334" y1="107.56" x2="238.478" y2="167.79" stroke="#0A2A43" stroke-width="3"/>
<line x1="229.149" y1="102.834" x2="185.941" y2="184.013" stroke="#0A2A43" stroke-width="3"/>
<line x1="220.687" y1="87.7338" x2="191.882" y2="103.446" stroke="#0A2A43" stroke-width="3"/>
<line x1="213.62" y1="68.2642" x2="174.34" y2="73.5015" stroke="#0A2A43" stroke-width="3"/>
<line x1="213.161" y1="53.8512" x2="190.903" y2="49.9232" stroke="#0A2A43" stroke-width="3"/>
<line x1="216.823" y1="41.9943" x2="206.349" y2="38.0663" stroke="#0A2A43" stroke-width="3"/>
</svg>
