<svg width="474" height="539" viewBox="0 0 474 539" fill="none" xmlns="http://www.w3.org/2000/svg">
<path d="M470.985 401.389V481.493C471.012 488.929 469.67 496.29 467.044 503.104C464.419 509.917 460.568 516.034 455.739 521.061C450.91 526.088 445.209 529.916 439.001 532.298C432.793 534.681 426.215 535.565 419.688 534.896C347.28 525.968 277.726 497.892 216.616 452.922C159.762 411.927 111.559 357.229 75.4309 292.714C35.6631 223.055 10.9148 143.746 3.19099 61.2118C2.60297 53.828 3.3763 46.3861 5.46174 39.36C7.54717 32.3339 10.899 25.8775 15.3039 20.4018C19.7088 14.9262 25.0701 10.5513 31.0467 7.55578C37.0232 4.56021 43.4839 3.00957 50.0175 3.00259H120.61C132.03 2.87505 143.101 7.46383 151.76 15.9136C160.418 24.3634 166.074 36.0976 167.672 48.9291C170.652 74.5643 176.177 99.7347 184.144 123.96C187.31 133.517 187.995 143.904 186.118 153.889C184.241 163.875 179.881 173.041 173.555 180.3L143.671 214.211C177.168 281.06 225.945 336.409 284.856 374.42L314.74 340.509C321.138 333.33 329.215 328.383 338.015 326.253C346.815 324.124 355.968 324.901 364.39 328.494C385.739 337.533 407.921 343.804 430.512 347.185C441.943 349.014 452.382 355.548 459.844 365.542C467.307 375.536 471.272 388.294 470.985 401.389Z" stroke="#0A2A43" stroke-width="6" stroke-linecap="round" stroke-linejoin="round"/>
</svg>
