<svg width="280" height="293" viewBox="0 0 280 293" fill="none" xmlns="http://www.w3.org/2000/svg">
<rect x="60.0982" y="0.606897" width="223.102" height="225.993" rx="19.5" transform="rotate(14.1243 60.0982 0.606897)" stroke="#FAF7F1"/>
<rect x="60.0982" y="0.606897" width="223.102" height="243.791" rx="19.5" transform="rotate(14.1243 60.0982 0.606897)" stroke="#FAF7F1"/>
<path d="M105.916 14.0554C106.015 14.0054 106.089 13.9744 106.143 13.9535C106.171 14.0051 106.209 14.0721 106.259 14.1719C106.407 14.4686 106.526 14.7064 106.555 14.9037C106.568 14.9895 106.556 15.026 106.551 15.0369C106.549 15.0408 106.536 15.074 106.448 15.1182C106.311 15.1865 106.253 15.1913 106.242 15.1916C106.239 15.1902 106.236 15.1881 106.231 15.1851C106.19 15.1583 106.144 15.1155 106.035 15.0135C105.937 14.9222 105.806 14.8031 105.636 14.6857L105.635 14.6848C105.562 14.6336 105.537 14.5892 105.527 14.5643C105.518 14.5389 105.512 14.5042 105.525 14.4551C105.553 14.3484 105.667 14.18 105.916 14.0554Z" fill="#FAF7F1" stroke="#FAF7F1"/>
<path d="M79.9215 27.5446C80.0213 27.4947 80.0953 27.4637 80.149 27.4428C80.177 27.4944 80.2149 27.5614 80.2648 27.6611C80.4133 27.9578 80.5314 28.1957 80.5612 28.393C80.5741 28.4788 80.5618 28.5152 80.5569 28.5262C80.5551 28.53 80.5417 28.5632 80.4534 28.6074C80.317 28.6757 80.2584 28.6806 80.2477 28.6809C80.2451 28.6795 80.2414 28.6774 80.2368 28.6743C80.1954 28.6476 80.1502 28.6048 80.0406 28.5028C79.9425 28.4114 79.8115 28.2923 79.6418 28.1749L79.6413 28.1741C79.5674 28.1229 79.5425 28.0785 79.533 28.0536C79.5234 28.0282 79.518 27.9935 79.5308 27.9444C79.5585 27.8376 79.6724 27.6693 79.9215 27.5446Z" fill="#FAF7F1" stroke="#FAF7F1"/>
<path d="M92.6451 46.4948C92.7449 46.4449 92.8189 46.4139 92.8726 46.393C92.9006 46.4446 92.9385 46.5116 92.9884 46.6113C93.1369 46.908 93.2551 47.1459 93.2848 47.3432C93.2977 47.429 93.2854 47.4654 93.2805 47.4764C93.2788 47.4802 93.2653 47.5134 93.177 47.5576C93.0406 47.6259 92.9821 47.6308 92.9713 47.6311C92.9687 47.6297 92.9651 47.6275 92.9604 47.6245C92.919 47.5977 92.8738 47.555 92.7643 47.453C92.6661 47.3616 92.5352 47.2425 92.3654 47.1251L92.365 47.1242C92.291 47.0731 92.2661 47.0287 92.2566 47.0037C92.247 46.9784 92.2417 46.9437 92.2544 46.8946C92.2821 46.7878 92.3961 46.6195 92.6451 46.4948Z" fill="#FAF7F1" stroke="#FAF7F1"/>
<path d="M91.1422 27.863C91.242 27.8131 91.316 27.782 91.3697 27.7611C91.3977 27.8127 91.4356 27.8798 91.4855 27.9795C91.634 28.2762 91.7521 28.514 91.7819 28.7113C91.7948 28.7971 91.7825 28.8336 91.7776 28.8445C91.7758 28.8484 91.7624 28.8816 91.6741 28.9258C91.5377 28.9941 91.4792 28.999 91.4684 28.9992C91.4658 28.9978 91.4621 28.9957 91.4575 28.9927C91.4161 28.9659 91.3709 28.9232 91.2613 28.8211C91.1632 28.7298 91.0322 28.6107 90.8625 28.4933L90.862 28.4924C90.7881 28.4412 90.7632 28.3968 90.7537 28.3719C90.7441 28.3465 90.7387 28.3118 90.7515 28.2627C90.7792 28.156 90.8931 27.9876 91.1422 27.863Z" fill="#FAF7F1" stroke="#FAF7F1"/>
<path d="M62.9875 32.6686C63.252 32.6819 63.4078 32.7006 63.4977 32.7233C63.5058 32.7253 63.5117 32.7286 63.5179 32.7304C63.5171 32.7324 63.5174 32.7344 63.5165 32.7365C63.4834 32.8165 63.4244 32.9214 63.3242 33.1045C63.1238 33.4704 62.9538 33.7817 62.7363 34.0044C62.6404 34.1027 62.5617 34.1546 62.4946 34.1842C62.4307 34.2123 62.3176 34.2465 62.1289 34.2371C61.8923 34.2253 61.7895 34.1935 61.7451 34.1695C61.7133 34.1522 61.7003 34.1346 61.6928 34.0947C61.6817 34.0351 61.6878 33.9583 61.6998 33.802C61.7107 33.6586 61.7226 33.4747 61.6948 33.2728C61.6798 33.1639 61.7127 33.0899 61.7435 33.0446C61.7751 32.9982 61.8315 32.9429 61.9335 32.8843C62.1514 32.7592 62.5376 32.6461 62.9875 32.6686Z" fill="#FAF7F1" stroke="#FAF7F1"/>
<path d="M158.999 28.8005C159.098 28.7506 159.172 28.7195 159.226 28.6986C159.254 28.7502 159.292 28.8173 159.342 28.917C159.49 29.2137 159.609 29.4515 159.638 29.6488C159.651 29.7346 159.639 29.7711 159.634 29.782C159.632 29.7859 159.619 29.8191 159.531 29.8633C159.394 29.9316 159.336 29.9365 159.325 29.9367C159.322 29.9353 159.319 29.9332 159.314 29.9302C159.273 29.9034 159.227 29.8607 159.118 29.7586C159.02 29.6673 158.889 29.5482 158.719 29.4308L158.718 29.4299C158.645 29.3787 158.62 29.3343 158.61 29.3094C158.601 29.284 158.595 29.2493 158.608 29.2002C158.636 29.0935 158.75 28.9251 158.999 28.8005Z" fill="#FAF7F1" stroke="#FAF7F1"/>
<path d="M133.005 42.2897C133.104 42.2398 133.178 42.2088 133.232 42.1879C133.26 42.2395 133.298 42.3065 133.348 42.4062C133.496 42.7029 133.614 42.9408 133.644 43.1381C133.657 43.2239 133.645 43.2604 133.64 43.2713C133.638 43.2752 133.625 43.3084 133.536 43.3526C133.4 43.4208 133.341 43.4257 133.331 43.426C133.328 43.4246 133.324 43.4225 133.32 43.4195C133.278 43.3927 133.233 43.3499 133.124 43.2479C133.026 43.1565 132.895 43.0374 132.725 42.92L132.724 42.9192C132.65 42.868 132.625 42.8236 132.616 42.7987C132.606 42.7733 132.601 42.7386 132.614 42.6895C132.641 42.5827 132.755 42.4144 133.005 42.2897Z" fill="#FAF7F1" stroke="#FAF7F1"/>
<path d="M145.728 61.2399C145.828 61.19 145.902 61.159 145.956 61.1381C145.984 61.1897 146.022 61.2567 146.071 61.3564C146.22 61.6531 146.338 61.891 146.368 62.0883C146.381 62.1741 146.368 62.2105 146.363 62.2215C146.362 62.2253 146.348 62.2586 146.26 62.3028C146.124 62.371 146.065 62.3759 146.054 62.3762C146.052 62.3748 146.048 62.3727 146.043 62.3697C146.002 62.3429 145.957 62.3001 145.847 62.1981C145.749 62.1067 145.618 61.9876 145.448 61.8702L145.448 61.8694C145.374 61.8182 145.349 61.7738 145.34 61.7489C145.33 61.7235 145.325 61.6888 145.337 61.6397C145.365 61.5329 145.479 61.3646 145.728 61.2399Z" fill="#FAF7F1" stroke="#FAF7F1"/>
<path d="M144.224 42.6081C144.324 42.5582 144.398 42.5271 144.452 42.5063C144.48 42.5579 144.518 42.6249 144.568 42.7246C144.716 43.0213 144.834 43.2592 144.864 43.4565C144.877 43.5423 144.865 43.5787 144.86 43.5897C144.858 43.5935 144.844 43.6267 144.756 43.6709C144.62 43.7392 144.561 43.7441 144.55 43.7444C144.548 43.7429 144.544 43.7408 144.54 43.7378C144.498 43.711 144.453 43.6683 144.343 43.5663C144.245 43.4749 144.114 43.3558 143.945 43.2384L143.944 43.2375C143.87 43.1864 143.845 43.142 143.836 43.117C143.826 43.0917 143.821 43.057 143.834 43.0078C143.861 42.9011 143.975 42.7327 144.224 42.6081Z" fill="#FAF7F1" stroke="#FAF7F1"/>
<path d="M116.07 47.4138C116.334 47.427 116.49 47.4458 116.58 47.4684C116.588 47.4704 116.594 47.4737 116.6 47.4755C116.599 47.4775 116.599 47.4795 116.599 47.4816C116.565 47.5617 116.506 47.6665 116.406 47.8496C116.206 48.2155 116.036 48.5268 115.818 48.7495C115.722 48.8478 115.644 48.8998 115.577 48.9293C115.513 48.9574 115.4 48.9916 115.211 48.9822C114.974 48.9704 114.872 48.9386 114.827 48.9146C114.795 48.8974 114.782 48.8797 114.775 48.8398C114.764 48.7802 114.77 48.7034 114.782 48.5471C114.793 48.4037 114.805 48.2198 114.777 48.0179C114.762 47.909 114.795 47.835 114.826 47.7897C114.857 47.7434 114.914 47.688 115.016 47.6294C115.233 47.5043 115.62 47.3912 116.07 47.4138Z" fill="#FAF7F1" stroke="#FAF7F1"/>
<path d="M241.572 47.9694C241.672 47.9195 241.746 47.8885 241.799 47.8676C241.827 47.9192 241.865 47.9862 241.915 48.0859C242.064 48.3826 242.182 48.6205 242.212 48.8178C242.224 48.9036 242.212 48.94 242.207 48.951C242.206 48.9548 242.192 48.988 242.104 49.0323C241.967 49.1005 241.909 49.1054 241.898 49.1057C241.895 49.1043 241.892 49.1022 241.887 49.0991C241.846 49.0724 241.801 49.0296 241.691 48.9276C241.593 48.8362 241.462 48.7171 241.292 48.5997L241.292 48.5989C241.218 48.5477 241.193 48.5033 241.183 48.4784C241.174 48.453 241.168 48.4183 241.181 48.3692C241.209 48.2624 241.323 48.0941 241.572 47.9694Z" fill="#FAF7F1" stroke="#FAF7F1"/>
<path d="M215.578 61.4587C215.678 61.4088 215.752 61.3777 215.805 61.3569C215.833 61.4084 215.871 61.4755 215.921 61.5752C216.07 61.8719 216.188 62.1097 216.217 62.307C216.23 62.3928 216.218 62.4293 216.213 62.4402C216.211 62.4441 216.198 62.4773 216.11 62.5215C215.973 62.5898 215.915 62.5947 215.904 62.595C215.901 62.5935 215.898 62.5914 215.893 62.5884C215.852 62.5616 215.806 62.5189 215.697 62.4168C215.599 62.3255 215.468 62.2064 215.298 62.089L215.298 62.0881C215.224 62.037 215.199 61.9925 215.189 61.9676C215.18 61.9422 215.174 61.9075 215.187 61.8584C215.215 61.7517 215.329 61.5833 215.578 61.4587Z" fill="#FAF7F1" stroke="#FAF7F1"/>
<path d="M228.3 80.4089C228.4 80.359 228.474 80.3279 228.528 80.307C228.556 80.3586 228.594 80.4257 228.644 80.5254C228.792 80.8221 228.91 81.0599 228.94 81.2572C228.953 81.343 228.941 81.3795 228.936 81.3904C228.934 81.3943 228.921 81.4275 228.832 81.4717C228.696 81.54 228.637 81.5449 228.627 81.5451C228.624 81.5437 228.62 81.5416 228.616 81.5386C228.574 81.5118 228.529 81.4691 228.42 81.367C228.321 81.2757 228.19 81.1566 228.021 81.0392L228.02 81.0383C227.946 80.9871 227.921 80.9427 227.912 80.9178C227.902 80.8924 227.897 80.8577 227.91 80.8086C227.937 80.7019 228.051 80.5335 228.3 80.4089Z" fill="#FAF7F1" stroke="#FAF7F1"/>
<path d="M226.797 61.777C226.897 61.7271 226.971 61.6961 227.025 61.6752C227.053 61.7268 227.091 61.7938 227.141 61.8935C227.289 62.1903 227.407 62.4281 227.437 62.6254C227.45 62.7112 227.438 62.7477 227.433 62.7586C227.431 62.7625 227.418 62.7957 227.329 62.8399C227.193 62.9081 227.134 62.913 227.124 62.9133C227.121 62.9119 227.117 62.9098 227.113 62.9068C227.071 62.88 227.026 62.8372 226.917 62.7352C226.818 62.6439 226.688 62.5247 226.518 62.4073L226.517 62.4065C226.443 62.3553 226.418 62.3109 226.409 62.286C226.399 62.2606 226.394 62.2259 226.407 62.1768C226.434 62.07 226.548 61.9017 226.797 61.777Z" fill="#FAF7F1" stroke="#FAF7F1"/>
<path d="M198.643 66.5827C198.907 66.596 199.063 66.6147 199.153 66.6373C199.161 66.6393 199.167 66.6427 199.173 66.6445C199.172 66.6465 199.173 66.6485 199.172 66.6506C199.139 66.7306 199.08 66.8354 198.979 67.0185C198.779 67.3845 198.609 67.6957 198.392 67.9185C198.296 68.0167 198.217 68.0687 198.15 68.0982C198.086 68.1264 197.973 68.1606 197.784 68.1512C197.548 68.1393 197.445 68.1076 197.4 68.0835C197.369 68.0663 197.356 68.0487 197.348 68.0088C197.337 67.9491 197.343 67.8724 197.355 67.716C197.366 67.5727 197.378 67.3888 197.35 67.1868C197.335 67.078 197.368 67.004 197.399 66.9587C197.43 66.9123 197.487 66.857 197.589 66.7983C197.807 66.6733 198.193 66.5602 198.643 66.5827Z" fill="#FAF7F1" stroke="#FAF7F1"/>
<path d="M214.194 53.7842C214.296 53.83 214.367 53.8677 214.417 53.8962C214.395 53.9505 214.367 54.0222 214.321 54.1239C214.185 54.4265 214.075 54.6684 213.941 54.8161C213.883 54.8803 213.847 54.8938 213.835 54.8969C213.831 54.898 213.797 54.9086 213.707 54.8681C213.568 54.8055 213.527 54.7632 213.52 54.7551C213.519 54.7521 213.519 54.748 213.518 54.7425C213.513 54.6935 213.517 54.6314 213.527 54.482C213.536 54.3483 213.545 54.1715 213.529 53.9657L213.529 53.9648C213.522 53.8752 213.541 53.8278 213.554 53.8047C213.568 53.7813 213.591 53.7552 213.638 53.734C213.738 53.688 213.94 53.6699 214.194 53.7842Z" fill="#FAF7F1" stroke="#FAF7F1"/>
<path d="M187.308 42.1621C187.409 42.2079 187.48 42.2457 187.53 42.2741C187.508 42.3284 187.48 42.4001 187.434 42.5018C187.298 42.8044 187.188 43.0463 187.054 43.194C186.996 43.2582 186.96 43.2718 186.948 43.2748C186.944 43.2759 186.91 43.2865 186.82 43.246C186.681 43.1834 186.64 43.1412 186.633 43.133C186.633 43.1301 186.632 43.1259 186.631 43.1204C186.626 43.0714 186.63 43.0094 186.64 42.86C186.649 42.7262 186.659 42.5494 186.642 42.3437L186.643 42.3428C186.636 42.2531 186.654 42.2058 186.668 42.1827C186.681 42.1592 186.705 42.1331 186.751 42.1119C186.851 42.0659 187.054 42.0479 187.308 42.1621Z" fill="#FAF7F1" stroke="#FAF7F1"/>
<path d="M180.666 63.9991C180.768 64.0448 180.838 64.0826 180.889 64.111C180.866 64.1653 180.838 64.2371 180.793 64.3387C180.656 64.6413 180.547 64.8832 180.413 65.0309C180.354 65.0951 180.318 65.1087 180.307 65.1118C180.303 65.1129 180.268 65.1234 180.178 65.0829C180.039 65.0203 179.998 64.9781 179.991 64.9699C179.991 64.967 179.99 64.9628 179.99 64.9573C179.984 64.9083 179.989 64.8463 179.999 64.6969C180.007 64.5631 180.017 64.3863 180.001 64.1806L180.001 64.1797C179.994 64.09 180.013 64.0427 180.026 64.0196C180.04 63.9961 180.063 63.97 180.109 63.9489C180.209 63.9029 180.412 63.8848 180.666 63.9991Z" fill="#FAF7F1" stroke="#FAF7F1"/>
<path d="M194.155 51.0596C194.257 51.1054 194.328 51.1431 194.378 51.1716C194.356 51.2259 194.328 51.2976 194.282 51.3993C194.146 51.7019 194.036 51.9437 193.902 52.0915C193.844 52.1557 193.808 52.1692 193.796 52.1723C193.792 52.1734 193.758 52.1839 193.668 52.1435C193.529 52.0809 193.488 52.0386 193.481 52.0305C193.48 52.0275 193.48 52.0234 193.479 52.0179C193.474 51.9689 193.478 51.9068 193.488 51.7574C193.497 51.6237 193.506 51.4469 193.49 51.2411L193.49 51.2402C193.483 51.1506 193.502 51.1032 193.515 51.0801C193.529 51.0566 193.552 51.0306 193.598 51.0094C193.699 50.9634 193.901 50.9453 194.155 51.0596Z" fill="#FAF7F1" stroke="#FAF7F1"/>
<path d="M172.64 32.2755C172.797 32.4889 172.881 32.6214 172.92 32.7054C172.924 32.7129 172.925 32.7196 172.928 32.7255C172.926 32.7262 172.924 32.7277 172.922 32.7284C172.839 32.7532 172.721 32.7738 172.515 32.8118C172.105 32.8878 171.756 32.9527 171.446 32.9249C171.31 32.9126 171.22 32.8845 171.154 32.8512C171.092 32.8194 170.994 32.7534 170.882 32.6012C170.742 32.4104 170.702 32.3106 170.692 32.261C170.685 32.2255 170.691 32.2042 170.717 32.1732C170.756 32.127 170.819 32.0831 170.948 31.9936C171.066 31.9115 171.216 31.8045 171.355 31.6554C171.43 31.5749 171.508 31.5537 171.563 31.549C171.619 31.5441 171.697 31.5528 171.807 31.5949C172.042 31.6847 172.373 31.9125 172.64 32.2755Z" fill="#FAF7F1" stroke="#FAF7F1"/>
<path d="M254.729 61.3608C254.791 61.2676 254.839 61.2037 254.875 61.1587C254.925 61.1894 254.992 61.2284 255.085 61.2897C255.362 61.4723 255.583 61.619 255.708 61.775C255.762 61.8428 255.769 61.8805 255.771 61.8924C255.771 61.8966 255.776 61.9321 255.722 62.0146C255.638 62.142 255.59 62.1755 255.58 62.1811C255.577 62.1812 255.573 62.1812 255.568 62.1809C255.519 62.1784 255.458 62.1641 255.312 62.1306C255.181 62.1006 255.008 62.0631 254.803 62.0464L254.802 62.0459C254.712 62.0386 254.668 62.0127 254.648 61.9958C254.627 61.9787 254.605 61.9513 254.591 61.9024C254.562 61.7961 254.576 61.5933 254.729 61.3608Z" fill="#FAF7F1" stroke="#FAF7F1"/>
<path d="M238.981 86.0561C239.043 85.9629 239.091 85.899 239.127 85.854C239.177 85.8847 239.244 85.9237 239.337 85.9851C239.614 86.1676 239.835 86.3143 239.96 86.4703C240.014 86.5381 240.021 86.5758 240.023 86.5877C240.023 86.5919 240.028 86.6274 239.974 86.7099C239.89 86.8373 239.842 86.8708 239.832 86.8764C239.829 86.8765 239.825 86.8765 239.82 86.8762C239.77 86.8738 239.71 86.8594 239.564 86.8259C239.433 86.7959 239.26 86.7584 239.055 86.7417L239.054 86.7412C238.964 86.7339 238.92 86.708 238.9 86.6911C238.879 86.674 238.857 86.6466 238.843 86.5977C238.814 86.4914 238.828 86.2887 238.981 86.0561Z" fill="#FAF7F1" stroke="#FAF7F1"/>
<path d="M259.481 96.0883C259.543 95.9951 259.591 95.9312 259.627 95.8863C259.677 95.9169 259.744 95.9559 259.837 96.0173C260.114 96.1998 260.335 96.3466 260.46 96.5025C260.514 96.5703 260.521 96.608 260.523 96.62C260.523 96.6242 260.528 96.6597 260.474 96.7421C260.39 96.8695 260.342 96.903 260.332 96.9087C260.329 96.9087 260.325 96.9087 260.32 96.9085C260.27 96.906 260.21 96.8916 260.064 96.8581C259.933 96.8282 259.76 96.7906 259.555 96.774L259.554 96.7734C259.464 96.7662 259.42 96.7402 259.4 96.7234C259.379 96.7062 259.357 96.6788 259.343 96.63C259.314 96.5237 259.328 96.3209 259.481 96.0883Z" fill="#FAF7F1" stroke="#FAF7F1"/>
<path d="M248.854 80.7113C248.916 80.6182 248.964 80.5543 249 80.5093C249.05 80.54 249.117 80.579 249.21 80.6403C249.487 80.8229 249.708 80.9696 249.833 81.1255C249.887 81.1934 249.894 81.2311 249.896 81.243C249.896 81.2472 249.901 81.2827 249.847 81.3652C249.763 81.4925 249.715 81.5261 249.705 81.5317C249.702 81.5318 249.698 81.5318 249.693 81.5315C249.644 81.529 249.583 81.5146 249.437 81.4812C249.306 81.4512 249.133 81.4137 248.928 81.397L248.927 81.3965C248.837 81.3892 248.793 81.3632 248.773 81.3464C248.752 81.3292 248.73 81.3019 248.716 81.253C248.687 81.1467 248.701 80.9439 248.854 80.7113Z" fill="#FAF7F1" stroke="#FAF7F1"/>
<path d="M226.884 98.964C227.119 98.843 227.264 98.7813 227.353 98.7558C227.361 98.7535 227.368 98.7535 227.374 98.7519C227.374 98.7541 227.375 98.7556 227.376 98.7579C227.387 98.8438 227.388 98.9641 227.393 99.1727C227.403 99.5898 227.412 99.9444 227.335 100.246C227.301 100.379 227.259 100.464 227.216 100.523C227.174 100.579 227.094 100.665 226.926 100.752C226.715 100.86 226.61 100.884 226.559 100.885C226.523 100.886 226.503 100.877 226.477 100.847C226.437 100.801 226.404 100.731 226.336 100.59C226.274 100.46 226.192 100.295 226.067 100.134C226 100.047 225.991 99.9668 225.995 99.9121C225.999 99.8562 226.02 99.7801 226.079 99.6782C226.205 99.4609 226.483 99.1697 226.884 98.964Z" fill="#FAF7F1" stroke="#FAF7F1"/>
<path d="M189.672 225.033C189.733 224.939 189.782 224.876 189.818 224.831C189.868 224.861 189.934 224.9 190.027 224.962C190.304 225.144 190.526 225.291 190.65 225.447C190.704 225.515 190.712 225.552 190.713 225.564C190.713 225.569 190.718 225.604 190.664 225.686C190.58 225.814 190.532 225.847 190.523 225.853C190.52 225.853 190.516 225.853 190.51 225.853C190.461 225.85 190.4 225.836 190.254 225.802C190.124 225.773 189.951 225.735 189.745 225.718L189.744 225.718C189.655 225.711 189.611 225.685 189.59 225.668C189.569 225.651 189.547 225.623 189.534 225.574C189.504 225.468 189.518 225.265 189.672 225.033Z" fill="#FAF7F1" stroke="#FAF7F1"/>
<path d="M199.17 234.982C199.231 234.889 199.28 234.825 199.316 234.78C199.366 234.81 199.432 234.849 199.525 234.911C199.802 235.093 200.024 235.24 200.148 235.396C200.202 235.464 200.21 235.502 200.211 235.514C200.212 235.518 200.216 235.553 200.162 235.636C200.078 235.763 200.03 235.797 200.021 235.802C200.018 235.802 200.014 235.802 200.008 235.802C199.959 235.8 199.898 235.785 199.752 235.752C199.622 235.722 199.449 235.684 199.243 235.668L199.242 235.667C199.153 235.66 199.109 235.634 199.088 235.617C199.067 235.6 199.045 235.572 199.032 235.524C199.002 235.417 199.017 235.214 199.17 234.982Z" fill="#FAF7F1" stroke="#FAF7F1"/>
<path d="M219.669 245.014C219.73 244.921 219.779 244.857 219.815 244.812C219.865 244.843 219.931 244.882 220.024 244.943C220.301 245.126 220.523 245.272 220.647 245.428C220.701 245.496 220.709 245.534 220.71 245.546C220.711 245.55 220.716 245.585 220.661 245.668C220.577 245.795 220.529 245.829 220.52 245.834C220.517 245.835 220.513 245.835 220.507 245.834C220.458 245.832 220.397 245.817 220.252 245.784C220.121 245.754 219.948 245.716 219.742 245.7L219.741 245.699C219.652 245.692 219.608 245.666 219.587 245.649C219.566 245.632 219.544 245.605 219.531 245.556C219.501 245.449 219.516 245.247 219.669 245.014Z" fill="#FAF7F1" stroke="#FAF7F1"/>
<path d="M209.042 229.637C209.103 229.544 209.152 229.48 209.188 229.435C209.238 229.466 209.304 229.505 209.397 229.566C209.674 229.749 209.896 229.895 210.02 230.051C210.074 230.119 210.082 230.157 210.083 230.169C210.084 230.173 210.089 230.208 210.034 230.291C209.95 230.418 209.902 230.452 209.893 230.457C209.89 230.458 209.886 230.458 209.88 230.457C209.831 230.455 209.771 230.44 209.625 230.407C209.494 230.377 209.321 230.339 209.115 230.323L209.114 230.322C209.025 230.315 208.981 230.289 208.96 230.272C208.939 230.255 208.917 230.228 208.904 230.179C208.874 230.072 208.889 229.87 209.042 229.637Z" fill="#FAF7F1" stroke="#FAF7F1"/>
<path d="M197.393 254.601C197.628 254.48 197.772 254.418 197.862 254.393C197.87 254.39 197.876 254.39 197.883 254.389C197.883 254.391 197.884 254.392 197.884 254.395C197.896 254.48 197.897 254.601 197.902 254.809C197.912 255.227 197.921 255.581 197.844 255.883C197.81 256.016 197.768 256.1 197.725 256.159C197.683 256.216 197.602 256.302 197.434 256.388C197.224 256.496 197.119 256.52 197.068 256.522C197.032 256.523 197.012 256.514 196.986 256.483C196.946 256.437 196.913 256.368 196.845 256.226C196.783 256.097 196.701 255.932 196.576 255.771C196.508 255.684 196.5 255.603 196.504 255.549C196.508 255.493 196.529 255.417 196.588 255.315C196.714 255.098 196.992 254.806 197.393 254.601Z" fill="#FAF7F1" stroke="#FAF7F1"/>
<path d="M179.35 227.981C179.412 227.888 179.46 227.824 179.496 227.779C179.546 227.809 179.613 227.849 179.706 227.91C179.983 228.092 180.204 228.239 180.329 228.395C180.383 228.463 180.391 228.501 180.392 228.513C180.392 228.517 180.397 228.552 180.343 228.635C180.259 228.762 180.211 228.796 180.202 228.801C180.199 228.801 180.194 228.801 180.189 228.801C180.14 228.799 180.079 228.784 179.933 228.751C179.802 228.721 179.629 228.683 179.424 228.667L179.423 228.666C179.333 228.659 179.29 228.633 179.269 228.616C179.248 228.599 179.226 228.571 179.212 228.523C179.183 228.416 179.197 228.213 179.35 227.981Z" fill="#FAF7F1" stroke="#FAF7F1"/>
<path d="M166.079 245.675C166.14 245.582 166.189 245.518 166.225 245.473C166.275 245.504 166.341 245.543 166.434 245.604C166.712 245.787 166.933 245.933 167.057 246.089C167.111 246.157 167.119 246.195 167.12 246.207C167.121 246.211 167.126 246.247 167.071 246.329C166.987 246.456 166.939 246.49 166.93 246.496C166.927 246.496 166.923 246.496 166.917 246.495C166.868 246.493 166.808 246.479 166.662 246.445C166.531 246.415 166.358 246.378 166.152 246.361L166.151 246.36C166.062 246.353 166.018 246.327 165.997 246.31C165.976 246.293 165.954 246.266 165.941 246.217C165.911 246.111 165.926 245.908 166.079 245.675Z" fill="#FAF7F1" stroke="#FAF7F1"/>
<path d="M182.805 245.014C182.867 244.921 182.915 244.857 182.951 244.812C183.002 244.843 183.068 244.882 183.161 244.943C183.438 245.126 183.659 245.272 183.784 245.428C183.838 245.496 183.846 245.534 183.847 245.546C183.847 245.55 183.852 245.585 183.798 245.668C183.714 245.795 183.666 245.829 183.657 245.834C183.654 245.835 183.649 245.835 183.644 245.834C183.595 245.832 183.534 245.817 183.388 245.784C183.258 245.754 183.085 245.716 182.879 245.7L182.878 245.699C182.788 245.692 182.745 245.666 182.724 245.649C182.703 245.632 182.681 245.605 182.667 245.556C182.638 245.449 182.652 245.247 182.805 245.014Z" fill="#FAF7F1" stroke="#FAF7F1"/>
<path d="M171.977 223.558C172.039 223.465 172.087 223.401 172.123 223.356C172.173 223.387 172.24 223.426 172.333 223.487C172.61 223.67 172.831 223.816 172.956 223.972C173.01 224.04 173.018 224.078 173.019 224.09C173.019 224.094 173.024 224.129 172.97 224.212C172.886 224.339 172.838 224.373 172.829 224.378C172.826 224.378 172.821 224.378 172.816 224.378C172.767 224.376 172.706 224.361 172.56 224.328C172.429 224.298 172.256 224.26 172.051 224.244L172.05 224.243C171.96 224.236 171.916 224.21 171.896 224.193C171.875 224.176 171.853 224.149 171.839 224.1C171.81 223.993 171.824 223.791 171.977 223.558Z" fill="#FAF7F1" stroke="#FAF7F1"/>
<path d="M150.208 247.891C150.444 247.77 150.588 247.708 150.677 247.683C150.685 247.68 150.692 247.68 150.698 247.679C150.698 247.681 150.7 247.682 150.7 247.685C150.711 247.771 150.713 247.891 150.718 248.099C150.727 248.517 150.736 248.871 150.659 249.173C150.625 249.306 150.583 249.39 150.54 249.449C150.499 249.506 150.418 249.592 150.25 249.678C150.039 249.786 149.934 249.81 149.884 249.812C149.848 249.813 149.827 249.804 149.801 249.773C149.762 249.727 149.728 249.658 149.66 249.516C149.598 249.387 149.516 249.222 149.391 249.061C149.324 248.974 149.315 248.894 149.319 248.839C149.323 248.783 149.345 248.707 149.403 248.605C149.53 248.388 149.807 248.096 150.208 247.891Z" fill="#FAF7F1" stroke="#FAF7F1"/>
<path d="M161.656 233.879C161.717 233.786 161.766 233.722 161.802 233.677C161.852 233.708 161.918 233.747 162.012 233.808C162.289 233.991 162.51 234.138 162.634 234.294C162.689 234.361 162.696 234.399 162.697 234.411C162.698 234.415 162.703 234.451 162.649 234.533C162.565 234.661 162.516 234.694 162.507 234.7C162.504 234.7 162.5 234.7 162.495 234.699C162.445 234.697 162.385 234.683 162.239 234.649C162.108 234.619 161.935 234.582 161.729 234.565L161.729 234.564C161.639 234.557 161.595 234.531 161.574 234.514C161.553 234.497 161.531 234.47 161.518 234.421C161.488 234.315 161.503 234.112 161.656 233.879Z" fill="#FAF7F1" stroke="#FAF7F1"/>
<path d="M125.444 230.559C125.506 230.466 125.554 230.402 125.59 230.357C125.64 230.388 125.707 230.427 125.8 230.488C126.077 230.671 126.298 230.817 126.423 230.973C126.477 231.041 126.484 231.079 126.486 231.091C126.486 231.095 126.491 231.13 126.437 231.213C126.353 231.34 126.304 231.374 126.295 231.379C126.292 231.379 126.288 231.379 126.283 231.379C126.233 231.377 126.173 231.362 126.027 231.329C125.896 231.299 125.723 231.261 125.518 231.245L125.517 231.244C125.427 231.237 125.383 231.211 125.363 231.194C125.342 231.177 125.32 231.15 125.306 231.101C125.277 230.994 125.291 230.792 125.444 230.559Z" fill="#FAF7F1" stroke="#FAF7F1"/>
<path d="M145.943 240.591C146.005 240.498 146.053 240.434 146.089 240.389C146.139 240.42 146.206 240.459 146.299 240.52C146.576 240.703 146.797 240.85 146.922 241.005C146.976 241.073 146.983 241.111 146.985 241.123C146.985 241.127 146.99 241.163 146.936 241.245C146.852 241.372 146.804 241.406 146.794 241.412C146.791 241.412 146.787 241.412 146.782 241.411C146.732 241.409 146.672 241.395 146.526 241.361C146.395 241.331 146.222 241.294 146.017 241.277L146.016 241.276C145.926 241.269 145.882 241.243 145.862 241.226C145.841 241.209 145.819 241.182 145.805 241.133C145.776 241.027 145.79 240.824 145.943 240.591Z" fill="#FAF7F1" stroke="#FAF7F1"/>
<path d="M135.316 225.213C135.378 225.12 135.426 225.056 135.462 225.011C135.512 225.042 135.579 225.081 135.672 225.142C135.949 225.325 136.17 225.472 136.295 225.627C136.349 225.695 136.356 225.733 136.358 225.745C136.358 225.749 136.363 225.785 136.309 225.867C136.225 225.994 136.177 226.028 136.167 226.034C136.164 226.034 136.16 226.034 136.155 226.033C136.105 226.031 136.045 226.017 135.899 225.983C135.768 225.953 135.595 225.916 135.39 225.899L135.389 225.898C135.299 225.891 135.255 225.865 135.235 225.848C135.214 225.831 135.192 225.804 135.178 225.755C135.149 225.649 135.163 225.446 135.316 225.213Z" fill="#FAF7F1" stroke="#FAF7F1"/>
<path d="M113.346 243.467C113.581 243.346 113.726 243.284 113.815 243.259C113.823 243.256 113.829 243.256 113.836 243.255C113.836 243.257 113.837 243.259 113.838 243.261C113.849 243.347 113.85 243.467 113.855 243.676C113.865 244.093 113.874 244.447 113.797 244.749C113.763 244.882 113.721 244.966 113.678 245.026C113.636 245.082 113.556 245.168 113.388 245.254C113.177 245.363 113.072 245.387 113.021 245.388C112.985 245.389 112.965 245.38 112.939 245.349C112.899 245.303 112.866 245.234 112.798 245.093C112.736 244.963 112.654 244.798 112.529 244.637C112.462 244.55 112.453 244.47 112.457 244.415C112.461 244.359 112.482 244.283 112.541 244.181C112.667 243.964 112.945 243.673 113.346 243.467Z" fill="#FAF7F1" stroke="#FAF7F1"/>
<path d="M111.701 192.593C111.762 192.5 111.811 192.436 111.847 192.391C111.897 192.422 111.963 192.461 112.056 192.522C112.334 192.705 112.555 192.851 112.679 193.007C112.734 193.075 112.741 193.113 112.742 193.125C112.743 193.129 112.748 193.165 112.693 193.247C112.61 193.374 112.561 193.408 112.552 193.414C112.549 193.414 112.545 193.414 112.539 193.413C112.49 193.411 112.43 193.396 112.284 193.363C112.153 193.333 111.98 193.295 111.774 193.279L111.774 193.278C111.684 193.271 111.64 193.245 111.619 193.228C111.598 193.211 111.576 193.184 111.563 193.135C111.533 193.029 111.548 192.826 111.701 192.593Z" fill="#FAF7F1" stroke="#FAF7F1"/>
<path d="M95.9529 217.288C96.0143 217.195 96.0628 217.131 96.0989 217.086C96.149 217.117 96.2153 217.156 96.3085 217.217C96.5855 217.4 96.8069 217.547 96.9314 217.703C96.9855 217.771 96.9931 217.808 96.9943 217.82C96.9947 217.824 96.9997 217.86 96.9454 217.942C96.8615 218.07 96.8133 218.103 96.8041 218.109C96.8011 218.109 96.7969 218.109 96.7914 218.109C96.7421 218.106 96.6816 218.092 96.5357 218.058C96.405 218.028 96.232 217.991 96.0263 217.974L96.0255 217.974C95.9358 217.966 95.892 217.94 95.8714 217.924C95.8504 217.906 95.8283 217.879 95.8148 217.83C95.7853 217.724 95.7997 217.521 95.9529 217.288Z" fill="#FAF7F1" stroke="#FAF7F1"/>
<path d="M116.453 227.321C116.514 227.228 116.563 227.164 116.599 227.119C116.649 227.149 116.715 227.188 116.808 227.25C117.086 227.432 117.307 227.579 117.431 227.735C117.485 227.803 117.493 227.84 117.494 227.852C117.495 227.857 117.5 227.892 117.445 227.975C117.361 228.102 117.313 228.135 117.304 228.141C117.301 228.141 117.297 228.141 117.291 228.141C117.242 228.138 117.182 228.124 117.036 228.091C116.905 228.061 116.732 228.023 116.526 228.006L116.525 228.006C116.436 227.999 116.392 227.973 116.371 227.956C116.35 227.939 116.328 227.911 116.315 227.862C116.285 227.756 116.3 227.553 116.453 227.321Z" fill="#FAF7F1" stroke="#FAF7F1"/>
<path d="M105.826 211.943C105.887 211.85 105.936 211.786 105.972 211.741C106.022 211.771 106.088 211.81 106.181 211.872C106.459 212.054 106.68 212.201 106.804 212.357C106.859 212.425 106.866 212.463 106.867 212.474C106.868 212.479 106.873 212.514 106.818 212.597C106.735 212.724 106.686 212.758 106.677 212.763C106.674 212.763 106.67 212.763 106.664 212.763C106.615 212.76 106.555 212.746 106.409 212.713C106.278 212.683 106.105 212.645 105.899 212.628L105.899 212.628C105.809 212.621 105.765 212.595 105.744 212.578C105.723 212.561 105.701 212.533 105.688 212.484C105.658 212.378 105.673 212.175 105.826 211.943Z" fill="#FAF7F1" stroke="#FAF7F1"/>
<path d="M83.8554 230.196C84.0911 230.075 84.2353 230.014 84.3245 229.988C84.3324 229.986 84.3392 229.986 84.3455 229.984C84.3458 229.986 84.3471 229.988 84.3474 229.99C84.3587 230.076 84.3601 230.196 84.365 230.405C84.3748 230.822 84.3834 231.177 84.3066 231.478C84.2728 231.612 84.2306 231.696 84.1874 231.755C84.1461 231.811 84.0654 231.898 83.8973 231.984C83.6866 232.092 83.5817 232.116 83.5312 232.118C83.4951 232.119 83.4749 232.11 83.4485 232.079C83.4091 232.033 83.3758 231.963 83.308 231.822C83.2457 231.693 83.1639 231.527 83.0388 231.366C82.9713 231.28 82.9627 231.199 82.9667 231.145C82.9709 231.089 82.992 231.012 83.0509 230.911C83.177 230.693 83.4546 230.402 83.8554 230.196Z" fill="#FAF7F1" stroke="#FAF7F1"/>
<path d="M63.5145 212.683C63.5758 212.59 63.6244 212.526 63.6604 212.481C63.7105 212.512 63.7769 212.551 63.87 212.612C64.147 212.795 64.3684 212.941 64.4929 213.097C64.547 213.165 64.5546 213.203 64.5558 213.215C64.5563 213.219 64.5612 213.254 64.5069 213.337C64.423 213.464 64.3748 213.498 64.3656 213.503C64.3627 213.503 64.3585 213.503 64.3529 213.503C64.3037 213.501 64.2432 213.486 64.0972 213.453C63.9666 213.423 63.7935 213.385 63.5878 213.369L63.587 213.368C63.4974 213.361 63.4536 213.335 63.4329 213.318C63.4119 213.301 63.3899 213.274 63.3763 213.225C63.3469 213.118 63.3612 212.916 63.5145 212.683Z" fill="#FAF7F1" stroke="#FAF7F1"/>
<path d="M73.3865 207.338C73.4479 207.245 73.4964 207.181 73.5325 207.136C73.5826 207.167 73.6489 207.206 73.742 207.267C74.0191 207.45 74.2405 207.597 74.365 207.752C74.4191 207.82 74.4267 207.858 74.4279 207.87C74.4283 207.874 74.4333 207.91 74.379 207.992C74.2951 208.119 74.2469 208.153 74.2377 208.159C74.2347 208.159 74.2305 208.159 74.225 208.158C74.1757 208.156 74.1152 208.142 73.9693 208.108C73.8386 208.078 73.6656 208.041 73.4599 208.024L73.4591 208.023C73.3694 208.016 73.3256 207.99 73.305 207.973C73.284 207.956 73.2619 207.929 73.2484 207.88C73.2189 207.774 73.2333 207.571 73.3865 207.338Z" fill="#FAF7F1" stroke="#FAF7F1"/>
<path d="M51.416 225.591C51.6516 225.47 51.7958 225.408 51.885 225.383C51.893 225.38 51.8998 225.38 51.906 225.379C51.9063 225.381 51.9076 225.383 51.9079 225.385C51.9193 225.471 51.9207 225.591 51.9256 225.8C51.9353 226.217 51.944 226.571 51.8672 226.873C51.8333 227.006 51.7912 227.09 51.7479 227.15C51.7067 227.206 51.6259 227.292 51.4579 227.378C51.2471 227.487 51.1422 227.511 51.0917 227.512C51.0556 227.513 51.0355 227.504 51.009 227.474C50.9696 227.427 50.9364 227.358 50.8685 227.217C50.8063 227.087 50.7245 226.922 50.5993 226.761C50.5318 226.674 50.5233 226.594 50.5273 226.539C50.5314 226.483 50.5525 226.407 50.6115 226.305C50.7375 226.088 51.0152 225.797 51.416 225.591Z" fill="#FAF7F1" stroke="#FAF7F1"/>
<path d="M36.7041 207.843C36.7985 207.903 36.8633 207.95 36.9089 207.985C36.8792 208.036 36.8414 208.103 36.7819 208.197C36.6046 208.478 36.4621 208.702 36.3085 208.829C36.2418 208.885 36.2042 208.893 36.1923 208.895C36.1881 208.895 36.1527 208.901 36.0692 208.848C35.9403 208.766 35.9058 208.719 35.9 208.71C35.8999 208.707 35.8998 208.703 35.9 208.697C35.9015 208.648 35.9148 208.587 35.9455 208.441C35.973 208.309 36.0072 208.136 36.02 207.93L36.0205 207.929C36.0261 207.839 36.0512 207.795 36.0677 207.774C36.0844 207.752 36.1113 207.73 36.16 207.715C36.2657 207.684 36.4687 207.694 36.7041 207.843Z" fill="#FAF7F1" stroke="#FAF7F1"/>
<path d="M42.2393 217.612C42.3336 217.671 42.3984 217.719 42.4441 217.754C42.4144 217.805 42.3766 217.872 42.317 217.966C42.1398 218.246 41.9972 218.471 41.8437 218.598C41.7769 218.653 41.7394 218.662 41.7274 218.663C41.7232 218.664 41.6878 218.669 41.6044 218.617C41.4754 218.535 41.441 218.487 41.4352 218.478C41.4351 218.475 41.435 218.471 41.4352 218.466C41.4367 218.416 41.4499 218.356 41.4806 218.209C41.5081 218.078 41.5424 217.904 41.5551 217.698L41.5557 217.697C41.5612 217.608 41.5864 217.563 41.6028 217.542C41.6196 217.521 41.6465 217.498 41.6951 217.484C41.8008 217.453 42.0038 217.463 42.2393 217.612Z" fill="#FAF7F1" stroke="#FAF7F1"/>
<path d="M23.5715 195.991C23.6969 196.225 23.7613 196.368 23.7885 196.456C23.7909 196.464 23.7911 196.471 23.7927 196.477C23.7906 196.478 23.7891 196.479 23.7868 196.479C23.7012 196.492 23.5809 196.496 23.3724 196.505C22.9556 196.522 22.6012 196.538 22.2982 196.467C22.1645 196.435 22.0793 196.395 22.0194 196.353C21.9622 196.312 21.8745 196.233 21.785 196.067C21.6729 195.858 21.6469 195.754 21.6445 195.703C21.6429 195.667 21.6512 195.647 21.6815 195.62C21.7268 195.58 21.7957 195.545 21.9357 195.475C22.0641 195.41 22.2277 195.325 22.3862 195.197C22.4716 195.128 22.552 195.118 22.6067 195.121C22.6627 195.124 22.7392 195.143 22.8421 195.2C23.0618 195.322 23.3582 195.594 23.5715 195.991Z" fill="#FAF7F1" stroke="#FAF7F1"/>
<path d="M60.2959 210.793C60.3902 210.852 60.4551 210.899 60.5007 210.935C60.471 210.985 60.4332 211.052 60.3737 211.147C60.1964 211.427 60.0539 211.651 59.9003 211.779C59.8335 211.834 59.796 211.842 59.7841 211.844C59.7799 211.844 59.7445 211.85 59.661 211.797C59.5321 211.716 59.4976 211.668 59.4918 211.659C59.4917 211.656 59.4916 211.652 59.4918 211.646C59.4933 211.597 59.5066 211.536 59.5373 211.39C59.5648 211.259 59.599 211.085 59.6118 210.879L59.6123 210.878C59.6179 210.788 59.643 210.744 59.6594 210.723C59.6762 210.702 59.7031 210.679 59.7518 210.665C59.8575 210.633 60.0605 210.644 60.2959 210.793Z" fill="#FAF7F1" stroke="#FAF7F1"/>
<path d="M65.8311 220.561C65.9254 220.621 65.9902 220.668 66.0359 220.703C66.0062 220.754 65.9684 220.821 65.9088 220.915C65.7316 221.196 65.589 221.42 65.4355 221.547C65.3687 221.603 65.3312 221.611 65.3192 221.612C65.315 221.613 65.2796 221.618 65.1962 221.566C65.0672 221.484 65.0328 221.437 65.027 221.428C65.0269 221.425 65.0268 221.42 65.027 221.415C65.0285 221.366 65.0417 221.305 65.0724 221.158C65.0999 221.027 65.1342 220.853 65.1469 220.647L65.1475 220.647C65.153 220.557 65.1782 220.513 65.1946 220.492C65.2114 220.47 65.2383 220.448 65.2869 220.433C65.3926 220.402 65.5956 220.412 65.8311 220.561Z" fill="#FAF7F1" stroke="#FAF7F1"/>
<path d="M47.1643 198.939C47.2896 199.173 47.3541 199.316 47.3812 199.404C47.3837 199.412 47.3839 199.419 47.3855 199.425C47.3834 199.426 47.3819 199.427 47.3796 199.427C47.294 199.44 47.1737 199.444 46.9652 199.453C46.5484 199.471 46.194 199.486 45.891 199.415C45.7572 199.383 45.6721 199.343 45.6121 199.301C45.555 199.261 45.4673 199.182 45.3778 199.015C45.2656 198.806 45.2397 198.702 45.2373 198.652C45.2356 198.616 45.244 198.595 45.2743 198.568C45.3196 198.528 45.3884 198.493 45.5285 198.423C45.6568 198.358 45.8204 198.273 45.9789 198.145C46.0644 198.076 46.1447 198.066 46.1994 198.069C46.2554 198.072 46.332 198.092 46.4349 198.149C46.6546 198.271 46.951 198.543 47.1643 198.939Z" fill="#FAF7F1" stroke="#FAF7F1"/>
<path d="M37.3349 146.06C37.3988 145.968 37.4491 145.906 37.4863 145.862C37.5355 145.894 37.6008 145.934 37.6922 145.998C37.9642 146.188 38.1814 146.341 38.3016 146.5C38.3538 146.57 38.3604 146.608 38.3613 146.62C38.3616 146.624 38.3656 146.659 38.3091 146.74C38.2217 146.865 38.1726 146.898 38.1633 146.903C38.1603 146.903 38.1561 146.903 38.1505 146.902C38.1014 146.899 38.0413 146.883 37.8963 146.845C37.7665 146.812 37.5946 146.769 37.3894 146.747L37.3886 146.746C37.2992 146.737 37.2562 146.71 37.2359 146.692C37.2154 146.674 37.1942 146.646 37.1819 146.597C37.1554 146.49 37.1753 146.288 37.3349 146.06Z" fill="#FAF7F1" stroke="#FAF7F1"/>
<path d="M47.3515 140.983C47.4154 140.892 47.4657 140.829 47.5029 140.785C47.5522 140.817 47.6174 140.858 47.7088 140.922C47.9808 141.112 48.198 141.265 48.3182 141.424C48.3704 141.494 48.377 141.531 48.3779 141.543C48.3782 141.548 48.3822 141.583 48.3257 141.664C48.2383 141.789 48.1892 141.821 48.1799 141.827C48.1769 141.827 48.1727 141.827 48.1671 141.826C48.118 141.822 48.0579 141.806 47.9129 141.769C47.7831 141.735 47.6112 141.693 47.406 141.671L47.4052 141.67C47.3158 141.661 47.2728 141.633 47.2525 141.616C47.232 141.598 47.2108 141.57 47.1985 141.521C47.172 141.414 47.1919 141.212 47.3515 140.983Z" fill="#FAF7F1" stroke="#FAF7F1"/>
<path d="M24.8904 158.629C25.1293 158.515 25.2752 158.457 25.365 158.434C25.373 158.432 25.3798 158.432 25.3861 158.431C25.3864 158.433 25.3876 158.434 25.3879 158.437C25.3968 158.523 25.3949 158.643 25.3941 158.852C25.3924 159.269 25.3913 159.624 25.3063 159.923C25.2688 160.055 25.2244 160.139 25.1795 160.196C25.1367 160.252 25.0537 160.336 24.8833 160.417C24.6696 160.52 24.5641 160.541 24.5136 160.541C24.4775 160.541 24.4576 160.531 24.432 160.5C24.3939 160.453 24.3626 160.382 24.2986 160.239C24.2399 160.108 24.1627 159.941 24.042 159.776C23.9769 159.688 23.9706 159.607 23.9761 159.553C23.9817 159.497 24.0049 159.421 24.0667 159.321C24.1986 159.107 24.4842 158.824 24.8904 158.629Z" fill="#FAF7F1" stroke="#FAF7F1"/>
<path d="M54.4816 62.6548C54.5024 62.5452 54.5226 62.4676 54.5385 62.4122C54.5965 62.4212 54.6728 62.4316 54.7824 62.4524C55.1084 62.5142 55.3691 62.5644 55.5441 62.6603C55.6201 62.7021 55.6417 62.7339 55.6474 62.7445C55.6494 62.7482 55.6677 62.779 55.6493 62.8761C55.6209 63.0259 55.5894 63.0754 55.5831 63.0842C55.5803 63.0854 55.5765 63.087 55.5712 63.0889C55.5248 63.1056 55.4635 63.1156 55.3159 63.1409C55.1838 63.1636 55.0096 63.1955 54.8134 63.2594L54.8124 63.2592C54.7269 63.287 54.6765 63.2799 54.6509 63.2723C54.6249 63.2646 54.594 63.2478 54.5627 63.2079C54.4946 63.1212 54.4298 62.9285 54.4816 62.6548Z" fill="#FAF7F1" stroke="#FAF7F1"/>
<path d="M61.5314 53.9166C61.5522 53.8069 61.5724 53.7293 61.5883 53.6739C61.6463 53.6829 61.7226 53.6934 61.8322 53.7141C62.1582 53.7759 62.4189 53.8261 62.5939 53.922C62.67 53.9638 62.6915 53.9956 62.6972 54.0062C62.6992 54.0099 62.7175 54.0408 62.6991 54.1378C62.6707 54.2876 62.6392 54.3372 62.6329 54.3459C62.6301 54.3471 62.6263 54.3487 62.621 54.3506C62.5746 54.3673 62.5133 54.3773 62.3657 54.4026C62.2336 54.4253 62.0594 54.4572 61.8632 54.5211L61.8622 54.5209C61.7767 54.5487 61.7263 54.5416 61.7007 54.5341C61.6747 54.5263 61.6438 54.5095 61.6125 54.4696C61.5444 54.3829 61.4796 54.1902 61.5314 53.9166Z" fill="#FAF7F1" stroke="#FAF7F1"/>
<path d="M48.2883 79.2222C48.4592 79.0199 48.5685 78.9073 48.641 78.8495C48.6475 78.8444 48.6538 78.8417 48.659 78.8379C48.66 78.8397 48.6618 78.8406 48.663 78.8426C48.7065 78.9175 48.7541 79.028 48.839 79.2186C49.0086 79.5998 49.1531 79.9237 49.1985 80.2317C49.2184 80.3676 49.2121 80.4617 49.1949 80.5329C49.1785 80.6008 49.1372 80.7115 49.0154 80.8558C48.8625 81.0368 48.7749 81.0993 48.7289 81.1201C48.696 81.1349 48.674 81.1346 48.6377 81.1163C48.5836 81.089 48.5262 81.0377 48.4091 80.9334C48.3018 80.8378 48.1627 80.7168 47.9852 80.6165C47.8896 80.5625 47.8506 80.4915 47.8333 80.4395C47.8156 80.3863 47.8057 80.3079 47.8209 80.1912C47.8536 79.9421 47.9977 79.5664 48.2883 79.2222Z" fill="#FAF7F1" stroke="#FAF7F1"/>
<path d="M63.1182 180.628C63.3068 181.275 65.2221 183.589 67.5417 185.789C69.1486 187.314 73.0733 187.418 76.3888 189.476C78.9149 191.043 80.7046 189.207 87.1708 192.518C92.5464 195.271 101.998 200.537 107.093 203.343C114.045 207.17 117.583 209.466 120.362 212.313C124.545 216.598 125.777 219.947 129.689 223.418C132.362 225.789 136.787 225.611 140.163 225.185C145.704 224.485 150.468 219.386 152.681 216.664C155.17 213.601 155.994 210.353 156.672 208.024C157.555 204.991 159.937 203.781 162.336 202.361C165.313 200.599 172.03 199.69 175.738 199.153C179.953 198.544 184.258 197.42 189.426 195.449C196.949 192.58 200.467 189.029 203.059 186.623C206.953 183.01 209.712 175.82 211.027 173.607C212.463 171.19 213.38 165.768 214.696 161.472C215.337 159.383 216.288 157.69 217.368 155.437C218.463 153.15 219.813 151.107 220.767 149.101C221.142 148.168 221.538 147.069 221.913 145.911C222.082 145.377 222.206 144.951 222.711 143.763" stroke="#FAF7F1" stroke-linecap="round"/>
<path d="M155.179 212.694C155.657 213.239 158.138 214.737 160.807 215.979C162.655 216.84 165.152 215.506 168.36 216.25C170.804 216.817 170.892 214.42 176.757 215.203C181.632 215.855 190.443 217.405 195.174 218.209C201.628 219.306 205.107 220.194 208.421 221.882C213.411 224.424 216.044 227.155 220.412 229.022C223.395 230.298 226.045 228.514 227.905 226.876C230.958 224.189 231.074 217.609 230.931 214.217C230.769 210.4 229.469 207.015 228.592 204.557C227.449 201.354 228.254 199.336 228.953 197.112C229.82 194.352 233.487 191.037 235.491 189.175C237.77 187.057 239.819 184.419 241.931 180.661C245.005 175.191 245.21 170.535 245.479 167.304C245.883 162.453 243.588 154.618 243.17 152.037C242.715 149.219 240.26 143.736 238.682 139.176C237.915 136.959 237.562 135.004 236.976 132.471C236.381 129.9 236.08 127.467 235.554 125.214C235.267 124.191 234.9 123.004 234.488 121.767C234.294 121.199 234.134 120.749 233.785 119.436" stroke="#FAF7F1" stroke-linecap="round"/>
<path d="M64.7926 129.452C64.1527 129.679 61.9905 131.182 59.9851 132.89C58.596 134.073 58.8939 136.281 57.1367 138.517C55.7979 140.221 57.8545 140.873 55.1438 145.102C52.8903 148.618 48.4927 154.88 46.1562 158.249C42.9686 162.846 40.9915 165.251 38.375 167.336C34.4357 170.476 31.1468 171.793 28.0099 174.628C25.8672 176.565 26.5045 178.999 27.2869 180.801C28.5708 183.759 34.2609 185.456 37.2647 186.177C40.6442 186.989 44.0414 186.837 46.4858 186.776C49.6702 186.698 51.1493 187.798 52.8445 188.869C54.9475 190.197 56.5659 193.771 57.4945 195.738C58.5503 197.974 60.1393 200.163 62.6811 202.673C66.3812 206.329 70.3649 207.621 73.085 208.614C77.1699 210.105 84.7866 210.29 87.1785 210.607C89.7904 210.952 95.4141 210.443 99.9304 210.368C102.127 210.332 103.951 210.544 106.36 210.722C108.805 210.902 111.028 211.27 113.172 211.425C114.161 211.458 115.322 211.472 116.542 211.464C117.104 211.457 117.551 211.446 118.815 211.504" stroke="#FAF7F1" stroke-linecap="round"/>
<path d="M147.143 92.0152C147.128 91.3366 146.391 88.8147 145.413 86.3784C144.736 84.6906 142.575 84.2873 141.025 81.9225C139.844 80.1208 138.595 81.8721 135.474 77.9818C132.88 74.7477 128.378 68.6226 125.946 65.3551C122.629 60.8973 120.989 58.2709 119.847 55.1365C118.128 50.4175 117.914 46.8828 116.231 43.0208C115.082 40.3828 112.604 40.2319 110.673 40.4149C107.503 40.7153 104.149 45.5948 102.541 48.2247C100.732 51.1836 99.8208 54.4589 99.1189 56.8003C98.2046 59.8506 96.7151 60.914 95.1861 62.1919C93.2894 63.7774 89.4388 64.204 87.3085 64.4751C84.8864 64.7833 82.3429 65.6128 79.2021 67.2475C74.6301 69.6271 72.1831 73.0105 70.4093 75.2866C67.7455 78.7046 65.2089 85.8844 64.1704 88.0589C63.0364 90.4332 61.7688 95.9352 60.4377 100.25C59.7901 102.349 59.0257 104.016 58.1119 106.25C57.1847 108.516 56.15 110.514 55.3406 112.503C55.002 113.433 54.6286 114.532 54.2586 115.693C54.0905 116.23 53.9621 116.658 53.5155 117.841" stroke="#FAF7F1" stroke-linecap="round"/>
<path d="M116.305 173.154C115.795 173.548 114.294 174.738 113.585 175.516C112.81 176.367 112.321 176.924 111.301 177.659C110.501 178.236 108.078 178.936 104.788 179.797C103.216 180.209 101.43 182.278 99.7157 184.407C98.9186 185.397 98.2494 186.346 97.4305 186.948C96.6845 187.497 93.0017 188.555 89.7722 190.06C87.6438 191.051 86.7247 192.191 86.0169 192.739C85.1467 193.412 84.7443 194.362 83.9849 194.854C83.0381 195.467 81.8427 195.627 81.0054 195.834C80.1957 196.033 79.4089 196.157 78.2685 196.195C77.2865 196.229 76.5258 196.783 75.8382 197.276C75.0356 197.851 74.0996 197.932 72.7467 198.196C71.1912 198.499 65.0895 201.269 61.6193 201.272C60.7496 201.272 59.5478 199.223 59.4075 199.06C58.9978 198.584 66.8675 198.093 67.6767 198.053C68.514 198.011 69.4867 197.67 70.4249 197.281C71.7486 196.734 72.6636 196.598 73.4991 196.469C74.3279 196.341 75.1453 195.822 75.9191 195.231C76.5667 194.737 77.5419 194.537 78.8501 194.401C79.9498 194.287 81.1467 194.075 81.8595 193.658C83.035 192.969 84.3973 191.33 85.981 190.605C88.144 189.614 89.9852 188.333 91.2608 187.8C93.0845 187.038 94.2465 186.464 95.8354 185.72C96.8592 185.24 97.7179 184.347 98.5142 183.372C99.3342 182.367 100.109 181.143 101.013 180.218C102.228 178.974 103.226 178.01 103.905 177.37C104.9 176.433 106.39 175.864 107.803 175.253C109.224 174.639 111.089 173.493 112.172 172.726C112.454 172.534 112.722 172.373 112.952 172.213C113.181 172.054 113.365 171.899 113.638 171.671" stroke="#FAF7F1" stroke-width="0.2" stroke-linecap="round"/>
<path d="M227.103 124.547C227.117 125.16 227.18 126.978 227.369 127.937C227.576 128.984 227.72 129.656 227.71 130.856C227.702 131.798 226.91 134.166 225.77 137.338C225.225 138.853 225.78 141.319 226.417 143.753C226.713 144.885 227.049 145.889 227.049 146.859C227.05 147.743 225.842 151.338 225.206 154.758C224.787 157.012 225.127 158.316 225.147 159.166C225.172 160.212 225.652 160.993 225.603 161.861C225.543 162.944 225.017 164.026 224.717 164.827C224.428 165.602 224.095 166.322 223.509 167.301C223.004 168.144 223.001 169.043 222.992 169.851C222.981 170.794 222.537 171.621 222.001 172.883C221.386 174.335 220.131 180.763 218.264 183.688C217.796 184.422 215.647 184.482 215.452 184.525C214.882 184.649 218.761 177.79 219.167 177.089C219.587 176.364 219.86 175.386 220.081 174.415C220.392 173.045 220.786 172.211 221.141 171.447C221.494 170.689 221.554 169.76 221.537 168.833C221.523 168.058 221.902 167.143 222.507 165.978C223.015 164.998 223.505 163.891 223.582 163.096C223.711 161.786 223.243 159.877 223.564 158.205C224.003 155.923 224.055 153.776 224.352 152.454C224.775 150.563 224.98 149.317 225.29 147.633C225.49 146.547 225.298 145.409 225.011 144.285C224.717 143.127 224.237 141.906 224.046 140.714C223.788 139.112 223.619 137.824 223.515 136.954C223.364 135.681 223.75 134.16 224.063 132.686C224.378 131.204 224.542 129.1 224.563 127.831C224.574 127.504 224.601 127.203 224.607 126.936C224.614 126.668 224.6 126.442 224.58 126.106" stroke="#FAF7F1" stroke-width="0.2" stroke-linecap="round"/>
<path d="M181.224 56.0484C204.178 64.3194 218.393 74.6229 226.282 85.6515C234.166 96.6738 235.766 108.465 233.405 119.794C231.041 131.138 224.703 142.028 216.699 151.189C208.696 160.349 199.054 167.751 190.126 172.127C159.159 187.308 125.84 193.242 100.832 192.717C88.3215 192.454 77.932 190.575 70.9657 187.461C67.4823 185.903 64.8902 184.053 63.306 181.975C61.7337 179.913 61.1432 177.617 61.6648 175.097L61.6734 175.054L61.6752 175.009L61.716 173.786C62.2164 161.295 64.9547 153.608 69.1497 148.616C73.4789 143.464 79.4262 141.1 86.3353 139.357C100.113 135.881 117.656 134.929 132.324 118.56C146.964 102.221 148.469 84.9069 151.724 72.6414C153.358 66.4852 155.41 61.6656 159.651 58.7109C163.887 55.7601 170.424 54.5907 181.224 56.0484Z" fill="#0A2A43" stroke="#FAF7F1"/>
<path d="M201.514 127.783C200.521 128.499 197.597 130.66 196.217 132.075C194.71 133.621 193.757 134.634 191.771 135.97C190.214 137.017 185.493 138.287 179.083 139.848C176.022 140.594 172.546 144.355 169.208 148.225C167.657 150.024 166.354 151.75 164.76 152.845C163.307 153.842 156.133 155.76 149.842 158.492C145.697 160.292 143.908 162.364 142.53 163.358C140.835 164.581 140.053 166.31 138.574 167.203C136.73 168.316 134.401 168.606 132.77 168.98C131.193 169.342 129.66 169.566 127.437 169.634C125.524 169.693 124.043 170.7 122.704 171.595C121.141 172.64 119.317 172.786 116.681 173.263C113.651 173.813 111.618 174.493 104.856 174.492C103.161 174.491 102.585 173.845 102.312 173.548C101.513 172.681 105.226 173.067 106.802 172.995C108.434 172.92 110.329 172.301 112.156 171.596C114.734 170.602 116.517 170.357 118.145 170.124C119.759 169.893 121.351 168.95 122.858 167.876C124.119 166.977 126.019 166.616 128.568 166.371C130.71 166.165 133.042 165.782 134.43 165.023C136.72 163.773 139.371 160.793 142.456 159.476C146.669 157.678 150.255 155.351 152.739 154.384C156.291 153.001 158.555 151.959 161.649 150.607C163.643 149.737 165.315 148.113 166.865 146.34C168.461 144.513 169.968 142.289 171.729 140.607C174.095 138.347 176.036 136.594 177.36 135.43C179.295 133.728 182.199 132.695 184.951 131.587C187.718 130.472 191.35 128.391 193.46 126.996C194.01 126.647 194.531 126.356 194.978 126.066C195.425 125.776 195.782 125.495 196.315 125.081" stroke="#FAF7F1" stroke-width="0.2" stroke-linecap="round"/>
<path d="M180.871 117.461C179.878 118.177 176.954 120.338 175.574 121.753C174.066 123.299 173.113 124.312 171.128 125.647C169.57 126.695 164.849 127.965 158.44 129.526C155.378 130.271 151.902 134.033 148.564 137.903C147.013 139.702 145.711 141.428 144.116 142.522C142.663 143.519 135.489 145.438 129.199 148.169C125.053 149.97 123.264 152.042 121.886 153.036C120.192 154.259 119.409 155.987 117.93 156.881C116.086 157.994 113.757 158.284 112.126 158.658C110.549 159.02 109.016 159.243 106.794 159.312C104.881 159.37 103.399 160.378 102.06 161.273C100.497 162.318 98.6737 162.463 96.0379 162.941C93.0077 163.49 90.9744 164.171 84.2125 164.169C82.5179 164.169 81.9419 163.522 81.6683 163.226C80.8693 162.359 84.582 162.745 86.1588 162.673C87.7902 162.598 89.685 161.978 91.5123 161.274C94.0908 160.279 95.8734 160.035 97.5012 159.802C99.1159 159.57 100.708 158.628 102.214 157.554C103.476 156.655 105.375 156.294 107.924 156.049C110.067 155.843 112.399 155.46 113.787 154.701C116.076 153.45 118.728 150.47 121.813 149.154C126.026 147.356 129.611 145.029 132.096 144.062C135.648 142.679 137.911 141.636 141.006 140.285C143 139.414 144.672 137.791 146.222 136.017C147.818 134.191 149.325 131.967 151.085 130.285C153.451 128.024 155.393 126.272 156.716 125.108C158.652 123.405 161.556 122.373 164.307 121.264C167.075 120.15 170.707 118.068 172.816 116.674C173.366 116.325 173.888 116.034 174.335 115.744C174.782 115.453 175.138 115.173 175.671 114.759" stroke="#FAF7F1" stroke-width="0.2" stroke-linecap="round"/>
<path d="M104.963 34.6127C111.973 34.3253 118.851 36.277 123.894 39.9146C128.934 43.5497 132.116 48.8438 131.837 55.2552C131.558 61.6793 127.444 68.898 121.583 74.6055C115.725 80.3101 108.221 84.4074 101.282 84.6919C94.2692 84.9794 85.5546 82.8983 78.6709 79.1045C71.7606 75.2961 66.8632 69.8629 67.1377 63.5362C67.275 60.3764 68.7902 57.0255 71.2623 53.743C73.7316 50.4641 77.1299 47.2885 80.9656 44.4942C88.6518 38.8952 97.9923 34.8985 104.963 34.6127Z" fill="#0A2A43" stroke="#FAF7F1"/>
<path d="M57.7108 90.8519C63.8502 87.4555 70.8734 86.1206 77.012 87.1143C83.1462 88.1075 88.3618 91.4161 90.9841 97.2734C93.6115 103.142 93.1656 111.439 90.4815 119.167C87.7987 126.891 82.9242 133.915 76.8472 137.277C70.7054 140.675 61.9816 142.716 54.1278 142.407C46.2437 142.097 39.4316 139.432 36.8438 133.652C35.5514 130.766 35.4056 127.091 36.1458 123.049C36.8853 119.011 38.5016 114.65 40.6799 110.434C45.0447 101.986 51.6064 94.229 57.7108 90.8519Z" fill="#0A2A43" stroke="#FAF7F1"/>
<path d="M132.864 123.104C130.005 129.511 125.2 134.805 119.7 137.706C114.204 140.605 108.047 141.102 102.427 138.003C96.7968 134.898 92.159 128.004 89.6511 120.217C87.1445 112.434 86.8095 103.891 89.6388 97.5484C92.4984 91.1383 98.236 84.2568 104.694 79.7766C111.177 75.2791 118.221 73.3069 123.766 76.3649C126.536 77.8922 128.864 80.7389 130.706 84.4124C132.545 88.0817 133.88 92.5374 134.678 97.2154C136.277 106.589 135.706 116.733 132.864 123.104Z" fill="#0A2A43" stroke="#FAF7F1"/>
<path d="M130.963 148.459C127.919 147.555 124.837 146.142 123.312 146.142H123.311C120.649 146.105 118.066 146.068 116.564 146.009C114.654 145.869 112.242 145.789 109.064 145.747C106.406 145.37 101.194 143.935 99.899 140.663C99.1737 138.831 97.9468 132.504 99.3648 127.611C100.19 124.763 103.072 119.973 105.907 113.78C108.157 108.865 109.233 106.043 109.358 104.318C109.708 99.5153 109.919 95.4316 113.511 90.3912C115.115 88.1403 116.923 86.2514 121.363 85.2415C124.511 84.5252 127.13 84.3005 129.93 81.3286C134.426 76.5562 136.268 71.4104 139.394 68.3057C143.532 64.1958 146.204 60.7662 153.011 59.5121C156.88 58.7993 161.645 58.5111 166.306 60.5646C170.991 62.6289 174.912 61.7225 182.17 61.7851C188.626 61.8408 195.24 62.5996 196.646 65.536C199.053 70.5611 196.943 79.5728 201.419 84.234C204.566 87.5108 209.868 90.066 214.89 94.1989C217.187 96.0885 218.689 97.889 219.454 99.5276C220.738 102.281 222.826 106.492 222.359 109.488C222.014 111.706 220.414 116.881 212.063 123.671C208.591 126.494 203.514 130.675 199.384 133.037C189.733 138.557 187.897 139.646 186.135 142.543C183.51 146.856 182.049 148.703 177.788 151.224C171.053 155.209 166.475 154.838 164.209 156.325C162.2 157.643 159.948 160.695 157.404 160.819C155.5 160.912 153.884 160.927 152.956 160.633C149.054 159.395 143.201 157.956 141.243 155.73C138.136 152.198 134.856 149.614 130.963 148.459Z" fill="#0A2A43" stroke="#FAF7F1" stroke-linecap="round"/>
<path d="M126.089 76.2774C127.638 74.4364 128.898 72.7102 129.315 72.2734C129.997 71.9462 130.545 71.6759 131.286 71.4203C132.027 71.1647 132.934 70.931 133.601 70.8141C135.266 70.7187 136.641 70.7725 137.235 71.4205C137.691 71.9183 138.327 72.6227 138.34 74.2023C138.355 75.9623 138.392 76.8879 137.82 77.5033C137.188 78.1847 135.853 79.8784 134.596 80.6486C133.15 81.5344 131.561 82.3669 130.719 84.7022C130.009 86.6743 129.919 88.2641 129.448 91.39C128.97 94.5611 129.131 96.695 128.377 97.2818C127.816 97.7184 126.616 98.0966 125.341 97.6936C123.711 97.1786 122.191 96.7474 121.491 95.1001C120.748 93.3506 120.648 91.0013 121.108 88.1644C121.364 86.5812 121.509 85.1482 121.812 84.1163L121.826 84.0694C122.114 83.087 122.491 81.8026 123.365 80.4412C124.282 79.0124 125.097 77.4558 126.089 76.2774Z" fill="#0A2A43" stroke="#FAF7F1" stroke-linecap="round"/>
<path d="M102.256 47.1986C103.125 46.6384 103.862 46.0881 104.088 45.9617C104.405 45.9151 104.661 45.8747 104.992 45.8656C105.323 45.8564 105.717 45.8779 106 45.9166C106.679 46.0942 107.222 46.2959 107.372 46.6416C107.488 46.9072 107.647 47.2819 107.439 47.9376C107.208 48.6682 107.098 49.0563 106.786 49.2366C106.44 49.4361 105.678 49.9634 105.071 50.1182C104.373 50.2963 103.624 50.4337 102.972 51.2908C102.422 52.0146 102.171 52.6612 101.561 53.894C100.942 55.1446 100.718 56.0491 100.337 56.1937C100.054 56.3013 99.5226 56.3013 99.0665 55.9681C98.4838 55.5423 97.934 55.1655 97.8762 54.3921C97.8148 53.5708 98.0922 52.5851 98.6588 51.4704C98.975 50.8484 99.2267 50.274 99.4872 49.8863L99.499 49.8687C99.747 49.4995 100.071 49.0169 100.605 48.5672C101.164 48.0952 101.701 47.5571 102.256 47.1986Z" fill="#0A2A43" stroke="#FAF7F1" stroke-width="0.2" stroke-linecap="round"/>
<path d="M95.4867 63.5761C95.9187 63.2249 96.2882 62.884 96.4 62.8037C96.552 62.7659 96.6749 62.7337 96.8324 62.7167C96.9899 62.6997 97.1764 62.698 97.3092 62.7101C97.6252 62.7876 97.8759 62.8837 97.9348 63.0761C97.9801 63.2239 98.0425 63.4325 97.9206 63.815C97.7847 64.241 97.7187 64.4669 97.5643 64.581C97.3933 64.7074 97.0127 65.036 96.719 65.1461C96.3813 65.2727 96.0212 65.3778 95.6813 65.8912C95.3943 66.3247 95.2525 66.7034 94.9191 67.4301C94.5808 68.1673 94.4425 68.6926 94.2566 68.7888C94.1182 68.8603 93.8661 68.8792 93.6614 68.7048C93.3999 68.4819 93.1523 68.286 93.1523 67.8457C93.1523 67.3781 93.3189 66.8046 93.6274 66.1469C93.7996 65.7799 93.9394 65.4425 94.0768 65.2115L94.0831 65.2011C94.2139 64.9811 94.3849 64.6936 94.654 64.4175C94.9364 64.1277 95.2101 63.8009 95.4867 63.5761Z" fill="#0A2A43" stroke="#FAF7F1" stroke-width="0.2" stroke-linecap="round"/>
<path d="M104.583 62.9493C104.795 63.464 105.016 63.9158 105.061 64.0459C105.053 64.2024 105.049 64.3293 105.02 64.4851C104.991 64.6408 104.939 64.8199 104.889 64.9437C104.724 65.2241 104.56 65.4367 104.359 65.4379C104.205 65.4389 103.987 65.4388 103.655 65.2122C103.286 64.9597 103.089 64.8317 103.024 64.651C102.952 64.451 102.746 63.992 102.725 63.6791C102.701 63.3192 102.704 62.9441 102.309 62.4712C101.977 62.0718 101.654 61.8273 101.054 61.2993C100.445 60.7636 99.9815 60.4804 99.9427 60.2747C99.9139 60.1216 99.9682 59.8746 100.194 59.7287C100.483 59.5421 100.741 59.3612 101.163 59.4876C101.611 59.6218 102.113 59.946 102.654 60.4303C102.956 60.7006 103.239 60.9314 103.421 61.1293L103.429 61.1383C103.602 61.3268 103.829 61.5731 104.016 61.9101C104.212 62.2638 104.447 62.6198 104.583 62.9493Z" fill="#0A2A43" stroke="#FAF7F1" stroke-width="0.2" stroke-linecap="round"/>
<path d="M112.102 57.2296C112.73 57.5462 113.319 57.8057 113.467 57.8906C113.577 58.0259 113.668 58.1349 113.752 58.2814C113.837 58.4279 113.914 58.6065 113.951 58.7374C113.976 59.0625 113.951 59.3302 113.725 59.4406C113.552 59.5255 113.306 59.6438 112.762 59.6337C112.155 59.6224 111.836 59.6223 111.627 59.506C111.395 59.3772 110.817 59.1036 110.557 58.8524C110.259 58.5635 109.979 58.2472 109.178 58.0644C108.501 57.9101 107.954 57.88 106.879 57.7631C105.788 57.6445 105.052 57.6588 104.853 57.5071C104.705 57.3943 104.58 57.1575 104.725 56.9121C104.91 56.5987 105.066 56.306 105.636 56.1828C106.243 56.0519 107.053 56.0514 108.028 56.1637C108.573 56.2263 109.066 56.2661 109.42 56.3335L109.436 56.3365C109.774 56.4006 110.214 56.4844 110.68 56.6655C111.168 56.8556 111.701 57.027 112.102 57.2296Z" fill="#0A2A43" stroke="#FAF7F1" stroke-width="0.2" stroke-linecap="round"/>
<path d="M86.6088 58.4524C87.4048 58.4921 88.1174 58.48 88.315 58.5023C88.5278 58.6137 88.7011 58.7019 88.904 58.8426C89.1069 58.9833 89.3328 59.1708 89.4832 59.3194C89.8028 59.7285 90.0292 60.0924 89.949 60.3709C89.8875 60.5849 89.7988 60.8854 89.3517 61.1962C88.8535 61.5424 88.5966 61.7321 88.3211 61.705C88.016 61.675 87.2997 61.6618 86.8596 61.4886C86.3535 61.2894 85.8375 61.0432 85.0251 61.2814C84.3391 61.4825 83.871 61.7689 82.8988 62.2561C81.9126 62.7504 81.3336 63.207 81.0342 63.1274C80.8114 63.0682 80.493 62.8335 80.3836 62.4274C80.2438 61.9085 80.0995 61.4342 80.4452 60.9338C80.8124 60.4024 81.4635 59.9198 82.3514 59.4857C82.8469 59.2435 83.2802 59.0021 83.6271 58.8791L83.6428 58.8735C83.973 58.7564 84.4047 58.6034 84.9455 58.5629C85.5131 58.5203 86.0993 58.427 86.6088 58.4524Z" fill="#0A2A43" stroke="#FAF7F1" stroke-width="0.2" stroke-linecap="round"/>
<path d="M92.8848 54.9815C93.6512 55.4806 94.3785 55.9116 94.558 56.0396C94.6755 56.2063 94.7732 56.3412 94.8552 56.5115C94.9373 56.6819 95.0018 56.8817 95.0242 57.0226C94.9907 57.3528 94.9027 57.6112 94.5804 57.6543C94.3327 57.6874 93.9828 57.7325 93.2633 57.5622C92.4617 57.3724 92.0387 57.2783 91.785 57.1011C91.5041 56.905 90.7949 56.4633 90.5025 56.1375C90.1662 55.7627 89.8607 55.3664 88.8368 54.9491C87.9721 54.5968 87.2527 54.4056 85.8519 53.973C84.4308 53.5342 83.4522 53.3316 83.22 53.1225C83.0472 52.967 82.9305 52.6951 83.1729 52.4941C83.4825 52.2374 83.7489 51.9927 84.531 52.0385C85.3615 52.0871 86.4353 52.3251 87.7052 52.7238C88.4138 52.9463 89.0593 53.1311 89.5149 53.3022L89.5356 53.31C89.9694 53.4729 90.5365 53.6858 91.1157 54.0026C91.7236 54.3351 92.3944 54.6621 92.8848 54.9815Z" fill="#0A2A43" stroke="#FAF7F1" stroke-width="0.2" stroke-linecap="round"/>
<path d="M75.5455 121.716C76.5429 121.446 77.4452 121.266 77.6904 121.183C77.937 120.978 78.1383 120.815 78.3666 120.575C78.595 120.335 78.843 120.028 79.0034 119.792C79.3258 119.169 79.5395 118.63 79.383 118.287C79.2628 118.024 79.0911 117.655 78.4647 117.37C77.7668 117.053 77.4048 116.875 77.0622 116.987C76.6829 117.109 75.7808 117.323 75.2595 117.671C74.6599 118.07 74.057 118.534 72.9838 118.445C72.0775 118.37 71.4295 118.123 70.105 117.752C68.7613 117.375 67.9395 116.936 67.5771 117.122C67.3075 117.261 66.952 117.656 66.8944 118.218C66.8209 118.935 66.7329 119.596 67.2688 120.157C67.8381 120.752 68.7561 121.205 69.9636 121.53C70.6375 121.712 71.2326 121.909 71.6951 121.975L71.7161 121.978C72.1564 122.041 72.7319 122.123 73.423 122.027C74.1483 121.927 74.9071 121.889 75.5455 121.716Z" fill="#0A2A43" stroke="#FAF7F1" stroke-width="0.2" stroke-linecap="round"/>
<path d="M58.8449 115.786C59.395 115.7 59.8956 115.654 60.0301 115.624C60.16 115.537 60.2661 115.467 60.3841 115.361C60.5021 115.255 60.6282 115.118 60.7081 115.011C60.862 114.725 60.9583 114.474 60.8548 114.301C60.7753 114.169 60.662 113.983 60.2963 113.818C59.8887 113.633 59.6767 113.531 59.4886 113.57C59.2803 113.612 58.7814 113.675 58.503 113.82C58.1829 113.986 57.8639 114.183 57.255 114.092C56.7408 114.015 56.3645 113.867 55.6013 113.629C54.8271 113.387 54.3443 113.138 54.1484 113.212C54.0026 113.267 53.8198 113.441 53.8125 113.71C53.8031 114.053 53.783 114.369 54.1101 114.663C54.4576 114.976 54.9953 115.236 55.6904 115.447C56.0783 115.565 56.4226 115.687 56.6862 115.739L56.6982 115.741C56.9492 115.791 57.2772 115.857 57.6625 115.842C58.0668 115.826 58.4928 115.841 58.8449 115.786Z" fill="#0A2A43" stroke="#FAF7F1" stroke-width="0.2" stroke-linecap="round"/>
<path d="M65.4011 109.446C65.1608 108.944 64.9726 108.478 64.9059 108.357C64.7848 108.258 64.6874 108.176 64.5523 108.094C64.4172 108.011 64.2494 107.93 64.1242 107.884C63.8054 107.819 63.5377 107.798 63.4021 107.947C63.298 108.061 63.1523 108.223 63.099 108.621C63.0396 109.064 63.0026 109.297 63.0933 109.466C63.1938 109.653 63.3973 110.113 63.6156 110.338C63.8668 110.597 64.1473 110.846 64.2349 111.455C64.3089 111.97 64.2751 112.373 64.2656 113.172C64.2561 113.984 64.1563 114.517 64.2833 114.684C64.3777 114.808 64.5975 114.933 64.8571 114.863C65.1888 114.773 65.4965 114.702 65.6848 114.304C65.8848 113.881 65.9796 113.292 65.982 112.565C65.9834 112.16 66.0013 111.795 65.9759 111.527L65.9747 111.515C65.9506 111.261 65.919 110.927 65.7939 110.563C65.6626 110.18 65.555 109.768 65.4011 109.446Z" fill="#0A2A43" stroke="#FAF7F1" stroke-width="0.2" stroke-linecap="round"/>
<path d="M74.6852 107.685C74.8698 107.007 75.0713 106.395 75.1077 106.228C75.0805 106.056 75.0602 105.916 75.008 105.755C74.9559 105.594 74.8743 105.418 74.802 105.302C74.5773 105.066 74.3619 104.905 74.1286 104.999C73.9493 105.071 73.697 105.175 73.3402 105.586C72.9426 106.044 72.7291 106.282 72.6754 106.515C72.6159 106.774 72.4326 107.386 72.4454 107.747C72.4602 108.162 72.5081 108.582 72.1078 109.299C71.7698 109.905 71.4259 110.332 70.7932 111.209C70.1514 112.099 69.6482 112.636 69.6279 112.886C69.6127 113.071 69.7051 113.322 69.9843 113.379C70.3409 113.451 70.6624 113.532 71.136 113.19C71.639 112.827 72.1815 112.226 72.7509 111.425C73.0687 110.979 73.3692 110.586 73.5562 110.278L73.5647 110.264C73.7428 109.97 73.9756 109.586 74.1524 109.12C74.3379 108.63 74.567 108.119 74.6852 107.685Z" fill="#0A2A43" stroke="#FAF7F1" stroke-width="0.2" stroke-linecap="round"/>
<path d="M56.7064 125.811C57.2096 125.193 57.6954 124.672 57.8111 124.51C57.8708 124.277 57.9212 124.09 57.9524 123.845C57.9837 123.6 57.9955 123.306 57.9858 123.095C57.8956 122.584 57.7768 122.172 57.5162 122.045C57.3159 121.948 57.0333 121.813 56.5032 121.937C55.9125 122.075 55.5996 122.139 55.4354 122.362C55.2535 122.609 54.784 123.15 54.6182 123.593C54.4275 124.102 54.2651 124.651 53.5445 125.095C52.9359 125.47 52.4099 125.626 51.3972 126.022C50.3699 126.425 49.6432 126.549 49.5019 126.825C49.3968 127.03 49.3581 127.424 49.5866 127.777C49.8787 128.228 50.1346 128.653 50.7378 128.731C51.3784 128.813 52.1727 128.653 53.0894 128.283C53.601 128.077 54.0704 127.917 54.3939 127.741L54.4086 127.733C54.7166 127.566 55.1192 127.348 55.5112 126.973C55.9227 126.58 56.3843 126.207 56.7064 125.811Z" fill="#0A2A43" stroke="#FAF7F1" stroke-width="0.2" stroke-linecap="round"/>
<path d="M63.4869 123.471C63.6289 122.568 63.7954 121.739 63.8204 121.52C63.7751 121.321 63.7403 121.158 63.6686 120.983C63.5969 120.808 63.4916 120.627 63.4019 120.516C63.1341 120.32 62.8832 120.212 62.6355 120.423C62.4452 120.585 62.1774 120.815 61.8225 121.463C61.4271 122.186 61.214 122.563 61.1758 122.87C61.1336 123.21 60.9872 124.033 61.0336 124.468C61.087 124.969 61.1771 125.461 60.8019 126.501C60.4851 127.379 60.1457 128.042 59.5296 129.372C58.9047 130.722 58.4004 131.585 58.4003 131.897C58.4003 132.13 58.5242 132.398 58.8357 132.353C59.2337 132.294 59.5939 132.26 60.0832 131.648C60.6029 130.999 61.1446 130.042 61.6982 128.831C62.0071 128.156 62.3017 127.552 62.4795 127.099L62.4876 127.079C62.6568 126.647 62.8781 126.083 63.0303 125.441C63.1901 124.767 63.396 124.05 63.4869 123.471Z" fill="#0A2A43" stroke="#FAF7F1" stroke-width="0.2" stroke-linecap="round"/>
<path d="M104.141 107.669C104.691 107.755 105.192 107.802 105.326 107.831C105.456 107.919 105.562 107.988 105.68 108.094C105.798 108.2 105.924 108.337 106.004 108.444C106.158 108.731 106.254 108.981 106.151 109.154C106.071 109.286 105.958 109.472 105.592 109.637C105.185 109.822 104.973 109.924 104.784 109.885C104.576 109.843 104.077 109.78 103.799 109.635C103.479 109.469 103.16 109.272 102.551 109.363C102.037 109.44 101.66 109.588 100.897 109.826C100.123 110.068 99.6402 110.317 99.4443 110.243C99.2985 110.189 99.1157 110.014 99.1084 109.745C99.099 109.402 99.0789 109.086 99.406 108.792C99.7535 108.479 100.291 108.219 100.986 108.008C101.374 107.89 101.719 107.768 101.982 107.716L101.994 107.714C102.245 107.664 102.573 107.598 102.958 107.613C103.363 107.629 103.789 107.614 104.141 107.669Z" fill="#0A2A43" stroke="#FAF7F1" stroke-width="0.2" stroke-linecap="round"/>
<path d="M105.366 98.4563C105.869 99.0744 106.355 99.5958 106.47 99.7576C106.53 99.9902 106.58 100.178 106.612 100.423C106.643 100.668 106.655 100.961 106.645 101.172C106.555 101.684 106.436 102.095 106.175 102.222C105.975 102.32 105.692 102.455 105.162 102.331C104.572 102.192 104.259 102.128 104.095 101.905C103.913 101.659 103.443 101.117 103.277 100.675C103.087 100.165 102.924 99.617 102.204 99.1727C101.595 98.7976 101.069 98.6415 100.056 98.2451C99.0291 97.843 98.3024 97.7184 98.1611 97.4426C98.056 97.2374 98.0173 96.8438 98.2458 96.4907C98.5379 96.0396 98.7937 95.615 99.3969 95.537C100.038 95.4542 100.832 95.615 101.749 95.9843C102.26 96.1904 102.73 96.3508 103.053 96.5262L103.068 96.5342C103.376 96.7012 103.778 96.9196 104.17 97.2943C104.582 97.6876 105.044 98.0607 105.366 98.4563Z" fill="#0A2A43" stroke="#FAF7F1" stroke-width="0.2" stroke-linecap="round"/>
<path d="M108.609 94.8988C108.751 95.8022 108.917 96.6311 108.942 96.8501C108.897 97.0489 108.862 97.2118 108.791 97.3868C108.719 97.5618 108.614 97.7434 108.524 97.8544C108.256 98.0505 108.005 98.158 107.758 97.9473C107.567 97.7855 107.3 97.5556 106.945 96.907C106.549 96.1843 106.336 95.807 106.298 95.5C106.256 95.16 106.109 94.3375 106.156 93.9021C106.209 93.4015 106.299 92.9092 105.924 91.8691C105.607 90.9908 105.268 90.3283 104.652 88.9979C104.027 87.6483 103.522 86.7855 103.522 86.4731C103.522 86.2406 103.646 85.9719 103.958 86.0175C104.356 86.0758 104.716 86.11 105.205 86.7218C105.725 87.3715 106.267 88.3286 106.82 89.539C107.129 90.2145 107.424 90.8178 107.602 91.2709L107.61 91.2914C107.779 91.7228 108 92.2867 108.152 92.9291C108.312 93.6033 108.518 94.3205 108.609 94.8988Z" fill="#0A2A43" stroke="#FAF7F1" stroke-width="0.2" stroke-linecap="round"/>
<path d="M136.544 121.71C138.168 123.486 139.715 124.96 140.094 125.431C140.33 126.149 140.526 126.728 140.683 127.496C140.84 128.264 140.953 129.194 140.982 129.87C140.86 131.533 140.628 132.89 139.908 133.394C139.355 133.781 138.574 134.32 137.006 134.128C135.259 133.913 134.336 133.829 133.801 133.182C133.207 132.466 131.702 130.923 131.102 129.576C130.412 128.026 129.794 126.342 127.588 125.204C125.725 124.242 124.161 123.946 121.123 123.072C118.041 122.185 115.904 122.067 115.421 121.243C115.061 120.629 114.842 119.391 115.408 118.178C116.131 116.63 116.757 115.179 118.481 114.7C120.312 114.19 122.655 114.398 125.408 115.223C126.944 115.683 128.346 116.014 129.329 116.449L129.374 116.469C130.311 116.883 131.535 117.424 132.771 118.467C134.068 119.562 135.505 120.573 136.544 121.71Z" fill="#0A2A43" stroke="#FAF7F1" stroke-linecap="round"/>
<path d="M172.986 131.692C173.017 133.686 173.159 135.478 173.137 135.971C172.904 136.49 172.72 136.912 172.415 137.402C172.11 137.892 171.697 138.432 171.365 138.789C170.435 139.534 169.6 140.051 168.92 139.81C168.397 139.625 167.663 139.36 166.847 138.192C165.939 136.892 165.443 136.22 165.465 135.531C165.488 134.769 165.406 132.972 165.751 131.891C166.148 130.648 166.656 129.387 165.956 127.313C165.365 125.561 164.605 124.345 163.283 121.833C161.942 119.286 160.757 117.767 160.9 117.026C161.006 116.475 161.518 115.708 162.473 115.491C163.695 115.214 164.808 114.919 166.062 115.858C167.393 116.856 168.653 118.56 169.834 120.852C170.493 122.131 171.14 123.253 171.49 124.142L171.506 124.182C171.839 125.028 172.274 126.134 172.457 127.499C172.649 128.93 172.966 130.416 172.986 131.692Z" fill="#0A2A43" stroke="#FAF7F1" stroke-linecap="round"/>
<path d="M179.962 92.987C178.823 93.9723 177.838 94.9276 177.547 95.1531C177.17 95.2616 176.865 95.3536 176.482 95.404C176.098 95.4545 175.649 95.463 175.333 95.4323C174.594 95.2233 174.018 94.9614 173.93 94.4278C173.863 94.0178 173.772 93.4391 174.173 92.3736C174.62 91.1863 174.842 90.557 175.246 90.2365C175.693 89.8817 176.701 88.9603 177.439 88.6482C178.287 88.2892 179.183 87.9895 180.146 86.5553C180.959 85.3443 181.407 84.2887 182.414 82.2615C183.435 80.2051 183.916 78.742 184.391 78.4708C184.744 78.2689 185.356 78.2112 185.799 78.6918C186.365 79.306 186.906 79.8456 186.782 81.0695C186.65 82.3693 186.088 83.9672 185.16 85.8018C184.643 86.8256 184.211 87.7664 183.815 88.4114L183.797 88.4407C183.421 89.0548 182.928 89.8576 182.203 90.6308C181.442 91.4423 180.691 92.3564 179.962 92.987Z" fill="#0A2A43" stroke="#FAF7F1" stroke-linecap="round"/>
<path d="M144.47 97.9152C143.386 96.8698 142.346 95.9745 142.095 95.7044C141.953 95.3392 141.834 95.044 141.75 94.6663C141.665 94.2886 141.616 93.8421 141.618 93.5244C141.76 92.7701 141.969 92.1727 142.492 92.0374C142.895 91.9335 143.463 91.7904 144.56 92.0942C145.783 92.4326 146.43 92.5976 146.785 92.9708C147.179 93.384 148.187 94.3055 148.564 95.0122C148.998 95.8249 149.377 96.6903 150.892 97.5199C152.171 98.2205 153.263 98.5716 155.372 99.3924C157.512 100.225 159.013 100.572 159.326 101.02C159.558 101.354 159.671 101.958 159.232 102.443C158.671 103.062 158.182 103.649 156.952 103.636C155.646 103.622 154.004 103.205 152.093 102.446C151.027 102.023 150.051 101.677 149.373 101.341L149.343 101.326C148.697 101.006 147.853 100.588 147.018 99.9349C146.141 99.2498 145.163 98.5843 144.47 97.9152Z" fill="#0A2A43" stroke="#FAF7F1" stroke-linecap="round"/>
<path d="M194.54 102.621C195.839 101.537 196.929 100.493 197.271 100.243C197.77 100.107 198.174 99.9921 198.703 99.9146C199.232 99.837 199.868 99.7979 200.327 99.8079C201.445 99.9715 202.349 100.2 202.647 100.74C202.876 101.154 203.194 101.739 202.969 102.856C202.719 104.099 202.607 104.758 202.138 105.113C201.617 105.506 200.483 106.516 199.536 106.885C198.446 107.309 197.27 107.676 196.367 109.207C195.605 110.5 195.311 111.609 194.537 113.749C193.752 115.92 193.544 117.448 192.957 117.758C192.521 117.988 191.67 118.088 190.883 117.627C189.879 117.038 188.935 116.523 188.714 115.263C188.479 113.926 188.76 112.254 189.483 110.317C189.887 109.235 190.195 108.244 190.548 107.558L190.564 107.527C190.9 106.874 191.34 106.02 192.12 105.181C192.938 104.3 193.709 103.314 194.54 102.621Z" fill="#0A2A43" stroke="#FAF7F1" stroke-linecap="round"/>
</svg>
