<svg width="427" height="1077" viewBox="0 0 427 1077" fill="none" xmlns="http://www.w3.org/2000/svg">
<path d="M-256 1074.5H94.6479C164.938 1074.5 300.332 992.55 307.274 827.884C314.301 661.184 167.864 563.162 105.775 563.162H-116.221C-127.938 563.162 -143.048 557.043 -142.58 537.564C-142.111 518.084 -127.936 511.341 -116.221 511.341H221.755C285.599 504.473 419.735 438.293 424.423 255.36C427.883 120.34 313.715 13.1139 212.967 2.50008H-22.4999" stroke="#AE1115" stroke-width="5"/>
<path d="M-256 1055.15L89.375 1055.15C163.207 1055.15 288.026 983.972 289.314 826.01C290.718 654.001 160.092 586.62 85.8322 582.497H-122.665C-133.209 582.497 -162.379 567.534 -161.91 537.565C-161.442 507.597 -136.723 492.613 -127.937 492.613H209.453C277.28 486.133 406.259 423.935 406.258 256.04C406.258 88.1445 271.229 27.3548 204.181 21.8568L-22.4999 22.3913" stroke="#AE1115" stroke-width="5"/>
<path d="M-255.5 1033.92H78.8645C170.793 1033.92 273.888 956.505 273.888 814.154C273.888 671.804 160.802 602.499 84.1025 602.499H-125.009C-153.714 602.499 -176.989 566.227 -176.552 538.194C-176.114 510.161 -155.468 476.384 -126.763 476.384H201.252C264.603 470.323 387.522 420.193 387.522 264.731C387.522 88.0414 255.143 44.3373 214.141 44.3373H-22.4999" stroke="#AE1115" stroke-width="5"/>
<path d="M-255.5 1016.44L-24.2607 1016.44L70.6302 1016.44C162.444 1023.31 256.903 942.766 256.903 812.278C256.903 681.79 146.071 619.356 71.3643 619.356H-128.923C-156.882 619.356 -194.291 586.89 -193.536 539.439C-192.78 491.989 -156.882 457.65 -128.923 457.65H199.494C269.198 457.65 368.189 386.474 372.005 274.352C377.784 104.574 243.065 62.4402 203.128 62.4402L-22.4999 62.4401" stroke="#AE1115" stroke-width="5"/>
<path d="M-255.5 996.058H-28.8314L63.5215 996.057C167.279 996.057 238.74 925.283 238.74 812.871C238.74 700.459 148.535 639.324 63.5215 639.324H-130.694C-166.011 639.324 -210.527 592.498 -210.527 536.931C-210.527 481.365 -168.354 440.158 -130.694 435.787H189.538C257.377 435.787 354.132 373.353 354.132 265.966C354.132 113.626 231.344 77.4136 192.475 77.4136H-22.4999" stroke="#AE1115" stroke-width="5"/>
<path d="M-255.5 978.978H-34.3172L55.545 978.977C164.937 978.977 224.097 915.919 224.097 817.272C224.097 718.626 145.607 656.816 54.8163 656.816H-133.433C-174.796 656.816 -226.928 613.112 -226.928 539.439C-226.928 465.766 -170.11 416.443 -133.433 416.443H181.021C247.031 416.443 338.903 367.744 338.903 256.611C338.903 136.736 231.712 94.2811 181.021 98.6515H-22.4999" stroke="#AE1115" stroke-width="5"/>
<path d="M-255.5 960.247H-39.3142L47.9432 960.247C147.95 960.247 205.939 912.173 205.939 821.643C205.939 731.113 146.193 676.795 47.9432 676.795H-135.557C-175.721 676.795 -244.5 622.477 -244.5 538.814C-244.5 455.152 -171.171 400.834 -135.557 400.834H170.794C234.891 400.834 323.088 364.622 323.088 262.23C323.088 159.837 251.042 116.423 169.782 116.423H-22.4999" stroke="#AE1115" stroke-width="5"/>
</svg>
