<svg width="862" height="683" viewBox="0 0 862 683" fill="none" xmlns="http://www.w3.org/2000/svg">
<path d="M2.5 683L2.5 332.352C2.5 262.063 78.7163 126.668 231.862 119.726C386.9 112.699 478.064 259.136 478.064 321.225L478.064 543.221C478.064 554.938 483.754 570.048 501.871 569.58C519.988 569.111 526.259 554.936 526.259 543.221L526.259 205.245C532.646 141.401 594.197 7.26505 764.331 2.57701C889.904 -0.883154 989.629 113.285 999.5 214.034L999.5 449.5" stroke="#AE1115" stroke-width="5"/>
<path d="M20.4988 683L20.4988 337.625C20.4988 263.793 86.6947 138.974 233.605 137.686C393.58 136.282 456.246 266.908 460.081 341.168L460.081 549.665C460.081 560.209 473.998 589.379 501.869 588.91C529.741 588.442 543.677 563.723 543.677 554.937L543.677 217.547C549.704 149.72 607.55 20.7416 763.699 20.7417C919.848 20.7419 976.385 155.771 981.498 222.819L981.001 449.5" stroke="#AE1115" stroke-width="5"/>
<path d="M40.2388 682.5L40.2388 348.136C40.241 256.207 112.241 153.112 244.632 153.112C377.024 153.112 441.48 266.199 441.48 342.898L441.48 552.009C441.48 580.714 475.214 603.989 501.286 603.552C527.357 603.114 558.772 582.468 558.772 553.763L558.772 225.748C564.409 162.397 611.032 39.4781 755.617 39.4781C919.945 39.4781 960.591 171.857 960.591 212.859L960.591 449.5" stroke="#AE1115" stroke-width="5"/>
<path d="M56.4991 682.5L56.4991 451.261L56.4996 356.37C50.1123 264.556 125.017 170.097 246.376 170.097C367.734 170.097 425.801 280.929 425.801 355.636L425.801 555.923C425.801 583.882 455.995 621.291 500.126 620.536C544.256 619.78 576.193 583.882 576.193 555.923L576.193 227.506C576.193 157.802 642.39 58.8108 746.667 54.9947C904.567 49.2161 943.753 183.935 943.753 223.873L943.753 449.5" stroke="#AE1115" stroke-width="5"/>
<path d="M75.455 682.5L75.455 455.832L75.4554 363.479C75.4557 259.721 141.278 188.26 245.826 188.26C350.373 188.26 407.231 278.465 407.231 363.479L407.231 557.694C407.231 593.011 450.781 637.527 502.46 637.527C554.139 637.527 592.463 595.354 596.527 557.694L596.527 237.463C596.527 169.623 654.594 72.8681 754.468 72.8681C896.15 72.8681 929.828 195.656 929.828 234.525L929.828 449.5" stroke="#AE1115" stroke-width="5"/>
<path d="M91.339 682.5L91.339 461.317L91.3395 371.455C91.3395 262.064 149.986 202.903 241.731 202.903C333.476 202.903 390.962 281.393 390.962 372.184L390.962 560.433C390.962 601.796 431.608 653.928 500.126 653.928C568.645 653.928 614.517 597.11 614.517 560.433L614.517 245.979C614.517 179.97 659.809 88.0969 763.167 88.0969C874.655 88.0969 914.14 195.288 910.075 245.979L910.075 449.5" stroke="#AE1115" stroke-width="5"/>
<path d="M108.76 682.5L108.76 466.314L108.76 379.057C108.76 279.05 153.471 221.061 237.667 221.061C321.863 221.061 372.381 280.807 372.381 379.057L372.381 562.557C372.381 602.722 422.899 671.5 500.708 671.5C578.517 671.5 629.034 598.171 629.034 562.557L629.034 256.206C629.034 192.109 662.713 103.912 757.942 103.912C853.171 103.912 893.547 175.959 893.547 257.218L893.547 449.5" stroke="#AE1115" stroke-width="5"/>
</svg>
