<svg width="737" height="680" viewBox="0 0 737 680" fill="none" xmlns="http://www.w3.org/2000/svg">
<path d="M2.5 -3L2.5 347.39C2.5 417.628 78.7163 552.924 231.862 559.86C386.9 566.882 478.064 420.553 478.064 358.509V136.676C478.064 124.968 483.754 109.869 501.871 110.337C519.988 110.805 526.259 124.97 526.259 136.676V474.404C532.646 538.201 594.197 672.239 764.331 676.923C889.904 680.381 989.629 566.296 999.5 465.622V230.329" stroke="#AE1115" stroke-width="5"/>
<path d="M20.498 -3L20.498 342.121C20.498 415.899 86.6939 540.626 233.605 541.914C393.58 543.316 456.246 412.786 460.081 338.581V130.237C460.081 119.701 473.997 90.5522 501.869 91.0205C529.741 91.4887 543.676 116.189 543.676 124.969V462.111C549.703 529.888 607.55 658.772 763.698 658.772C919.847 658.772 976.384 523.842 981.497 456.843L981 230.329" stroke="#AE1115" stroke-width="5"/>
<path d="M40.2383 -2.50098L40.2383 331.618C40.2405 423.479 112.241 526.498 244.632 526.498C377.023 526.498 441.479 413.495 441.479 336.852V127.894C441.479 99.2101 475.214 75.9521 501.285 76.3895C527.357 76.8269 558.771 97.4578 558.771 126.141V453.915C564.408 517.22 611.031 640.049 755.616 640.049C919.944 640.049 960.591 507.767 960.591 466.795V230.328" stroke="#AE1115" stroke-width="5"/>
<path d="M56.4991 -2.50098L56.4991 228.568L56.4996 323.39C50.1123 415.136 125.017 509.526 246.376 509.526C367.734 509.526 425.801 398.775 425.801 324.123V123.983C425.801 96.0442 455.995 58.6626 500.126 59.4179C544.256 60.1732 576.193 96.0446 576.193 123.983V452.159C576.193 521.812 642.39 620.73 746.667 624.543C904.567 630.318 943.753 495.698 943.753 455.79L943.753 230.328" stroke="#AE1115" stroke-width="5"/>
<path d="M75.4551 -2.50098L75.4551 224.001L75.4556 316.286C75.4559 419.967 141.278 491.376 245.826 491.376C350.373 491.376 407.231 401.237 407.231 316.286V122.213C407.231 86.9227 450.781 42.4386 502.46 42.4387C554.139 42.4387 592.463 84.5814 596.527 122.213V442.21C596.527 509.999 654.594 606.683 754.468 606.683C896.15 606.683 929.828 483.986 929.828 445.145V230.328" stroke="#AE1115" stroke-width="5"/>
<path d="M91.3398 -2.50098L91.3398 218.519L91.3403 308.315C91.3403 417.627 149.987 476.744 241.732 476.744C333.477 476.744 390.962 398.311 390.962 307.587V119.477C390.962 78.1434 431.609 26.0503 500.127 26.0503C568.646 26.0503 614.518 82.8259 614.518 119.477V433.699C614.518 499.66 659.81 591.466 763.168 591.466C874.656 591.466 914.141 484.353 910.076 433.699V230.328" stroke="#AE1115" stroke-width="5"/>
<path d="M108.76 -2.50098L108.76 213.526L108.76 300.719C108.76 400.653 153.471 458.599 237.667 458.599C321.863 458.599 372.381 398.897 372.381 300.719V117.354C372.381 77.2189 422.899 8.49094 500.708 8.49094C578.517 8.49094 629.035 81.7657 629.035 117.354V423.48C629.035 487.53 662.713 575.662 757.942 575.662C853.171 575.662 893.547 503.668 893.547 422.469V230.328" stroke="#AE1115" stroke-width="5"/>
</svg>
