<svg width="541" height="638" viewBox="0 0 541 638" fill="none" xmlns="http://www.w3.org/2000/svg">
<path d="M2.5 637.5L2.5 242.373C2.5 163.167 88.3843 10.597 260.957 2.77522C435.661 -5.14318 538.389 159.869 538.389 229.834V636.937" stroke="#AE1115" stroke-width="5"/>
<path d="M22.7812 637.5L22.7813 248.314C22.7813 165.117 97.3741 24.4649 262.92 23.0127C443.188 21.4314 513.803 168.627 518.125 252.307L518.125 636.937" stroke="#AE1115" stroke-width="5"/>
<path d="M45.0254 636.937L45.0254 260.158C45.0279 156.569 126.161 40.3958 275.346 40.3958C424.532 40.3958 497.164 167.827 497.164 254.256L497.164 636.937" stroke="#AE1115" stroke-width="5"/>
<path d="M63.3488 636.937L63.3488 376.365L63.3494 269.437C56.1519 165.977 140.558 59.5352 277.311 59.5352C414.064 59.5352 479.496 184.426 479.496 268.61L479.496 636.937" stroke="#AE1115" stroke-width="5"/>
<path d="M84.7095 636.937L84.7095 381.515L84.71 277.447C84.7104 160.528 158.883 80.0022 276.692 80.0022C394.501 80.0022 458.571 181.65 458.571 277.447L458.571 636.937" stroke="#AE1115" stroke-width="5"/>
<path d="M102.609 636.937L102.609 387.697L102.61 286.436C102.61 163.168 168.696 96.5029 272.079 96.5029C375.461 96.5029 440.239 184.949 440.239 287.257L440.239 636.937" stroke="#AE1115" stroke-width="5"/>
<path d="M122.239 636.937L122.239 393.328L122.239 295.002C122.239 182.309 172.621 116.964 267.498 116.964C362.375 116.964 419.301 184.289 419.301 295.002L419.301 636.937" stroke="#AE1115" stroke-width="5"/>
</svg>
