<svg width="107" height="103" viewBox="0 0 107 103" fill="none" xmlns="http://www.w3.org/2000/svg">
<path d="M33.5 25.5V21.5C33.5 16.1957 35.6071 11.1086 39.3579 7.35786C43.1086 3.60714 48.1957 1.5 53.5 1.5C58.8043 1.5 63.8914 3.60714 67.6421 7.35786C71.3929 11.1086 73.5 16.1957 73.5 21.5V25.5M89.5 25.5H17.5C13.2565 25.5 9.18687 27.1857 6.18629 30.1863C3.18571 33.1869 1.5 37.2565 1.5 41.5V85.5C1.5 89.7435 3.18571 93.8131 6.18629 96.8137C9.18687 99.8143 13.2565 101.5 17.5 101.5H89.5C93.7435 101.5 97.8131 99.8143 100.814 96.8137C103.814 93.8131 105.5 89.7435 105.5 85.5V41.5C105.5 37.2565 103.814 33.1869 100.814 30.1863C97.8131 27.1857 93.7435 25.5 89.5 25.5Z" stroke="black" stroke-width="3" stroke-linecap="round" stroke-linejoin="round"/>
<path d="M41.5 53.5C41.5 51.1266 42.2038 48.8066 43.5224 46.8332C44.8409 44.8598 46.7151 43.3217 48.9078 42.4135C51.1005 41.5052 53.5133 41.2676 55.8411 41.7306C58.1689 42.1936 60.3071 43.3365 61.9853 45.0147C63.6635 46.693 64.8064 48.8312 65.2694 51.1589C65.7324 53.4867 65.4948 55.8995 64.5866 58.0922C63.6783 60.2849 62.1402 62.1591 60.1668 63.4776C58.1935 64.7962 55.8734 65.5 53.5 65.5V69.5M53.516 85.5C52.9856 85.5 52.4769 85.2893 52.1018 84.9142C51.7267 84.5391 51.516 84.0304 51.516 83.5C51.516 82.9696 51.7267 82.4609 52.1018 82.0858C52.4769 81.7107 52.9856 81.5 53.516 81.5C54.0464 81.5 54.5551 81.7107 54.9302 82.0858C55.3053 82.4609 55.516 82.9696 55.516 83.5C55.516 84.0304 55.3053 84.5391 54.9302 84.9142C54.5551 85.2893 54.0464 85.5 53.516 85.5Z" stroke="black" stroke-width="3" stroke-linecap="round" stroke-linejoin="round"/>
</svg>
