<svg width="271" height="998" viewBox="0 0 271 998" fill="none" xmlns="http://www.w3.org/2000/svg">
<rect x="22.2607" y="3.5" width="258.428" height="195.803" stroke="#0A2A43" stroke-linecap="round"/>
<line x1="22.9756" y1="1.5" x2="280.064" y2="1.5" stroke="#0A2A43" stroke-width="3" stroke-linecap="round"/>
<line x1="23.2607" y1="225.855" x2="279.689" y2="225.855" stroke="#0A2A43" stroke-width="3" stroke-linecap="round"/>
<line x1="23.2607" y1="288.831" x2="279.689" y2="288.831" stroke="#0A2A43" stroke-width="3" stroke-linecap="round"/>
<line x1="23.2607" y1="343.937" x2="279.689" y2="343.937" stroke="#0A2A43" stroke-width="3" stroke-linecap="round"/>
<line x1="2" y1="-2" x2="649.302" y2="-2" transform="matrix(0.156412 0.987692 -0.9837 0.179815 206.004 343.961)" stroke="#0A2A43" stroke-width="4" stroke-linecap="round"/>
<line x1="2" y1="-2" x2="650.242" y2="-2" transform="matrix(-0.156091 0.987743 -0.983767 -0.179449 101.809 343.106)" stroke="#0A2A43" stroke-width="4" stroke-linecap="round"/>
<line x1="2" y1="-2" x2="652.051" y2="-2" transform="matrix(0.00617359 0.999981 -0.999975 0.00712607 151.918 343.961)" stroke="#0A2A43" stroke-width="4" stroke-linecap="round"/>
<line x1="46.6328" y1="3.5" x2="46.6328" y2="199.044" stroke="#0A2A43" stroke-linecap="round"/>
<line x1="90.3789" y1="3.5" x2="90.3789" y2="199.044" stroke="#0A2A43" stroke-linecap="round"/>
<line x1="147.131" y1="3.5" x2="147.131" y2="199.044" stroke="#0A2A43" stroke-linecap="round"/>
<line x1="0.5" y1="-0.5" x2="196.313" y2="-0.5" transform="matrix(-0.00267549 0.999996 -0.999995 -0.00308828 207.596 3)" stroke="#0A2A43" stroke-linecap="round"/>
<line x1="0.5" y1="-0.5" x2="196.314" y2="-0.5" transform="matrix(-0.00431329 0.999991 -0.999988 -0.00497877 244.978 3)" stroke="#0A2A43" stroke-linecap="round"/>
</svg>
