<svg width="365" height="1426" viewBox="0 0 365 1426" fill="none" xmlns="http://www.w3.org/2000/svg">
<rect x="31.605" y="3.5" width="369.828" height="280.311" stroke="#AE1115" stroke-linecap="round"/>
<line x1="32.1963" y1="1.5" x2="400.97" y2="1.5" stroke="#AE1115" stroke-width="3" stroke-linecap="round"/>
<line x1="32.605" y1="322.196" x2="400.433" y2="322.196" stroke="#AE1115" stroke-width="3" stroke-linecap="round"/>
<line x1="32.605" y1="412.213" x2="400.433" y2="412.213" stroke="#AE1115" stroke-width="3" stroke-linecap="round"/>
<line x1="32.605" y1="490.982" x2="400.433" y2="490.982" stroke="#AE1115" stroke-width="3" stroke-linecap="round"/>
<line x1="2" y1="-2" x2="928.976" y2="-2" transform="matrix(0.156412 0.987692 -0.9837 0.179815 294.464 490.373)" stroke="#AE1115" stroke-width="4" stroke-linecap="round"/>
<line x1="2" y1="-2" x2="930.32" y2="-2" transform="matrix(-0.156091 0.987743 -0.983767 -0.179449 145.527 489.151)" stroke="#AE1115" stroke-width="4" stroke-linecap="round"/>
<line x1="2" y1="-2" x2="932.907" y2="-2" transform="matrix(0.00617359 0.999981 -0.999975 0.00712607 217.153 490.373)" stroke="#AE1115" stroke-width="4" stroke-linecap="round"/>
<line x1="66.4424" y1="3.5" x2="66.4424" y2="283.441" stroke="#AE1115" stroke-linecap="round"/>
<line x1="128.974" y1="3.5" x2="128.974" y2="283.441" stroke="#AE1115" stroke-linecap="round"/>
<line x1="210.095" y1="3.49951" x2="210.095" y2="283.441" stroke="#AE1115" stroke-linecap="round"/>
<line x1="0.5" y1="-0.5" x2="280.827" y2="-0.5" transform="matrix(-0.00267549 0.999996 -0.999995 -0.00308828 296.738 3)" stroke="#AE1115" stroke-linecap="round"/>
<line x1="0.5" y1="-0.5" x2="280.828" y2="-0.5" transform="matrix(-0.00431329 0.999991 -0.999988 -0.00497877 350.173 3)" stroke="#AE1115" stroke-linecap="round"/>
</svg>
